<?xml version="1.0" encoding="utf-8"?>
<!-- Generator: Adobe Illustrator 15.0.0, SVG Export Plug-In . SVG Version: 6.00 Build 0)  -->
<!DOCTYPE svg PUBLIC "-//W3C//DTD SVG 1.1//EN" "http://www.w3.org/Graphics/SVG/1.1/DTD/svg11.dtd">
<svg version="1.1" id="レイヤー_1" xmlns="http://www.w3.org/2000/svg" xmlns:xlink="http://www.w3.org/1999/xlink" x="0px"
	 y="0px" width="300px" height="306.5px" viewBox="0 0 300 306.5" enable-background="new 0 0 300 306.5" xml:space="preserve">
<g id="レイヤー_1_1_">
	<g>
		<path fill="none" stroke="#E5E0DD" stroke-width="1.25" stroke-linejoin="round" stroke-miterlimit="10" d="M161.042,24.919
			c-39.25,0-57-5.5-57-5.5s-5,39.25-4.75,52s6.75,210.75,6.75,210.75h42.25l11-198.5c0,0,0-4.25,1.75-4.25"/>
		<path fill="none" stroke="#E5E0DD" stroke-width="1.25" stroke-linejoin="round" stroke-miterlimit="10" d="M102.923,28.626
			c0,0,27.369,5.293,58.119,5.293"/>
		<path fill="none" stroke="#E5E0DD" stroke-width="1.25" stroke-linejoin="round" stroke-miterlimit="10" d="M136.314,32.89
			c0,0-4.332,17.029-20.021,17.029c-10.265,0-15.66,0-15.66,0"/>
		<path fill="none" stroke="#E5E0DD" stroke-width="1.25" stroke-linejoin="round" stroke-miterlimit="10" d="M161.042,24.919
			c39.25,0,57-5.5,57-5.5s5,39.25,4.75,52s-6.75,210.75-6.75,210.75h-42.25l-11-198.5c0,0,0-4.25-1.75-4.25"/>
		<path fill="none" stroke="#E5E0DD" stroke-width="1.25" stroke-linejoin="round" stroke-miterlimit="10" d="M219.157,28.626
			c0,0-20.808,4.023-46.521,5.055c-3.777,0.151-7.66,0.238-11.598,0.238"/>
		<path fill="none" stroke="#E5E0DD" stroke-width="1.25" stroke-linejoin="round" stroke-miterlimit="10" d="M185.77,32.89
			c0,0,4.332,17.029,20.022,17.029c10.263,0,15.656,0,15.656,0"/>
	</g>
</g>
<g id="レイヤー_2">
	<g>
		<g>
			
				<line fill="none" stroke="#57514F" stroke-miterlimit="10" stroke-dasharray="2,2" x1="105.426" y1="19.419" x2="214.421" y2="19.419"/>
			<g>
				<path fill="#57514F" d="M101.805,19.419c1.704,0.632,3.818,1.711,5.128,2.854l-1.032-2.854l1.032-2.854
					C105.623,17.709,103.509,18.787,101.805,19.419z"/>
			</g>
			<g>
				<path fill="#57514F" d="M218.042,19.419c-1.704,0.632-3.817,1.711-5.131,2.854l1.03-2.854l-1.03-2.854
					C214.225,17.709,216.338,18.787,218.042,19.419z"/>
			</g>
		</g>
	</g>
	<g>
		<g>
			
				<line fill="none" stroke="#57514F" stroke-miterlimit="10" stroke-dasharray="2,2" x1="90.674" y1="29.29" x2="90.674" y2="284.798"/>
			<g>
				<path fill="#57514F" d="M90.674,25.669c-0.632,1.704-1.711,3.818-2.854,5.128l2.854-1.032l2.853,1.032
					C92.384,29.487,91.306,27.373,90.674,25.669z"/>
			</g>
			<g>
				<path fill="#57514F" d="M90.674,288.419c-0.632-1.704-1.711-3.817-2.854-5.129l2.854,1.031l2.853-1.031
					C92.384,284.602,91.306,286.715,90.674,288.419z"/>
			</g>
		</g>
	</g>
	<g>
		<g>
			
				<line fill="none" stroke="#57514F" stroke-miterlimit="10" stroke-dasharray="2,2" x1="103.135" y1="86.919" x2="155.018" y2="86.919"/>
			<g>
				<path fill="#57514F" d="M99.514,86.919c1.704,0.632,3.818,1.711,5.128,2.854l-1.032-2.854l1.032-2.854
					C103.332,85.209,101.218,86.287,99.514,86.919z"/>
			</g>
			<g>
				<path fill="#57514F" d="M158.639,86.919c-1.703,0.632-3.818,1.711-5.127,2.854l1.031-2.854l-1.031-2.854
					C154.82,85.209,156.936,86.287,158.639,86.919z"/>
			</g>
		</g>
	</g>
	<g>
		<g>
			
				<line fill="none" stroke="#57514F" stroke-miterlimit="10" stroke-dasharray="2,2" x1="108.795" y1="292.919" x2="142.553" y2="292.919"/>
			<g>
				<path fill="#57514F" d="M105.174,292.919c1.704,0.632,3.818,1.711,5.128,2.854l-1.032-2.854l1.032-2.854
					C108.992,291.209,106.878,292.287,105.174,292.919z"/>
			</g>
			<g>
				<path fill="#57514F" d="M146.174,292.919c-1.704,0.632-3.818,1.711-5.128,2.854l1.032-2.854l-1.032-2.854
					C142.356,291.209,144.47,292.287,146.174,292.919z"/>
			</g>
		</g>
	</g>
	<g>
		<g>
			
				<line fill="none" stroke="#57514F" stroke-miterlimit="10" stroke-dasharray="2,2" x1="164.878" y1="88.034" x2="175.936" y2="284.189"/>
			<g>
				<path fill="#57514F" d="M164.674,84.419c-0.535,1.736-1.492,3.908-2.563,5.281l2.791-1.191l2.906,0.87
					C166.598,88.135,165.4,86.085,164.674,84.419z"/>
			</g>
			<g>
				<polygon fill="#57514F" points="176.174,288.419 173.402,282.596 175.918,283.873 178.271,282.321 				"/>
			</g>
		</g>
	</g>
	
		<line fill="none" stroke="#57514F" stroke-miterlimit="10" stroke-dasharray="2,2" x1="102.924" y1="25.669" x2="74.674" y2="25.669"/>
	
		<line fill="none" stroke="#57514F" stroke-miterlimit="10" stroke-dasharray="2,2" x1="102.924" y1="288.419" x2="74.674" y2="288.419"/>
</g>
<g id="レイヤー_3">
	<g>
		<circle fill="#57514F" cx="159.625" cy="17.448" r="11"/>
		<g enable-background="new    ">
			<path fill="#FFFFFF" d="M155.788,21.475l3.147-8.203h1.172l3.353,8.203h-1.233l-0.953-2.484h-3.431l-0.905,2.484H155.788z
				 M158.156,18.107h2.781l-0.858-2.273c-0.261-0.688-0.453-1.253-0.578-1.695c-0.104,0.526-0.252,1.047-0.444,1.563L158.156,18.107
				z"/>
		</g>
	</g>
	<g>
		<circle fill="#57514F" cx="131.306" cy="88.278" r="11"/>
		<g enable-background="new    ">
			<path fill="#FFFFFF" d="M128.322,92.308v-8.203h3.078c0.625,0,1.128,0.084,1.509,0.25c0.381,0.168,0.678,0.424,0.891,0.771
				c0.214,0.347,0.32,0.707,0.32,1.082c0,0.349-0.096,0.679-0.285,0.987c-0.189,0.311-0.479,0.563-0.863,0.755
				c0.5,0.141,0.883,0.387,1.148,0.737c0.265,0.352,0.397,0.768,0.397,1.246c0,0.381-0.08,0.735-0.242,1.066
				c-0.161,0.331-0.36,0.586-0.602,0.766c-0.239,0.18-0.539,0.315-0.898,0.406c-0.358,0.091-0.799,0.137-1.319,0.137H128.322z
				 M129.407,87.55h1.772c0.484,0,0.831-0.031,1.039-0.094c0.276-0.083,0.483-0.221,0.621-0.41c0.139-0.189,0.207-0.429,0.207-0.715
				c0-0.271-0.064-0.51-0.195-0.715c-0.13-0.206-0.315-0.348-0.559-0.426s-0.657-0.117-1.246-0.117h-1.642v2.477H129.407z
				 M129.407,91.339h2.047c0.35,0,0.594-0.013,0.733-0.039c0.25-0.042,0.46-0.115,0.629-0.223c0.17-0.106,0.309-0.26,0.414-0.457
				c0.107-0.198,0.16-0.428,0.16-0.688c0-0.309-0.078-0.574-0.234-0.802c-0.155-0.228-0.372-0.386-0.651-0.478
				c-0.278-0.09-0.678-0.137-1.199-0.137h-1.897L129.407,91.339L129.407,91.339z"/>
		</g>
	</g>
	<g>
		<circle fill="#57514F" cx="170.292" cy="181.167" r="11"/>
		<g enable-background="new    ">
			<path fill="#FFFFFF" d="M172.891,182.318l1.086,0.273c-0.229,0.891-0.642,1.57-1.229,2.039c-0.593,0.469-1.313,0.703-2.168,0.703
				c-0.882,0-1.599-0.18-2.152-0.539c-0.553-0.359-0.978-0.88-1.266-1.563c-0.289-0.685-0.435-1.418-0.435-2.203
				c0-0.854,0.162-1.601,0.487-2.234c0.324-0.636,0.789-1.118,1.396-1.449c0.604-0.33,1.269-0.496,1.992-0.496
				c0.815,0,1.506,0.211,2.065,0.629c0.56,0.42,0.949,1.008,1.168,1.764l-1.069,0.25c-0.188-0.596-0.464-1.027-0.824-1.303
				c-0.362-0.271-0.815-0.41-1.362-0.41c-0.632,0-1.158,0.152-1.582,0.453c-0.427,0.304-0.724,0.709-0.896,1.221
				c-0.172,0.511-0.259,1.036-0.259,1.576c0,0.693,0.103,1.302,0.306,1.82c0.203,0.521,0.521,0.91,0.949,1.168
				c0.428,0.258,0.896,0.387,1.396,0.387c0.608,0,1.122-0.176,1.543-0.525C172.452,183.525,172.738,183.008,172.891,182.318z"/>
		</g>
	</g>
	<g>
		<circle fill="#57514F" cx="89.625" cy="150.5" r="11"/>
		<g enable-background="new    ">
			<path fill="#FFFFFF" d="M86.371,154.527v-8.202h2.828c0.636,0,1.121,0.039,1.461,0.117c0.469,0.108,0.869,0.308,1.202,0.594
				c0.434,0.363,0.756,0.831,0.97,1.398c0.214,0.566,0.319,1.215,0.319,1.944c0,0.625-0.072,1.179-0.219,1.66
				c-0.146,0.481-0.332,0.88-0.559,1.194c-0.228,0.315-0.477,0.563-0.746,0.743c-0.271,0.18-0.599,0.315-0.98,0.409
				c-0.381,0.095-0.82,0.142-1.315,0.142h-2.961V154.527z M87.457,153.56h1.75c0.542,0,0.966-0.051,1.272-0.151
				c0.308-0.101,0.552-0.243,0.734-0.427c0.261-0.254,0.462-0.601,0.604-1.035c0.144-0.434,0.216-0.961,0.216-1.582
				c0-0.854-0.142-1.512-0.423-1.973c-0.28-0.461-0.625-0.77-1.03-0.926c-0.292-0.113-0.759-0.172-1.398-0.172h-1.727L87.457,153.56
				L87.457,153.56z"/>
		</g>
	</g>
	<g>
		<circle fill="#57514F" cx="126.292" cy="292.5" r="11"/>
		<g enable-background="new    ">
			<path fill="#FFFFFF" d="M123.378,296.527v-8.202h5.93v0.969h-4.844v2.517h4.539v0.961h-4.539v2.789h5.031v0.969h-6.117V296.527z"
				/>
		</g>
	</g>
</g>
</svg>
