<?xml version="1.0" encoding="utf-8"?>
<!-- Generator: Adobe Illustrator 15.0.0, SVG Export Plug-In . SVG Version: 6.00 Build 0)  -->
<!DOCTYPE svg PUBLIC "-//W3C//DTD SVG 1.1//EN" "http://www.w3.org/Graphics/SVG/1.1/DTD/svg11.dtd">
<svg version="1.1" id="レイヤー_1" xmlns="http://www.w3.org/2000/svg" xmlns:xlink="http://www.w3.org/1999/xlink" x="0px"
	 y="0px" width="300px" height="197px" viewBox="0 0 300 197" enable-background="new 0 0 300 197" xml:space="preserve">
<g id="レイヤー_2_1_">
</g>
<g>
	<path fill="none" stroke="#E5E0DD" stroke-width="1.25" stroke-linejoin="round" stroke-miterlimit="10" d="M162.1,190.552
		c0-20.667,37.162-32.333,37.162-32.333l-1.664-12.334c0,0-9.666,9.334-44,9.334c-34.333,0-44-9.334-44-9.334l-1.667,12.334
		c0,0,37.164,11.666,37.164,32.333H162.1L162.1,190.552z"/>
	<path fill="none" stroke="#E5E0DD" stroke-width="1.25" stroke-linejoin="round" stroke-miterlimit="10" d="M174.32,58.738
		c1.253-11.23-1.264-20.098-4.952-26.811c3.528,2.391,7.294,4.521,10.973,5.864c0.171,0.063,0.347,0.091,0.517,0.091
		c0.609,0,1.188-0.377,1.406-0.984c0.285-0.777-0.113-1.641-0.895-1.925c-6.148-2.246-12.715-6.981-17.826-11.239
		c-0.563-0.629-5.309-4.461-5.859-5.019l6.474,3.233c3.62,1.396,7.442,2.601,10.626,2.601c0.001,0,0.001,0,0.001,0
		c4.884-0.001,7.573-2.899,7.573-8.167c0-5.268-3.064-8.167-8.629-8.167c-6.051,0-14.439,3.569-18.656,5.553
		c-0.615-0.786-1.563-1.303-2.639-1.303c-1.092,0-2.051,0.526-2.662,1.332c-4.277-1.978-12.827-5.582-18.958-5.582
		c-5.564,0-8.629,2.899-8.629,8.167c0,5.268,2.688,8.166,7.574,8.167l0,0c3.183,0,7.005-1.201,10.626-2.601l5.674-2.858
		c-0.158,0.159-3.379,3.185-3.539,3.349c-5.284,4.553-12.57,10.059-19.354,12.534c-0.775,0.284-1.179,1.146-0.894,1.925
		c0.222,0.607,0.797,0.984,1.409,0.984c0.171,0,0.345-0.027,0.515-0.091c3.866-1.412,7.826-3.697,11.509-6.234
		c-3.801,6.759-6.438,15.736-5.165,27.181c-6.063,5.522-18.335,18.645-21.778,32.887c0,0,15.172,11.334,43.671,4.833
		c0,0-3.165-23.875-18.887-37.845c-1.85-15.979,4.229-26.717,10.068-33.14c1.481-1.253,2.825-2.448,3.99-3.521l3.801-2.942
		c0.324,0.104,0.664,0.177,1.023,0.177c0.342,0,0.662-0.065,0.975-0.16l3.525,2.926c1.357,1.255,2.963,2.677,4.741,4.156
		c5.69,6.527,11.417,17.133,9.644,32.506c-15.721,13.97-18.885,37.844-18.885,37.844c28.5,6.501,43.672-4.833,43.672-4.833
		C192.656,77.384,180.385,64.264,174.32,58.738z M143.721,17.354c-4.462,1.87-10.019,4.198-13.966,4.198
		c-2.265,0-4.574-0.614-4.574-5.167c0-3.573,1.733-5.167,5.629-5.167c5.117,0,12.104,2.858,16.222,4.78
		C146.083,16.365,144.99,16.82,143.721,17.354z M160.814,17.354c-1.271-0.533-2.363-0.986-3.313-1.354
		c4.118-1.922,11.104-4.78,16.224-4.78c3.895,0,5.631,1.595,5.631,5.167c0,4.553-2.313,5.167-4.574,5.167
		C170.829,21.552,165.275,19.224,160.814,17.354z"/>
</g>
<g>
	<g>
		
			<line fill="none" stroke="#57514F" stroke-miterlimit="10" stroke-dasharray="2,2" x1="173.262" y1="65.173" x2="173.262" y2="94.915"/>
		<g>
			<path fill="#57514F" d="M173.262,61.551c-0.632,1.704-1.711,3.818-2.854,5.128l2.854-1.032l2.854,1.032
				C174.975,65.369,173.896,63.256,173.262,61.551z"/>
		</g>
		<g>
			<path fill="#57514F" d="M173.262,98.535c-0.632-1.702-1.711-3.817-2.854-5.127l2.854,1.031l2.854-1.031
				C174.975,94.718,173.896,96.833,173.262,98.535z"/>
		</g>
	</g>
</g>
<g>
	<g>
		
			<line fill="none" stroke="#57514F" stroke-miterlimit="10" stroke-dasharray="2,2" x1="203.262" y1="150.656" x2="203.262" y2="187.917"/>
		<g>
			<path fill="#57514F" d="M203.262,147.035c-0.634,1.705-1.712,3.816-2.854,5.13l2.854-1.031l2.854,1.031
				C204.975,150.855,203.895,148.74,203.262,147.035z"/>
		</g>
		<g>
			<path fill="#57514F" d="M203.262,191.537c-0.634-1.704-1.712-3.817-2.854-5.129l2.854,1.031l2.854-1.031
				C204.975,187.72,203.895,189.833,203.262,191.537z"/>
		</g>
	</g>
</g>
<g>
	<g>
		
			<line fill="none" stroke="#57514F" stroke-miterlimit="10" stroke-dasharray="2,2" x1="112.213" y1="105.561" x2="192.314" y2="105.561"/>
		<g>
			<path fill="#57514F" d="M108.592,105.561c1.704,0.631,3.815,1.711,5.128,2.854l-1.032-2.854l1.032-2.854
				C112.409,103.85,110.295,104.927,108.592,105.561z"/>
		</g>
		<g>
			<path fill="#57514F" d="M195.936,105.561c-1.703,0.631-3.817,1.711-5.127,2.854l1.029-2.854l-1.029-2.854
				C192.117,103.85,194.232,104.927,195.936,105.561z"/>
		</g>
	</g>
</g>
<g>
	<g>
		
			<line fill="none" stroke="#57514F" stroke-miterlimit="10" stroke-dasharray="2,2" x1="112.213" y1="144.703" x2="192.314" y2="144.703"/>
		<g>
			<path fill="#57514F" d="M108.592,144.703c1.704,0.632,3.815,1.712,5.128,2.854l-1.032-2.854l1.032-2.854
				C112.409,142.992,110.295,144.07,108.592,144.703z"/>
		</g>
		<g>
			<path fill="#57514F" d="M195.936,144.703c-1.703,0.632-3.817,1.712-5.127,2.854l1.029-2.854l-1.029-2.854
				C192.117,142.992,194.232,144.07,195.936,144.703z"/>
		</g>
	</g>
</g>
<line fill="none" stroke="#57514F" stroke-miterlimit="10" stroke-dasharray="2,2" x1="108.592" y1="107.535" x2="108.592" y2="89.535"/>
<line fill="none" stroke="#57514F" stroke-miterlimit="10" stroke-dasharray="2,2" x1="195.936" y1="107.535" x2="195.936" y2="89.535"/>
<line fill="none" stroke="#57514F" stroke-miterlimit="10" stroke-dasharray="2,2" x1="199.094" y1="147.035" x2="217.093" y2="147.035"/>
<line fill="none" stroke="#57514F" stroke-miterlimit="10" stroke-dasharray="2,2" x1="161.934" y1="191.537" x2="217.093" y2="191.537"/>
<g>
	<circle fill="#57514F" cx="153.177" cy="104.218" r="11"/>
	<g enable-background="new    ">
		<path fill="#FFFFFF" d="M149.343,108.244l3.147-8.202h1.172l3.354,8.202h-1.234l-0.953-2.483h-3.43l-0.906,2.483H149.343z
			 M151.71,104.878h2.781l-0.859-2.272c-0.261-0.688-0.452-1.254-0.577-1.694c-0.104,0.524-0.254,1.047-0.445,1.563L151.71,104.878z
			"/>
	</g>
</g>
<g>
	<circle fill="#57514F" cx="174.677" cy="80.218" r="11"/>
	<g enable-background="new    ">
		<path fill="#FFFFFF" d="M171.695,84.244v-8.202h3.078c0.625,0,1.127,0.083,1.508,0.25c0.38,0.167,0.677,0.423,0.891,0.771
			c0.213,0.346,0.32,0.706,0.32,1.081c0,0.349-0.096,0.679-0.285,0.988c-0.189,0.309-0.479,0.562-0.863,0.754
			c0.5,0.142,0.885,0.388,1.148,0.738s0.398,0.767,0.398,1.245c0,0.381-0.082,0.736-0.242,1.066
			c-0.162,0.331-0.362,0.586-0.604,0.766c-0.238,0.181-0.539,0.315-0.896,0.406c-0.359,0.092-0.801,0.137-1.32,0.137H171.695z
			 M172.781,79.488h1.771c0.484,0,0.83-0.031,1.039-0.095c0.275-0.083,0.482-0.22,0.621-0.409c0.139-0.19,0.207-0.43,0.207-0.716
			c0-0.271-0.064-0.509-0.193-0.715c-0.133-0.206-0.316-0.348-0.561-0.426s-0.658-0.117-1.246-0.117h-1.641L172.781,79.488
			L172.781,79.488z M172.781,83.277h2.047c0.349,0,0.594-0.014,0.734-0.039c0.25-0.043,0.459-0.117,0.629-0.224
			c0.168-0.106,0.307-0.259,0.414-0.457c0.104-0.198,0.16-0.427,0.16-0.688c0-0.308-0.078-0.573-0.234-0.801
			c-0.156-0.227-0.374-0.386-0.652-0.477c-0.277-0.091-0.679-0.137-1.199-0.137h-1.896L172.781,83.277L172.781,83.277z"/>
	</g>
</g>
<g>
	<circle fill="#57514F" cx="153.512" cy="142.884" r="11"/>
	<g enable-background="new    ">
		<path fill="#FFFFFF" d="M156.426,144.035l1.086,0.273c-0.229,0.891-0.641,1.569-1.229,2.039c-0.592,0.469-1.314,0.702-2.168,0.702
			c-0.881,0-1.598-0.18-2.152-0.539c-0.554-0.358-0.977-0.88-1.266-1.563c-0.289-0.685-0.435-1.418-0.435-2.203
			c0-0.854,0.162-1.601,0.488-2.234c0.324-0.636,0.789-1.118,1.396-1.448c0.604-0.33,1.268-0.496,1.99-0.496
			c0.816,0,1.508,0.211,2.066,0.629c0.559,0.42,0.949,1.008,1.168,1.763l-1.07,0.25c-0.188-0.595-0.463-1.026-0.822-1.302
			c-0.363-0.272-0.816-0.41-1.363-0.41c-0.631,0-1.158,0.152-1.582,0.453c-0.426,0.303-0.723,0.709-0.896,1.22
			c-0.172,0.511-0.258,1.036-0.258,1.577c0,0.693,0.104,1.301,0.307,1.82c0.201,0.521,0.52,0.91,0.947,1.168
			c0.43,0.258,0.896,0.387,1.396,0.387c0.607,0,1.123-0.176,1.543-0.526C155.99,145.242,156.275,144.725,156.426,144.035z"/>
	</g>
</g>
<g>
	<circle fill="#57514F" cx="202.343" cy="172.218" r="11"/>
	<g enable-background="new    ">
		<path fill="#FFFFFF" d="M199.407,176.244v-8.202h2.827c0.636,0,1.123,0.039,1.461,0.116c0.47,0.109,0.869,0.309,1.203,0.595
			c0.433,0.364,0.756,0.831,0.97,1.397c0.213,0.566,0.319,1.217,0.319,1.945c0,0.625-0.072,1.18-0.22,1.659
			c-0.146,0.479-0.331,0.88-0.559,1.195c-0.228,0.313-0.476,0.563-0.746,0.741c-0.271,0.18-0.599,0.315-0.979,0.41
			c-0.383,0.095-0.822,0.142-1.315,0.142L199.407,176.244L199.407,176.244z M200.493,175.277h1.75c0.541,0,0.966-0.053,1.272-0.152
			c0.308-0.102,0.553-0.243,0.733-0.426c0.26-0.256,0.462-0.602,0.604-1.035c0.144-0.436,0.215-0.963,0.215-1.582
			c0-0.854-0.142-1.512-0.422-1.973s-0.625-0.771-1.03-0.928c-0.292-0.113-0.759-0.172-1.398-0.172h-1.727L200.493,175.277
			L200.493,175.277z"/>
	</g>
</g>
</svg>
