<?xml version="1.0" encoding="utf-8"?>
<!-- Generator: Adobe Illustrator 15.0.0, SVG Export Plug-In . SVG Version: 6.00 Build 0)  -->
<!DOCTYPE svg PUBLIC "-//W3C//DTD SVG 1.1//EN" "http://www.w3.org/Graphics/SVG/1.1/DTD/svg11.dtd">
<svg version="1.1" id="レイヤー_1" xmlns="http://www.w3.org/2000/svg" xmlns:xlink="http://www.w3.org/1999/xlink" x="0px"
	 y="0px" width="300px" height="165.5px" viewBox="0 0 300 165.5" enable-background="new 0 0 300 165.5" xml:space="preserve">
<g id="レイヤー_1_1_">
	<g>
		<path fill="none" stroke="#E5E0DD" stroke-width="1.25" stroke-linejoin="round" stroke-miterlimit="10" d="M155.5,159.832
			c-55.333,0-57.165-16-57.165-16l1.5-83.333c0,0,9.189-3.136,10.667-10.999c2-10.667,2-40.25,2-40.25l14.417-4.75"/>
		<path fill="none" stroke="#E5E0DD" stroke-width="1.25" stroke-linejoin="round" stroke-miterlimit="10" d="M155.5,159.832
			c55.333,0,57.164-16,57.164-16l-1.5-83.333c0,0-8.137-3.409-10.665-10.999c-2.665-8-2-40.25-2-40.25L184.083,4.5"/>
		<path fill="none" stroke="#E5E0DD" stroke-width="1.25" stroke-linejoin="round" stroke-miterlimit="10" d="M184.083,4.5
			c-3.625,3.142-17.604,3.771-28.583,3.771c-10.979,0-24.957-0.629-28.582-3.771"/>
		<path fill="none" stroke="#E5E0DD" stroke-width="1.25" stroke-linejoin="round" stroke-miterlimit="10" d="M155.5,159.832"/>
		<path fill="none" stroke="#E5E0DD" stroke-width="1.25" stroke-linejoin="round" stroke-miterlimit="10" d="M184.083,4.5
			c0,0-0.935,26.333-28.583,26.333c-27.65,0-28.582-26.333-28.582-26.333"/>
	</g>
</g>
<g id="レイヤー_2">
	<g>
		<g>
			
				<line fill="none" stroke="#57514F" stroke-miterlimit="10" stroke-dasharray="2,2" x1="155.5" y1="11.892" x2="155.5" y2="156.211"/>
			<g>
				<path fill="#57514F" d="M155.5,8.271c-0.632,1.704-1.711,3.818-2.854,5.128l2.854-1.032l2.854,1.032
					C157.211,12.088,156.133,9.975,155.5,8.271z"/>
			</g>
			<g>
				<path fill="#57514F" d="M155.5,159.832c-0.632-1.704-1.711-3.818-2.854-5.129l2.854,1.031l2.854-1.031
					C157.211,156.014,156.133,158.128,155.5,159.832z"/>
			</g>
		</g>
	</g>
	<g>
		<g>
			
				<line fill="none" stroke="#57514F" stroke-miterlimit="10" stroke-dasharray="2,2" x1="103.456" y1="60.499" x2="207.546" y2="60.499"/>
			<g>
				<path fill="#57514F" d="M99.835,60.499c1.704,0.632,3.815,1.711,5.128,2.854l-1.032-2.854l1.032-2.853
					C103.652,58.789,101.539,59.867,99.835,60.499z"/>
			</g>
			<g>
				<path fill="#57514F" d="M211.164,60.499c-1.701,0.632-3.814,1.711-5.128,2.854l1.03-2.854l-1.03-2.853
					C207.35,58.789,209.463,59.867,211.164,60.499z"/>
			</g>
		</g>
	</g>
</g>
<g id="レイヤー_3">
	<g>
		<circle fill="#57514F" cx="182.014" cy="58.779" r="11"/>
		<g enable-background="new    ">
			<path fill="#FFFFFF" d="M178.177,62.806l3.147-8.203h1.172l3.354,8.203h-1.234l-0.953-2.484h-3.43l-0.906,2.484H178.177z
				 M180.544,59.438h2.78l-0.858-2.273c-0.263-0.688-0.452-1.253-0.577-1.695c-0.105,0.526-0.255,1.047-0.445,1.563L180.544,59.438z
				"/>
		</g>
	</g>
	<g>
		<circle fill="#57514F" cx="156.182" cy="109.611" r="11"/>
		<g enable-background="new    ">
			<path fill="#FFFFFF" d="M153.197,113.639v-8.203h3.078c0.625,0,1.127,0.084,1.508,0.25c0.381,0.168,0.679,0.424,0.892,0.771
				c0.214,0.348,0.319,0.707,0.319,1.082c0,0.35-0.096,0.679-0.284,0.986c-0.188,0.312-0.479,0.563-0.862,0.755
				c0.5,0.142,0.883,0.388,1.146,0.737c0.266,0.353,0.398,0.769,0.398,1.246c0,0.381-0.08,0.735-0.242,1.066
				s-0.361,0.586-0.603,0.766c-0.239,0.18-0.539,0.315-0.897,0.406c-0.359,0.091-0.799,0.137-1.319,0.137H153.197z M154.282,108.881
				h1.772c0.483,0,0.83-0.031,1.038-0.094c0.275-0.083,0.482-0.221,0.621-0.41c0.14-0.189,0.207-0.429,0.207-0.715
				c0-0.271-0.063-0.51-0.194-0.715c-0.131-0.206-0.316-0.348-0.56-0.426s-0.657-0.117-1.246-0.117h-1.642L154.282,108.881
				L154.282,108.881z M154.282,112.67h2.047c0.351,0,0.594-0.013,0.733-0.039c0.25-0.042,0.459-0.115,0.629-0.223
				c0.17-0.106,0.309-0.26,0.414-0.457c0.106-0.198,0.16-0.428,0.16-0.688c0-0.31-0.078-0.574-0.234-0.803
				c-0.155-0.229-0.373-0.386-0.651-0.479c-0.278-0.09-0.678-0.137-1.198-0.137h-1.897L154.282,112.67L154.282,112.67z"/>
		</g>
	</g>
</g>
</svg>
