<?xml version="1.0" encoding="utf-8"?>
<!-- Generator: Adobe Illustrator 15.0.0, SVG Export Plug-In . SVG Version: 6.00 Build 0)  -->
<!DOCTYPE svg PUBLIC "-//W3C//DTD SVG 1.1//EN" "http://www.w3.org/Graphics/SVG/1.1/DTD/svg11.dtd">
<svg version="1.1" id="レイヤー_1" xmlns="http://www.w3.org/2000/svg" xmlns:xlink="http://www.w3.org/1999/xlink" x="0px"
	 y="0px" width="300px" height="299.5px" viewBox="0 0 300 299.5" enable-background="new 0 0 300 299.5" xml:space="preserve">
<g id="レイヤー_2_1_">
</g>
<path fill="none" stroke="#E5E0DD" stroke-width="1.25" stroke-linejoin="round" stroke-miterlimit="10" d="M128.335,85.311
	c-26.68-2.904-56.146-6.148-56.146-6.148c-1.838-0.137-5.753-0.452-10.215,1.692"/>
<path fill="none" stroke="#E5E0DD" stroke-width="1.25" stroke-linejoin="round" stroke-miterlimit="10" d="M57.095,82.729
	c-5.301,2.604-13.956,6.528-15.865,7.453c-3.105,1.504-4.365,2.163-2.959,11.274c1.521,9.872,5.667,49.333,5.667,49.333
	s0.333,7.334,6.667,8.334s84.667,12.666,84.667,12.666s8,1.333,13.667,0c5.667-1.333,12.667-5.333,12.667-5.333s4-1.667,5.334-6
	s12.334-62,12.334-62s2.832-7.166-3.668-8c-1.779-0.229-21.721-2.289-42.958-4.604"/>
<path fill="none" stroke="#E5E0DD" stroke-width="1.25" stroke-linejoin="round" stroke-miterlimit="10" d="M41.687,95.374
	c0.892,0.612,17.392,0.993,42.5,3.75c24.65,2.708,62.254,9.477,68.75,8c5.5-1.25,27.272-11.254,24.069-13.5"/>
<path fill="none" stroke="#E5E0DD" stroke-width="1.25" stroke-linejoin="round" stroke-miterlimit="10" d="M151.188,109.624
	c0,0-3.132,40.269-7.75,60.5"/>
<path fill="none" stroke="#E5E0DD" stroke-width="1.25" stroke-linejoin="round" stroke-miterlimit="10" d="M54.147,96.404
	c0.231-1.992,6.138-48.78,38.79-48.78c10.205,0,19.006,3.903,26.16,11.602c12.918,13.903,16.486,35.973,15.708,46.617"/>
<path fill="none" stroke="#E5E0DD" stroke-width="1.25" stroke-linejoin="round" stroke-miterlimit="10" d="M130.815,105.55
	c0.729-9.973-2.595-30.629-14.649-43.602c-6.365-6.851-14.181-10.324-23.229-10.324c-29.135,0-34.768,44.797-34.817,45.249"/>
<path fill="none" stroke="#E5E0DD" stroke-width="1.25" stroke-linejoin="round" stroke-miterlimit="10" d="M101.463,52.751
	c-10.521,11.562-14.35,27.813-14.405,28.066"/>
<path fill="none" stroke="#E5E0DD" stroke-width="1.25" stroke-linejoin="round" stroke-miterlimit="10" d="M159.786,88.758
	c0.815-11.122-1.613-27.752-11.153-38.02c-5.772-6.217-13.508-9.369-22.979-9.369c-8.642,0-15.534,3.394-20.961,8.19"/>
<path fill="none" stroke="#E5E0DD" stroke-width="1.25" stroke-linejoin="round" stroke-miterlimit="10" d="M100.164,48.323
	c6.356-6.271,14.71-10.954,25.489-10.954c10.629,0,19.346,3.582,25.912,10.646c10.416,11.21,13.086,29.111,12.209,41.035"/>
<path fill="none" stroke="#E5E0DD" stroke-width="1.25" stroke-linejoin="round" stroke-miterlimit="10" d="M82.612,80.294
	c0.059-0.259,3.956-16.078,14.304-28.437"/>
<g>
	
		<ellipse transform="matrix(-0.0746 -0.9972 0.9972 -0.0746 -90.3085 441.9494)" fill="none" stroke="#E5E0DD" stroke-width="1.25" stroke-linejoin="round" stroke-miterlimit="10" cx="159.906" cy="262.877" rx="29" ry="21.33"/>
	
		<line fill="none" stroke="#E5E0DD" stroke-width="1.25" stroke-linejoin="round" stroke-miterlimit="10" x1="191.482" y1="226.923" x2="156.041" y2="234.184"/>
	
		<line fill="none" stroke="#E5E0DD" stroke-width="1.25" stroke-linejoin="round" stroke-miterlimit="10" x1="243.044" y1="216.361" x2="194.598" y2="226.284"/>
	<path fill="none" stroke="#E5E0DD" stroke-width="1.25" stroke-linejoin="round" stroke-miterlimit="10" d="M162.09,291.788
		c0,0,75.063-16.631,102.666-27.333c0,0,12.547-8.569,8.514-27.666c-5-23.667-24.18-21.667-24.18-21.667l-3.09,0.634"/>
	<g>
		<path fill="none" stroke="#E5E0DD" stroke-width="1.25" stroke-linejoin="round" stroke-miterlimit="10" d="M203.563,192.332
			c-3.924-3.09-8.563-4.84-14.014-4.063c-20.352,2.906-24.152,30.438-24.771,44.248l3.078-0.631
			c0.738-13.271,4.498-38.134,22.117-40.646c4.394-0.628,8.228,0.771,11.531,3.319C202.152,193.773,202.836,193.031,203.563,192.332
			z"/>
		<path fill="none" stroke="#E5E0DD" stroke-width="1.25" stroke-linejoin="round" stroke-miterlimit="10" d="M205.848,194.361
			c-0.728,0.691-1.402,1.439-2.047,2.232c7.033,7.018,11.32,18.985,13.188,25.229l2.97-0.608
			C218.073,214.742,213.588,202.02,205.848,194.361z"/>
	</g>
	<path fill="none" stroke="#E5E0DD" stroke-width="1.25" stroke-linejoin="round" stroke-miterlimit="10" d="M194.303,233.335
		c0.146-13.397,2.766-40.545,21.291-43.978c5.497-1.021,10.391,0.059,14.537,3.195c10.113,7.646,13.521,25.428,14.418,31.616
		c1.036-0.188,2.023-0.362,2.965-0.532c-0.945-6.662-4.508-25.104-15.563-33.476c-4.854-3.671-10.536-4.938-16.898-3.757
		c-21.215,3.929-23.771,33.584-23.788,47.494C192.202,233.729,193.221,233.536,194.303,233.335z"/>
	
		<line fill="none" stroke="#E5E0DD" stroke-width="1.25" stroke-linejoin="round" stroke-miterlimit="10" x1="191.165" y1="230.514" x2="166.417" y2="235.708"/>
	
		<line fill="none" stroke="#E5E0DD" stroke-width="1.25" stroke-linejoin="round" stroke-miterlimit="10" x1="243.732" y1="219.504" x2="194.125" y2="229.665"/>
	
		<line fill="none" stroke="#E5E0DD" stroke-width="1.25" stroke-linejoin="round" stroke-miterlimit="10" x1="247.004" y1="218.876" x2="258.139" y2="216.595"/>
</g>
<g>
	<g>
		<g>
			
				<line fill="none" stroke="#57514F" stroke-miterlimit="10" stroke-dasharray="2,2" x1="46.118" y1="89.405" x2="147.432" y2="102.011"/>
			<g>
				<path fill="#57514F" d="M42.526,88.958c1.613,0.838,3.578,2.168,4.737,3.465l-0.676-2.959l1.376-2.705
					C46.526,87.731,44.294,88.542,42.526,88.958z"/>
			</g>
			<g>
				<path fill="#57514F" d="M151.025,102.458c-1.771,0.416-4,1.227-5.44,2.197l1.376-2.703l-0.672-2.959
					C147.448,100.288,149.412,101.62,151.025,102.458z"/>
			</g>
		</g>
	</g>
	<g>
		<g>
			<path fill="none" stroke="#57514F" stroke-miterlimit="10" stroke-dasharray="2,2" d="M53.282,83.983
				c2.283-12.039,12.016-50.286,43.32-48.526c35.536,1.998,43.243,45.792,44.75,58.793"/>
			<g>
				<path fill="#57514F" d="M52.692,87.554c0.92-1.568,2.353-3.461,3.707-4.551l-2.99,0.518l-2.628-1.516
					C51.675,83.495,52.367,85.765,52.692,87.554z"/>
			</g>
			<g>
				<path fill="#57514F" d="M141.692,97.86c-0.806-1.629-2.103-3.619-3.372-4.805l2.945,0.729l2.729-1.324
					C142.995,93.884,142.143,96.099,141.692,97.86z"/>
			</g>
		</g>
	</g>
	<g>
		<g>
			
				<line fill="none" stroke="#57514F" stroke-miterlimit="10" stroke-dasharray="2,2" x1="184.952" y1="88.503" x2="172.427" y2="148.579"/>
			<g>
				<path fill="#57514F" d="M185.693,84.958c-0.971,1.539-2.455,3.389-3.84,4.438l3.004-0.428l2.582,1.592
					C186.587,89.044,185.962,86.755,185.693,84.958z"/>
			</g>
			<g>
				<path fill="#57514F" d="M171.693,152.124c-0.271-1.797-0.896-4.088-1.748-5.604l2.584,1.594l3.004-0.431
					C174.146,148.735,172.657,150.585,171.693,152.124z"/>
			</g>
		</g>
	</g>
	<g>
		<g>
			<path fill="none" stroke="#57514F" stroke-miterlimit="10" stroke-dasharray="2,2" d="M167.3,159.984
				c-3.354,1.888-9.735,4.959-20.471,8.341"/>
			<g>
				<path fill="#57514F" d="M170.359,158.05c-1.785,0.341-4.152,0.511-5.865,0.209l2.359,1.908l0.592,2.978
					C167.973,161.486,169.225,159.473,170.359,158.05z"/>
			</g>
			<g>
				<path fill="#57514F" d="M143.359,169.384c1.435-1.116,3.125-2.78,4.031-4.266l-0.125,3.03l1.843,2.41
					C147.515,169.864,145.173,169.475,143.359,169.384z"/>
			</g>
		</g>
	</g>
</g>
<g>
	<g>
		<g>
			
				<line fill="none" stroke="#57514F" stroke-miterlimit="10" stroke-dasharray="2,2" x1="128.876" y1="236.479" x2="128.876" y2="287.679"/>
			<g>
				<path fill="#57514F" d="M128.876,232.855c-0.632,1.703-1.711,3.814-2.854,5.127l2.854-1.029l2.854,1.029
					C130.586,236.675,129.508,234.561,128.876,232.855z"/>
			</g>
			<g>
				<path fill="#57514F" d="M128.876,291.3c-0.632-1.702-1.711-3.815-2.854-5.128l2.854,1.031l2.854-1.031
					C130.586,287.48,129.508,289.598,128.876,291.3z"/>
			</g>
		</g>
	</g>
	<g>
		<g>
			
				<line fill="none" stroke="#57514F" stroke-miterlimit="10" stroke-dasharray="2,2" x1="185.034" y1="258.891" x2="270.334" y2="239.38"/>
			<g>
				<path fill="#57514F" d="M181.504,259.696c1.803,0.233,4.104,0.813,5.637,1.639l-1.644-2.552l0.37-3.014
					C184.842,257.179,183.025,258.7,181.504,259.696z"/>
			</g>
			<g>
				<path fill="#57514F" d="M273.865,238.572c-1.521,0.994-3.342,2.521-4.363,3.925l0.37-3.013l-1.646-2.551
					C269.759,237.756,272.063,238.336,273.865,238.572z"/>
			</g>
		</g>
	</g>
	
		<line fill="none" stroke="#57514F" stroke-miterlimit="10" stroke-dasharray="2,2" x1="128.876" y1="291.3" x2="160.994" y2="291.3"/>
	
		<line fill="none" stroke="#57514F" stroke-miterlimit="10" stroke-dasharray="2,2" x1="128.876" y1="233.417" x2="160.994" y2="233.417"/>
	<g>
		<g>
			<path fill="none" stroke="#57514F" stroke-miterlimit="10" stroke-dasharray="2,2" d="M174.906,260.329
				c-7.82-0.083-24.827-1.21-32.524-1.157"/>
			<g>
				<path fill="#57514F" d="M178.467,259.696c-1.777-0.359-4.037-1.099-5.51-2.021l1.463,2.658l-0.574,2.979
					C174.965,261.979,176.884,260.585,178.467,259.696z"/>
			</g>
			<g>
				<path fill="#57514F" d="M138.768,259.424c1.663-0.73,3.709-1.936,4.945-3.152l-0.856,2.91l1.201,2.784
					C142.681,260.902,140.506,259.953,138.768,259.424z"/>
			</g>
		</g>
	</g>
	<g>
		<g>
			<path fill="none" stroke="#57514F" stroke-miterlimit="10" stroke-dasharray="2,2" d="M188.215,220.482
				c0.879-9.814,5.264-36.439,27.032-39.289c21.228-2.776,30.188,16.65,32.983,24.789"/>
			<g>
				<path fill="#57514F" d="M187.997,224.098c0.753-1.65,1.979-3.687,3.214-4.908l-2.92,0.821l-2.771-1.229
					C186.566,220.166,187.49,222.352,187.997,224.098z"/>
			</g>
			<g>
				<path fill="#57514F" d="M249.266,209.455c-1.105-1.438-2.769-3.139-4.244-4.049l3.026,0.138l2.418-1.833
					C249.764,205.302,249.365,207.643,249.266,209.455z"/>
			</g>
		</g>
	</g>
</g>
<g>
	<circle fill="#57514F" cx="94.519" cy="94.79" r="11"/>
	<g enable-background="new    ">
		<path fill="#FFFFFF" d="M90.683,98.817l3.147-8.203h1.172l3.353,8.203H97.12l-0.953-2.484h-3.43l-0.906,2.484H90.683z
			 M93.05,95.45h2.781l-0.858-2.273c-0.262-0.688-0.453-1.253-0.578-1.695c-0.104,0.526-0.253,1.047-0.445,1.563L93.05,95.45z"/>
	</g>
</g>
<g>
	<circle fill="#57514F" cx="234.514" cy="245.456" r="11"/>
	<g enable-background="new    ">
		<path fill="#FFFFFF" d="M230.682,249.482l3.147-8.202h1.172l3.353,8.202h-1.233l-0.953-2.483h-3.431l-0.905,2.483H230.682z
			 M233.049,246.116h2.781l-0.859-2.273c-0.261-0.688-0.453-1.253-0.578-1.694c-0.104,0.525-0.252,1.047-0.443,1.563
			L233.049,246.116z"/>
	</g>
</g>
<g>
	<circle fill="#57514F" cx="178.016" cy="126.789" r="11"/>
	<g enable-background="new    ">
		<path fill="#FFFFFF" d="M175.034,130.817v-8.203h3.077c0.625,0,1.127,0.083,1.509,0.25c0.38,0.167,0.677,0.423,0.892,0.77
			c0.213,0.347,0.319,0.707,0.319,1.082c0,0.349-0.097,0.679-0.285,0.988c-0.188,0.31-0.479,0.562-0.862,0.754
			c0.5,0.141,0.883,0.387,1.147,0.738s0.397,0.767,0.397,1.246c0,0.38-0.08,0.735-0.242,1.066c-0.161,0.331-0.361,0.586-0.603,0.766
			c-0.239,0.18-0.538,0.315-0.897,0.406c-0.358,0.091-0.799,0.137-1.319,0.137H175.034z M176.12,126.06h1.772
			c0.483,0,0.83-0.031,1.039-0.094c0.274-0.083,0.481-0.22,0.62-0.41c0.14-0.19,0.207-0.429,0.207-0.715
			c0-0.271-0.063-0.509-0.194-0.715s-0.315-0.348-0.56-0.426c-0.243-0.078-0.657-0.117-1.246-0.117h-1.641L176.12,126.06
			L176.12,126.06z M176.12,129.849h2.047c0.349,0,0.594-0.013,0.733-0.039c0.25-0.042,0.459-0.116,0.629-0.223
			c0.17-0.106,0.308-0.259,0.414-0.457c0.105-0.198,0.16-0.427,0.16-0.688c0-0.308-0.078-0.574-0.233-0.801
			c-0.156-0.227-0.374-0.386-0.652-0.477s-0.679-0.137-1.198-0.137h-1.897L176.12,129.849L176.12,129.849z"/>
	</g>
</g>
<g>
	<circle fill="#57514F" cx="121.352" cy="268.788" r="11"/>
	<g enable-background="new    ">
		<path fill="#FFFFFF" d="M118.367,272.814v-8.201h3.078c0.625,0,1.128,0.083,1.508,0.25s0.677,0.423,0.892,0.77
			c0.214,0.348,0.319,0.707,0.319,1.082c0,0.35-0.095,0.68-0.285,0.988c-0.189,0.311-0.478,0.563-0.862,0.754
			c0.5,0.143,0.883,0.388,1.147,0.738c0.266,0.351,0.398,0.767,0.398,1.244c0,0.382-0.081,0.736-0.242,1.066
			c-0.161,0.331-0.362,0.586-0.602,0.766c-0.24,0.182-0.539,0.315-0.898,0.406c-0.359,0.092-0.8,0.137-1.32,0.137H118.367z
			 M119.453,268.061h1.773c0.483,0,0.831-0.031,1.039-0.096c0.275-0.083,0.482-0.22,0.621-0.408c0.138-0.19,0.207-0.431,0.207-0.717
			c0-0.271-0.065-0.509-0.195-0.715s-0.316-0.348-0.56-0.426c-0.242-0.078-0.656-0.117-1.245-0.117h-1.642L119.453,268.061
			L119.453,268.061z M119.453,271.85h2.047c0.35,0,0.595-0.015,0.734-0.039c0.25-0.043,0.46-0.117,0.629-0.225
			c0.169-0.107,0.308-0.259,0.414-0.457c0.105-0.197,0.16-0.427,0.16-0.688c0-0.308-0.078-0.573-0.234-0.801
			c-0.156-0.228-0.374-0.387-0.652-0.478c-0.277-0.091-0.679-0.138-1.198-0.138h-1.898L119.453,271.85L119.453,271.85z"/>
	</g>
</g>
<g>
	<circle fill="#57514F" cx="160.016" cy="183.456" r="11"/>
	<g enable-background="new    ">
		<path fill="#FFFFFF" d="M162.932,184.607l1.086,0.273c-0.229,0.891-0.64,1.57-1.229,2.039c-0.592,0.469-1.314,0.703-2.168,0.703
			c-0.881,0-1.598-0.18-2.152-0.539c-0.554-0.359-0.977-0.88-1.266-1.563c-0.289-0.685-0.436-1.418-0.436-2.203
			c0-0.854,0.162-1.601,0.488-2.234c0.325-0.636,0.79-1.118,1.396-1.449c0.604-0.33,1.268-0.496,1.99-0.496
			c0.817,0,1.508,0.211,2.066,0.629c0.561,0.42,0.949,1.008,1.168,1.764l-1.07,0.25c-0.188-0.596-0.463-1.027-0.822-1.303
			c-0.362-0.271-0.816-0.408-1.363-0.408c-0.631,0-1.158,0.15-1.582,0.451c-0.426,0.304-0.723,0.709-0.896,1.221
			c-0.172,0.511-0.258,1.035-0.258,1.578c0,0.691,0.104,1.3,0.307,1.818c0.201,0.521,0.52,0.91,0.947,1.168
			c0.43,0.258,0.896,0.389,1.396,0.389c0.607,0,1.123-0.178,1.543-0.527C162.496,185.814,162.781,185.297,162.932,184.607z"/>
	</g>
</g>
<g>
	<circle fill="#57514F" cx="159.348" cy="259.455" r="11"/>
	<g enable-background="new    ">
		<path fill="#FFFFFF" d="M162.266,260.607l1.086,0.272c-0.229,0.892-0.641,1.57-1.229,2.039c-0.592,0.47-1.314,0.703-2.168,0.703
			c-0.881,0-1.598-0.181-2.152-0.539c-0.554-0.358-0.977-0.88-1.266-1.563c-0.289-0.683-0.436-1.416-0.436-2.203
			c0-0.854,0.162-1.598,0.488-2.232c0.324-0.636,0.789-1.118,1.396-1.448c0.604-0.331,1.268-0.495,1.99-0.495
			c0.816,0,1.508,0.209,2.066,0.629c0.559,0.418,0.949,1.006,1.168,1.762l-1.07,0.25c-0.188-0.594-0.463-1.027-0.822-1.301
			c-0.363-0.273-0.816-0.41-1.363-0.41c-0.631,0-1.158,0.149-1.582,0.453c-0.426,0.302-0.723,0.707-0.896,1.219
			c-0.172,0.511-0.258,1.035-0.258,1.578c0,0.69,0.104,1.3,0.307,1.82c0.201,0.52,0.52,0.909,0.947,1.168
			c0.43,0.258,0.896,0.387,1.396,0.387c0.607,0,1.123-0.176,1.543-0.527C161.829,261.814,162.115,261.296,162.266,260.607z"/>
	</g>
</g>
<g>
	<circle fill="#57514F" cx="95.352" cy="19.456" r="11"/>
	<g enable-background="new    ">
		<path fill="#FFFFFF" d="M92.415,23.484v-8.203h2.828c0.635,0,1.121,0.039,1.461,0.117c0.469,0.109,0.869,0.308,1.203,0.594
			c0.432,0.364,0.754,0.831,0.969,1.398c0.213,0.567,0.32,1.216,0.32,1.945c0,0.625-0.074,1.179-0.219,1.66
			c-0.146,0.481-0.332,0.88-0.56,1.195c-0.227,0.315-0.477,0.563-0.746,0.742c-0.271,0.18-0.598,0.316-0.979,0.41
			c-0.382,0.094-0.822,0.141-1.316,0.141L92.415,23.484L92.415,23.484z M93.501,22.516h1.75c0.541,0,0.965-0.051,1.273-0.152
			c0.307-0.102,0.551-0.243,0.733-0.426c0.261-0.255,0.462-0.601,0.605-1.035c0.143-0.435,0.215-0.962,0.215-1.582
			c0-0.854-0.141-1.512-0.422-1.973c-0.281-0.461-0.625-0.77-1.031-0.926c-0.293-0.114-0.758-0.172-1.397-0.172H93.5L93.501,22.516
			L93.501,22.516z"/>
	</g>
</g>
<g>
	<circle fill="#57514F" cx="237.348" cy="167.455" r="11"/>
	<g enable-background="new    ">
		<path fill="#FFFFFF" d="M234.414,171.482v-8.202h2.828c0.636,0,1.121,0.038,1.461,0.116c0.469,0.108,0.87,0.309,1.203,0.595
			c0.433,0.362,0.755,0.831,0.969,1.397s0.32,1.215,0.32,1.944c0,0.625-0.073,1.179-0.221,1.66c-0.146,0.481-0.332,0.88-0.559,1.194
			s-0.477,0.563-0.746,0.742s-0.598,0.315-0.979,0.409c-0.383,0.095-0.821,0.142-1.316,0.142h-2.961V171.482z M235.5,170.516h1.75
			c0.542,0,0.966-0.052,1.273-0.151c0.307-0.101,0.552-0.243,0.732-0.427c0.262-0.254,0.462-0.602,0.605-1.035
			c0.143-0.435,0.215-0.961,0.215-1.582c0-0.854-0.141-1.512-0.422-1.973c-0.281-0.462-0.625-0.771-1.031-0.927
			c-0.292-0.112-0.758-0.172-1.398-0.172h-1.727L235.5,170.516L235.5,170.516z"/>
	</g>
</g>
</svg>
