<?xml version="1.0" encoding="utf-8"?>
<!-- Generator: Adobe Illustrator 15.0.0, SVG Export Plug-In . SVG Version: 6.00 Build 0)  -->
<!DOCTYPE svg PUBLIC "-//W3C//DTD SVG 1.1//EN" "http://www.w3.org/Graphics/SVG/1.1/DTD/svg11.dtd">
<svg version="1.1" id="レイヤー_1" xmlns="http://www.w3.org/2000/svg" xmlns:xlink="http://www.w3.org/1999/xlink" x="0px"
	 y="0px" width="300px" height="191.5px" viewBox="0 0 300 191.5" enable-background="new 0 0 300 191.5" xml:space="preserve">
<g id="レイヤー_1_1_">
	<g>
		<path fill="none" stroke="#E5E0DD" stroke-width="1.25" stroke-linejoin="round" stroke-miterlimit="10" d="M151.131,183.268"/>
		<path fill="none" stroke="#E5E0DD" stroke-width="1.25" stroke-linejoin="round" stroke-miterlimit="10" d="M132.38,40.584
			C25.467,83.171,26.351,82.612,6.466,89.102l8.5,27l86.5-32.167l-2.5,83.333c0,0-3.168,16,52.165,16"/>
		<polyline fill="none" stroke="#E5E0DD" stroke-width="1.25" stroke-linejoin="round" stroke-miterlimit="10" points="
			137.132,32.768 149.295,85.392 148.402,88.312 129.031,54.768 140.08,45.892 		"/>
		<path fill="none" stroke="#E5E0DD" stroke-width="1.25" stroke-linejoin="round" stroke-miterlimit="10" d="M169.973,40.584
			c0,0,109.992,43.351,125.825,48.518l-8.5,27l-86.5-32.167l2.499,83.333c0,0,3.168,16-52.166,16"/>
		<polyline fill="none" stroke="#E5E0DD" stroke-width="1.25" stroke-linejoin="round" stroke-miterlimit="10" points="
			169.049,51.406 173.448,47.057 165.346,33 151.131,32.768 137.132,32.768 129.031,46.824 133.216,51.406 		"/>
		<polyline fill="none" stroke="#E5E0DD" stroke-width="1.25" stroke-linejoin="round" stroke-miterlimit="10" points="165.346,33 
			147.131,92.452 173.236,54.768 162.184,45.892 		"/>
		<path fill="none" stroke="#E5E0DD" stroke-width="1.25" stroke-linejoin="round" stroke-miterlimit="10" d="M147.131,92.452
			c0,0,0,75.565,0,79.981c0,4.418-0.162,10.787,9.002,10.787"/>
		<path fill="none" stroke="#E5E0DD" stroke-width="1.25" stroke-linejoin="round" stroke-miterlimit="10" d="M149.287,181.439
			c0,0-0.404,0.891-4.28,1.778"/>
		
			<circle fill="none" stroke="#E5E0DD" stroke-width="1.25" stroke-linejoin="round" stroke-miterlimit="10" cx="151.287" cy="105.816" r="2.391"/>
		
			<circle fill="none" stroke="#E5E0DD" stroke-width="1.25" stroke-linejoin="round" stroke-miterlimit="10" cx="151.287" cy="137.837" r="2.392"/>
		
			<line fill="none" stroke="#E5E0DD" stroke-width="1.25" stroke-linejoin="round" stroke-miterlimit="10" x1="138.33" y1="37.957" x2="163.543" y2="37.957"/>
		
			<line fill="none" stroke="#E5E0DD" stroke-width="1.25" stroke-linejoin="round" stroke-miterlimit="10" x1="101.466" y1="83.935" x2="106.566" y2="50.861"/>
		
			<line fill="none" stroke="#E5E0DD" stroke-width="1.25" stroke-linejoin="round" stroke-miterlimit="10" x1="200.798" y1="83.935" x2="195.698" y2="50.861"/>
	</g>
</g>
<g id="レイヤー_2">
	<g>
		<g>
			<path fill="none" stroke="#57514F" stroke-miterlimit="10" stroke-dasharray="2,2" d="M199.546,50.845
				c0.312-0.052,0.638-0.104,0.981-0.161"/>
			<path fill="none" stroke="#57514F" stroke-miterlimit="10" stroke-dasharray="2,2" d="M202.486,50.399
				c9.457-1.271,28.211-2.305,49.268,4.656c22.114,7.311,35.546,22.774,41.17,30.561"/>
			<path fill="none" stroke="#57514F" stroke-miterlimit="10" stroke-dasharray="2,2" d="M293.493,86.425
				c0.2,0.286,0.394,0.56,0.567,0.819"/>
			<g>
				<path fill="#57514F" d="M196,51.555c1.793,0.298,4.07,0.957,5.574,1.831l-1.555-2.604l0.474-2.997
					C199.425,49.153,197.555,50.612,196,51.555z"/>
			</g>
			<g>
				<path fill="#57514F" d="M296,90.305c-1.454-1.09-3.508-2.283-5.178-2.766l2.957-0.678l1.84-2.413
					C295.368,86.169,295.609,88.531,296,90.305z"/>
			</g>
		</g>
	</g>
	<g>
		<g>
			
				<line fill="none" stroke="#57514F" stroke-miterlimit="10" stroke-dasharray="2,2" x1="151.5" y1="45.176" x2="151.5" y2="180.434"/>
			<g>
				<path fill="#57514F" d="M151.5,41.555c-0.634,1.704-1.713,3.818-2.854,5.128l2.854-1.032l2.854,1.032
					C153.21,45.373,152.132,43.259,151.5,41.555z"/>
			</g>
			<g>
				<path fill="#57514F" d="M151.5,184.055c-0.634-1.703-1.713-3.818-2.854-5.129l2.854,1.032l2.854-1.032
					C153.21,180.236,152.132,182.352,151.5,184.055z"/>
			</g>
		</g>
	</g>
	<g>
		<g>
			
				<line fill="none" stroke="#57514F" stroke-miterlimit="10" stroke-dasharray="2,2" x1="103.621" y1="88.555" x2="197.379" y2="88.555"/>
			<g>
				<path fill="#57514F" d="M100,88.555c1.704,0.632,3.816,1.711,5.128,2.854l-1.031-2.854l1.031-2.853
					C103.819,86.845,101.704,87.923,100,88.555z"/>
			</g>
			<g>
				<path fill="#57514F" d="M201,88.555c-1.704,0.632-3.816,1.711-5.13,2.854l1.03-2.854l-1.03-2.853
					C197.184,86.845,199.296,87.923,201,88.555z"/>
			</g>
		</g>
	</g>
	<g>
		<g>
			<path fill="none" stroke="#57514F" stroke-miterlimit="10" stroke-dasharray="2,2" d="M109.328,47.862
				c5.111-6.985,19.815-23.751,43.172-23.751c22.316,0,36.335,16.696,41.234,23.707"/>
			<g>
				<path fill="#57514F" d="M107.303,50.861c1.487-1.043,3.577-2.169,5.262-2.599l-2.935-0.772l-1.762-2.471
					C108.065,46.748,107.75,49.1,107.303,50.861z"/>
			</g>
			<g>
				<path fill="#57514F" d="M195.698,50.861c-1.466-1.075-3.527-2.248-5.204-2.714l2.951-0.707l1.813-2.431
					C195.027,46.732,195.287,49.091,195.698,50.861z"/>
			</g>
		</g>
	</g>
</g>
<g id="レイヤー_3">
	<g>
		<circle fill="#57514F" cx="176.68" cy="88.333" r="11"/>
		<g enable-background="new    ">
			<path fill="#FFFFFF" d="M172.844,92.36l3.147-8.203h1.172l3.353,8.203h-1.233l-0.953-2.484h-3.431l-0.905,2.484H172.844z
				 M175.211,88.993h2.78l-0.858-2.273c-0.263-0.688-0.453-1.253-0.578-1.695c-0.104,0.526-0.254,1.047-0.445,1.563L175.211,88.993z
				"/>
		</g>
	</g>
	<g>
		<circle fill="#57514F" cx="242.014" cy="49.833" r="11"/>
		<g enable-background="new    ">
			<path fill="#FFFFFF" d="M244.611,50.985l1.087,0.273c-0.229,0.891-0.64,1.57-1.229,2.039C243.875,53.766,243.154,54,242.3,54
				c-0.881,0-1.599-0.18-2.151-0.539s-0.978-0.88-1.267-1.563s-0.435-1.417-0.435-2.203c0-0.854,0.162-1.599,0.488-2.234
				c0.324-0.636,0.789-1.118,1.395-1.449c0.604-0.331,1.27-0.496,1.992-0.496c0.816,0,1.506,0.21,2.066,0.629
				c0.56,0.419,0.948,1.007,1.168,1.762l-1.07,0.25c-0.188-0.594-0.463-1.027-0.824-1.301c-0.361-0.273-0.814-0.41-1.362-0.41
				c-0.631,0-1.157,0.151-1.582,0.453c-0.425,0.302-0.724,0.708-0.896,1.219c-0.172,0.511-0.258,1.036-0.258,1.578
				c0,0.692,0.102,1.3,0.305,1.82s0.521,0.91,0.949,1.168c0.429,0.258,0.896,0.387,1.396,0.387c0.608,0,1.123-0.176,1.543-0.527
				C244.175,52.192,244.46,51.673,244.611,50.985z"/>
		</g>
	</g>
	<g>
		<circle fill="#57514F" cx="152.014" cy="17.167" r="11"/>
		<g enable-background="new    ">
			<path fill="#FFFFFF" d="M148.759,21.194v-8.203h2.828c0.636,0,1.122,0.039,1.461,0.117c0.47,0.109,0.87,0.308,1.203,0.594
				c0.433,0.364,0.755,0.831,0.97,1.398c0.213,0.567,0.318,1.216,0.318,1.945c0,0.625-0.072,1.179-0.219,1.66
				s-0.332,0.88-0.559,1.195c-0.229,0.315-0.478,0.563-0.746,0.742c-0.271,0.179-0.599,0.316-0.98,0.41
				c-0.383,0.094-0.82,0.141-1.314,0.141L148.759,21.194L148.759,21.194z M149.845,20.226h1.75c0.541,0,0.965-0.051,1.271-0.152
				c0.308-0.101,0.553-0.243,0.734-0.426c0.26-0.255,0.461-0.601,0.604-1.035c0.144-0.434,0.215-0.962,0.215-1.582
				c0-0.854-0.142-1.512-0.422-1.973c-0.281-0.461-0.625-0.77-1.031-0.926c-0.292-0.114-0.758-0.172-1.397-0.172h-1.728
				L149.845,20.226L149.845,20.226z"/>
		</g>
	</g>
	<g>
		<circle fill="#57514F" cx="152.18" cy="133.834" r="11"/>
		<g enable-background="new    ">
			<path fill="#FFFFFF" d="M149.196,137.861v-8.203h3.078c0.625,0,1.127,0.083,1.509,0.25c0.38,0.167,0.678,0.423,0.892,0.77
				c0.213,0.348,0.319,0.707,0.319,1.082c0,0.35-0.097,0.68-0.285,0.988c-0.188,0.311-0.479,0.563-0.862,0.754
				c0.5,0.141,0.883,0.387,1.147,0.738c0.266,0.351,0.397,0.767,0.397,1.246c0,0.38-0.08,0.733-0.242,1.064
				s-0.361,0.588-0.602,0.768s-0.539,0.313-0.898,0.406c-0.358,0.09-0.799,0.137-1.319,0.137H149.196L149.196,137.861z
				 M150.281,133.104h1.773c0.482,0,0.829-0.029,1.038-0.094c0.274-0.083,0.481-0.22,0.621-0.41
				c0.138-0.188,0.207-0.429,0.207-0.715c0-0.271-0.065-0.509-0.194-0.715c-0.131-0.206-0.316-0.348-0.56-0.426
				s-0.658-0.117-1.246-0.117h-1.642L150.281,133.104L150.281,133.104z M150.281,136.893h2.047c0.35,0,0.595-0.013,0.734-0.039
				c0.25-0.041,0.459-0.114,0.629-0.223c0.168-0.105,0.307-0.259,0.414-0.457c0.105-0.197,0.16-0.427,0.16-0.688
				c0-0.31-0.078-0.574-0.234-0.801c-0.155-0.229-0.374-0.388-0.651-0.479c-0.278-0.091-0.68-0.139-1.198-0.139h-1.898
				L150.281,136.893L150.281,136.893z"/>
		</g>
	</g>
</g>
</svg>
