<?xml version="1.0" encoding="utf-8"?>
<!-- Generator: Adobe Illustrator 15.0.0, SVG Export Plug-In . SVG Version: 6.00 Build 0)  -->
<!DOCTYPE svg PUBLIC "-//W3C//DTD SVG 1.1//EN" "http://www.w3.org/Graphics/SVG/1.1/DTD/svg11.dtd">
<svg version="1.1" id="レイヤー_1" xmlns="http://www.w3.org/2000/svg" xmlns:xlink="http://www.w3.org/1999/xlink" x="0px"
	 y="0px" width="300px" height="247.5px" viewBox="0 0 300 247.5" enable-background="new 0 0 300 247.5" xml:space="preserve">
<g id="レイヤー_2_1_">
</g>
<g>
	
		<ellipse fill="none" stroke="#E5E0DD" stroke-width="1.25" stroke-linejoin="round" stroke-miterlimit="10" cx="91.104" cy="39.933" rx="24.833" ry="6.105"/>
	<path fill="none" stroke="#E5E0DD" stroke-width="1.25" stroke-linejoin="round" stroke-miterlimit="10" d="M66.271,39.933
		c0,0,8.667,101.833,8.333,110.833s-8.557,34.297-18,40.668c-10.727,7.234-14.666,12-14,15s1,9.666,20.666,9.666
		c19.668,0,23.334-9,24.334-13.666c1-4.668,5.688-10.883,8.552-13.068c0,0,2.922,5.313,3.448,14.4c3.092,0.528,5.666,0,5.666,0
		s3.667-17.998,5-28.332c1.334-10.334-4-11.334-1.666-33c2.334-21.667,7.334-102.5,7.334-102.5"/>
	<path fill="none" stroke="#E5E0DD" stroke-width="1.25" stroke-linejoin="round" stroke-miterlimit="10" d="M74.48,152.482
		c0,0,6.723-3.051,7.258,11.617c0.532,14.666-3.188,30.646,6.508,36.319"/>
	<path fill="none" stroke="#E5E0DD" stroke-width="1.25" stroke-linejoin="round" stroke-miterlimit="10" d="M85.676,207.354
		c0,0-14.1,8.558-33.738,4.748c-9.401-1.824-9.334-5.666-9.334-5.666"/>
	<path fill="none" stroke="#E5E0DD" stroke-width="1.25" stroke-linejoin="round" stroke-miterlimit="10" d="M96.153,189.365
		c0,0,2.984-7.645,14.256-15.286"/>
</g>
<g>
	<g>
		<g>
			
				<line fill="none" stroke="#57514F" stroke-miterlimit="10" stroke-dasharray="2,2" x1="123.363" y1="41.978" x2="123.363" y2="200.438"/>
			<g>
				<path fill="#57514F" d="M123.363,38.357c-0.634,1.704-1.711,3.818-2.854,5.128l2.854-1.032l2.854,1.032
					C125.073,42.175,123.995,40.061,123.363,38.357z"/>
			</g>
			<g>
				<path fill="#57514F" d="M123.363,204.059c-0.634-1.703-1.711-3.815-2.854-5.129l2.854,1.031l2.854-1.031
					C125.073,200.24,123.995,202.354,123.363,204.059z"/>
			</g>
		</g>
	</g>
	
		<line fill="none" stroke="#57514F" stroke-miterlimit="10" stroke-dasharray="2,2" x1="116.139" y1="38.357" x2="134.139" y2="38.357"/>
	
		<line fill="none" stroke="#57514F" stroke-miterlimit="10" stroke-dasharray="2,2" x1="105.27" y1="203.768" x2="134.139" y2="203.768"/>
	<g>
		<g>
			<path fill="none" stroke="#57514F" stroke-miterlimit="10" stroke-dasharray="2,2" d="M66.925,25.763
				c2.828-5.193,11.947-8.995,22.762-8.995c13.07,0,23.667,5.555,23.667,12.406c0,6.851-10.597,12.405-23.667,12.405
				c-6.238,0-11.919-1.267-16.146-3.336"/>
			<g>
				<polygon fill="#57514F" points="66.02,29.174 69.399,24.994 67.111,25.54 65.504,23.825 				"/>
			</g>
		</g>
	</g>
</g>
<g>
	<circle fill="#57514F" cx="89.5" cy="16.25" r="11"/>
	<g enable-background="new    ">
		<path fill="#FFFFFF" d="M85.665,20.278l3.147-8.203h1.173l3.352,8.203h-1.234l-0.952-2.484H87.72l-0.906,2.484H85.665z
			 M88.032,16.911h2.78l-0.858-2.273c-0.261-0.688-0.453-1.253-0.578-1.695c-0.104,0.526-0.253,1.047-0.445,1.563L88.032,16.911z"/>
	</g>
</g>
<g>
	<circle fill="#57514F" cx="123.489" cy="121.412" r="11"/>
	<g enable-background="new    ">
		<path fill="#FFFFFF" d="M120.506,125.439v-8.203h3.078c0.625,0,1.127,0.083,1.508,0.25c0.38,0.167,0.677,0.423,0.892,0.77
			c0.213,0.347,0.319,0.707,0.319,1.082c0,0.349-0.096,0.679-0.285,0.988c-0.189,0.31-0.479,0.562-0.862,0.754
			c0.5,0.141,0.883,0.387,1.147,0.738c0.266,0.351,0.398,0.767,0.398,1.245c0,0.381-0.081,0.736-0.242,1.066
			c-0.162,0.331-0.362,0.586-0.602,0.767c-0.24,0.181-0.539,0.314-0.898,0.405c-0.359,0.093-0.8,0.138-1.32,0.138H120.506
			L120.506,125.439z M121.592,120.683h1.773c0.483,0,0.83-0.031,1.039-0.094c0.274-0.083,0.481-0.22,0.621-0.41
			c0.138-0.19,0.207-0.429,0.207-0.715c0-0.271-0.065-0.509-0.195-0.715c-0.131-0.206-0.316-0.348-0.56-0.426
			c-0.242-0.078-0.657-0.117-1.245-0.117h-1.642L121.592,120.683L121.592,120.683z M121.592,124.473h2.047
			c0.35,0,0.595-0.014,0.734-0.039c0.25-0.043,0.459-0.117,0.629-0.224c0.169-0.106,0.307-0.259,0.414-0.457
			c0.105-0.198,0.16-0.427,0.16-0.688c0-0.308-0.078-0.573-0.234-0.801c-0.156-0.227-0.374-0.386-0.652-0.477
			c-0.278-0.091-0.679-0.137-1.198-0.137h-1.898L121.592,124.473L121.592,124.473z"/>
	</g>
</g>
<g>
	<g>
		<g>
			<g>
				<g>
					<defs>
						<circle id="SVGID_2_" cx="206.072" cy="184.077" r="56.647"/>
					</defs>
					<clipPath id="SVGID_3_">
						<use xlink:href="#SVGID_2_"  overflow="visible"/>
					</clipPath>
					<g clip-path="url(#SVGID_3_)">
						
							<ellipse fill="none" stroke="#E5E0DD" stroke-width="1.25" stroke-linejoin="round" stroke-miterlimit="10" cx="211.771" cy="44.6" rx="24.832" ry="6.105"/>
						<path fill="none" stroke="#E5E0DD" stroke-width="1.25" stroke-linejoin="round" stroke-miterlimit="10" d="M186.938,44.6
							c0,0,8.668,101.833,8.334,110.833s-8.558,34.295-18,40.666c-10.728,7.235-14.666,12-14,15s1,9.666,20.666,9.666
							c19.668,0,23.334-8.998,24.334-13.666c1-4.666,5.688-10.883,8.549-13.067c0,0,2.925,5.313,3.451,14.401
							c3.088,0.527,5.666,0,5.666,0s3.666-18,5-28.334s-4-11.332-1.666-33c2.334-21.666,7.334-102.5,7.334-102.5"/>
						<path fill="none" stroke="#E5E0DD" stroke-width="1.25" stroke-linejoin="round" stroke-miterlimit="10" d="M195.146,157.148
							c0,0,6.724-3.049,7.256,11.617c0.535,14.668-3.188,30.646,6.511,36.32"/>
						<path fill="none" stroke="#E5E0DD" stroke-width="1.25" stroke-linejoin="round" stroke-miterlimit="10" d="M206.343,212.02
							c0,0-14.1,8.559-33.737,4.748c-9.401-1.824-9.334-5.666-9.334-5.666"/>
						<path fill="none" stroke="#E5E0DD" stroke-width="1.25" stroke-linejoin="round" stroke-miterlimit="10" d="M216.816,194.032
							c0,0,2.988-7.646,14.258-15.286"/>
					</g>
				</g>
			</g>
		</g>
	</g>
	<g>
		
			<circle id="SVGID_1_" fill="none" stroke="#E5E0DD" stroke-width="1.25" stroke-linejoin="round" stroke-miterlimit="10" cx="206.072" cy="184.077" r="56.647"/>
	</g>
</g>
<line fill="none" stroke="#060404" stroke-width="0.5" stroke-miterlimit="10" stroke-dasharray="2,2" x1="259.217" y1="178.746" x2="231.073" y2="178.746"/>
<line fill="none" stroke="#060404" stroke-width="0.5" stroke-miterlimit="10" stroke-dasharray="2,2" x1="259.217" y1="207.684" x2="231.073" y2="207.684"/>
<g>
	<circle fill="#57514F" cx="262.988" cy="193.079" r="11"/>
	<g enable-background="new    ">
		<path fill="#FFFFFF" d="M265.904,194.23l1.086,0.273c-0.229,0.891-0.641,1.57-1.229,2.039c-0.592,0.469-1.313,0.703-2.168,0.703
			c-0.881,0-1.598-0.18-2.151-0.539c-0.555-0.359-0.978-0.88-1.267-1.563c-0.289-0.685-0.435-1.418-0.435-2.203
			c0-0.854,0.162-1.601,0.488-2.234c0.324-0.637,0.789-1.118,1.396-1.449c0.604-0.33,1.269-0.496,1.991-0.496
			c0.816,0,1.507,0.211,2.066,0.629c0.56,0.42,0.948,1.008,1.168,1.764l-1.07,0.25c-0.188-0.596-0.463-1.027-0.823-1.303
			c-0.362-0.271-0.815-0.408-1.363-0.408c-0.631,0-1.157,0.15-1.582,0.451c-0.425,0.304-0.723,0.709-0.896,1.221
			c-0.172,0.511-0.258,1.035-0.258,1.578c0,0.691,0.103,1.3,0.306,1.818c0.202,0.521,0.521,0.91,0.948,1.168
			c0.43,0.258,0.896,0.389,1.396,0.389c0.608,0,1.123-0.178,1.543-0.527C265.468,195.438,265.753,194.92,265.904,194.23z"/>
	</g>
</g>
</svg>
