<?xml version="1.0" encoding="utf-8"?>
<!-- Generator: Adobe Illustrator 15.0.0, SVG Export Plug-In . SVG Version: 6.00 Build 0)  -->
<!DOCTYPE svg PUBLIC "-//W3C//DTD SVG 1.1//EN" "http://www.w3.org/Graphics/SVG/1.1/DTD/svg11.dtd">
<svg version="1.1" id="レイヤー_1" xmlns="http://www.w3.org/2000/svg" xmlns:xlink="http://www.w3.org/1999/xlink" x="0px"
	 y="0px" width="300px" height="175px" viewBox="0 0 300 175" enable-background="new 0 0 300 175" xml:space="preserve">
<g id="レイヤー_1_1_">
</g>
<g id="レイヤー_2">
	<g>
		<g>
			<path fill="none" stroke="#57514F" stroke-miterlimit="10" stroke-dasharray="1.9934,1.9934" d="M176.941,19.18
				c0.313-0.017,0.646-0.033,0.996-0.048"/>
			<path fill="none" stroke="#57514F" stroke-miterlimit="10" stroke-dasharray="1.9934,1.9934" d="M179.934,19.055
				c11.043-0.365,34.24-0.121,56.398,6.527c23.332,7,45.759,27.357,54.57,36.061"/>
			<path fill="none" stroke="#57514F" stroke-miterlimit="10" stroke-dasharray="1.9934,1.9934" d="M291.617,62.35
				c0.246,0.248,0.48,0.483,0.701,0.707"/>
			<g>
				<path fill="#57514F" d="M173.332,19.416c1.736,0.532,3.911,1.486,5.286,2.55l-1.195-2.789l0.862-2.907
					C177.046,17.486,174.996,18.686,173.332,19.416z"/>
			</g>
			<g>
				<path fill="#57514F" d="M294.832,65.666c-1.646-0.771-3.896-1.52-5.632-1.65l2.76-1.268l1.308-2.737
					C293.371,61.746,294.088,64.009,294.832,65.666z"/>
			</g>
		</g>
	</g>
	<g>
		<g>
			
				<line fill="none" stroke="#57514F" stroke-miterlimit="10" stroke-dasharray="1.9934,1.9934" x1="150.5" y1="29.621" x2="150.5" y2="158.879"/>
			<g>
				<path fill="#57514F" d="M150.5,26c-0.634,1.704-1.712,3.818-2.854,5.128l2.854-1.032l2.854,1.032
					C152.211,29.818,151.133,27.704,150.5,26z"/>
			</g>
			<g>
				<path fill="#57514F" d="M150.5,162.5c-0.634-1.704-1.712-3.818-2.854-5.129l2.854,1.031l2.854-1.031
					C152.211,158.682,151.133,160.796,150.5,162.5z"/>
			</g>
		</g>
	</g>
	<g>
		<g>
			
				<line fill="none" stroke="#57514F" stroke-miterlimit="10" stroke-dasharray="1.9934,1.9934" x1="102.622" y1="67" x2="196.38" y2="67"/>
			<g>
				<path fill="#57514F" d="M99.001,67c1.704,0.632,3.815,1.711,5.128,2.854L103.097,67l1.032-2.854
					C102.819,65.29,100.705,66.368,99.001,67z"/>
			</g>
			<g>
				<path fill="#57514F" d="M200,67c-1.703,0.632-3.816,1.711-5.13,2.854L195.902,67l-1.03-2.854
					C196.184,65.29,198.297,66.368,200,67z"/>
			</g>
		</g>
	</g>
</g>
<g id="レイヤー_3">
	<g>
		<circle fill="#57514F" cx="175.875" cy="65.381" r="11"/>
		<g enable-background="new    ">
			<path fill="#FFFFFF" d="M172.039,69.408l3.148-8.203h1.172l3.352,8.203h-1.234l-0.953-2.484h-3.43l-0.906,2.484H172.039z
				 M174.406,66.041h2.781l-0.859-2.273c-0.262-0.688-0.453-1.253-0.578-1.695c-0.105,0.526-0.254,1.047-0.445,1.563L174.406,66.041
				z"/>
		</g>
	</g>
	<g>
		<circle fill="#57514F" cx="241.207" cy="26.881" r="11"/>
		<g enable-background="new    ">
			<path fill="#FFFFFF" d="M243.807,28.033l1.086,0.273c-0.229,0.891-0.641,1.57-1.229,2.039c-0.593,0.469-1.313,0.703-2.168,0.703
				c-0.881,0-1.599-0.18-2.152-0.539c-0.554-0.359-0.977-0.88-1.266-1.563c-0.289-0.683-0.435-1.417-0.435-2.203
				c0-0.854,0.162-1.599,0.488-2.234c0.324-0.636,0.789-1.118,1.395-1.449c0.604-0.331,1.269-0.496,1.992-0.496
				c0.816,0,1.506,0.21,2.066,0.629c0.559,0.419,0.949,1.007,1.168,1.762l-1.07,0.25c-0.188-0.594-0.463-1.027-0.824-1.301
				c-0.362-0.273-0.815-0.41-1.362-0.41c-0.632,0-1.158,0.151-1.582,0.453c-0.427,0.302-0.724,0.708-0.896,1.219
				s-0.258,1.036-0.258,1.578c0,0.692,0.102,1.3,0.305,1.82s0.521,0.91,0.949,1.168c0.43,0.258,0.896,0.387,1.396,0.387
				c0.608,0,1.123-0.176,1.543-0.527C243.369,29.24,243.654,28.721,243.807,28.033z"/>
		</g>
	</g>
	<g>
		<circle fill="#57514F" cx="151.375" cy="110.881" r="11"/>
		<g enable-background="new    ">
			<path fill="#FFFFFF" d="M148.39,114.908v-8.203h3.079c0.625,0,1.127,0.083,1.508,0.25c0.379,0.167,0.676,0.423,0.892,0.77
				c0.213,0.348,0.319,0.707,0.319,1.082c0,0.35-0.096,0.68-0.285,0.988c-0.19,0.311-0.479,0.563-0.862,0.754
				c0.5,0.141,0.883,0.387,1.147,0.738c0.266,0.352,0.398,0.767,0.398,1.246c0,0.38-0.082,0.734-0.242,1.066
				c-0.162,0.33-0.363,0.586-0.602,0.766c-0.24,0.18-0.539,0.314-0.898,0.406c-0.359,0.09-0.801,0.137-1.32,0.137H148.39
				L148.39,114.908z M149.476,110.15h1.774c0.484,0,0.83-0.031,1.039-0.094c0.275-0.084,0.482-0.221,0.621-0.41
				c0.137-0.19,0.207-0.43,0.207-0.715c0-0.271-0.066-0.51-0.195-0.716c-0.131-0.206-0.316-0.348-0.559-0.426
				c-0.243-0.078-0.658-0.117-1.246-0.117h-1.641V110.15L149.476,110.15z M149.476,113.939h2.047c0.348,0,0.594-0.014,0.733-0.039
				c0.25-0.043,0.459-0.116,0.629-0.224c0.169-0.106,0.308-0.259,0.414-0.457c0.104-0.198,0.16-0.427,0.16-0.688
				c0-0.308-0.078-0.574-0.233-0.802c-0.156-0.227-0.375-0.386-0.652-0.477c-0.279-0.091-0.68-0.137-1.199-0.137h-1.899V113.939z"/>
		</g>
	</g>
	<path fill="none" stroke="#E5E0DD" stroke-width="1.25" stroke-linejoin="round" stroke-miterlimit="10" d="M150.5,162.166
		c55.334,0,52.166-16,52.166-16l-2.5-83.333L286.666,95l8.5-27C279.332,62.833,173.5,22.5,173.5,22.5
		c-2.918,2.916-14.168,3.5-23,3.5s-20.082-0.584-22.999-3.5c0,0-105.833,40.333-121.667,45.5l8.5,27l86.5-32.167l-2.5,83.333
		C98.335,146.166,95.167,162.166,150.5,162.166"/>
	<path fill="none" stroke="#E5E0DD" stroke-width="1.25" stroke-linejoin="round" stroke-miterlimit="10" d="M127.501,22.5
		c0,0,0.75,16.166,22.999,16.166"/>
	<path fill="none" stroke="#E5E0DD" stroke-width="1.25" stroke-linejoin="round" stroke-miterlimit="10" d="M173.5,22.5
		c0,0-0.75,16.166-23,16.166"/>
	
		<line fill="none" stroke="#E5E0DD" stroke-width="1.25" stroke-linejoin="round" stroke-miterlimit="10" x1="100.834" y1="62.833" x2="133.16" y2="33.303"/>
	
		<line fill="none" stroke="#E5E0DD" stroke-width="1.25" stroke-linejoin="round" stroke-miterlimit="10" x1="200.165" y1="62.833" x2="167.832" y2="33.303"/>
</g>
</svg>
