<?xml version="1.0" encoding="utf-8"?>
<!-- Generator: Adobe Illustrator 15.0.0, SVG Export Plug-In . SVG Version: 6.00 Build 0)  -->
<!DOCTYPE svg PUBLIC "-//W3C//DTD SVG 1.1//EN" "http://www.w3.org/Graphics/SVG/1.1/DTD/svg11.dtd">
<svg version="1.1" id="レイヤー_1" xmlns="http://www.w3.org/2000/svg" xmlns:xlink="http://www.w3.org/1999/xlink" x="0px"
	 y="0px" width="300px" height="189.5px" viewBox="0 0 300 189.5" enable-background="new 0 0 300 189.5" xml:space="preserve">
<g id="レイヤー_2_1_">
</g>
<g>
	<path fill="none" stroke="#E5E0DD" stroke-width="1.25" stroke-linejoin="round" stroke-miterlimit="10" d="M112.513,14.704
		c0,0-7.318,60.002-5.818,92.502s10,73,10,73s15.5,5.5,23,0l3.5-35.5c0,0-0.5-11.5,7.997-11.5"/>
	<path fill="none" stroke="#E5E0DD" stroke-width="1.25" stroke-linejoin="round" stroke-miterlimit="10" d="M132.192,7.706
		c0,0-0.5,13,19,13"/>
	<path fill="none" stroke="#E5E0DD" stroke-width="1.25" stroke-linejoin="round" stroke-miterlimit="10" d="M191.691,41.206
		l56,17.977l7.5-21.25l-85-30.227c-8,2.5-5,2.477-19,2.477c-14,0-11,0.023-19-2.477l-85,30.227l7.5,21.25l56-17.977"/>
	<path fill="none" stroke="#E5E0DD" stroke-width="1.25" stroke-linejoin="round" stroke-miterlimit="10" d="M189.87,14.704
		c0,0,7.321,60.002,5.821,92.502s-10,73-10,73s-15.5,5.5-23,0l-3.5-35.5c0,0,0.5-11.5-8-11.5"/>
	<path fill="none" stroke="#E5E0DD" stroke-width="1.25" stroke-linejoin="round" stroke-miterlimit="10" d="M170.191,7.706
		c0,0,0.5,13-19,13"/>
</g>
<g>
	<g>
		<g>
			
				<line fill="none" stroke="#57514F" stroke-miterlimit="10" stroke-dasharray="2,2" x1="151.191" y1="13.804" x2="151.191" y2="179.006"/>
			<g>
				<path fill="#57514F" d="M151.191,10.183c-0.635,1.704-1.713,3.818-2.854,5.128l2.854-1.032l2.854,1.032
					C152.902,14,151.823,11.887,151.191,10.183z"/>
			</g>
			<g>
				<path fill="#57514F" d="M151.191,182.627c-0.635-1.704-1.713-3.816-2.854-5.128l2.854,1.031l2.854-1.031
					C152.902,178.811,151.823,180.923,151.191,182.627z"/>
			</g>
		</g>
	</g>
	<g>
		<g>
			
				<line fill="none" stroke="#57514F" stroke-miterlimit="10" stroke-dasharray="2,2" x1="165.947" y1="134.825" x2="169.787" y2="176.9"/>
			<g>
				<path fill="#57514F" d="M165.617,131.22c-0.479,1.755-1.357,3.957-2.375,5.365l2.748-1.287l2.934,0.771
					C167.668,134.865,166.4,132.857,165.617,131.22z"/>
			</g>
			<g>
				<path fill="#57514F" d="M170.116,180.508c-0.784-1.64-2.054-3.646-3.312-4.848l2.938,0.769l2.747-1.286
					C171.473,176.55,170.59,178.754,170.116,180.508z"/>
			</g>
		</g>
	</g>
	<g>
		<g>
			
				<line fill="none" stroke="#57514F" stroke-miterlimit="10" stroke-dasharray="2,2" x1="113.026" y1="42.683" x2="188.57" y2="42.683"/>
			<g>
				<path fill="#57514F" d="M109.405,42.683c1.704,0.632,3.815,1.711,5.128,2.854l-1.032-2.854l1.032-2.853
					C113.222,40.972,111.109,42.051,109.405,42.683z"/>
			</g>
			<g>
				<path fill="#57514F" d="M192.191,42.683c-1.703,0.632-3.817,1.711-5.131,2.854l1.031-2.854l-1.031-2.853
					C188.373,40.972,190.488,42.051,192.191,42.683z"/>
			</g>
		</g>
	</g>
	<g>
		<g>
			
				<line fill="none" stroke="#57514F" stroke-miterlimit="10" stroke-dasharray="2,2" x1="195.604" y1="12.388" x2="251.777" y2="32.216"/>
			<g>
				<path fill="#57514F" d="M192.191,11.183c1.396,1.163,3.029,2.884,3.887,4.398l-0.023-3.035l1.924-2.347
					C196.361,10.841,194.009,11.154,192.191,11.183z"/>
			</g>
			<g>
				<path fill="#57514F" d="M255.191,33.421c-1.816,0.029-4.172,0.343-5.785,0.984l1.924-2.347l-0.023-3.034
					C252.16,30.537,253.795,32.258,255.191,33.421z"/>
			</g>
		</g>
	</g>
	
		<line fill="none" stroke="#57514F" stroke-miterlimit="10" stroke-dasharray="2,2" x1="160.611" y1="182.627" x2="142.612" y2="182.627"/>
</g>
<g>
	<circle fill="#57514F" cx="132.774" cy="42.206" r="11"/>
	<g enable-background="new    ">
		<path fill="#FFFFFF" d="M128.938,46.233l3.147-8.203h1.172l3.353,8.203h-1.234l-0.953-2.484h-3.43l-0.906,2.484H128.938z
			 M131.305,42.866h2.781l-0.858-2.273c-0.261-0.688-0.453-1.253-0.578-1.695c-0.104,0.526-0.252,1.047-0.445,1.563L131.305,42.866z
			"/>
	</g>
</g>
<g>
	<circle fill="#57514F" cx="151.604" cy="84.206" r="11"/>
	<g enable-background="new    ">
		<path fill="#FFFFFF" d="M148.623,88.233V80.03h3.078c0.625,0,1.127,0.083,1.508,0.25c0.379,0.167,0.676,0.423,0.891,0.77
			c0.213,0.347,0.32,0.707,0.32,1.082c0,0.349-0.096,0.679-0.285,0.988c-0.189,0.31-0.479,0.562-0.863,0.754
			c0.5,0.141,0.885,0.387,1.148,0.738c0.266,0.351,0.398,0.767,0.398,1.246c0,0.38-0.082,0.735-0.242,1.066
			c-0.162,0.331-0.363,0.586-0.604,0.766c-0.238,0.18-0.539,0.315-0.896,0.406c-0.359,0.091-0.801,0.137-1.32,0.137H148.623
			L148.623,88.233z M149.709,83.476h1.773c0.482,0,0.828-0.031,1.037-0.094c0.275-0.083,0.482-0.22,0.621-0.41
			s0.207-0.429,0.207-0.715c0-0.271-0.064-0.509-0.193-0.715c-0.133-0.206-0.316-0.348-0.561-0.426
			c-0.242-0.078-0.658-0.117-1.246-0.117h-1.641L149.709,83.476L149.709,83.476z M149.709,87.265h2.047
			c0.348,0,0.594-0.013,0.734-0.039c0.25-0.042,0.459-0.116,0.629-0.223c0.168-0.106,0.307-0.259,0.414-0.457
			c0.104-0.198,0.16-0.427,0.16-0.688c0-0.308-0.078-0.574-0.234-0.801s-0.375-0.386-0.652-0.477s-0.68-0.137-1.199-0.137h-1.896
			L149.709,87.265L149.709,87.265z"/>
	</g>
</g>
<g>
	<circle fill="#57514F" cx="220.441" cy="19.539" r="11"/>
	<g enable-background="new    ">
		<path fill="#FFFFFF" d="M223.355,20.691l1.086,0.273c-0.229,0.891-0.642,1.57-1.229,2.039c-0.592,0.469-1.313,0.703-2.168,0.703
			c-0.881,0-1.599-0.18-2.151-0.539c-0.555-0.359-0.978-0.88-1.267-1.563s-0.435-1.417-0.435-2.203c0-0.854,0.162-1.599,0.488-2.234
			c0.323-0.636,0.788-1.118,1.396-1.449c0.604-0.331,1.268-0.496,1.991-0.496c0.815,0,1.507,0.21,2.065,0.629
			c0.56,0.419,0.949,1.007,1.168,1.762l-1.069,0.25c-0.188-0.594-0.463-1.027-0.823-1.301c-0.363-0.273-0.816-0.41-1.363-0.41
			c-0.631,0-1.158,0.151-1.582,0.453c-0.426,0.302-0.724,0.708-0.896,1.219c-0.172,0.511-0.258,1.036-0.258,1.578
			c0,0.692,0.103,1.3,0.305,1.82c0.203,0.52,0.521,0.91,0.949,1.168c0.43,0.258,0.896,0.387,1.396,0.387
			c0.608,0,1.123-0.176,1.543-0.527C222.918,21.898,223.203,21.379,223.355,20.691z"/>
	</g>
</g>
<g>
	<circle fill="#57514F" cx="185.941" cy="157.539" r="11"/>
	<g enable-background="new    ">
		<path fill="#FFFFFF" d="M183.004,161.564v-8.201h2.828c0.635,0,1.121,0.037,1.461,0.115c0.469,0.109,0.869,0.31,1.203,0.596
			c0.432,0.363,0.754,0.831,0.969,1.396c0.213,0.567,0.32,1.217,0.32,1.945c0,0.625-0.074,1.18-0.219,1.66
			c-0.146,0.48-0.332,0.88-0.561,1.195c-0.227,0.313-0.477,0.563-0.746,0.742c-0.271,0.18-0.598,0.314-0.979,0.408
			c-0.383,0.096-0.822,0.143-1.316,0.143H183.004L183.004,161.564z M184.09,160.6h1.75c0.541,0,0.965-0.053,1.273-0.152
			c0.307-0.103,0.551-0.243,0.732-0.426c0.262-0.256,0.461-0.603,0.605-1.035c0.143-0.437,0.215-0.963,0.215-1.582
			c0-0.854-0.141-1.512-0.422-1.973c-0.281-0.462-0.625-0.771-1.031-0.928c-0.293-0.113-0.758-0.172-1.396-0.172h-1.729
			L184.09,160.6L184.09,160.6z"/>
	</g>
</g>
</svg>
