<?xml version="1.0" encoding="utf-8"?>
<!-- Generator: Adobe Illustrator 15.0.0, SVG Export Plug-In . SVG Version: 6.00 Build 0)  -->
<!DOCTYPE svg PUBLIC "-//W3C//DTD SVG 1.1//EN" "http://www.w3.org/Graphics/SVG/1.1/DTD/svg11.dtd">
<svg version="1.1" id="レイヤー_1" xmlns="http://www.w3.org/2000/svg" xmlns:xlink="http://www.w3.org/1999/xlink" x="0px"
	 y="0px" width="300px" height="186.5px" viewBox="0 0 300 186.5" enable-background="new 0 0 300 186.5" xml:space="preserve">
<g id="レイヤー_2_1_">
</g>
<path fill="none" stroke="#E5E0DD" stroke-width="1.25" stroke-linejoin="round" stroke-miterlimit="10" d="M149.919,179.389
	c6.5,0,10-2,10-2c4-23.5,37.5-26,37.5-26c0.642-18.5-1.022-46.166-4.5-57.75c-6-20,2.169-46.25,2.169-46.25
	c-11.855-9,0-38.16,0-38.16l-5.884-1.549c0,0-7.104,41.459-39.285,41.459c-32.181,0-39.283-41.459-39.283-41.459l-5.882,1.549
	c0,0,11.854,29.16,0,38.16c0,0,8.167,26.25,2.167,46.25c-3.478,11.583-5.142,39.25-4.5,57.75c0,0,33.5,2.5,37.5,26
	C139.921,177.389,143.421,179.389,149.919,179.389z"/>
<g>
	<g>
		
			<line fill="none" stroke="#57514F" stroke-miterlimit="10" stroke-dasharray="2,2" x1="178.088" y1="11.301" x2="178.088" y2="176.059"/>
		<g>
			<path fill="#57514F" d="M178.088,7.68c-0.634,1.704-1.713,3.818-2.854,5.128l2.854-1.032l2.854,1.032
				C179.798,11.498,178.721,9.384,178.088,7.68z"/>
		</g>
		<g>
			<path fill="#57514F" d="M178.088,179.68c-0.634-1.703-1.713-3.818-2.854-5.129l2.854,1.031l2.854-1.031
				C179.798,175.861,178.721,177.977,178.088,179.68z"/>
		</g>
	</g>
</g>
<g>
	<g>
		
			<line fill="none" stroke="#57514F" stroke-miterlimit="10" stroke-dasharray="2,2" x1="109.87" y1="48.389" x2="189.973" y2="48.389"/>
		<g>
			<path fill="#57514F" d="M106.249,48.389c1.704,0.632,3.815,1.711,5.128,2.854l-1.032-2.854l1.032-2.853
				C110.067,46.679,107.952,47.757,106.249,48.389z"/>
		</g>
		<g>
			<path fill="#57514F" d="M193.593,48.389c-1.704,0.632-3.817,1.711-5.128,2.854l1.03-2.854l-1.03-2.853
				C189.775,46.679,191.889,47.757,193.593,48.389z"/>
		</g>
	</g>
</g>
<line fill="none" stroke="#57514F" stroke-miterlimit="10" stroke-dasharray="2,2" x1="170.863" y1="7.68" x2="188.863" y2="7.68"/>
<line fill="none" stroke="#57514F" stroke-miterlimit="10" stroke-dasharray="2,2" x1="149.919" y1="179.389" x2="188.863" y2="179.389"/>
<g>
	<circle fill="#57514F" cx="150.334" cy="47.722" r="11"/>
	<g enable-background="new    ">
		<path fill="#FFFFFF" d="M146.5,51.75l3.147-8.203h1.171l3.354,8.203h-1.234l-0.953-2.484h-3.429l-0.906,2.484H146.5z
			 M148.867,48.382h2.781l-0.859-2.273c-0.26-0.688-0.453-1.253-0.578-1.695c-0.104,0.526-0.252,1.047-0.444,1.563L148.867,48.382z"
			/>
	</g>
</g>
<g>
	<circle fill="#57514F" cx="178.501" cy="99.721" r="11"/>
	<g enable-background="new    ">
		<path fill="#FFFFFF" d="M175.52,103.75v-8.203h3.078c0.625,0,1.127,0.082,1.508,0.25c0.379,0.166,0.677,0.424,0.892,0.77
			c0.213,0.349,0.319,0.707,0.319,1.082c0,0.351-0.096,0.681-0.284,0.988c-0.19,0.312-0.479,0.563-0.863,0.754
			c0.5,0.142,0.884,0.387,1.147,0.738c0.265,0.352,0.398,0.768,0.398,1.246c0,0.379-0.082,0.734-0.242,1.066
			c-0.162,0.33-0.363,0.586-0.603,0.766c-0.24,0.18-0.539,0.314-0.897,0.406c-0.359,0.09-0.801,0.137-1.32,0.137H175.52z
			 M176.605,98.992h1.773c0.482,0,0.829-0.031,1.038-0.094c0.274-0.084,0.481-0.222,0.621-0.41c0.138-0.191,0.207-0.43,0.207-0.715
			c0-0.271-0.065-0.51-0.194-0.715c-0.132-0.207-0.316-0.351-0.56-0.429c-0.243-0.075-0.658-0.114-1.246-0.114h-1.642
			L176.605,98.992L176.605,98.992z M176.605,102.781h2.047c0.349,0,0.595-0.014,0.734-0.039c0.25-0.043,0.459-0.117,0.629-0.223
			c0.168-0.107,0.308-0.261,0.414-0.457c0.104-0.199,0.16-0.429,0.16-0.689c0-0.307-0.078-0.574-0.234-0.801
			c-0.155-0.228-0.375-0.385-0.651-0.478c-0.278-0.092-0.681-0.137-1.199-0.137h-1.897L176.605,102.781L176.605,102.781z"/>
	</g>
</g>
</svg>
