<?xml version="1.0" encoding="utf-8"?>
<!-- Generator: Adobe Illustrator 15.0.0, SVG Export Plug-In . SVG Version: 6.00 Build 0)  -->
<!DOCTYPE svg PUBLIC "-//W3C//DTD SVG 1.1//EN" "http://www.w3.org/Graphics/SVG/1.1/DTD/svg11.dtd">
<svg version="1.1" id="レイヤー_1" xmlns="http://www.w3.org/2000/svg" xmlns:xlink="http://www.w3.org/1999/xlink" x="0px"
	 y="0px" width="300px" height="253.5px" viewBox="0 0 300 253.5" enable-background="new 0 0 300 253.5" xml:space="preserve">
<g id="レイヤー_2_1_">
</g>
<g>
	<path fill="none" stroke="#E5E0DD" stroke-width="1.25" stroke-linejoin="round" stroke-miterlimit="10" d="M161.316,49.345
		c0,0-2.805-18.4-9.604-28c-6.8-9.601-20-12-28.8-12c-8.8,0-22,2.399-28.8,12c-6.8,9.6-9.601,28-9.601,28"/>
	<path fill="none" stroke="#E5E0DD" stroke-width="1.25" stroke-linejoin="round" stroke-miterlimit="10" d="M155.91,29.345
		c0,0,35.882,7.219,35.882,31.618c0,15.729-31.958,33.581-68.877,33.581S54.038,76.692,54.038,60.963
		c0-24.399,35.882-31.618,35.882-31.618"/>
	<path fill="none" stroke="#E5E0DD" stroke-width="1.25" stroke-linejoin="round" stroke-miterlimit="10" d="M98.316,25.744
		c-0.91-1.906,5.107,8.8,24.6,8.8s25.51-10.706,24.603-8.8"/>
	<path fill="none" stroke="#E5E0DD" stroke-width="1.25" stroke-linejoin="round" stroke-miterlimit="10" d="M161.316,54.544
		c0,0-7.604,12.801-38.4,12.801"/>
</g>
<g>
	<path fill="none" stroke="#E5E0DD" stroke-width="1.25" stroke-linejoin="round" stroke-miterlimit="10" d="M173.542,216.366
		c28.8,0,42.438-11.793,48.847-19.804c6.405-8.008-0.604-7.561-4.927-19.801c-4.321-12.238-6.745-22.481-8.741-34.563
		c-2.261-13.68-15.738-20.878-35.179-20.878s-32.918,7.201-35.179,20.878c-1.996,12.076-4.421,22.32-8.741,34.563
		c-4.32,12.243-11.332,11.793-4.926,19.801C131.103,204.573,144.742,216.366,173.542,216.366z"/>
	<path fill="none" stroke="#E5E0DD" stroke-width="1.25" stroke-linejoin="round" stroke-miterlimit="10" d="M141.863,144.626
		c0,0,9.356,9.979,31.68,9.979s31.68-9.979,31.68-9.979"/>
	<g>
		<path fill="none" stroke="#E5E0DD" stroke-width="1.25" stroke-linejoin="round" stroke-miterlimit="10" d="M212.686,161.348
			c-9.428,8.897-23.488,15.756-39.146,15.729c-15.655,0.027-29.719-6.83-39.145-15.729"/>
	</g>
	<g>
		<path fill="none" stroke="#E5E0DD" stroke-width="1.25" stroke-linejoin="round" stroke-miterlimit="10" d="M131.024,172.663
			c10.605,9.267,25.604,15.496,42.519,15.479c16.914,0.018,31.909-6.217,42.52-15.479"/>
	</g>
</g>
<g>
	<g>
		<g>
			
				<line fill="none" stroke="#57514F" stroke-miterlimit="10" stroke-dasharray="2,2" x1="168.837" y1="29.139" x2="168.837" y2="63.724"/>
			<g>
				<path fill="#57514F" d="M168.837,25.518c-0.633,1.704-1.711,3.817-2.854,5.128l2.854-1.031l2.853,1.031
					C170.546,29.335,169.468,27.222,168.837,25.518z"/>
			</g>
			<g>
				<path fill="#57514F" d="M168.837,67.345c-0.633-1.704-1.711-3.818-2.854-5.129l2.854,1.033l2.853-1.033
					C170.546,63.527,169.468,65.641,168.837,67.345z"/>
			</g>
		</g>
	</g>
	<g>
		<g>
			
				<line fill="none" stroke="#57514F" stroke-miterlimit="10" stroke-dasharray="2,2" x1="121.316" y1="71.124" x2="121.316" y2="88.924"/>
			<g>
				<path fill="#57514F" d="M121.316,67.503c-0.632,1.704-1.711,3.818-2.854,5.129l2.854-1.033l2.853,1.033
					C123.026,71.322,121.948,69.207,121.316,67.503z"/>
			</g>
			<g>
				<path fill="#57514F" d="M121.316,92.545c-0.632-1.704-1.711-3.818-2.854-5.129l2.854,1.032l2.853-1.032
					C123.026,88.727,121.948,90.841,121.316,92.545z"/>
			</g>
		</g>
	</g>
	
		<line fill="none" stroke="#57514F" stroke-miterlimit="10" stroke-dasharray="2,2" x1="151.716" y1="24.145" x2="176.036" y2="24.145"/>
	
		<line fill="none" stroke="#57514F" stroke-miterlimit="10" stroke-dasharray="2,2" x1="122.915" y1="67.345" x2="177.716" y2="67.345"/>
	<path fill="none" stroke="#57514F" stroke-miterlimit="10" stroke-dasharray="2,2" d="M160.098,89.388
		c2.295,3.867,2.402,6.961,2.402,6.961s-1.275,22-41.676,22c-27.712,0-36.219-10.8-36.219-10.8"/>
	<g>
		<g>
			<path fill="none" stroke="#57514F" stroke-miterlimit="10" stroke-dasharray="2,2" d="M81.267,99.283
				c-0.153-3.363,0.34-8.216,3.971-10.604"/>
			<g>
				<path fill="#57514F" d="M81.704,102.876c0.441-1.763,1.281-3.982,2.273-5.411l-2.726,1.34l-2.949-0.713
					C79.584,99.269,80.89,101.252,81.704,102.876z"/>
			</g>
		</g>
	</g>
</g>
<g>
	<g>
		<g>
			
				<line fill="none" stroke="#57514F" stroke-miterlimit="10" stroke-dasharray="2,2" x1="227.643" y1="140.475" x2="227.643" y2="161.352"/>
			<g>
				<path fill="#57514F" d="M227.643,136.854c-0.631,1.703-1.711,3.817-2.854,5.129l2.854-1.033l2.854,1.033
					C229.354,140.671,228.277,138.557,227.643,136.854z"/>
			</g>
			<g>
				<path fill="#57514F" d="M227.643,164.973c-0.631-1.705-1.711-3.818-2.854-5.13l2.854,1.033l2.854-1.033
					C229.354,161.152,228.277,163.268,227.643,164.973z"/>
			</g>
		</g>
	</g>
	<g>
		<g>
			
				<line fill="none" stroke="#57514F" stroke-miterlimit="10" stroke-dasharray="2,2" x1="212.116" y1="180.225" x2="219.225" y2="198.698"/>
			<g>
				<path fill="#57514F" d="M210.816,176.845c0.021,1.816-0.229,4.179-0.821,5.812l2.293-1.985l3.032-0.063
					C213.783,179.794,212.014,178.208,210.816,176.845z"/>
			</g>
			<g>
				<path fill="#57514F" d="M220.527,202.079c-1.201-1.363-2.971-2.948-4.508-3.763l3.033-0.063l2.293-1.986
					C220.752,197.9,220.505,200.262,220.527,202.079z"/>
			</g>
		</g>
	</g>
	
		<line fill="none" stroke="#57514F" stroke-miterlimit="10" stroke-dasharray="2,2" x1="218.324" y1="165.239" x2="237.924" y2="165.239"/>
	<path fill="none" stroke="#57514F" stroke-miterlimit="10" stroke-dasharray="2,2" d="M214.798,206.411
		c2.293,3.866,2.401,6.961,2.401,6.961s-1.275,22-41.68,22c-27.708,0-36.219-10.802-36.219-10.802"/>
	<g>
		<g>
			<path fill="none" stroke="#57514F" stroke-miterlimit="10" stroke-dasharray="2,2" d="M135.736,218.456
				c-0.392-2.457-0.326-5.918,1.771-9.377"/>
			<g>
				<path fill="#57514F" d="M136.736,221.938c0.162-1.812,0.646-4.135,1.404-5.697l-2.481,1.746l-3.024-0.246
					C134.081,218.702,135.678,220.459,136.736,221.938z"/>
			</g>
		</g>
	</g>
	
		<line fill="none" stroke="#57514F" stroke-miterlimit="10" stroke-dasharray="2,2" x1="218.324" y1="136.854" x2="237.924" y2="136.854"/>
</g>
<g>
	<circle fill="#57514F" cx="122.407" cy="115.183" r="11"/>
	<g enable-background="new    ">
		<path fill="#FFFFFF" d="M118.573,119.21l3.147-8.203h1.173l3.352,8.203h-1.234l-0.952-2.484h-3.431l-0.906,2.484H118.573z
			 M120.94,115.843h2.78l-0.858-2.273c-0.261-0.688-0.453-1.253-0.578-1.695c-0.104,0.526-0.253,1.047-0.445,1.563L120.94,115.843z"
			/>
	</g>
</g>
<g>
	<circle fill="#57514F" cx="174.395" cy="47.012" r="11"/>
	<g enable-background="new    ">
		<path fill="#FFFFFF" d="M171.413,51.04v-8.203h3.078c0.625,0,1.127,0.083,1.508,0.25c0.38,0.167,0.677,0.423,0.892,0.77
			c0.213,0.347,0.319,0.707,0.319,1.082c0,0.349-0.096,0.679-0.285,0.988c-0.188,0.31-0.479,0.563-0.862,0.754
			c0.5,0.141,0.883,0.387,1.147,0.738s0.397,0.767,0.397,1.246c0,0.38-0.08,0.735-0.241,1.066c-0.162,0.331-0.362,0.586-0.603,0.766
			c-0.24,0.18-0.539,0.315-0.897,0.406c-0.359,0.091-0.8,0.137-1.32,0.137H171.413z M172.499,46.283h1.772
			c0.483,0,0.83-0.031,1.039-0.094c0.274-0.083,0.481-0.22,0.621-0.41c0.139-0.19,0.207-0.429,0.207-0.715
			c0-0.271-0.064-0.509-0.195-0.715s-0.315-0.348-0.56-0.426c-0.243-0.078-0.657-0.117-1.245-0.117h-1.642L172.499,46.283
			L172.499,46.283z M172.499,50.072h2.047c0.349,0,0.595-0.013,0.733-0.039c0.25-0.042,0.459-0.116,0.63-0.223
			c0.169-0.106,0.307-0.259,0.413-0.457c0.105-0.198,0.16-0.427,0.16-0.688c0-0.308-0.078-0.574-0.233-0.801
			c-0.156-0.227-0.374-0.386-0.651-0.477c-0.279-0.091-0.68-0.137-1.199-0.137H172.5L172.499,50.072L172.499,50.072z"/>
	</g>
</g>
<g>
	<circle fill="#57514F" cx="104.397" cy="74.679" r="11"/>
	<g enable-background="new    ">
		<path fill="#FFFFFF" d="M107.312,75.832l1.086,0.273c-0.229,0.891-0.64,1.57-1.23,2.039c-0.591,0.469-1.313,0.703-2.168,0.703
			c-0.88,0-1.598-0.18-2.151-0.539c-0.555-0.359-0.978-0.88-1.267-1.563c-0.289-0.683-0.434-1.417-0.434-2.203
			c0-0.854,0.163-1.599,0.487-2.234c0.326-0.636,0.791-1.118,1.396-1.449c0.604-0.331,1.269-0.496,1.992-0.496
			c0.817,0,1.507,0.21,2.065,0.629c0.562,0.419,0.949,1.007,1.168,1.762l-1.069,0.25c-0.188-0.594-0.462-1.027-0.824-1.301
			c-0.361-0.273-0.816-0.41-1.363-0.41c-0.63,0-1.157,0.151-1.582,0.453c-0.424,0.302-0.723,0.708-0.895,1.219
			c-0.172,0.511-0.258,1.036-0.258,1.578c0,0.692,0.102,1.3,0.305,1.82c0.203,0.52,0.52,0.91,0.949,1.168
			c0.429,0.258,0.895,0.387,1.395,0.387c0.609,0,1.124-0.176,1.543-0.527C106.876,77.039,107.161,76.52,107.312,75.832z"/>
	</g>
</g>
<g>
	<circle fill="#57514F" cx="174.407" cy="233.184" r="11"/>
	<g enable-background="new    ">
		<path fill="#FFFFFF" d="M170.573,237.21l3.147-8.203h1.172l3.353,8.203h-1.233l-0.953-2.483h-3.431l-0.905,2.483H170.573z
			 M172.939,233.843h2.781l-0.859-2.272c-0.262-0.688-0.452-1.252-0.577-1.695c-0.104,0.527-0.253,1.048-0.445,1.563
			L172.939,233.843z"/>
	</g>
</g>
<g>
	<circle fill="#57514F" cx="245.895" cy="154.512" r="11"/>
	<g enable-background="new    ">
		<path fill="#FFFFFF" d="M242.913,158.54v-8.203h3.078c0.625,0,1.127,0.083,1.508,0.25c0.38,0.167,0.677,0.423,0.892,0.771
			c0.213,0.348,0.319,0.707,0.319,1.082c0,0.35-0.096,0.68-0.285,0.987c-0.188,0.312-0.479,0.563-0.862,0.755
			c0.5,0.141,0.883,0.387,1.147,0.737s0.397,0.767,0.397,1.246c0,0.38-0.08,0.733-0.241,1.065c-0.162,0.33-0.362,0.586-0.603,0.767
			c-0.24,0.18-0.539,0.313-0.897,0.405c-0.359,0.091-0.8,0.138-1.32,0.138H242.913L242.913,158.54z M243.999,153.782h1.772
			c0.483,0,0.83-0.03,1.039-0.095c0.274-0.082,0.481-0.22,0.621-0.41c0.139-0.188,0.207-0.428,0.207-0.715
			c0-0.271-0.064-0.508-0.195-0.715c-0.131-0.205-0.315-0.348-0.56-0.426c-0.243-0.078-0.657-0.117-1.245-0.117h-1.642
			L243.999,153.782L243.999,153.782z M243.999,157.57h2.047c0.349,0,0.595-0.012,0.733-0.038c0.25-0.041,0.459-0.115,0.63-0.224
			c0.169-0.104,0.307-0.259,0.413-0.457c0.105-0.197,0.16-0.427,0.16-0.688c0-0.309-0.078-0.574-0.233-0.801
			c-0.156-0.229-0.374-0.387-0.651-0.479c-0.279-0.091-0.68-0.137-1.199-0.137H244L243.999,157.57L243.999,157.57z"/>
	</g>
</g>
<g>
	<circle fill="#57514F" cx="231.895" cy="186.68" r="11"/>
	<g enable-background="new    ">
		<path fill="#FFFFFF" d="M234.811,187.831l1.086,0.272c-0.229,0.892-0.64,1.57-1.229,2.039c-0.592,0.469-1.314,0.703-2.168,0.703
			c-0.881,0-1.598-0.18-2.152-0.539c-0.554-0.358-0.977-0.88-1.266-1.563c-0.289-0.684-0.436-1.418-0.436-2.203
			c0-0.854,0.162-1.6,0.488-2.234c0.325-0.636,0.79-1.117,1.396-1.449c0.604-0.33,1.268-0.496,1.99-0.496
			c0.817,0,1.508,0.212,2.066,0.63c0.561,0.42,0.949,1.008,1.168,1.763l-1.07,0.25c-0.188-0.595-0.463-1.027-0.822-1.302
			c-0.362-0.272-0.816-0.409-1.363-0.409c-0.631,0-1.158,0.15-1.582,0.452c-0.425,0.303-0.723,0.709-0.896,1.22
			c-0.172,0.512-0.258,1.036-0.258,1.578c0,0.691,0.104,1.3,0.307,1.818c0.201,0.521,0.52,0.91,0.947,1.168
			c0.43,0.259,0.896,0.389,1.396,0.389c0.607,0,1.123-0.177,1.543-0.527C234.375,189.038,234.66,188.52,234.811,187.831z"/>
	</g>
</g>
</svg>
