<?xml version="1.0" encoding="utf-8"?>
<!-- Generator: Adobe Illustrator 15.0.0, SVG Export Plug-In . SVG Version: 6.00 Build 0)  -->
<!DOCTYPE svg PUBLIC "-//W3C//DTD SVG 1.1//EN" "http://www.w3.org/Graphics/SVG/1.1/DTD/svg11.dtd">
<svg version="1.1" id="レイヤー_1" xmlns="http://www.w3.org/2000/svg" xmlns:xlink="http://www.w3.org/1999/xlink" x="0px"
	 y="0px" width="300px" height="223.5px" viewBox="0 0 300 223.5" enable-background="new 0 0 300 223.5" xml:space="preserve">
<g id="レイヤー_1_1_">
	<g>
		<path fill="none" stroke="#E5E0DD" stroke-width="1.25" stroke-linejoin="round" stroke-miterlimit="10" d="M157.5,164.75
			c2.5,0,2.5,5,2.5,5l5,43.5l55-7.5c0,0-9.5-95.5-9.5-104s-20-51.5-20-51.5c-15,3.5-33,3-33,3s-18,0.5-33-3c0,0-20,43-20,51.5
			s-9.5,104-9.5,104l55,7.5l5-43.5C155,169.75,155,164.75,157.5,164.75"/>
		<polygon fill="none" stroke="#E5E0DD" stroke-width="1.25" stroke-linejoin="round" stroke-miterlimit="10" points="157.5,102.25 
			175.5,102.25 178,80.75 157.5,80.75 137,80.75 139.5,102.25 		"/>
		<polyline fill="none" stroke="#E5E0DD" stroke-width="1.25" stroke-linejoin="round" stroke-miterlimit="10" points="157.5,53.25 
			181.5,10.25 196,12.75 187.525,50.885 		"/>
		
			<line fill="none" stroke="#E5E0DD" stroke-width="1.25" stroke-linejoin="round" stroke-miterlimit="10" x1="181.5" y1="10.25" x2="173.002" y2="52.772"/>
		<polyline fill="none" stroke="#E5E0DD" stroke-width="1.25" stroke-linejoin="round" stroke-miterlimit="10" points="157.5,53.25 
			133.5,10.25 119,12.75 127.475,50.885 		"/>
		
			<line fill="none" stroke="#E5E0DD" stroke-width="1.25" stroke-linejoin="round" stroke-miterlimit="10" x1="133.5" y1="10.25" x2="141.997" y2="52.772"/>
		
			<circle fill="none" stroke="#E5E0DD" stroke-width="1.25" stroke-linejoin="round" stroke-miterlimit="10" cx="135.5" cy="63.75" r="5.25"/>
		
			<circle fill="none" stroke="#E5E0DD" stroke-width="1.25" stroke-linejoin="round" stroke-miterlimit="10" cx="179.5" cy="63.75" r="5.25"/>
		
			<line fill="none" stroke="#E5E0DD" stroke-width="1.25" stroke-linejoin="round" stroke-miterlimit="10" x1="106" y1="121.25" x2="207.5" y2="121.25"/>
		<path fill="none" stroke="#E5E0DD" stroke-width="1.25" stroke-linejoin="round" stroke-miterlimit="10" d="M133.5,121.25
			c0,0-4.229,23.325-32.863,23.325"/>
		<path fill="none" stroke="#E5E0DD" stroke-width="1.25" stroke-linejoin="round" stroke-miterlimit="10" d="M181.5,121.25
			c0,0,4.227,23.325,32.859,23.325"/>
	</g>
	<g>
		<g>
			<g>
				
					<line fill="none" stroke="#57514F" stroke-miterlimit="10" stroke-dasharray="2,2" x1="82.768" y1="54.871" x2="82.768" y2="204.629"/>
				<g>
					<path fill="#57514F" d="M82.768,51.25c-0.632,1.704-1.711,3.818-2.854,5.128l2.854-1.032l2.854,1.032
						C84.478,55.068,83.4,52.954,82.768,51.25z"/>
				</g>
				<g>
					<path fill="#57514F" d="M82.768,208.25c-0.632-1.704-1.711-3.818-2.854-5.129l2.854,1.031l2.854-1.031
						C84.478,204.432,83.4,206.546,82.768,208.25z"/>
				</g>
			</g>
		</g>
		<g>
			<g>
				
					<line fill="none" stroke="#57514F" stroke-miterlimit="10" stroke-dasharray="2,2" x1="157.098" y1="169.732" x2="160.938" y2="211.811"/>
				<g>
					<path fill="#57514F" d="M156.768,166.127c-0.475,1.754-1.355,3.958-2.375,5.366l2.748-1.287l2.936,0.769
						C158.818,169.773,157.552,167.768,156.768,166.127z"/>
				</g>
				<g>
					<path fill="#57514F" d="M161.268,215.416c-0.785-1.641-2.052-3.646-3.309-4.848l2.936,0.769l2.748-1.287
						C162.62,211.458,161.74,213.662,161.268,215.416z"/>
				</g>
			</g>
		</g>
		<g>
			<g>
				
					<line fill="none" stroke="#57514F" stroke-miterlimit="10" stroke-dasharray="2,2" x1="108.889" y1="114.25" x2="206.879" y2="114.25"/>
				<g>
					<path fill="#57514F" d="M105.268,114.25c1.704,0.632,3.818,1.711,5.128,2.854l-1.032-2.854l1.032-2.854
						C109.086,112.54,106.972,113.618,105.268,114.25z"/>
				</g>
				<g>
					<path fill="#57514F" d="M210.5,114.25c-1.704,0.632-3.818,1.711-5.132,2.854l1.032-2.854l-1.032-2.854
						C206.682,112.54,208.796,113.618,210.5,114.25z"/>
				</g>
			</g>
		</g>
		
			<line fill="none" stroke="#57514F" stroke-miterlimit="10" stroke-dasharray="2,2" x1="122.518" y1="51.25" x2="76.268" y2="51.25"/>
		
			<line fill="none" stroke="#57514F" stroke-miterlimit="10" stroke-dasharray="2,2" x1="94.268" y1="208.25" x2="76.268" y2="208.25"/>
	</g>
	<g>
		<circle fill="#57514F" cx="156.913" cy="112.75" r="11"/>
		<g enable-background="new    ">
			<path fill="#FFFFFF" d="M153.08,116.777l3.146-8.203h1.172l3.354,8.203h-1.234l-0.953-2.484h-3.43l-0.906,2.484H153.08z
				 M155.448,113.41h2.78l-0.858-2.273c-0.263-0.688-0.453-1.253-0.578-1.695c-0.104,0.526-0.254,1.048-0.444,1.563L155.448,113.41z
				"/>
		</g>
	</g>
	<g>
		<circle fill="#57514F" cx="82.25" cy="114.75" r="11"/>
		<g enable-background="new    ">
			<path fill="#FFFFFF" d="M79.265,118.777v-8.203h3.078c0.625,0,1.128,0.083,1.508,0.25s0.677,0.423,0.892,0.77
				c0.214,0.348,0.319,0.707,0.319,1.082c0,0.35-0.095,0.68-0.285,0.988c-0.189,0.309-0.478,0.563-0.862,0.754
				c0.5,0.141,0.883,0.387,1.147,0.738c0.266,0.351,0.398,0.767,0.398,1.246c0,0.38-0.081,0.733-0.242,1.064
				c-0.161,0.331-0.362,0.588-0.602,0.768c-0.24,0.18-0.539,0.313-0.898,0.406c-0.359,0.09-0.8,0.137-1.32,0.137H79.265z
				 M80.351,114.02h1.773c0.483,0,0.831-0.029,1.039-0.094c0.275-0.083,0.482-0.22,0.621-0.41c0.138-0.188,0.207-0.429,0.207-0.715
				c0-0.271-0.065-0.509-0.195-0.715s-0.316-0.348-0.56-0.426c-0.242-0.078-0.656-0.117-1.245-0.117H80.35L80.351,114.02
				L80.351,114.02z M80.351,117.809h2.047c0.35,0,0.595-0.013,0.734-0.039c0.25-0.041,0.46-0.114,0.629-0.223
				c0.169-0.107,0.308-0.259,0.414-0.457c0.105-0.197,0.16-0.427,0.16-0.688c0-0.31-0.078-0.574-0.234-0.801
				c-0.156-0.229-0.374-0.388-0.651-0.479c-0.278-0.091-0.68-0.139-1.199-0.139h-1.898L80.351,117.809L80.351,117.809z"/>
		</g>
	</g>
	<g>
		<circle fill="#57514F" cx="167.58" cy="188.75" r="11"/>
		<g enable-background="new    ">
			<path fill="#FFFFFF" d="M170.497,189.902l1.087,0.271c-0.23,0.893-0.643,1.57-1.23,2.039c-0.592,0.471-1.313,0.703-2.168,0.703
				c-0.881,0-1.598-0.182-2.151-0.539s-0.978-0.88-1.267-1.563c-0.289-0.684-0.434-1.416-0.434-2.203
				c0-0.854,0.161-1.598,0.486-2.233c0.324-0.636,0.789-1.118,1.396-1.449c0.604-0.331,1.268-0.495,1.992-0.495
				c0.814,0,1.506,0.209,2.064,0.629c0.561,0.418,0.949,1.006,1.168,1.763l-1.069,0.25c-0.188-0.595-0.463-1.027-0.823-1.302
				c-0.363-0.272-0.816-0.409-1.363-0.409c-0.631,0-1.158,0.149-1.582,0.452c-0.426,0.303-0.723,0.707-0.895,1.22
				c-0.173,0.511-0.259,1.034-0.259,1.578c0,0.69,0.103,1.3,0.306,1.819c0.203,0.521,0.52,0.909,0.948,1.168
				c0.43,0.258,0.896,0.388,1.396,0.388c0.609,0,1.123-0.177,1.543-0.527C170.061,191.109,170.346,190.59,170.497,189.902z"/>
		</g>
	</g>
</g>
<g id="レイヤー_2_1_">
</g>
</svg>
