<?xml version="1.0" encoding="utf-8"?>
<!-- Generator: Adobe Illustrator 15.0.0, SVG Export Plug-In . SVG Version: 6.00 Build 0)  -->
<!DOCTYPE svg PUBLIC "-//W3C//DTD SVG 1.1//EN" "http://www.w3.org/Graphics/SVG/1.1/DTD/svg11.dtd">
<svg version="1.1" id="レイヤー_1" xmlns="http://www.w3.org/2000/svg" xmlns:xlink="http://www.w3.org/1999/xlink" x="0px"
	 y="0px" width="300px" height="204.5px" viewBox="0 0 300 204.5" enable-background="new 0 0 300 204.5" xml:space="preserve">
<g id="レイヤー_1_1_">
	<g>
		<circle fill="#57514F" cx="161.07" cy="18.495" r="11"/>
		<g enable-background="new    ">
			<path fill="#FFFFFF" d="M157.232,22.522l3.148-8.203h1.172l3.354,8.203h-1.234l-0.953-2.484h-3.43l-0.906,2.484H157.232z
				 M159.602,19.155h2.78l-0.858-2.273c-0.262-0.688-0.453-1.253-0.578-1.695c-0.104,0.526-0.254,1.047-0.444,1.563L159.602,19.155z
				"/>
		</g>
	</g>
	<g>
		<circle fill="#57514F" cx="90.584" cy="108.605" r="11"/>
		<g enable-background="new    ">
			<path fill="#FFFFFF" d="M87.6,112.634v-8.202h3.078c0.625,0,1.128,0.084,1.509,0.25c0.381,0.168,0.678,0.424,0.891,0.771
				c0.214,0.347,0.32,0.707,0.32,1.082c0,0.349-0.096,0.679-0.285,0.987c-0.189,0.311-0.479,0.563-0.863,0.754
				c0.5,0.142,0.883,0.388,1.148,0.738c0.265,0.352,0.397,0.768,0.397,1.245c0,0.382-0.08,0.735-0.242,1.066
				c-0.161,0.331-0.36,0.586-0.602,0.766c-0.239,0.181-0.539,0.315-0.898,0.406c-0.358,0.091-0.799,0.137-1.319,0.137H87.6z
				 M88.686,107.876h1.772c0.484,0,0.831-0.031,1.039-0.094c0.276-0.083,0.483-0.222,0.621-0.41
				c0.139-0.188,0.207-0.429,0.207-0.715c0-0.271-0.064-0.511-0.195-0.716c-0.13-0.205-0.315-0.348-0.559-0.426
				c-0.244-0.078-0.657-0.117-1.246-0.117h-1.642v2.478H88.686z M88.686,111.665h2.047c0.35,0,0.594-0.013,0.733-0.039
				c0.25-0.042,0.46-0.115,0.629-0.224c0.17-0.105,0.309-0.26,0.414-0.457c0.107-0.197,0.16-0.428,0.16-0.688
				c0-0.309-0.078-0.574-0.233-0.802c-0.156-0.228-0.373-0.386-0.652-0.478c-0.278-0.09-0.678-0.138-1.199-0.138h-1.897
				L88.686,111.665L88.686,111.665z"/>
		</g>
	</g>
	<path fill="none" stroke="#E5E0DD" stroke-width="1.25" stroke-linejoin="round" stroke-miterlimit="10" d="M111.742,41.939
		c0,0,8.328,5.681,27.828,5.681c19.5,0,23.375,0,23.375,0"/>
	<path fill="none" stroke="#E5E0DD" stroke-width="1.25" stroke-linejoin="round" stroke-miterlimit="10" d="M162.945,197.495
		c53.125,0,57.375-6,57.375-6s0-49,0-85.5s-8.5-76.5-8.5-76.5c-18,5.5-29.5,4.375-49.5,4.375h1.25c-20,0-31.5,1.125-49.5-4.375
		c0,0-8.5,40-8.5,76.5s0,85.5,0,85.5S109.821,197.495,162.945,197.495"/>
	<path fill="none" stroke="#E5E0DD" stroke-width="1.25" stroke-linejoin="round" stroke-miterlimit="10" d="M214.146,41.939
		c0,0-11.326,5.681-30.826,5.681s-20.375,0-20.375,0"/>
	
		<line fill="none" stroke="#57514F" stroke-miterlimit="10" stroke-dasharray="2,2" x1="93.321" y1="28.995" x2="93.321" y2="192.995"/>
	
		<line fill="none" stroke="#57514F" stroke-miterlimit="10" stroke-dasharray="2,2" x1="112.594" y1="23.995" x2="212.07" y2="23.995"/>
	
		<line fill="none" stroke="#57514F" stroke-miterlimit="10" stroke-dasharray="2,2" x1="105.571" y1="28.995" x2="77.321" y2="28.995"/>
	
		<line fill="none" stroke="#57514F" stroke-miterlimit="10" stroke-dasharray="2,2" x1="96.821" y1="192.995" x2="77.321" y2="192.995"/>
</g>
<g id="レイヤー_2_1_">
</g>
</svg>
