<?xml version="1.0" encoding="utf-8"?>
<!-- Generator: Adobe Illustrator 15.0.0, SVG Export Plug-In . SVG Version: 6.00 Build 0)  -->
<!DOCTYPE svg PUBLIC "-//W3C//DTD SVG 1.1//EN" "http://www.w3.org/Graphics/SVG/1.1/DTD/svg11.dtd">
<svg version="1.1" id="レイヤー_1" xmlns="http://www.w3.org/2000/svg" xmlns:xlink="http://www.w3.org/1999/xlink" x="0px"
	 y="0px" width="300px" height="175px" viewBox="0 0 300 175" enable-background="new 0 0 300 175" xml:space="preserve">
<g id="レイヤー_1_1_">
	<path fill="none" stroke="#E5E0DD" stroke-width="1.25" stroke-linejoin="round" stroke-miterlimit="10" d="M149.877,157.574
		c55.334,0,52.166-16,52.166-16l-2.5-83.333l86.5,32.167l8.5-27c-15.834-5.167-121.666-45.5-121.666-45.5
		c-2.919,2.916-14.169,3.5-23,3.5c-8.833,0-20.083-0.584-23-3.5c0,0-105.833,40.333-121.667,45.5l8.5,27l86.5-32.167l-2.5,83.333
		C97.711,141.574,94.543,157.574,149.877,157.574"/>
	<path fill="none" stroke="#E5E0DD" stroke-width="1.25" stroke-linejoin="round" stroke-miterlimit="10" d="M126.877,17.908
		c0,0,0.75,16.166,23,16.166"/>
	<path fill="none" stroke="#E5E0DD" stroke-width="1.25" stroke-linejoin="round" stroke-miterlimit="10" d="M172.877,17.908
		c0,0-0.75,16.166-23,16.166"/>
	
		<line fill="none" stroke="#E5E0DD" stroke-width="1.25" stroke-linejoin="round" stroke-miterlimit="10" x1="100.21" y1="58.241" x2="101.521" y2="27.544"/>
	
		<line fill="none" stroke="#E5E0DD" stroke-width="1.25" stroke-linejoin="round" stroke-miterlimit="10" x1="199.541" y1="58.241" x2="198.232" y2="27.544"/>
</g>
<g id="レイヤー_2">
	<g>
		<g>
			<path fill="none" stroke="#57514F" stroke-miterlimit="10" d="M201.423,25.69c0.31-0.054,0.638-0.106,0.979-0.161"/>
			<path fill="none" stroke="#57514F" stroke-miterlimit="10" stroke-dasharray="1.9934,1.9934" d="M204.374,25.243
				c9.021-1.196,26.612-2.103,47.503,4.164c21.857,6.558,34.43,22.011,39.641,29.913"/>
			<path fill="none" stroke="#57514F" stroke-miterlimit="10" d="M292.063,60.161c0.188,0.295,0.364,0.577,0.529,0.845"/>
			<g>
				<path fill="#57514F" d="M197.877,26.408c1.794,0.29,4.075,0.939,5.584,1.807l-1.564-2.601l0.459-2.999
					C201.289,23.991,199.426,25.459,197.877,26.408z"/>
			</g>
			<g>
				<path fill="#57514F" d="M294.377,64.158c-1.398-1.159-3.395-2.451-5.035-3.014l2.984-0.533l1.953-2.32
					C293.949,59.996,294.072,62.366,294.377,64.158z"/>
			</g>
		</g>
	</g>
	<g>
		<g>
			
				<line fill="none" stroke="#57514F" stroke-miterlimit="10" stroke-dasharray="2,2" x1="149.877" y1="25.03" x2="149.877" y2="154.287"/>
			<g>
				<path fill="#57514F" d="M149.877,21.408c-0.634,1.704-1.713,3.818-2.854,5.128l2.854-1.032l2.854,1.032
					C151.587,25.224,150.509,23.113,149.877,21.408z"/>
			</g>
			<g>
				<path fill="#57514F" d="M149.877,157.908c-0.634-1.705-1.713-3.818-2.854-5.129l2.854,1.031l2.854-1.031
					C151.587,154.09,150.509,156.203,149.877,157.908z"/>
			</g>
		</g>
	</g>
	<g>
		<g>
			
				<line fill="none" stroke="#57514F" stroke-miterlimit="10" stroke-dasharray="2,2" x1="101.998" y1="62.408" x2="195.756" y2="62.408"/>
			<g>
				<path fill="#57514F" d="M98.377,62.408c1.704,0.632,3.814,1.711,5.128,2.854l-1.032-2.854l1.032-2.854
					C102.195,60.698,100.081,61.777,98.377,62.408z"/>
			</g>
			<g>
				<path fill="#57514F" d="M199.377,62.408c-1.704,0.632-3.818,1.711-5.131,2.854l1.031-2.854l-1.029-2.854
					C195.559,60.698,197.673,61.777,199.377,62.408z"/>
			</g>
		</g>
	</g>
</g>
<g id="レイヤー_3">
	<g>
		<circle fill="#57514F" cx="175.252" cy="60.788" r="11"/>
		<g enable-background="new    ">
			<path fill="#FFFFFF" d="M171.416,64.816l3.146-8.203h1.172l3.354,8.203h-1.234l-0.953-2.484h-3.43l-0.906,2.484H171.416z
				 M173.783,61.449h2.781l-0.858-2.273c-0.263-0.688-0.453-1.253-0.578-1.695c-0.104,0.526-0.254,1.047-0.444,1.563L173.783,61.449
				z"/>
		</g>
	</g>
	<g>
		<circle fill="#57514F" cx="255.252" cy="29.288" r="11"/>
		<g enable-background="new    ">
			<path fill="#FFFFFF" d="M257.85,30.441l1.086,0.273c-0.229,0.891-0.641,1.57-1.229,2.039c-0.594,0.469-1.314,0.703-2.168,0.703
				c-0.883,0-1.6-0.18-2.152-0.539c-0.554-0.359-0.978-0.88-1.266-1.563c-0.289-0.683-0.436-1.417-0.436-2.203
				c0-0.854,0.162-1.599,0.488-2.234c0.324-0.636,0.789-1.118,1.395-1.449c0.604-0.331,1.27-0.496,1.992-0.496
				c0.816,0,1.506,0.21,2.066,0.629c0.559,0.419,0.949,1.007,1.168,1.762l-1.07,0.25c-0.188-0.594-0.463-1.027-0.824-1.301
				c-0.361-0.273-0.814-0.41-1.361-0.41c-0.633,0-1.158,0.151-1.582,0.453c-0.428,0.302-0.725,0.708-0.896,1.219
				s-0.258,1.036-0.258,1.578c0,0.692,0.102,1.3,0.305,1.82s0.521,0.91,0.949,1.168c0.43,0.258,0.896,0.387,1.396,0.387
				c0.607,0,1.122-0.176,1.543-0.527C257.412,31.648,257.697,31.129,257.85,30.441z"/>
		</g>
	</g>
	<g>
		<circle fill="#57514F" cx="150.752" cy="106.289" r="11"/>
		<g enable-background="new    ">
			<path fill="#FFFFFF" d="M147.767,110.316v-8.203h3.078c0.625,0,1.128,0.083,1.509,0.25c0.379,0.167,0.676,0.423,0.892,0.77
				c0.214,0.349,0.319,0.707,0.319,1.082c0,0.351-0.096,0.68-0.285,0.988s-0.479,0.563-0.862,0.754
				c0.5,0.141,0.883,0.387,1.147,0.738c0.266,0.352,0.397,0.767,0.397,1.246c0,0.38-0.081,0.734-0.242,1.066
				c-0.161,0.33-0.362,0.586-0.602,0.766c-0.24,0.18-0.539,0.314-0.898,0.406c-0.358,0.09-0.8,0.137-1.319,0.137H147.767
				L147.767,110.316z M148.853,105.559h1.773c0.483,0,0.831-0.031,1.039-0.094c0.274-0.084,0.481-0.222,0.621-0.41
				c0.138-0.19,0.207-0.431,0.207-0.715c0-0.271-0.065-0.511-0.195-0.717s-0.315-0.348-0.56-0.426
				c-0.242-0.078-0.656-0.117-1.245-0.117h-1.642L148.853,105.559L148.853,105.559z M148.853,109.348h2.047
				c0.35,0,0.595-0.015,0.733-0.039c0.25-0.043,0.46-0.116,0.629-0.225c0.169-0.105,0.308-0.259,0.414-0.457
				c0.104-0.197,0.16-0.427,0.16-0.688c0-0.309-0.078-0.574-0.233-0.803c-0.156-0.227-0.375-0.386-0.651-0.477
				c-0.278-0.091-0.681-0.137-1.199-0.137h-1.898L148.853,109.348L148.853,109.348z"/>
		</g>
	</g>
</g>
</svg>
