<?xml version="1.0" encoding="utf-8"?>
<!-- Generator: Adobe Illustrator 15.0.0, SVG Export Plug-In . SVG Version: 6.00 Build 0)  -->
<!DOCTYPE svg PUBLIC "-//W3C//DTD SVG 1.1//EN" "http://www.w3.org/Graphics/SVG/1.1/DTD/svg11.dtd">
<svg version="1.1" id="レイヤー_1" xmlns="http://www.w3.org/2000/svg" xmlns:xlink="http://www.w3.org/1999/xlink" x="0px"
	 y="0px" width="300px" height="162.5px" viewBox="0 0 300 162.5" enable-background="new 0 0 300 162.5" xml:space="preserve">
<g id="レイヤー_1_1_">
	<path fill="none" stroke="#E5E0DD" stroke-width="1.25" stroke-linejoin="round" stroke-miterlimit="10" d="M155,155.416
		c55.334,0,57.166-16,57.166-16L208.33,40.5c0,0-6.846,0.716-7.58-7.25c-0.932-10.002-0.25-25.5-0.25-25.5L194,7c0,0,0.25,17-1,27
		s-12.75,18.75-38,18.75S118.25,44,117,34s-1-27-1-27l-6.5,0.75c0,0,0.678,15.498-0.25,25.5c-0.739,7.966-7.583,7.25-7.583,7.25
		l-3.833,98.916C97.834,139.416,99.666,155.416,155,155.416"/>
	<path fill="none" stroke="#E5E0DD" stroke-width="1.25" stroke-linejoin="round" stroke-miterlimit="10" d="M120.553,41.958
		c0,0,9.197,2.292,34.447,2.292s34.443-2.292,34.443-2.292"/>
</g>
<g id="レイヤー_2">
	<g>
		<g>
			<line fill="none" stroke="#57514F" stroke-miterlimit="10" stroke-dasharray="2,2" x1="155" y1="47.871" x2="155" y2="151.795"/>
			<g>
				<path fill="#57514F" d="M155,44.25c-0.634,1.704-1.713,3.818-2.854,5.128L155,48.346l2.854,1.032
					C156.71,48.068,155.632,45.954,155,44.25z"/>
			</g>
			<g>
				<path fill="#57514F" d="M155,155.416c-0.634-1.704-1.713-3.818-2.854-5.129l2.854,1.031l2.854-1.031
					C156.71,151.598,155.632,153.712,155,155.416z"/>
			</g>
		</g>
	</g>
	<g>
		<g>
			
				<line fill="none" stroke="#57514F" stroke-miterlimit="10" stroke-dasharray="2,2" x1="107.288" y1="40.5" x2="204.712" y2="40.5"/>
			<g>
				<path fill="#57514F" d="M103.666,40.5c1.704,0.632,3.815,1.711,5.128,2.854l-1.032-2.854l1.032-2.853
					C107.484,38.79,105.371,39.868,103.666,40.5z"/>
			</g>
			<g>
				<path fill="#57514F" d="M208.33,40.5c-1.701,0.632-3.814,1.711-5.128,2.854l1.03-2.854l-1.03-2.853
					C204.516,38.79,206.629,39.868,208.33,40.5z"/>
			</g>
		</g>
	</g>
</g>
<g id="レイヤー_3">
	<path fill="none" stroke="#E5E0DD" stroke-width="1.25" stroke-linejoin="round" stroke-miterlimit="10" d="M155,155.416"/>
	<path fill="none" stroke="#E5E0DD" stroke-width="1.25" stroke-linejoin="round" stroke-miterlimit="10" d="M155,155.416"/>
	<path fill="none" stroke="#E5E0DD" stroke-width="1.25" stroke-linejoin="round" stroke-miterlimit="10" d="M155,155.416"/>
	<path fill="none" stroke="#E5E0DD" stroke-width="1.25" stroke-linejoin="round" stroke-miterlimit="10" d="M155,155.416"/>
	<g>
		<circle fill="#57514F" cx="185.664" cy="38.78" r="11"/>
		<g enable-background="new    ">
			<path fill="#FFFFFF" d="M181.829,42.807l3.147-8.203h1.172l3.354,8.203h-1.234l-0.953-2.484h-3.43l-0.906,2.484H181.829z
				 M184.198,39.439h2.78l-0.858-2.273c-0.263-0.688-0.453-1.253-0.578-1.695c-0.104,0.526-0.254,1.047-0.444,1.563L184.198,39.439z
				"/>
		</g>
	</g>
	<g>
		<circle fill="#57514F" cx="153.348" cy="89.611" r="11"/>
		<g enable-background="new    ">
			<path fill="#FFFFFF" d="M150.363,93.641v-8.203h3.079c0.625,0,1.127,0.082,1.508,0.25c0.38,0.166,0.678,0.422,0.892,0.771
				s0.319,0.707,0.319,1.082c0,0.351-0.096,0.679-0.284,0.987c-0.19,0.31-0.479,0.563-0.862,0.755
				c0.5,0.141,0.883,0.387,1.146,0.737c0.266,0.352,0.398,0.768,0.398,1.246c0,0.379-0.082,0.734-0.242,1.065
				c-0.162,0.331-0.362,0.586-0.603,0.767c-0.239,0.18-0.539,0.314-0.897,0.405c-0.359,0.091-0.801,0.138-1.32,0.138H150.363z
				 M151.448,88.882h1.772c0.483,0,0.831-0.03,1.039-0.094c0.275-0.083,0.482-0.22,0.621-0.41s0.207-0.429,0.207-0.715
				c0-0.271-0.064-0.509-0.195-0.715c-0.129-0.206-0.315-0.349-0.559-0.427s-0.657-0.116-1.246-0.116h-1.643L151.448,88.882
				L151.448,88.882z M151.448,92.671h2.047c0.351,0,0.595-0.013,0.733-0.039c0.25-0.042,0.461-0.116,0.629-0.223
				c0.17-0.107,0.31-0.259,0.414-0.457c0.106-0.198,0.16-0.427,0.16-0.688c0-0.308-0.078-0.574-0.233-0.801
				c-0.156-0.227-0.374-0.386-0.651-0.477c-0.277-0.092-0.68-0.137-1.199-0.137h-1.897L151.448,92.671L151.448,92.671z"/>
		</g>
	</g>
</g>
</svg>
