<?xml version="1.0" encoding="utf-8"?>
<!-- Generator: Adobe Illustrator 15.0.0, SVG Export Plug-In . SVG Version: 6.00 Build 0)  -->
<!DOCTYPE svg PUBLIC "-//W3C//DTD SVG 1.1//EN" "http://www.w3.org/Graphics/SVG/1.1/DTD/svg11.dtd">
<svg version="1.1" id="レイヤー_1" xmlns="http://www.w3.org/2000/svg" xmlns:xlink="http://www.w3.org/1999/xlink" x="0px"
	 y="0px" width="300px" height="230.5px" viewBox="0 0 300 230.5" enable-background="new 0 0 300 230.5" xml:space="preserve">
<g>
	<circle fill="#57514F" cx="97.915" cy="122.762" r="11"/>
	<g enable-background="new    ">
		<path fill="#FFFFFF" d="M94.932,126.789v-8.203h3.078c0.625,0,1.127,0.083,1.508,0.25c0.379,0.167,0.676,0.423,0.892,0.77
			c0.213,0.349,0.319,0.707,0.319,1.082c0,0.351-0.096,0.681-0.285,0.988c-0.19,0.311-0.479,0.563-0.862,0.754
			c0.5,0.141,0.883,0.387,1.147,0.738c0.266,0.352,0.398,0.768,0.398,1.246c0,0.38-0.082,0.734-0.242,1.066
			c-0.162,0.33-0.363,0.586-0.602,0.766c-0.24,0.18-0.539,0.314-0.898,0.406c-0.359,0.091-0.801,0.137-1.32,0.137H94.932z
			 M96.018,122.031h1.773c0.483,0,0.83-0.031,1.039-0.094c0.274-0.084,0.481-0.222,0.621-0.41c0.137-0.19,0.207-0.43,0.207-0.715
			c0-0.271-0.066-0.511-0.195-0.715c-0.131-0.207-0.316-0.35-0.56-0.428c-0.242-0.078-0.657-0.115-1.245-0.115h-1.642
			L96.018,122.031L96.018,122.031z M96.018,125.82h2.047c0.349,0,0.595-0.014,0.734-0.039c0.25-0.042,0.459-0.116,0.629-0.223
			c0.168-0.106,0.307-0.261,0.414-0.457c0.104-0.199,0.16-0.429,0.16-0.688c0-0.308-0.078-0.574-0.234-0.802
			c-0.156-0.228-0.375-0.385-0.651-0.478c-0.279-0.091-0.681-0.137-1.199-0.137H96.02L96.018,125.82L96.018,125.82z"/>
	</g>
</g>
<g>
	<circle fill="#57514F" cx="97.915" cy="122.762" r="11"/>
	<g enable-background="new    ">
		<path fill="#FFFFFF" d="M94.932,126.789v-8.203h3.078c0.625,0,1.127,0.083,1.508,0.25c0.379,0.167,0.676,0.423,0.892,0.77
			c0.213,0.349,0.319,0.707,0.319,1.082c0,0.351-0.096,0.681-0.285,0.988c-0.19,0.311-0.479,0.563-0.862,0.754
			c0.5,0.141,0.883,0.387,1.147,0.738c0.266,0.352,0.398,0.768,0.398,1.246c0,0.38-0.082,0.734-0.242,1.066
			c-0.162,0.33-0.363,0.586-0.602,0.766c-0.24,0.18-0.539,0.314-0.898,0.406c-0.359,0.091-0.801,0.137-1.32,0.137H94.932z
			 M96.018,122.031h1.773c0.483,0,0.83-0.031,1.039-0.094c0.274-0.084,0.481-0.222,0.621-0.41c0.137-0.19,0.207-0.43,0.207-0.715
			c0-0.271-0.066-0.511-0.195-0.715c-0.131-0.207-0.316-0.35-0.56-0.428c-0.242-0.078-0.657-0.115-1.245-0.115h-1.642
			L96.018,122.031L96.018,122.031z M96.018,125.82h2.047c0.349,0,0.595-0.014,0.734-0.039c0.25-0.042,0.459-0.116,0.629-0.223
			c0.168-0.106,0.307-0.261,0.414-0.457c0.104-0.199,0.16-0.429,0.16-0.688c0-0.308-0.078-0.574-0.234-0.802
			c-0.156-0.228-0.375-0.385-0.651-0.478c-0.279-0.091-0.681-0.137-1.199-0.137H96.02L96.018,125.82L96.018,125.82z"/>
	</g>
</g>
<g id="レイヤー_2_1_">
</g>
<g>
	<polyline fill="none" stroke="#E5E0DD" stroke-width="1.25" stroke-linejoin="round" stroke-miterlimit="10" points="124,51.262 
		119.5,13.762 133,11.5 133,52.087 	"/>
	<polyline fill="none" stroke="#E5E0DD" stroke-width="1.25" stroke-linejoin="round" stroke-miterlimit="10" points="191,51.262 
		195.5,13.762 182,11.5 182,52.087 	"/>
	<path fill="none" stroke="#E5E0DD" stroke-width="1.25" stroke-linejoin="round" stroke-miterlimit="10" d="M157.5,164.762
		c3.5,0,3,7,3,7l1.613,44.277c19.5,7.5,39.887-3.277,39.887-3.277s1.5-44.5,0-73.5c-1.5-29-8.5-88-8.5-88c-10.5,1.5-33,1-33,1
		s-28.5,0.5-39-1c0,0-7,59-8.5,88c-1.5,29,0,73.5,0,73.5s20.383,10.777,39.883,3.277l1.617-44.277
		C154.5,171.762,154,164.762,157.5,164.762"/>
</g>
<g>
	<g>
		<g>
			
				<line fill="none" stroke="#57514F" stroke-miterlimit="10" stroke-dasharray="2,2" x1="97.813" y1="55.708" x2="97.813" y2="209.141"/>
			<g>
				<path fill="#57514F" d="M97.813,52.087c-0.632,1.704-1.711,3.818-2.854,5.128l2.854-1.032l2.854,1.032
					C99.523,55.905,98.445,53.791,97.813,52.087z"/>
			</g>
			<g>
				<path fill="#57514F" d="M97.813,212.762c-0.632-1.703-1.711-3.818-2.854-5.129l2.854,1.031l2.854-1.031
					C99.523,208.943,98.445,211.059,97.813,212.762z"/>
			</g>
		</g>
	</g>
	<g>
		<g>
			
				<line fill="none" stroke="#57514F" stroke-miterlimit="10" stroke-dasharray="2,2" x1="157.65" y1="168.38" x2="159.6" y2="215.074"/>
			<g>
				<path fill="#57514F" d="M157.5,164.762c-0.563,1.729-1.553,3.887-2.641,5.243l2.812-1.149l2.894,0.912
					C159.365,168.505,158.199,166.438,157.5,164.762z"/>
			</g>
			<g>
				<path fill="#57514F" d="M159.75,218.693c-0.703-1.676-1.869-3.742-3.064-5.006l2.894,0.912l2.812-1.148
					C161.3,214.809,160.311,216.965,159.75,218.693z"/>
			</g>
		</g>
	</g>
	<g>
		<g>
			
				<line fill="none" stroke="#57514F" stroke-miterlimit="10" stroke-dasharray="2,2" x1="124.604" y1="51.262" x2="189.879" y2="51.262"/>
			<g>
				<path fill="#57514F" d="M120.983,51.262c1.704,0.632,3.818,1.711,5.128,2.854l-1.029-2.854l1.029-2.853
					C124.801,49.552,122.687,50.63,120.983,51.262z"/>
			</g>
			<g>
				<path fill="#57514F" d="M193.5,51.262c-1.704,0.632-3.818,1.711-5.132,2.854l1.032-2.854l-1.032-2.853
					C189.682,49.552,191.796,50.63,193.5,51.262z"/>
			</g>
		</g>
	</g>
	
		<line fill="none" stroke="#57514F" stroke-miterlimit="10" stroke-dasharray="2,2" x1="120.983" y1="52.087" x2="74.733" y2="52.087"/>
	
		<line fill="none" stroke="#57514F" stroke-miterlimit="10" stroke-dasharray="2,2" x1="107.233" y1="212.762" x2="89.233" y2="212.762"/>
</g>
<g>
	<circle fill="#57514F" cx="168.25" cy="193.595" r="11"/>
	<g enable-background="new    ">
		<path fill="#FFFFFF" d="M171.163,194.747l1.087,0.272c-0.23,0.892-0.643,1.569-1.23,2.039c-0.592,0.469-1.313,0.702-2.168,0.702
			c-0.881,0-1.598-0.18-2.151-0.538s-0.978-0.881-1.267-1.563c-0.289-0.685-0.434-1.417-0.434-2.203
			c0-0.854,0.161-1.601,0.486-2.233c0.324-0.637,0.789-1.117,1.396-1.449c0.604-0.33,1.268-0.496,1.992-0.496
			c0.814,0,1.506,0.211,2.064,0.63c0.56,0.419,0.949,1.007,1.168,1.762l-1.069,0.25c-0.188-0.594-0.463-1.026-0.823-1.301
			c-0.363-0.273-0.816-0.41-1.363-0.41c-0.631,0-1.158,0.151-1.582,0.453c-0.426,0.302-0.723,0.708-0.895,1.219
			c-0.173,0.511-0.259,1.036-0.259,1.578c0,0.692,0.103,1.3,0.306,1.819c0.203,0.521,0.52,0.91,0.948,1.168
			c0.43,0.259,0.896,0.388,1.396,0.388c0.609,0,1.123-0.176,1.543-0.526C170.727,195.954,171.012,195.436,171.163,194.747z"/>
	</g>
</g>
<g>
	<circle fill="#57514F" cx="159.58" cy="52.262" r="11"/>
	<g enable-background="new    ">
		<path fill="#FFFFFF" d="M155.745,56.289l3.147-8.203h1.172l3.354,8.203h-1.234l-0.953-2.484h-3.43l-0.906,2.484H155.745z
			 M158.113,52.922h2.781l-0.858-2.273c-0.261-0.688-0.453-1.253-0.578-1.695c-0.104,0.526-0.253,1.047-0.444,1.563L158.113,52.922z
			"/>
	</g>
</g>
</svg>
