<?xml version="1.0" encoding="utf-8"?>
<!-- Generator: Adobe Illustrator 15.0.0, SVG Export Plug-In . SVG Version: 6.00 Build 0)  -->
<!DOCTYPE svg PUBLIC "-//W3C//DTD SVG 1.1//EN" "http://www.w3.org/Graphics/SVG/1.1/DTD/svg11.dtd">
<svg version="1.1" id="レイヤー_1" xmlns="http://www.w3.org/2000/svg" xmlns:xlink="http://www.w3.org/1999/xlink" x="0px"
	 y="0px" width="46.605px" height="46.604px" viewBox="0 0 46.605 46.604" enable-background="new 0 0 46.605 46.604"
	 xml:space="preserve">
<path fill="none" stroke="#696B5E" stroke-width="1.25" stroke-linejoin="round" stroke-miterlimit="10" d="M28.207,35.958
	c5.893,0,5.893-7.137,5.893-7.137s0-6.522,0-9.471c0-2.949-1.038-5.489-4.21-7.534c-2.718-1.752-4.858-1.27-5.438-0.274
	c-0.487,0.836-0.644,2.509,1.078,3.449c1.722,0.94,3.214,1.239,3.214,2.863s-1.606,2.564-5.778,2.564s-5.778-0.94-5.778-2.564
	s1.495-1.923,3.214-2.863c1.722-0.94,1.565-2.613,1.078-3.449c-0.581-0.996-2.721-1.478-5.438,0.274
	c-3.172,2.045-4.211,4.585-4.211,7.534c0,2.949,0,9.471,0,9.471s0,7.137,5.893,7.137H28.207z"/>
</svg>
