<?xml version="1.0" encoding="utf-8"?>
<!-- Generator: Adobe Illustrator 15.0.0, SVG Export Plug-In . SVG Version: 6.00 Build 0)  -->
<!DOCTYPE svg PUBLIC "-//W3C//DTD SVG 1.1//EN" "http://www.w3.org/Graphics/SVG/1.1/DTD/svg11.dtd">
<svg version="1.1" id="レイヤー_1" xmlns="http://www.w3.org/2000/svg" xmlns:xlink="http://www.w3.org/1999/xlink" x="0px"
	 y="0px" width="46.605px" height="46.604px" viewBox="0 0 46.605 46.604" enable-background="new 0 0 46.605 46.604"
	 xml:space="preserve">
<g>
	<g>
		<g>
			<g>
				<path fill="none" stroke="#696B5E" stroke-width="1.25" stroke-linejoin="round" stroke-miterlimit="10" d="M35.468,23.463
					c0,0.195-0.158,0.354-0.354,0.354h-8.289c-0.194,0-0.353-0.158-0.353-0.354V20.27c0-0.195,0.158-0.354,0.353-0.354h8.289
					c0.195,0,0.354,0.158,0.354,0.354V23.463z"/>
			</g>
		</g>
		<path fill="none" stroke="#696B5E" stroke-width="1.25" stroke-linejoin="round" stroke-miterlimit="10" d="M27.465,23.816
			c0,0,0.442,2.828-0.884,3.822c-1.266,0.951-3.535,1.217-2.873,3.867c0.664,2.652,7.361,2.645,10.584-0.248
			c1.968-1.768-0.089-4.061,0.353-7.441"/>
	</g>
	<g>
		<g>
			<g>
				<path fill="none" stroke="#696B5E" stroke-width="1.25" stroke-linejoin="round" stroke-miterlimit="10" d="M23.014,16.691
					c0,0.195-0.159,0.352-0.354,0.352h-8.289c-0.195,0-0.354-0.156-0.354-0.352v-3.193c0-0.195,0.158-0.355,0.354-0.355h8.289
					c0.195,0,0.354,0.16,0.354,0.355V16.691z"/>
			</g>
		</g>
		<path fill="none" stroke="#696B5E" stroke-width="1.25" stroke-linejoin="round" stroke-miterlimit="10" d="M15.011,17.043
			c0,0,0.442,2.83-0.884,3.824c-1.266,0.949-3.536,1.215-2.873,3.867c0.663,2.65,7.361,2.643,10.584-0.25
			c1.967-1.766-0.088-4.061,0.354-7.441"/>
	</g>
</g>
</svg>
