<?xml version="1.0" encoding="utf-8"?>
<!-- Generator: Adobe Illustrator 15.0.0, SVG Export Plug-In . SVG Version: 6.00 Build 0)  -->
<!DOCTYPE svg PUBLIC "-//W3C//DTD SVG 1.1//EN" "http://www.w3.org/Graphics/SVG/1.1/DTD/svg11.dtd">
<svg version="1.1" id="レイヤー_1" xmlns="http://www.w3.org/2000/svg" xmlns:xlink="http://www.w3.org/1999/xlink" x="0px"
	 y="0px" width="46.605px" height="46.604px" viewBox="0 0 46.605 46.604" enable-background="new 0 0 46.605 46.604"
	 xml:space="preserve">
<g>
	<path fill="none" stroke="#696B5E" stroke-width="1.25" stroke-linejoin="round" stroke-miterlimit="10" d="M23.302,31.674
		c12.318,0,11.887-8.428,11.887-8.428s0-4.971,0-6.916c0-1.944-2.162-1.296-2.162-1.296h-9.725h-9.725c0,0-2.161-0.648-2.161,1.296
		c0,1.945,0,6.916,0,6.916S10.984,31.674,23.302,31.674z"/>
	<path fill="none" stroke="#696B5E" stroke-width="1.25" stroke-linejoin="round" stroke-miterlimit="10" d="M11.416,22.165
		c0,0,3.89-0.432,6.267,2.378c2.377,2.809,1.945,7.131,1.945,7.131"/>
	<path fill="none" stroke="#696B5E" stroke-width="1.25" stroke-linejoin="round" stroke-miterlimit="10" d="M35.189,22.165
		c0,0-3.891-0.432-6.268,2.378c-2.378,2.809-1.945,7.131-1.945,7.131"/>
</g>
</svg>
