<?xml version="1.0" encoding="utf-8"?>
<!-- Generator: Adobe Illustrator 15.0.0, SVG Export Plug-In . SVG Version: 6.00 Build 0)  -->
<!DOCTYPE svg PUBLIC "-//W3C//DTD SVG 1.1//EN" "http://www.w3.org/Graphics/SVG/1.1/DTD/svg11.dtd">
<svg version="1.1" id="レイヤー_1" xmlns="http://www.w3.org/2000/svg" xmlns:xlink="http://www.w3.org/1999/xlink" x="0px"
	 y="0px" width="46.605px" height="46.605px" viewBox="0 0 46.605 46.605" enable-background="new 0 0 46.605 46.605"
	 xml:space="preserve">
<g>
	<g>
		<path fill="none" stroke="#696B5E" stroke-width="1.25" stroke-linejoin="round" stroke-miterlimit="10" d="M14.028,14.47
			c-1.613,1.267-1.926,1.584-3.083,3.428l-6.667,11l4.549,3.583l5.533-7.813l-2.372,11.438h11.314h11.314l-2.372-11.438l5.532,7.813
			l4.55-3.583l-6.667-11c-0.908-1.445-1.753-2.614-3.083-3.428"/>
	</g>
	<g>
		<path fill="none" stroke="#696B5E" stroke-width="1.25" stroke-linejoin="round" stroke-miterlimit="10" d="M23.302,16.398
			l-3.69-4.255c0,0-2.665-3.245-4.964-0.618c-1.288,1.47-1.445,2.373-1.445,2.373S15.69,16.315,23.302,16.398z"/>
		<path fill="none" stroke="#696B5E" stroke-width="1.25" stroke-linejoin="round" stroke-miterlimit="10" d="M23.302,16.398
			l3.69-4.255c0,0,2.664-3.245,4.965-0.618c1.287,1.47,1.445,2.373,1.445,2.373S30.914,16.315,23.302,16.398z"/>
	</g>
</g>
</svg>
