<?xml version="1.0" encoding="utf-8"?>
<!-- Generator: Adobe Illustrator 15.0.0, SVG Export Plug-In . SVG Version: 6.00 Build 0)  -->
<!DOCTYPE svg PUBLIC "-//W3C//DTD SVG 1.1//EN" "http://www.w3.org/Graphics/SVG/1.1/DTD/svg11.dtd">
<svg version="1.1" id="レイヤー_1" xmlns="http://www.w3.org/2000/svg" xmlns:xlink="http://www.w3.org/1999/xlink" x="0px"
	 y="0px" width="46.605px" height="46.604px" viewBox="0 0 46.605 46.604" enable-background="new 0 0 46.605 46.604"
	 xml:space="preserve">
<g>
	<path fill="none" stroke="#696B5E" stroke-width="1.25" stroke-linejoin="round" stroke-miterlimit="10" d="M22.926,38h2.98
		c0.794-4.767,4.27-4.568,4.27-4.568s2.283-2.979,2.283-5.958c0-2.979-0.396-7.945-0.396-7.945h5.362v-6.951l-9.533-3.973
		c0,0-0.597,2.979-4.965,2.979c-4.369,0-4.965-2.979-4.965-2.979l-9.533,3.973v6.951h5.362c0,0-0.397,4.966-0.397,7.945
		c0,2.979,2.284,5.958,2.284,5.958s3.476-0.198,4.271,4.568H22.926z"/>
</g>
</svg>
