<?xml version="1.0" encoding="utf-8"?>
<!-- Generator: Adobe Illustrator 15.0.0, SVG Export Plug-In . SVG Version: 6.00 Build 0)  -->
<!DOCTYPE svg PUBLIC "-//W3C//DTD SVG 1.1//EN" "http://www.w3.org/Graphics/SVG/1.1/DTD/svg11.dtd">
<svg version="1.1" id="レイヤー_1" xmlns="http://www.w3.org/2000/svg" xmlns:xlink="http://www.w3.org/1999/xlink" x="0px"
	 y="0px" width="46.605px" height="46.604px" viewBox="0 0 46.605 46.604" enable-background="new 0 0 46.605 46.604"
	 xml:space="preserve">
<path fill="none" stroke="#696B5E" stroke-width="1.25" stroke-linejoin="round" stroke-miterlimit="10" d="M36.214,16.446v-6.371
	l-8.736-3.641c0,0-0.548,2.73-4.552,2.73c-4.004,0-4.551-2.73-4.551-2.73l-8.738,3.641v6.371h4.916l-1.221,19.041
	c0,0-3.116,1.555-3.116,2.668s0.836,2.016,1.867,2.016h4.908c1.03,0,1.866-0.902,1.867-2.016h0.029c0,0,0.698-3.428,1.301-5.334
	c0.724-2.299,1.914-2.514,2.736-2.514s2.012,0.215,2.736,2.514c0.604,1.906,1.302,5.334,1.302,5.334h0.023
	c0,1.113,0.836,2.016,1.866,2.016h4.909c1.031,0,1.866-0.902,1.866-2.016s-3.11-2.668-3.11-2.668L31.3,16.446H36.214z"/>
</svg>
