<?xml version="1.0" encoding="utf-8"?>
<!-- Generator: Adobe Illustrator 15.0.0, SVG Export Plug-In . SVG Version: 6.00 Build 0)  -->
<!DOCTYPE svg PUBLIC "-//W3C//DTD SVG 1.1//EN" "http://www.w3.org/Graphics/SVG/1.1/DTD/svg11.dtd">
<svg version="1.1" id="レイヤー_1" xmlns="http://www.w3.org/2000/svg" xmlns:xlink="http://www.w3.org/1999/xlink" x="0px"
	 y="0px" width="46.605px" height="46.604px" viewBox="0 0 46.605 46.604" enable-background="new 0 0 46.605 46.604"
	 xml:space="preserve">
<g>
	<g>
		<path fill="none" stroke="#696B5E" stroke-width="1.25" stroke-linejoin="round" stroke-miterlimit="10" d="M21.811,25.272
			c0,4.455-3.53,5.781-5.518,5.781c-1.987,0-5.518-1.326-5.518-5.781c0-4.456,0.982-9.721,5.518-9.721S21.811,20.817,21.811,25.272z
			"/>
		<path fill="none" stroke="#696B5E" stroke-width="1.25" stroke-linejoin="round" stroke-miterlimit="10" d="M19.478,23.691
			c0,2.571-2.038,3.337-3.185,3.337c-1.147,0-3.185-0.766-3.185-3.337c0-2.572,0.566-5.611,3.185-5.611S19.478,21.12,19.478,23.691z
			"/>
	</g>
	<g>
		<path fill="none" stroke="#696B5E" stroke-width="1.25" stroke-linejoin="round" stroke-miterlimit="10" d="M35.83,25.272
			c0,4.455-3.53,5.781-5.518,5.781c-1.988,0-5.518-1.326-5.518-5.781c0-4.456,0.981-9.721,5.518-9.721
			C34.847,15.551,35.83,20.817,35.83,25.272z"/>
		<path fill="none" stroke="#696B5E" stroke-width="1.25" stroke-linejoin="round" stroke-miterlimit="10" d="M33.497,23.691
			c0,2.571-2.038,3.337-3.185,3.337c-1.147,0-3.186-0.766-3.186-3.337c0-2.572,0.567-5.611,3.186-5.611
			C32.929,18.08,33.497,21.12,33.497,23.691z"/>
	</g>
</g>
</svg>
