<?xml version="1.0" encoding="utf-8"?>
<!-- Generator: Adobe Illustrator 15.0.0, SVG Export Plug-In . SVG Version: 6.00 Build 0)  -->
<!DOCTYPE svg PUBLIC "-//W3C//DTD SVG 1.1//EN" "http://www.w3.org/Graphics/SVG/1.1/DTD/svg11.dtd">
<svg version="1.1" id="レイヤー_1" xmlns="http://www.w3.org/2000/svg" xmlns:xlink="http://www.w3.org/1999/xlink" x="0px"
	 y="0px" width="46.605px" height="46.604px" viewBox="0 0 46.605 46.604" enable-background="new 0 0 46.605 46.604"
	 xml:space="preserve">
<path fill="none" stroke="#696B5E" stroke-width="1.25" stroke-linejoin="round" stroke-miterlimit="10" d="M31.335,15.028
	c-1.174-2.921-0.214-7.323-0.214-7.323h-3.05c0,4.221-1.334,6.025-5.146,6.025c-3.813,0-5.146-1.805-5.146-6.025h-3.05
	c0,0,0.96,4.402-0.213,7.323c-1.175,2.922-2.456,3.894-2.456,3.894v15.294c0,0,2.937,0.429,5.893,2.405
	c2.763,1.85,3.092,2.277,3.092,2.277h1.88h1.88c0,0,0.437-0.524,3.091-2.277c2.973-1.962,5.894-2.405,5.894-2.405V18.922
	C33.791,18.922,32.509,17.95,31.335,15.028z"/>
</svg>
