<?xml version="1.0" encoding="utf-8"?>
<!-- Generator: Adobe Illustrator 15.0.0, SVG Export Plug-In . SVG Version: 6.00 Build 0)  -->
<!DOCTYPE svg PUBLIC "-//W3C//DTD SVG 1.1//EN" "http://www.w3.org/Graphics/SVG/1.1/DTD/svg11.dtd">
<svg version="1.1" id="レイヤー_1" xmlns="http://www.w3.org/2000/svg" xmlns:xlink="http://www.w3.org/1999/xlink" x="0px"
	 y="0px" width="46.605px" height="46.605px" viewBox="0 0 46.605 46.605" enable-background="new 0 0 46.605 46.605"
	 xml:space="preserve">
<g>
	<path fill="none" stroke="#696B5E" stroke-width="1.25" stroke-linejoin="round" stroke-miterlimit="10" d="M11.708,35.11
		c0-3.005,1.916-13.634,1.916-13.634c-3.886-0.087-5.35-1.846-5.35-1.846l-0.252-5.531c2.316-3.79,8.824-3.993,8.824-3.993
		s1.64,2.995,6.456,2.995s6.456-2.995,6.456-2.995s6.507,0.203,8.823,3.993L38.33,19.63c0,0-1.107,1.846-5.35,1.846
		c0,0,1.916,10.629,1.916,13.634c0,0-6.582,1.389-11.594,1.389S11.708,35.11,11.708,35.11z"/>
	<path fill="none" stroke="#696B5E" stroke-width="1.25" stroke-linejoin="round" stroke-miterlimit="10" d="M16.846,10.106
		c0,0-2.733,4.083,1.444,5.715c4.178,1.632,5.012-2.721,5.012-2.721"/>
	<path fill="none" stroke="#696B5E" stroke-width="1.25" stroke-linejoin="round" stroke-miterlimit="10" d="M29.758,10.106
		c0,0,2.733,4.083-1.444,5.715s-5.012-2.721-5.012-2.721"/>
</g>
</svg>
