<?xml version="1.0" encoding="utf-8"?>
<!-- Generator: Adobe Illustrator 15.0.0, SVG Export Plug-In . SVG Version: 6.00 Build 0)  -->
<!DOCTYPE svg PUBLIC "-//W3C//DTD SVG 1.1//EN" "http://www.w3.org/Graphics/SVG/1.1/DTD/svg11.dtd">
<svg version="1.1" id="レイヤー_1" xmlns="http://www.w3.org/2000/svg" xmlns:xlink="http://www.w3.org/1999/xlink" x="0px"
	 y="0px" width="20px" height="20px" viewBox="-287.5 430.5 20 20" enable-background="new -287.5 430.5 20 20"
	 xml:space="preserve">
<g>
	<g>
		<g>
			<path fill="#696B5E" d="M-285.5,434.566v14.913h16v-14.913H-285.5z M-270.5,448.5h-14v-13.017h14V448.5z M-282,439.941
				c0.552,0,1-0.449,1-0.999c0-0.553-0.448-1.001-1-1.001s-1,0.448-1,1.001C-283.002,439.493-282.553,439.941-282,439.941z
				 M-273,439.941c0.553,0,1-0.448,1-0.999c0-0.553-0.447-1.001-1-1.001s-1,0.448-1,1.001C-274,439.494-273.553,439.941-273,439.941
				z"/>
		</g>
	</g>
	<path fill="#696B5E" d="M-273.5,435.5h-1c0-1.654-1.346-3-3-3s-3,1.346-3,3h-1c0-2.206,1.794-4,4-4
		C-275.294,431.5-273.5,433.294-273.5,435.5z"/>
</g>
<rect x="-287.5" y="430.5" fill="none" width="20" height="20"/>
</svg>
