<?xml version="1.0" encoding="utf-8"?>
<!-- Generator: Adobe Illustrator 15.0.0, SVG Export Plug-In . SVG Version: 6.00 Build 0)  -->
<!DOCTYPE svg PUBLIC "-//W3C//DTD SVG 1.1//EN" "http://www.w3.org/Graphics/SVG/1.1/DTD/svg11.dtd">
<svg version="1.1" id="レイヤー_1" xmlns="http://www.w3.org/2000/svg" xmlns:xlink="http://www.w3.org/1999/xlink" x="0px"
	 y="0px" width="20px" height="20px" viewBox="0 0 20 20" enable-background="new 0 0 20 20" xml:space="preserve">
<g>
	<path fill="#696C5F" d="M10,19.5c-5.238,0-9.5-4.262-9.5-9.5c0-5.238,4.262-9.5,9.5-9.5c5.239,0,9.5,4.262,9.5,9.5
		C19.5,15.238,15.239,19.5,10,19.5z M10,1.5c-4.687,0-8.5,3.813-8.5,8.5c0,4.688,3.813,8.5,8.5,8.5c4.688,0,8.5-3.813,8.5-8.5
		C18.5,5.313,14.688,1.5,10,1.5z"/>
	<g id="レイヤー_2_2_">
		<rect fill="none" width="20" height="20"/>
	</g>
	<g>
		<path fill="#696C5F" d="M12.738,7.579c0,0.273-0.042,0.519-0.127,0.735s-0.196,0.41-0.335,0.581
			c-0.141,0.171-0.295,0.326-0.467,0.465s-0.344,0.277-0.518,0.414c-0.15,0.119-0.298,0.242-0.441,0.369
			c-0.145,0.127-0.271,0.267-0.381,0.417c-0.11,0.15-0.198,0.32-0.264,0.509c-0.066,0.189-0.099,0.398-0.099,0.626v0.109H9.169
			c-0.009-0.132-0.014-0.232-0.014-0.301c0-0.31,0.045-0.59,0.137-0.841s0.215-0.472,0.373-0.663s0.328-0.36,0.513-0.506
			s0.366-0.287,0.543-0.424c0.123-0.096,0.239-0.194,0.349-0.294s0.206-0.208,0.29-0.321c0.085-0.114,0.15-0.238,0.199-0.373
			c0.047-0.134,0.071-0.286,0.071-0.455c0-0.201-0.042-0.38-0.126-0.54c-0.085-0.16-0.203-0.294-0.355-0.403
			c-0.153-0.109-0.335-0.194-0.547-0.253s-0.448-0.089-0.708-0.089c-0.342,0-0.678,0.043-1.008,0.13S8.26,6.661,8,6.779V5.877
			c0.246-0.132,0.543-0.239,0.892-0.321s0.698-0.123,1.049-0.123c0.433,0,0.821,0.051,1.166,0.154
			c0.344,0.103,0.636,0.249,0.877,0.438c0.24,0.189,0.426,0.415,0.557,0.677S12.738,7.255,12.738,7.579z M8.978,14.75v-1.333h1.06
			v1.333H8.978z"/>
	</g>
</g>
</svg>
