<?xml version="1.0" encoding="utf-8"?>
<!-- Generator: Adobe Illustrator 15.0.0, SVG Export Plug-In . SVG Version: 6.00 Build 0)  -->
<!DOCTYPE svg PUBLIC "-//W3C//DTD SVG 1.1//EN" "http://www.w3.org/Graphics/SVG/1.1/DTD/svg11.dtd">
<svg version="1.1" xmlns="http://www.w3.org/2000/svg" xmlns:xlink="http://www.w3.org/1999/xlink" x="0px" y="0px" width="20px"
	 height="20px" viewBox="0 0 20 20" enable-background="new 0 0 20 20" xml:space="preserve">
<g id="レイヤー_1">
	<g>
		<g>
			<path fill="#6A6C5F" d="M10.5,5.5h-1v5h5v-1h-4V5.5z"/>
		</g>
	</g>
	<path fill="#6A6C5F" d="M10,19.5c-5.238,0-9.5-4.262-9.5-9.5S4.762,0.5,10,0.5s9.5,4.262,9.5,9.5S15.238,19.5,10,19.5z M10,1.5
		c-4.687,0-8.5,3.813-8.5,8.5c0,4.687,3.813,8.5,8.5,8.5c4.687,0,8.5-3.813,8.5-8.5C18.5,5.313,14.687,1.5,10,1.5z"/>
</g>
<g id="レイヤー_2">
	<rect fill="none" width="20" height="20"/>
</g>
</svg>
