<?xml version="1.0" encoding="utf-8"?>
<!-- Generator: Adobe Illustrator 15.0.0, SVG Export Plug-In . SVG Version: 6.00 Build 0)  -->
<!DOCTYPE svg PUBLIC "-//W3C//DTD SVG 1.1//EN" "http://www.w3.org/Graphics/SVG/1.1/DTD/svg11.dtd">
<svg version="1.1" id="レイヤー_1" xmlns="http://www.w3.org/2000/svg" xmlns:xlink="http://www.w3.org/1999/xlink" x="0px"
	 y="0px" width="24.095px" height="24.094px" viewBox="11.255 11.255 24.095 24.094"
	 enable-background="new 11.255 11.255 24.095 24.094" xml:space="preserve">
<g>
	<path fill="none" stroke="#696B5E" stroke-linejoin="round" stroke-miterlimit="10" d="M15.998,30.742
		c0-1.895,1.207-8.59,1.207-8.59c-2.448-0.056-3.371-1.163-3.371-1.163l-0.159-3.484c1.459-2.388,5.56-2.515,5.56-2.515
		s1.033,1.887,4.065,1.887c3.035,0,4.069-1.887,4.069-1.887s4.101,0.127,5.56,2.515l-0.158,3.484c0,0-0.697,1.163-3.37,1.163
		c0,0,1.207,6.694,1.207,8.59c0,0-4.146,0.874-7.303,0.874C20.145,31.616,15.998,30.742,15.998,30.742z"/>
	<path fill="none" stroke="#696B5E" stroke-linejoin="round" stroke-miterlimit="10" d="M19.236,14.989c0,0-1.723,2.571,0.909,3.6
		c2.631,1.027,3.156-1.715,3.156-1.715"/>
	<path fill="none" stroke="#696B5E" stroke-linejoin="round" stroke-miterlimit="10" d="M27.369,14.989c0,0,1.722,2.571-0.909,3.6
		c-2.632,1.027-3.16-1.715-3.16-1.715"/>
</g>
<rect x="11.255" y="11.255" fill="none" width="24.095" height="24.094"/>
</svg>
