<?xml version="1.0" encoding="utf-8"?>
<!-- Generator: Adobe Illustrator 15.0.0, SVG Export Plug-In . SVG Version: 6.00 Build 0)  -->
<!DOCTYPE svg PUBLIC "-//W3C//DTD SVG 1.1//EN" "http://www.w3.org/Graphics/SVG/1.1/DTD/svg11.dtd">
<svg version="1.1" id="レイヤー_1" xmlns="http://www.w3.org/2000/svg" xmlns:xlink="http://www.w3.org/1999/xlink" x="0px"
	 y="0px" width="24.096px" height="24.094px" viewBox="0 0 24.096 24.094" enable-background="new 0 0 24.096 24.094"
	 xml:space="preserve">
<rect x="0" y="0" fill="none" width="24.096" height="24.094"/>
<g>
	<path fill="none" stroke="#696A5E" stroke-linejoin="round" stroke-miterlimit="10" d="M20.631,7.498c0,0-0.593,1.236-0.396,2.076
		c0.198,0.841,1.137,2.175,1.137,3.212c0,1.039,0,3.707,0,3.707s0.108,0.692-0.588,0.692c-0.697,0-11.866-0.05-13.744,0
		c-1.878,0.049-3.969-0.541-4.299-2.323c-0.247-1.334,1.482-2.221,3.262-2.519c1.778-0.298,3.113-0.792,4.25-1.633
		c1.137-0.84,2.618-2.471,2.866-3.213c0,0,0-0.592,0.84-0.592S20.631,7.498,20.631,7.498z"/>
	<path fill="none" stroke="#696A5E" stroke-linejoin="round" stroke-miterlimit="10" d="M2.874,13.99c0,0,1.251,1.515,3.573,1.515
		c2.323,0,14.931,0,14.931,0"/>
	<path fill="none" stroke="#696A5E" stroke-linejoin="round" stroke-miterlimit="10" d="M6.003,12.343c0,0,2.401,1.946,2.619,3.162
		c0.149,0.838,0,1.663,0,1.663"/>
	
		<line fill="none" stroke="#696A5E" stroke-linejoin="round" stroke-miterlimit="10" x1="8.336" y1="11.743" x2="9.313" y2="13.331"/>
	
		<line fill="none" stroke="#696A5E" stroke-linejoin="round" stroke-miterlimit="10" x1="10.071" y1="10.84" x2="11.192" y2="12.343"/>
	
		<line fill="none" stroke="#696A5E" stroke-linejoin="round" stroke-miterlimit="10" x1="11.391" y1="9.722" x2="13.019" y2="10.84"/>
	
		<line fill="none" stroke="#696A5E" stroke-linejoin="round" stroke-miterlimit="10" x1="12.414" y1="8.605" x2="14.256" y2="9.277"/>
</g>
</svg>
