<?xml version="1.0" encoding="utf-8"?>
<!-- Generator: Adobe Illustrator 15.0.0, SVG Export Plug-In . SVG Version: 6.00 Build 0)  -->
<!DOCTYPE svg PUBLIC "-//W3C//DTD SVG 1.1//EN" "http://www.w3.org/Graphics/SVG/1.1/DTD/svg11.dtd">
<svg version="1.1" id="レイヤー_1" xmlns="http://www.w3.org/2000/svg" xmlns:xlink="http://www.w3.org/1999/xlink" x="0px"
	 y="0px" width="24.096px" height="24.094px" viewBox="0 0 24.096 24.094" enable-background="new 0 0 24.096 24.094"
	 xml:space="preserve">
<rect x="0" y="0" fill="none" width="24.096" height="24.094"/>
<g>
	<g>
		<path fill="none" stroke="#696A5E" stroke-linejoin="round" stroke-miterlimit="10" d="M10.334,7.205L7.891,4.849
			c0,0-1.072-0.515-1.434,0.515c-0.282,0.802,0.79,1.499,0.79,2.999c0,0.814,0,2.015,0,2.015"/>
		<circle fill="none" stroke="#696A5E" stroke-linejoin="round" stroke-miterlimit="10" cx="7.291" cy="11.189" r="0.814"/>
		<circle fill="none" stroke="#696A5E" stroke-linejoin="round" stroke-miterlimit="10" cx="7.291" cy="13.118" r="1.114"/>
		<path fill="none" stroke="#696A5E" stroke-linejoin="round" stroke-miterlimit="10" d="M7.291,14.232c0,0,0.985,0.515,1.543,2.014
			c0.557,1.5,0.129,3.128-1.543,3.128c-1.671,0-2.1-1.628-1.542-3.128C6.305,14.747,7.291,14.232,7.291,14.232"/>
	</g>
	<g>
		<path fill="none" stroke="#696A5E" stroke-linejoin="round" stroke-miterlimit="10" d="M18.577,7.205l-2.442-2.356
			c0,0-1.071-0.515-1.433,0.515c-0.282,0.802,0.79,1.499,0.79,2.999c0,0.814,0,2.015,0,2.015"/>
		<circle fill="none" stroke="#696A5E" stroke-linejoin="round" stroke-miterlimit="10" cx="15.535" cy="11.189" r="0.814"/>
		<circle fill="none" stroke="#696A5E" stroke-linejoin="round" stroke-miterlimit="10" cx="15.535" cy="13.118" r="1.114"/>
		<path fill="none" stroke="#696A5E" stroke-linejoin="round" stroke-miterlimit="10" d="M15.535,14.232
			c0,0,0.985,0.515,1.542,2.014c0.557,1.5,0.129,3.128-1.542,3.128s-2.1-1.628-1.542-3.128
			C14.55,14.747,15.535,14.232,15.535,14.232"/>
	</g>
</g>
</svg>
