<?xml version="1.0" encoding="utf-8"?>
<!-- Generator: Adobe Illustrator 15.0.0, SVG Export Plug-In . SVG Version: 6.00 Build 0)  -->
<!DOCTYPE svg PUBLIC "-//W3C//DTD SVG 1.1//EN" "http://www.w3.org/Graphics/SVG/1.1/DTD/svg11.dtd">
<svg version="1.1" id="レイヤー_1" xmlns="http://www.w3.org/2000/svg" xmlns:xlink="http://www.w3.org/1999/xlink" x="0px"
	 y="0px" width="24.096px" height="24.094px" viewBox="0 0 24.096 24.094" enable-background="new 0 0 24.096 24.094"
	 xml:space="preserve">
<rect x="0" y="0" fill="none" width="24.096" height="24.094"/>
<g>
	<path fill="none" stroke="#696A5E" stroke-linejoin="round" stroke-miterlimit="10" d="M22.042,12.207
		c-0.535-0.687-1.443-1.139-2.472-1.139c-1.064,0-1.998,0.483-2.525,1.21v-0.071c-0.536-0.687-1.443-1.139-2.472-1.139
		c-1.064,0-1.998,0.483-2.525,1.21v-0.071c-0.536-0.687-1.442-1.139-2.473-1.139c-1.063,0-1.996,0.483-2.524,1.21v-0.071
		c-0.535-0.687-1.442-1.139-2.472-1.139c-1.063,0-1.998,0.483-2.525,1.21l0,0C2.64,7.28,6.89,3.401,12.048,3.401
		s9.407,3.879,9.994,8.877V12.207z"/>
	
		<line fill="none" stroke="#696A5E" stroke-linejoin="round" stroke-miterlimit="10" x1="12.048" y1="3.401" x2="12.048" y2="2.584"/>
	<path fill="none" stroke="#696A5E" stroke-linejoin="round" stroke-miterlimit="10" d="M12.048,12.207v6.986
		c0,0,0.154,2.316-2.112,2.316s-2.166-2.216-2.166-2.216"/>
</g>
</svg>
