<?xml version="1.0" encoding="utf-8"?>
<!-- Generator: Adobe Illustrator 15.0.0, SVG Export Plug-In . SVG Version: 6.00 Build 0)  -->
<!DOCTYPE svg PUBLIC "-//W3C//DTD SVG 1.1//EN" "http://www.w3.org/Graphics/SVG/1.1/DTD/svg11.dtd">
<svg version="1.1" id="レイヤー_1" xmlns="http://www.w3.org/2000/svg" xmlns:xlink="http://www.w3.org/1999/xlink" x="0px"
	 y="0px" width="24.095px" height="24.095px" viewBox="11.066 11.255 24.095 24.095"
	 enable-background="new 11.066 11.255 24.095 24.095" xml:space="preserve">
<path fill="none" stroke="#696B5E" stroke-linejoin="round" stroke-miterlimit="10" d="M31.486,18.982v-4.014l-5.503-2.294
	c0,0-0.345,1.72-2.871,1.72c-2.521,0-2.865-1.72-2.865-1.72l-5.506,2.294v4.014h3.098L17.07,30.979c0,0-1.962,0.979-1.962,1.682
	c0,0.699,0.526,1.27,1.178,1.27h3.094c0.647,0,1.175-0.568,1.176-1.27h0.019c0,0,0.438-2.16,0.819-3.359
	c0.455-1.449,1.206-1.584,1.723-1.584c0.52,0,1.27,0.133,1.726,1.584c0.382,1.199,0.82,3.359,0.82,3.359h0.017
	c0,0.699,0.526,1.27,1.175,1.27h3.096c0.648,0,1.176-0.568,1.176-1.27c0-0.702-1.958-1.682-1.958-1.682L28.395,18.98L31.486,18.982
	L31.486,18.982z"/>
<rect x="11.066" y="11.255" fill="none" width="24.095" height="24.095"/>
</svg>
