<?xml version="1.0" encoding="utf-8"?>
<!-- Generator: Adobe Illustrator 15.0.0, SVG Export Plug-In . SVG Version: 6.00 Build 0)  -->
<!DOCTYPE svg PUBLIC "-//W3C//DTD SVG 1.1//EN" "http://www.w3.org/Graphics/SVG/1.1/DTD/svg11.dtd">
<svg version="1.1" id="レイヤー_1" xmlns="http://www.w3.org/2000/svg" xmlns:xlink="http://www.w3.org/1999/xlink" x="0px"
	 y="0px" width="24.094px" height="24.094px" viewBox="11.068 11.255 24.094 24.094"
	 enable-background="new 11.068 11.255 24.094 24.094" xml:space="preserve">
<g>
	<path fill="none" stroke="#696B5E" stroke-linejoin="round" stroke-miterlimit="10" d="M23.113,32.562h1.88
		c0.5-3.004,2.688-2.878,2.688-2.878s1.44-1.877,1.44-3.754c0-1.876-0.25-5.004-0.25-5.004h3.378v-4.379l-6.005-2.504
		c0,0-0.377,1.877-3.132,1.877c-2.751,0-3.127-1.877-3.127-1.877l-6.005,2.504v4.379h3.377c0,0-0.25,3.128-0.25,5.004
		c0,1.877,1.44,3.754,1.44,3.754s2.188-0.125,2.688,2.878H23.113z"/>
</g>
<rect x="11.068" y="11.255" fill="none" width="24.094" height="24.094"/>
</svg>
