<?xml version="1.0" encoding="utf-8"?>
<!-- Generator: Adobe Illustrator 15.0.0, SVG Export Plug-In . SVG Version: 6.00 Build 0)  -->
<!DOCTYPE svg PUBLIC "-//W3C//DTD SVG 1.1//EN" "http://www.w3.org/Graphics/SVG/1.1/DTD/svg11.dtd">
<svg version="1.1" id="レイヤー_1" xmlns="http://www.w3.org/2000/svg" xmlns:xlink="http://www.w3.org/1999/xlink" x="0px"
	 y="0px" width="24.096px" height="24.094px" viewBox="0 0 24.096 24.094" enable-background="new 0 0 24.096 24.094"
	 xml:space="preserve">
<rect x="0" y="0" fill="none" width="24.096" height="24.094"/>
<g>
	<path fill="none" stroke="#696A5E" stroke-linejoin="round" stroke-miterlimit="10" d="M21.604,11.576c0,0,0.423,0,0.362,0.362
		c-0.06,0.361-0.362,4.644-0.362,4.644s-0.029,0.543-0.361,0.543s-7.841,0.241-10.072,0.362c-2.231,0.12-8.896-0.03-9.048-0.814
		v-1.87c0,0,4.253,0.693,8.053,0.482c0,0,3.317-1.688,6.725-2.653C20.308,11.667,21.604,11.576,21.604,11.576z"/>
	<path fill="none" stroke="#696A5E" stroke-linejoin="round" stroke-miterlimit="10" d="M12.726,14.122c0,0-5.145-2.908-5.566-2.999
		L5.018,12.27c0,0,0.935-0.091,1.719,0.844c0.784,0.936,1.658,2.21,1.658,2.21"/>
	<path fill="none" stroke="#696A5E" stroke-linejoin="round" stroke-miterlimit="10" d="M5.018,12.27l-0.965,0.814
		c0,0-0.634,0.474,0,1.971"/>
	<path fill="none" stroke="#696A5E" stroke-linejoin="round" stroke-miterlimit="10" d="M7.671,15.312c0,0-1.457-0.961-1.301-2.559"
		/>
	<path fill="none" stroke="#696A5E" stroke-linejoin="round" stroke-miterlimit="10" d="M15.309,13.132c0,0,0.958-2.521,1.29-2.944"
		/>
	<path fill="none" stroke="#696A5E" stroke-linejoin="round" stroke-miterlimit="10" d="M18.649,10.731c0,0-0.321,0.995-0.417,1.539
		"/>
	<path fill="none" stroke="#696A5E" stroke-linejoin="round" stroke-miterlimit="10" d="M19.162,9.616c0,0,0.694-1.116,1.749-1.297
		L20.398,6.57c0,0-1.658,0.784-3.105,2.292"/>
	<path fill="none" stroke="#696A5E" stroke-linejoin="round" stroke-miterlimit="10" d="M19.796,9.948c0,0-1.833-0.996-3.842-1.327
		c-2.009-0.332-3.903-0.332-3.903-0.332l-0.002,1.327c0,0,2.499,0.03,4.912,0.572l2.292,0.785L19.796,9.948z"/>
</g>
</svg>
