<?xml version="1.0" encoding="utf-8"?>
<!-- Generator: Adobe Illustrator 15.0.0, SVG Export Plug-In . SVG Version: 6.00 Build 0)  -->
<!DOCTYPE svg PUBLIC "-//W3C//DTD SVG 1.1//EN" "http://www.w3.org/Graphics/SVG/1.1/DTD/svg11.dtd">
<svg version="1.1" id="レイヤー_1" xmlns="http://www.w3.org/2000/svg" xmlns:xlink="http://www.w3.org/1999/xlink" x="0px"
	 y="0px" width="24.096px" height="24.094px" viewBox="0 0 24.096 24.094" enable-background="new 0 0 24.096 24.094"
	 xml:space="preserve">
<rect x="0" y="0" fill="none" width="24.096" height="24.094"/>
<g>
	<path fill="none" stroke="#696A5E" stroke-linejoin="round" stroke-miterlimit="10" d="M12.048,21.618
		c8.643,0,9.571-2.486,9.571-2.486s-0.278-1.604-1.395-6.155C19.11,8.422,16.88,4.613,16.88,4.613V2.476
		c-2.602,0.465-4.832,0.558-4.832,0.558S9.817,2.94,7.216,2.476v2.138c0,0-2.23,3.809-3.345,8.363
		c-1.115,4.552-1.395,6.155-1.395,6.155S3.405,21.618,12.048,21.618z"/>
	<path fill="none" stroke="#696A5E" stroke-linejoin="round" stroke-miterlimit="10" d="M7.216,4.613c0,0,1.766,0.701,4.832,0.701
		c3.067,0,4.832-0.701,4.832-0.701"/>
</g>
</svg>
