<?xml version="1.0" encoding="utf-8"?>
<!-- Generator: Adobe Illustrator 15.0.0, SVG Export Plug-In . SVG Version: 6.00 Build 0)  -->
<!DOCTYPE svg PUBLIC "-//W3C//DTD SVG 1.1//EN" "http://www.w3.org/Graphics/SVG/1.1/DTD/svg11.dtd">
<svg version="1.1" id="レイヤー_1" xmlns="http://www.w3.org/2000/svg" xmlns:xlink="http://www.w3.org/1999/xlink" x="0px"
	 y="0px" width="24.096px" height="24.094px" viewBox="0 0 24.096 24.094" enable-background="new 0 0 24.096 24.094"
	 xml:space="preserve">
<rect x="0" y="0" fill="none" width="24.096" height="24.094"/>
<path fill="none" stroke="#696A5E" stroke-linejoin="round" stroke-miterlimit="10" d="M18.009,21.521
	c0-0.584-0.117-1.636-0.585-3.271c-0.467-1.637-0.817-3.039-0.701-4.559c0.117-1.52,0.468-4.09,0.468-4.09l2.104,2.688l3.155-3.039
	c0,0-3.856-4.324-4.792-5.609c-0.935-1.286-2.688-1.052-2.688-1.052s0.584,4.675-2.922,4.675S9.126,2.589,9.126,2.589
	S7.373,2.354,6.438,3.641C5.503,4.926,1.646,9.25,1.646,9.25l3.156,3.039l2.104-2.688c0,0,0.351,2.57,0.467,4.09
	s-0.234,2.922-0.701,4.559c-0.468,1.636-0.584,2.688-0.584,3.271H18.009z"/>
</svg>
