<?xml version="1.0" encoding="utf-8"?>
<!-- Generator: Adobe Illustrator 15.0.0, SVG Export Plug-In . SVG Version: 6.00 Build 0)  -->
<!DOCTYPE svg PUBLIC "-//W3C//DTD SVG 1.1//EN" "http://www.w3.org/Graphics/SVG/1.1/DTD/svg11.dtd">
<svg version="1.1" id="レイヤー_1" xmlns="http://www.w3.org/2000/svg" xmlns:xlink="http://www.w3.org/1999/xlink" x="0px"
	 y="0px" width="24.096px" height="24.094px" viewBox="0 0 24.096 24.094" enable-background="new 0 0 24.096 24.094"
	 xml:space="preserve">
<rect x="11.255" y="11.255" fill="none" width="24.096" height="24.095"/>
<rect x="0" fill="none" width="24.096" height="24.094"/>
<g>
	<path fill="none" stroke="#696A5E" stroke-linejoin="round" stroke-miterlimit="10" d="M12.048,21.079h6.687v-8.328
		c0,0-0.938-1.174-1.643-3.285c-0.703-2.111,0-6.451,0-6.451h-1.877c0,3.049-0.821,5.513-3.167,5.513
		c-2.346,0-3.167-2.464-3.167-5.513H7.003c0,0,0.704,4.34,0,6.451c-0.704,2.111-1.642,3.285-1.642,3.285v8.328H12.048z"/>
	<g>
		<polygon fill="none" stroke="#696A5E" stroke-linejoin="round" stroke-miterlimit="10" points="12.048,10.695 10.435,10.115 
			10.435,11.274 		"/>
		<polygon fill="none" stroke="#696A5E" stroke-linejoin="round" stroke-miterlimit="10" points="12.048,10.695 13.66,10.115 
			13.66,11.274 		"/>
	</g>
</g>
</svg>
