<?xml version="1.0" encoding="utf-8"?>
<!-- Generator: Adobe Illustrator 15.0.0, SVG Export Plug-In . SVG Version: 6.00 Build 0)  -->
<!DOCTYPE svg PUBLIC "-//W3C//DTD SVG 1.1//EN" "http://www.w3.org/Graphics/SVG/1.1/DTD/svg11.dtd">
<svg version="1.1" id="レイヤー_1" xmlns="http://www.w3.org/2000/svg" xmlns:xlink="http://www.w3.org/1999/xlink" x="0px"
	 y="0px" width="24.096px" height="24.094px" viewBox="0 0 24.096 24.094" enable-background="new 0 0 24.096 24.094"
	 xml:space="preserve">
<rect x="11.255" y="11.255" fill="none" width="24.096" height="24.095"/>
<rect x="0" fill="none" width="24.096" height="24.094"/>
<g>
	<g>
		<path fill="none" stroke="#696A5E" stroke-width="0.8" stroke-linejoin="round" stroke-miterlimit="10" d="M7.128,6.431
			c0,0-2.344-1.137-3.401-0.843C3.32,5.701,3.314,6.172,3.314,6.172S3.195,7.105,3.716,8.909c0.451,1.823,1.021,2.57,1.021,2.57
			s0.24,0.406,0.649,0.3c1.063-0.274,2.524-2.43,2.524-2.43"/>
		<path fill="none" stroke="#696A5E" stroke-width="0.8" stroke-linejoin="round" stroke-miterlimit="10" d="M9.347,5.812
			c0,0,1.461-2.156,2.524-2.43c0.408-0.105,0.649,0.3,0.649,0.3s0.568,0.748,1.02,2.57c0.521,1.804,0.402,2.737,0.402,2.737
			S13.937,9.46,13.53,9.574c-1.058,0.294-3.401-0.843-3.401-0.843"/>
		<path fill="none" stroke="#696A5E" stroke-width="0.8" stroke-linejoin="round" stroke-miterlimit="10" d="M9.956,8.849
			c0.207-0.292-0.083-1.02-0.309-1.861c-0.225-0.84-0.533-1.279-0.533-1.279S9.055,5.487,8.126,5.736
			c-0.928,0.25-0.869,0.471-0.869,0.471S7.211,6.74,7.435,7.581c0.225,0.84,0.338,1.616,0.664,1.766
			C8.423,9.497,9.75,9.141,9.956,8.849z"/>
		<g>
			<path fill="none" stroke="#696A5E" stroke-width="0.8" stroke-linejoin="round" stroke-miterlimit="10" d="M7.618,8.32
				c0,0-0.657,0.508-1.782,0.904"/>
			<path fill="none" stroke="#696A5E" stroke-width="0.8" stroke-linejoin="round" stroke-miterlimit="10" d="M7.404,7.517
				c0,0-0.823-0.112-1.996,0.107"/>
		</g>
		<g>
			<path fill="none" stroke="#696A5E" stroke-width="0.8" stroke-linejoin="round" stroke-miterlimit="10" d="M9.858,7.72
				c0,0,0.823,0.111,1.995-0.108"/>
			<path fill="none" stroke="#696A5E" stroke-width="0.8" stroke-linejoin="round" stroke-miterlimit="10" d="M9.643,6.916
				c0,0,0.657-0.508,1.783-0.904"/>
		</g>
	</g>
	<g>
		<path fill="none" stroke="#696A5E" stroke-width="0.8" stroke-linejoin="round" stroke-miterlimit="10" d="M14.736,14.788
			c0,0-1.461-2.157-2.524-2.43c-0.408-0.105-0.649,0.3-0.649,0.3s-0.569,0.747-1.021,2.571c-0.52,1.803-0.4,2.735-0.4,2.735
			s0.006,0.472,0.412,0.585c1.058,0.294,3.402-0.844,3.402-0.844"/>
		<path fill="none" stroke="#696A5E" stroke-width="0.8" stroke-linejoin="round" stroke-miterlimit="10" d="M16.967,15.362
			c0,0,2.345-1.137,3.402-0.843c0.406,0.114,0.412,0.585,0.412,0.585s0.119,0.933-0.401,2.736c-0.451,1.822-1.021,2.57-1.021,2.57
			s-0.241,0.406-0.649,0.301c-1.063-0.274-2.524-2.431-2.524-2.431"/>
		<path fill="none" stroke="#696A5E" stroke-width="0.8" stroke-linejoin="round" stroke-miterlimit="10" d="M15.976,18.296
			c0.325-0.15,0.438-0.926,0.663-1.766s0.179-1.374,0.179-1.374s0.059-0.222-0.869-0.47c-0.93-0.249-0.988-0.027-0.988-0.027
			s-0.308,0.439-0.533,1.279c-0.225,0.84-0.515,1.568-0.309,1.86C14.326,18.091,15.652,18.446,15.976,18.296z"/>
		<g>
			<path fill="none" stroke="#696A5E" stroke-width="0.8" stroke-linejoin="round" stroke-miterlimit="10" d="M14.217,16.669
				c0,0-0.822,0.111-1.995-0.107"/>
			<path fill="none" stroke="#696A5E" stroke-width="0.8" stroke-linejoin="round" stroke-miterlimit="10" d="M14.432,15.866
				c0,0-0.657-0.508-1.782-0.904"/>
		</g>
		<g>
			<path fill="none" stroke="#696A5E" stroke-width="0.8" stroke-linejoin="round" stroke-miterlimit="10" d="M16.457,17.27
				c0,0,0.656,0.508,1.781,0.904"/>
			<path fill="none" stroke="#696A5E" stroke-width="0.8" stroke-linejoin="round" stroke-miterlimit="10" d="M16.672,16.466
				c0,0,0.822-0.111,1.995,0.108"/>
		</g>
	</g>
</g>
</svg>
