<?xml version="1.0" encoding="utf-8"?>
<!-- Generator: Adobe Illustrator 15.0.0, SVG Export Plug-In . SVG Version: 6.00 Build 0)  -->
<!DOCTYPE svg PUBLIC "-//W3C//DTD SVG 1.1//EN" "http://www.w3.org/Graphics/SVG/1.1/DTD/svg11.dtd">
<svg version="1.1" id="レイヤー_1" xmlns="http://www.w3.org/2000/svg" xmlns:xlink="http://www.w3.org/1999/xlink" x="0px"
	 y="0px" width="24.096px" height="24.094px" viewBox="0 0 24.096 24.094" enable-background="new 0 0 24.096 24.094"
	 xml:space="preserve">
<rect x="11.255" y="11.255" fill="none" width="24.096" height="24.095"/>
<rect x="0" fill="none" width="24.096" height="24.094"/>
<g>
	<path fill="none" stroke="#696A5E" stroke-linejoin="round" stroke-miterlimit="10" d="M12.126,12.641H6.873l0.394-5.003
		L5.611,8.339L4.07,5.746c0,0,1.672-2.171,2.941-2.942c1.341-0.813,2.383-0.98,2.383-0.98c0.21,1.051,1.102,1.962,2.731,1.962
		s2.522-0.911,2.731-1.962c0,0,1.043,0.167,2.382,0.98c1.271,0.771,2.942,2.942,2.942,2.942L18.64,8.339l-1.655-0.701l0.394,5.003
		H12.126z"/>
	<g>
		<g>
			<path fill="none" stroke="#696A5E" stroke-linejoin="round" stroke-miterlimit="10" d="M12.048,22.271h2.341l3.902-0.389v-0.466
				h2.991c0,0-1.951-5.359-2.602-6.834s-1.43-1.941-1.43-1.941h-5.203H6.844c0,0-0.78,0.467-1.43,1.941
				c-0.651,1.475-2.602,6.834-2.602,6.834h2.991v0.466l3.901,0.389H12.048z"/>
			<path fill="none" stroke="#696A5E" stroke-linejoin="round" stroke-miterlimit="10" d="M8.926,12.641"/>
			
				<line fill="none" stroke="#696A5E" stroke-linejoin="round" stroke-miterlimit="10" x1="8.926" y1="12.641" x2="5.804" y2="21.416"/>
			
				<line fill="none" stroke="#696A5E" stroke-linejoin="round" stroke-miterlimit="10" x1="11.136" y1="12.641" x2="9.706" y2="22.271"/>
			
				<line fill="none" stroke="#696A5E" stroke-linejoin="round" stroke-miterlimit="10" x1="15.17" y1="12.641" x2="18.291" y2="21.416"/>
			
				<line fill="none" stroke="#696A5E" stroke-linejoin="round" stroke-miterlimit="10" x1="12.959" y1="12.641" x2="14.388" y2="22.271"/>
		</g>
	</g>
</g>
</svg>
