<?xml version="1.0" encoding="utf-8"?>
<!-- Generator: Adobe Illustrator 15.0.0, SVG Export Plug-In . SVG Version: 6.00 Build 0)  -->
<!DOCTYPE svg PUBLIC "-//W3C//DTD SVG 1.1//EN" "http://www.w3.org/Graphics/SVG/1.1/DTD/svg11.dtd">
<svg version="1.1" id="レイヤー_1" xmlns="http://www.w3.org/2000/svg" xmlns:xlink="http://www.w3.org/1999/xlink" x="0px"
	 y="0px" width="24.096px" height="24.094px" viewBox="0 0 24.096 24.094" enable-background="new 0 0 24.096 24.094"
	 xml:space="preserve">
<rect x="0" y="0" fill="none" width="24.096" height="24.094"/>
<g>
	<g>
		<path fill="none" stroke="#696A5E" stroke-linejoin="round" stroke-miterlimit="10" d="M12.048,12.646
			c0,0-0.374-3.183-2.059-4.369c-1.686-1.186-2.934-1.06-3.87-0.436c-0.936,0.624-0.874,3.369,1.498,4.305
			C9.989,13.082,12.048,12.646,12.048,12.646z"/>
		
			<line fill="none" stroke="#696A5E" stroke-linejoin="round" stroke-miterlimit="10" x1="6.743" y1="7.375" x2="6.743" y2="0.789"/>
		<path fill="none" stroke="#696A5E" stroke-linejoin="round" stroke-miterlimit="10" d="M12.048,12.646c0,0,0.375-3.183,2.06-4.369
			c1.685-1.186,2.933-1.06,3.868-0.436c0.937,0.624,0.875,3.369-1.497,4.305C14.107,13.082,12.048,12.646,12.048,12.646z"/>
		
			<line fill="none" stroke="#696A5E" stroke-linejoin="round" stroke-miterlimit="10" x1="17.352" y1="7.375" x2="17.352" y2="0.789"/>
	</g>
	<path fill="none" stroke="#696A5E" stroke-linejoin="round" stroke-miterlimit="10" d="M12.048,23.305h1.123
		c0,0-0.313-1.311,1.061-2.559c1.374-1.248,4.308-1.686,4.308-1.686v-2.185h-6.491H5.556v2.185c0,0,2.934,0.438,4.307,1.686
		c1.373,1.248,1.062,2.559,1.062,2.559H12.048z"/>
</g>
</svg>
