<?xml version="1.0" encoding="utf-8"?>
<!-- Generator: Adobe Illustrator 15.0.0, SVG Export Plug-In . SVG Version: 6.00 Build 0)  -->
<!DOCTYPE svg PUBLIC "-//W3C//DTD SVG 1.1//EN" "http://www.w3.org/Graphics/SVG/1.1/DTD/svg11.dtd">
<svg version="1.1" id="レイヤー_1" xmlns="http://www.w3.org/2000/svg" xmlns:xlink="http://www.w3.org/1999/xlink" x="0px"
	 y="0px" width="24.094px" height="24.093px" viewBox="11.255 11.256 24.094 24.093"
	 enable-background="new 11.255 11.256 24.094 24.093" xml:space="preserve">
<g>
	<path fill="none" stroke="#696B5E" stroke-linejoin="round" stroke-miterlimit="10" d="M23.302,28.576
		c7.762,0,7.489-5.311,7.489-5.311s0-3.13,0-4.355c0-1.227-1.36-0.817-1.36-0.817h-6.13h-6.126c0,0-1.36-0.409-1.36,0.817
		c0,1.225,0,4.355,0,4.355S15.543,28.576,23.302,28.576z"/>
	<path fill="none" stroke="#696B5E" stroke-linejoin="round" stroke-miterlimit="10" d="M15.814,22.587c0,0,2.451-0.272,3.949,1.5
		c1.498,1.77,1.225,4.492,1.225,4.492"/>
	<path fill="none" stroke="#696B5E" stroke-linejoin="round" stroke-miterlimit="10" d="M30.791,22.587c0,0-2.451-0.272-3.949,1.5
		c-1.496,1.77-1.225,4.492-1.225,4.492"/>
</g>
<rect x="11.255" y="11.256" fill="none" width="24.094" height="24.093"/>
</svg>
