<?xml version="1.0" encoding="utf-8"?>
<!-- Generator: Adobe Illustrator 15.0.0, SVG Export Plug-In . SVG Version: 6.00 Build 0)  -->
<!DOCTYPE svg PUBLIC "-//W3C//DTD SVG 1.1//EN" "http://www.w3.org/Graphics/SVG/1.1/DTD/svg11.dtd">
<svg version="1.1" id="レイヤー_1" xmlns="http://www.w3.org/2000/svg" xmlns:xlink="http://www.w3.org/1999/xlink" x="0px"
	 y="0px" width="24.096px" height="24.094px" viewBox="0 0 24.096 24.094" enable-background="new 0 0 24.096 24.094"
	 xml:space="preserve">
<rect x="0" y="0" fill="none" width="24.096" height="24.094"/>
<path fill="none" stroke="#696A5E" stroke-linejoin="round" stroke-miterlimit="10" d="M5.317,20.47c0,0-0.367,0.647,0,1.125
	s6.252,0.416,7.354,0.123c1.103-0.294,2.058-1.052,2.571-1.188l0.515,1.281h2.865c0,0,0.073-0.215,0.294-1.844
	c0.22-1.63-1.029-2.731-1.029-4.421c0-1.69,1.055-12.615,1.055-12.615s-1.172-0.853-3.303-0.779
	c-2.13,0.074-3.083,0.498-3.083,0.498s1.071,12.384-0.104,14.146C11.275,18.559,5.595,19.813,5.317,20.47z"/>
</svg>
