<?xml version="1.0" encoding="utf-8"?>
<!-- Generator: Adobe Illustrator 15.0.0, SVG Export Plug-In . SVG Version: 6.00 Build 0)  -->
<!DOCTYPE svg PUBLIC "-//W3C//DTD SVG 1.1//EN" "http://www.w3.org/Graphics/SVG/1.1/DTD/svg11.dtd">
<svg version="1.1" id="レイヤー_1" xmlns="http://www.w3.org/2000/svg" xmlns:xlink="http://www.w3.org/1999/xlink" x="0px"
	 y="0px" width="24.096px" height="24.094px" viewBox="0 0 24.096 24.094" enable-background="new 0 0 24.096 24.094"
	 xml:space="preserve">
<rect x="11.255" y="11.255" fill="none" width="24.096" height="24.095"/>
<rect x="0" fill="none" width="24.096" height="24.094"/>
<path fill="none" stroke="#696A5E" stroke-linejoin="round" stroke-miterlimit="10" d="M12.048,20.437h-6.02l0.883-10.118
	l-2.327,1.605L2.818,8.152c0,0,1.916-2.487,3.371-3.371c1.535-0.932,2.729-1.124,2.729-1.124c0.24,1.204,1.263,2.248,3.13,2.248
	s2.889-1.043,3.13-2.248c0,0,1.193,0.192,2.729,1.124c1.456,0.884,3.371,3.371,3.371,3.371l-1.766,3.771l-2.327-1.605l0.883,10.118
	H12.048z"/>
</svg>
