<?xml version="1.0" encoding="utf-8"?>
<!-- Generator: Adobe Illustrator 15.0.0, SVG Export Plug-In . SVG Version: 6.00 Build 0)  -->
<!DOCTYPE svg PUBLIC "-//W3C//DTD SVG 1.1//EN" "http://www.w3.org/Graphics/SVG/1.1/DTD/svg11.dtd">
<svg version="1.1" id="レイヤー_1" xmlns="http://www.w3.org/2000/svg" xmlns:xlink="http://www.w3.org/1999/xlink" x="0px"
	 y="0px" width="24.096px" height="24.094px" viewBox="0 0 24.096 24.094" enable-background="new 0 0 24.096 24.094"
	 xml:space="preserve">
<rect x="0" y="0" fill="none" width="24.096" height="24.094"/>
<g>
	<path fill="none" stroke="#696A5E" stroke-linejoin="round" stroke-miterlimit="10" d="M20.025,6.515c0,0,0.659,1.213,1.011,1.933
		c0.351,0.721,0,2.635,0,2.635s0.087,0.732-0.703,0.85c-0.79,0.115-1.933,0.248-3.951,1.564c-2.02,1.316-5.488,3.688-5.488,3.688
		s-0.659,0.396-1.844,0.396c-1.186,0-6.146-0.122-6.146-0.122s0-1.722,4.039-3.916c0,0,0.594,0.452,2.238,0.702
		c1.646,0.25,2.351-0.483,3.02-0.967C12.869,12.794,20.025,6.515,20.025,6.515z"/>
	<path fill="none" stroke="#696A5E" stroke-linejoin="round" stroke-miterlimit="10" d="M17.553,12.809c0,0,0.408-0.06,0.408,0.951
		c0,1.01,0,3.819,0,3.819h1.273c0,0,0.132-2.81,0.308-3.907c0.176-1.097,0.79-1.74,0.79-1.74"/>
</g>
</svg>
