<?xml version="1.0" encoding="utf-8"?>
<!-- Generator: Adobe Illustrator 15.0.0, SVG Export Plug-In . SVG Version: 6.00 Build 0)  -->
<!DOCTYPE svg PUBLIC "-//W3C//DTD SVG 1.1//EN" "http://www.w3.org/Graphics/SVG/1.1/DTD/svg11.dtd">
<svg version="1.1" id="レイヤー_1" xmlns="http://www.w3.org/2000/svg" xmlns:xlink="http://www.w3.org/1999/xlink" x="0px"
	 y="0px" width="24.096px" height="24.094px" viewBox="0 0 24.096 24.094" enable-background="new 0 0 24.096 24.094"
	 xml:space="preserve">
<rect x="11.255" y="11.255" fill="none" width="24.096" height="24.095"/>
<rect x="0" fill="none" width="24.096" height="24.094"/>
<g>
	<path fill="none" stroke="#696A5E" stroke-linejoin="round" stroke-miterlimit="10" d="M12.048,1.601
		c-5.027,0-5.471,5.311-4.879,6.848c0.592,1.537,2.661,1.537,4.879,1.537c2.217,0,4.287,0,4.879-1.537S17.074,1.601,12.048,1.601z"
		/>
	<path fill="none" stroke="#696A5E" stroke-linejoin="round" stroke-miterlimit="10" d="M12.048,3.217
		c-3.239,0-3.525,3.264-3.144,4.208c0.382,0.946,1.714,0.946,3.144,0.946c1.428,0,2.763,0,3.143-0.946
		C15.572,6.48,15.286,3.217,12.048,3.217z"/>
	
		<line fill="none" stroke="#696A5E" stroke-linejoin="round" stroke-miterlimit="10" x1="13.448" y1="8.331" x2="13.448" y2="9.985"/>
	<path fill="none" stroke="#696A5E" stroke-linejoin="round" stroke-miterlimit="10" d="M16.927,8.448c0,0,2.596,0.07,3.154,2.655
		c0.56,2.585,2.992,9.712,2.992,9.712l-2.99,0.629l-2.377-7.057c0,0-0.51-1.607-0.779-1.747l0.772,9.853h-5.651H6.396l0.772-9.853
		c-0.269,0.14-0.779,1.747-0.779,1.747l-2.377,7.057l-2.99-0.629c0,0,2.433-7.127,2.992-9.712c0.559-2.585,3.154-2.655,3.154-2.655"
		/>
	
		<line fill="none" stroke="#696A5E" stroke-linejoin="round" stroke-miterlimit="10" x1="12.538" y1="9.985" x2="12.538" y2="22.493"/>
</g>
</svg>
