<?xml version="1.0" encoding="utf-8"?>
<!-- Generator: Adobe Illustrator 15.0.0, SVG Export Plug-In . SVG Version: 6.00 Build 0)  -->
<!DOCTYPE svg PUBLIC "-//W3C//DTD SVG 1.1//EN" "http://www.w3.org/Graphics/SVG/1.1/DTD/svg11.dtd">
<svg version="1.1" id="レイヤー_1" xmlns="http://www.w3.org/2000/svg" xmlns:xlink="http://www.w3.org/1999/xlink" x="0px"
	 y="0px" width="24.095px" height="24.093px" viewBox="11.087 11.256 24.095 24.093"
	 enable-background="new 11.087 11.256 24.095 24.093" xml:space="preserve">
<path fill="none" stroke="#696B5E" stroke-linejoin="round" stroke-miterlimit="10" d="M26.435,31.276
	c3.713,0,3.713-4.497,3.713-4.497s0-4.108,0-5.966s-0.654-3.459-2.65-4.747c-1.713-1.103-3.061-0.8-3.428-0.172
	c-0.306,0.528-0.404,1.582,0.681,2.173c1.083,0.594,2.025,0.781,2.025,1.807c0,1.022-1.012,1.614-3.643,1.614
	c-2.628,0-3.64-0.592-3.64-1.614c0-1.025,0.941-1.213,2.025-1.807c1.085-0.59,0.986-1.644,0.68-2.173
	c-0.365-0.626-1.713-0.93-3.426,0.172c-1.998,1.289-2.653,2.889-2.653,4.747c0,1.857,0,5.966,0,5.966s0,4.497,3.712,4.497H26.435z"
	/>
<rect x="11.087" y="11.256" fill="none" width="24.095" height="24.093"/>
</svg>
