<?xml version="1.0" encoding="utf-8"?>
<!-- Generator: Adobe Illustrator 15.0.0, SVG Export Plug-In . SVG Version: 6.00 Build 0)  -->
<!DOCTYPE svg PUBLIC "-//W3C//DTD SVG 1.1//EN" "http://www.w3.org/Graphics/SVG/1.1/DTD/svg11.dtd">
<svg version="1.1" id="レイヤー_1" xmlns="http://www.w3.org/2000/svg" xmlns:xlink="http://www.w3.org/1999/xlink" x="0px"
	 y="0px" width="24.096px" height="24.094px" viewBox="0 0 24.096 24.094" enable-background="new 0 0 24.096 24.094"
	 xml:space="preserve">
<rect x="0" y="0" fill="none" width="24.096" height="24.094"/>
<g>
	<path fill="none" stroke="#696A5E" stroke-linejoin="round" stroke-miterlimit="10" d="M21.781,5.671h-1.514
		c0,0-0.624-0.041-0.693,0.709s-0.25,1.721-0.152,3.068c0.097,1.346,0.041,2.248-0.028,2.68c-0.069,0.43-0.583,1.123-1.222,1.248
		c-0.64,0.127-2.611,0.111-3.166,0c-0.556-0.109-1.069-0.775-1-1.555c0.07-0.777,0.556-2.068,0.819-2.873
		c0.265-0.807,0.569-2.472,0.569-2.472s-0.042-1.083-0.681-1.083c-0.638,0-1.472,0-1.472,0s-0.083,2.791-0.791,4.109
		c-0.708,1.32-2.361,2.941-3.666,3.963c-1.306,1.021-2.082,1.396-3.666,1.48c-1.582,0.082-2.291,0.041-2.582,0.611
		c-0.292,0.568-0.223,0.805-0.223,0.805v0.709c0,0,1.985,0.971,5.359,1.305c3.375,0.334,5.055-0.666,5.874-0.902
		s3.068-0.652,3.068-0.652V18.7h4.027c0,0,0.916-0.041,1-0.389v-2.449c0,0,0.18-0.777,0.138-1.736
		c-0.041-0.957-0.291-1.93-0.402-3.539c-0.11-1.611-0.224-2.375,0.409-4.86"/>
	
		<line fill="none" stroke="#696A5E" stroke-linejoin="round" stroke-miterlimit="10" x1="15.383" y1="6.338" x2="19.574" y2="6.38"/>
</g>
</svg>
