<?xml version="1.0" encoding="utf-8"?>
<!-- Generator: Adobe Illustrator 15.0.0, SVG Export Plug-In . SVG Version: 6.00 Build 0)  -->
<!DOCTYPE svg PUBLIC "-//W3C//DTD SVG 1.1//EN" "http://www.w3.org/Graphics/SVG/1.1/DTD/svg11.dtd">
<svg version="1.1" id="レイヤー_1" xmlns="http://www.w3.org/2000/svg" xmlns:xlink="http://www.w3.org/1999/xlink" x="0px"
	 y="0px" width="24.096px" height="24.094px" viewBox="0 0 24.096 24.094" enable-background="new 0 0 24.096 24.094"
	 xml:space="preserve">
<rect x="0" y="0" fill="none" width="24.096" height="24.094"/>
<g>
	<g>
		<path fill="none" stroke="#696A5E" stroke-linejoin="round" stroke-miterlimit="10" d="M15.956,5.774c0,0,0,4.474,0,5.101
			c0,0.628,0.061,1.446-0.778,2.299c-0.347,0.352-2.112,1.223-2.316,2.83c-0.16,1.27,1.037,2.316,2.316,2.316
			c0.48,0,0.926-0.145,1.296-0.395c0,0,2.411-2.27,3.151-2.936c0.742-0.668,0.928-0.928,0.964-2.373c0.037-1.446,0-6.843,0-6.843
			H15.956z"/>
		<path fill="none" stroke="#696A5E" stroke-linejoin="round" stroke-miterlimit="10" d="M13.757,14.348c0,0,1.737,0.605,2.97,3.088
			"/>
	</g>
	<g>
		<path fill="none" stroke="#696A5E" stroke-linejoin="round" stroke-miterlimit="10" d="M6.6,5.774c0,0,0,4.474,0,5.101
			c0,0.628,0.061,1.446-0.779,2.299c-0.347,0.352-2.112,1.223-2.316,2.83c-0.16,1.27,1.037,2.316,2.316,2.316
			c0.48,0,0.926-0.145,1.296-0.395c0,0,2.41-2.27,3.152-2.936c0.741-0.668,0.927-0.928,0.964-2.373c0.037-1.446,0-6.843,0-6.843H6.6
			z"/>
		<path fill="none" stroke="#696A5E" stroke-linejoin="round" stroke-miterlimit="10" d="M4.401,14.348c0,0,1.737,0.605,2.969,3.088
			"/>
	</g>
</g>
</svg>
