<?xml version="1.0" encoding="utf-8"?>
<!-- Generator: Adobe Illustrator 15.0.0, SVG Export Plug-In . SVG Version: 6.00 Build 0)  -->
<!DOCTYPE svg PUBLIC "-//W3C//DTD SVG 1.1//EN" "http://www.w3.org/Graphics/SVG/1.1/DTD/svg11.dtd">
<svg version="1.1" id="レイヤー_1" xmlns="http://www.w3.org/2000/svg" xmlns:xlink="http://www.w3.org/1999/xlink" x="0px"
	 y="0px" width="24.096px" height="24.094px" viewBox="0 0 24.096 24.094" enable-background="new 0 0 24.096 24.094"
	 xml:space="preserve">
<rect x="0" y="0" fill="none" width="24.096" height="24.094"/>
<g>
	<g>
		<path fill="none" stroke="#696A5E" stroke-linejoin="round" stroke-miterlimit="10" d="M6.819,13.028c0,0,0.116,0.877-1.5,2.719
			c-1.196,1.361-2.524,2.633-2.524,2.633s2.646,3.352,9.253,3.352"/>
	</g>
	<g>
		<path fill="none" stroke="#696A5E" stroke-linejoin="round" stroke-miterlimit="10" d="M17.276,13.028c0,0-0.116,0.877,1.5,2.719
			c1.195,1.361,2.524,2.633,2.524,2.633s-2.646,3.352-9.253,3.352"/>
	</g>
	<path fill="none" stroke="#696A5E" stroke-linejoin="round" stroke-miterlimit="10" d="M15.991,2.362h-1.146
		c0,2.694-0.726,4.278-2.798,4.278S9.25,5.057,9.25,2.362H8.104c0,0,0.107,3.445-1.963,5.422l0.685,5.286h5.221h5.221l0.686-5.286
		C15.884,5.808,15.991,2.362,15.991,2.362z"/>
</g>
</svg>
