<?xml version="1.0" encoding="utf-8"?>
<!-- Generator: Adobe Illustrator 15.0.0, SVG Export Plug-In . SVG Version: 6.00 Build 0)  -->
<!DOCTYPE svg PUBLIC "-//W3C//DTD SVG 1.1//EN" "http://www.w3.org/Graphics/SVG/1.1/DTD/svg11.dtd">
<svg version="1.1" id="レイヤー_1" xmlns="http://www.w3.org/2000/svg" xmlns:xlink="http://www.w3.org/1999/xlink" x="0px"
	 y="0px" width="24.094px" height="24.093px" viewBox="11.065 11.256 24.094 24.093"
	 enable-background="new 11.065 11.256 24.094 24.093" xml:space="preserve">
<path fill="none" stroke="#696B5E" stroke-linejoin="round" stroke-miterlimit="10" d="M28.414,18.089
	c-0.74-1.84-0.137-4.613-0.137-4.613h-1.921c0,2.66-0.842,3.795-3.245,3.795c-2.4,0-3.24-1.137-3.24-3.795h-1.922
	c0,0,0.604,2.773-0.135,4.613c-0.741,1.841-1.547,2.453-1.547,2.453v9.635c0,0,1.851,0.271,3.713,1.518
	c1.74,1.166,1.947,1.436,1.947,1.436h1.183h1.186c0,0,0.274-0.33,1.948-1.436c1.872-1.234,3.712-1.518,3.712-1.518v-9.635
	C29.961,20.542,29.153,19.929,28.414,18.089z"/>
<rect x="11.065" y="11.256" fill="none" width="24.094" height="24.093"/>
</svg>
