<?xml version="1.0" encoding="utf-8"?>
<!-- Generator: Adobe Illustrator 15.0.0, SVG Export Plug-In . SVG Version: 6.00 Build 0)  -->
<!DOCTYPE svg PUBLIC "-//W3C//DTD SVG 1.1//EN" "http://www.w3.org/Graphics/SVG/1.1/DTD/svg11.dtd">
<svg version="1.1" id="レイヤー_1" xmlns="http://www.w3.org/2000/svg" xmlns:xlink="http://www.w3.org/1999/xlink" x="0px"
	 y="0px" width="24.096px" height="24.094px" viewBox="0 0 24.096 24.094" enable-background="new 0 0 24.096 24.094"
	 xml:space="preserve">
<rect x="11.255" y="11.255" fill="none" width="24.096" height="24.095"/>
<rect x="0" fill="none" width="24.096" height="24.094"/>
<g>
	<g>
		<path fill="none" stroke="#696A5E" stroke-linejoin="round" stroke-miterlimit="10" d="M20.912,8.276
			c0,0.139-0.113,0.251-0.252,0.251h-5.277c-0.14,0-0.252-0.112-0.252-0.251V6c0-0.14,0.112-0.252,0.252-0.252h5.277
			c0.139,0,0.252,0.112,0.252,0.252V8.276z"/>
		<path fill="none" stroke="#696A5E" stroke-linejoin="round" stroke-miterlimit="10" d="M15.65,8.527c0,0,0,1.745,0,2.373
			c0,0.627,0.061,1.445-0.779,2.298c-0.347,0.352-2.112,1.223-2.316,2.83c-0.16,1.271,1.037,2.317,2.316,2.317
			c0.48,0,0.926-0.146,1.296-0.396c0,0,2.411-2.27,3.151-2.937c0.742-0.667,0.928-0.926,0.965-2.371c0.037-1.446,0-4.115,0-4.115"/>
		<path fill="none" stroke="#696A5E" stroke-linejoin="round" stroke-miterlimit="10" d="M13.451,14.372
			c0,0,1.737,0.605,2.969,3.088"/>
		<path fill="none" stroke="#696A5E" stroke-linejoin="round" stroke-miterlimit="10" d="M18.592,15.681
			c0,0-0.908-1.234-0.223-2.576c0.613-1.197,1.925-1.129,1.925-1.129"/>
	</g>
	<g>
		<path fill="none" stroke="#696A5E" stroke-linejoin="round" stroke-miterlimit="10" d="M11.554,8.276
			c0,0.139-0.112,0.251-0.252,0.251H6.025c-0.139,0-0.252-0.112-0.252-0.251V6c0-0.14,0.113-0.252,0.252-0.252h5.277
			c0.14,0,0.252,0.112,0.252,0.252V8.276z"/>
		<path fill="none" stroke="#696A5E" stroke-linejoin="round" stroke-miterlimit="10" d="M6.292,8.527c0,0,0,1.745,0,2.373
			c0,0.627,0.061,1.445-0.778,2.298c-0.347,0.352-2.113,1.223-2.316,2.83c-0.161,1.271,1.037,2.317,2.316,2.317
			c0.48,0,0.925-0.146,1.295-0.396c0,0,2.411-2.27,3.152-2.937s0.927-0.926,0.964-2.371c0.037-1.446,0-4.115,0-4.115"/>
		<path fill="none" stroke="#696A5E" stroke-linejoin="round" stroke-miterlimit="10" d="M4.093,14.372c0,0,1.738,0.605,2.969,3.088
			"/>
		<path fill="none" stroke="#696A5E" stroke-linejoin="round" stroke-miterlimit="10" d="M9.235,15.681c0,0-0.909-1.234-0.223-2.576
			c0.612-1.197,1.925-1.129,1.925-1.129"/>
	</g>
</g>
</svg>
