<?xml version="1.0" encoding="utf-8"?>
<!-- Generator: Adobe Illustrator 15.0.0, SVG Export Plug-In . SVG Version: 6.00 Build 0)  -->
<!DOCTYPE svg PUBLIC "-//W3C//DTD SVG 1.1//EN" "http://www.w3.org/Graphics/SVG/1.1/DTD/svg11.dtd">
<svg version="1.1" id="レイヤー_1" xmlns="http://www.w3.org/2000/svg" xmlns:xlink="http://www.w3.org/1999/xlink" x="0px"
	 y="0px" width="24.094px" height="24.094px" viewBox="11.255 11.255 24.094 24.094"
	 enable-background="new 11.255 11.255 24.094 24.094" xml:space="preserve">
<g>
	<g>
		<g>
			<g>
				<path fill="none" stroke="#696B5E" stroke-linejoin="round" stroke-miterlimit="10" d="M31.818,23.415
					c0,0.137-0.109,0.248-0.247,0.248h-5.803c-0.138,0-0.246-0.11-0.246-0.248V21.18c0-0.136,0.107-0.248,0.246-0.248h5.803
					c0.137,0,0.247,0.111,0.247,0.248V23.415z"/>
			</g>
		</g>
		<path fill="none" stroke="#696B5E" stroke-linejoin="round" stroke-miterlimit="10" d="M26.217,23.662
			c0,0,0.312,1.979-0.617,2.675c-0.888,0.666-2.476,0.852-2.013,2.707c0.465,1.854,5.154,1.852,7.41-0.174
			c1.377-1.237-0.063-2.845,0.247-5.208"/>
	</g>
	<g>
		<g>
			<g>
				<path fill="none" stroke="#696B5E" stroke-linejoin="round" stroke-miterlimit="10" d="M23.101,18.674
					c0,0.137-0.111,0.247-0.248,0.247H17.05c-0.137,0-0.248-0.109-0.248-0.247V16.44c0-0.137,0.11-0.249,0.248-0.249h5.804
					c0.137,0,0.248,0.112,0.248,0.249L23.101,18.674L23.101,18.674z"/>
			</g>
		</g>
		<path fill="none" stroke="#696B5E" stroke-linejoin="round" stroke-miterlimit="10" d="M17.498,18.921
			c0,0,0.311,1.979-0.619,2.677c-0.886,0.664-2.476,0.853-2.011,2.706c0.465,1.855,5.153,1.853,7.409-0.175
			c1.377-1.236-0.063-2.842,0.248-5.208"/>
	</g>
</g>
<rect x="11.255" y="11.255" fill="none" width="24.094" height="24.094"/>
</svg>
