<?xml version="1.0" encoding="utf-8"?>
<!-- Generator: Adobe Illustrator 15.0.0, SVG Export Plug-In . SVG Version: 6.00 Build 0)  -->
<!DOCTYPE svg PUBLIC "-//W3C//DTD SVG 1.1//EN" "http://www.w3.org/Graphics/SVG/1.1/DTD/svg11.dtd">
<svg version="1.1" id="レイヤー_1" xmlns="http://www.w3.org/2000/svg" xmlns:xlink="http://www.w3.org/1999/xlink" x="0px"
	 y="0px" width="24.971px" height="24.094px" viewBox="10.817 11.255 24.971 24.094"
	 enable-background="new 10.817 11.255 24.971 24.094" xml:space="preserve">
<g>
	<g>
		<path fill="none" stroke="#696B5E" stroke-linejoin="round" stroke-miterlimit="10" d="M17.46,17.737
			c-1.016,0.798-1.215,0.999-1.941,2.161l-4.201,6.928l2.866,2.259l3.485-4.924l-1.495,7.208h7.127h7.131l-1.494-7.208l3.484,4.924
			l2.866-2.259l-4.2-6.928c-0.571-0.913-1.104-1.647-1.941-2.161"/>
	</g>
	<g>
		<path fill="none" stroke="#696B5E" stroke-linejoin="round" stroke-miterlimit="10" d="M23.302,18.952l-2.322-2.681
			c0,0-1.68-2.044-3.129-0.39c-0.813,0.925-0.911,1.493-0.911,1.493S18.507,18.9,23.302,18.952z"/>
		<path fill="none" stroke="#696B5E" stroke-linejoin="round" stroke-miterlimit="10" d="M23.302,18.952l2.325-2.681
			c0,0,1.68-2.044,3.13-0.39c0.812,0.925,0.91,1.493,0.91,1.493S28.097,18.9,23.302,18.952z"/>
	</g>
</g>
<rect x="11.255" y="11.255" fill="none" width="24.094" height="24.094"/>
</svg>
