<?xml version="1.0" encoding="utf-8"?>
<!-- Generator: Adobe Illustrator 15.0.0, SVG Export Plug-In . SVG Version: 6.00 Build 0)  -->
<!DOCTYPE svg PUBLIC "-//W3C//DTD SVG 1.1//EN" "http://www.w3.org/Graphics/SVG/1.1/DTD/svg11.dtd">
<svg version="1.1" id="レイヤー_1" xmlns="http://www.w3.org/2000/svg" xmlns:xlink="http://www.w3.org/1999/xlink" x="0px"
	 y="0px" width="24.096px" height="24.094px" viewBox="0 0 24.096 24.094" enable-background="new 0 0 24.096 24.094"
	 xml:space="preserve">
<rect x="11.255" y="11.255" fill="none" width="24.096" height="24.095"/>
<rect x="0" fill="none" width="24.096" height="24.094"/>
<g>
	<path fill="none" stroke="#696A5E" stroke-linejoin="round" stroke-miterlimit="10" d="M12.048,8.814
		c0.507,0,0.416,1.108,0.462,2.309c0.045,1.201,0.738,10.899,0.738,10.899h5.173V2.071h-6.373H5.675v19.951h5.173
		c0,0,0.692-9.698,0.738-10.899C11.632,9.923,11.54,8.814,12.048,8.814z"/>
	
		<line fill="none" stroke="#696A5E" stroke-linejoin="round" stroke-miterlimit="10" x1="5.675" y1="4.335" x2="18.421" y2="4.335"/>
	<line fill="none" stroke="#696A5E" stroke-linejoin="round" stroke-miterlimit="10" x1="8.861" y1="6.044" x2="5.675" y2="8.629"/>
	
		<line fill="none" stroke="#696A5E" stroke-linejoin="round" stroke-miterlimit="10" x1="15.234" y1="6.044" x2="18.421" y2="8.629"/>
	<polyline fill="none" stroke="#696A5E" stroke-linejoin="round" stroke-miterlimit="10" points="11.586,2.071 11.586,6.736 
		12.879,6.736 	"/>
</g>
</svg>
