<?xml version="1.0" encoding="utf-8"?>
<!-- Generator: Adobe Illustrator 15.0.0, SVG Export Plug-In . SVG Version: 6.00 Build 0)  -->
<!DOCTYPE svg PUBLIC "-//W3C//DTD SVG 1.1//EN" "http://www.w3.org/Graphics/SVG/1.1/DTD/svg11.dtd">
<svg version="1.1" id="レイヤー_1" xmlns="http://www.w3.org/2000/svg" xmlns:xlink="http://www.w3.org/1999/xlink" x="0px"
	 y="0px" width="24.096px" height="24.094px" viewBox="0 0 24.096 24.094" enable-background="new 0 0 24.096 24.094"
	 xml:space="preserve">
<rect x="0" y="0" fill="none" width="24.096" height="24.094"/>
<g>
	<path fill="none" stroke="#696A5E" stroke-linejoin="round" stroke-miterlimit="10" d="M12.048,21.792
		c5.622,0,5.264-1.143,5.264-1.143v-8.56l1.586,9.702h2.917c0,0-1.396-14.206-1.648-15.601c-0.254-1.395-3.002-3.89-8.118-3.89
		c-5.242,0-7.864,2.495-8.117,3.89C3.677,7.586,2.281,21.792,2.281,21.792h2.917l1.586-9.702v8.56
		C6.784,20.649,6.426,21.792,12.048,21.792"/>
	<polyline fill="none" stroke="#696A5E" stroke-linejoin="round" stroke-miterlimit="10" points="14.86,2.579 12.048,14.055 
		10.865,21.792 	"/>
	<path fill="none" stroke="#696A5E" stroke-linejoin="round" stroke-miterlimit="10" d="M14.86,2.767c0,0,1.881,2.663,1.923,3.214
		c0.043,0.549-4.735,8.074-4.735,8.074"/>
	<path fill="none" stroke="#696A5E" stroke-linejoin="round" stroke-miterlimit="10" d="M9.235,2.767c0,0-1.881,2.663-1.923,3.214
		c-0.043,0.549,4.735,8.074,4.735,8.074"/>
	
		<line fill="none" stroke="#696A5E" stroke-linejoin="round" stroke-miterlimit="10" x1="9.235" y1="2.767" x2="12.353" y2="12.811"/>
</g>
</svg>
