<?xml version="1.0" encoding="utf-8"?>
<!-- Generator: Adobe Illustrator 15.0.0, SVG Export Plug-In . SVG Version: 6.00 Build 0)  -->
<!DOCTYPE svg PUBLIC "-//W3C//DTD SVG 1.1//EN" "http://www.w3.org/Graphics/SVG/1.1/DTD/svg11.dtd">
<svg version="1.1" id="レイヤー_1" xmlns="http://www.w3.org/2000/svg" xmlns:xlink="http://www.w3.org/1999/xlink" x="0px"
	 y="0px" width="24.095px" height="24.094px" viewBox="11.256 11.255 24.095 24.094"
	 enable-background="new 11.256 11.255 24.095 24.094" xml:space="preserve">
<g>
	<g>
		<path fill="none" stroke="#696B5E" stroke-linejoin="round" stroke-miterlimit="10" d="M22.258,24.681
			c0,3.118-2.471,4.047-3.861,4.047c-1.392,0-3.862-0.929-3.862-4.047c0-3.119,0.688-6.805,3.862-6.805S22.258,21.562,22.258,24.681
			z"/>
		<path fill="none" stroke="#696B5E" stroke-linejoin="round" stroke-miterlimit="10" d="M20.625,23.574
			c0,1.8-1.427,2.336-2.229,2.336c-0.805,0-2.229-0.536-2.229-2.336c0-1.802,0.396-3.929,2.229-3.929S20.625,21.775,20.625,23.574z"
			/>
	</g>
	<g>
		<path fill="none" stroke="#696B5E" stroke-linejoin="round" stroke-miterlimit="10" d="M32.071,24.681
			c0,3.118-2.472,4.047-3.862,4.047c-1.393,0-3.861-0.929-3.861-4.047c0-3.119,0.687-6.805,3.861-6.805
			C31.383,17.876,32.071,21.562,32.071,24.681z"/>
		<path fill="none" stroke="#696B5E" stroke-linejoin="round" stroke-miterlimit="10" d="M30.437,23.574
			c0,1.8-1.427,2.336-2.229,2.336c-0.804,0-2.229-0.536-2.229-2.336c0-1.802,0.396-3.929,2.229-3.929
			C30.041,19.647,30.437,21.775,30.437,23.574z"/>
	</g>
</g>
<rect x="11.256" y="11.255" fill="none" width="24.095" height="24.094"/>
</svg>
