<?xml version="1.0" encoding="utf-8"?>
<!-- Generator: Adobe Illustrator 15.0.0, SVG Export Plug-In . SVG Version: 6.00 Build 0)  -->
<!DOCTYPE svg PUBLIC "-//W3C//DTD SVG 1.1//EN" "http://www.w3.org/Graphics/SVG/1.1/DTD/svg11.dtd">
<svg version="1.1" id="レイヤー_1" xmlns="http://www.w3.org/2000/svg" xmlns:xlink="http://www.w3.org/1999/xlink" x="0px"
	 y="0px" width="24.096px" height="24.094px" viewBox="0 0 24.096 24.094" enable-background="new 0 0 24.096 24.094"
	 xml:space="preserve">
<rect x="11.255" y="11.255" fill="none" width="24.096" height="24.095"/>
<rect x="0" fill="none" width="24.096" height="24.094"/>
<g>
	<g>
		<g>
			<g>
				<g>
					<path fill="none" stroke="#696A5E" stroke-width="0.8" stroke-linejoin="round" stroke-miterlimit="10" d="M7.483,15.747
						c-1.05,0-1.785-0.277-1.9-2.282C5.402,10.35,6.241,8.14,6.241,8.14c0.291-0.879,0.556-1.623,1.241-1.623
						c0.685,0,0.95,0.743,1.241,1.623c0,0,0.839,2.21,0.66,5.325C9.267,15.47,8.532,15.747,7.483,15.747z"/>
					<path fill="none" stroke="#696A5E" stroke-width="0.8" stroke-linejoin="round" stroke-miterlimit="10" d="M7.483,18.962
						c-1.964,0-3.372-1.684-3.556-3.746C3.449,9.894,4.296,5.132,7.478,5.132c2.939,0,4.038,4.762,3.561,10.084
						C10.853,17.278,9.447,18.962,7.483,18.962"/>
				</g>
				<path fill="none" stroke="#696A5E" stroke-width="0.8" stroke-linejoin="round" stroke-miterlimit="10" d="M7.474,17.534"/>
			</g>
		</g>
		
			<line fill="none" stroke="#696A5E" stroke-width="0.8" stroke-linejoin="round" stroke-miterlimit="10" x1="5.569" y1="12.047" x2="9.397" y2="12.047"/>
		
			<line fill="none" stroke="#696A5E" stroke-width="0.8" stroke-linejoin="round" stroke-miterlimit="10" x1="9.383" y1="13.465" x2="5.582" y2="13.465"/>
	</g>
	<g>
		<g>
			<g>
				<g>
					<path fill="none" stroke="#696A5E" stroke-width="0.8" stroke-linejoin="round" stroke-miterlimit="10" d="M16.629,15.747
						c-1.05,0-1.785-0.277-1.9-2.282c-0.18-3.115,0.659-5.325,0.659-5.325c0.29-0.879,0.556-1.623,1.241-1.623
						s0.951,0.743,1.24,1.623c0,0,0.84,2.21,0.66,5.325C18.414,15.47,17.677,15.747,16.629,15.747z"/>
					<path fill="none" stroke="#696A5E" stroke-width="0.8" stroke-linejoin="round" stroke-miterlimit="10" d="M16.629,18.962
						c-1.964,0-3.372-1.684-3.557-3.746c-0.477-5.322,0.369-10.084,3.552-10.084c2.938,0,4.038,4.762,3.562,10.084
						C20,17.278,18.593,18.962,16.629,18.962"/>
				</g>
				<path fill="none" stroke="#696A5E" stroke-width="0.8" stroke-linejoin="round" stroke-miterlimit="10" d="M16.621,17.534"/>
			</g>
		</g>
		
			<line fill="none" stroke="#696A5E" stroke-width="0.8" stroke-linejoin="round" stroke-miterlimit="10" x1="14.715" y1="12.047" x2="18.543" y2="12.047"/>
		
			<line fill="none" stroke="#696A5E" stroke-width="0.8" stroke-linejoin="round" stroke-miterlimit="10" x1="18.529" y1="13.465" x2="14.728" y2="13.465"/>
	</g>
</g>
</svg>
