<?xml version="1.0" encoding="utf-8"?>
<!-- Generator: Adobe Illustrator 15.0.0, SVG Export Plug-In . SVG Version: 6.00 Build 0)  -->
<!DOCTYPE svg PUBLIC "-//W3C//DTD SVG 1.1//EN" "http://www.w3.org/Graphics/SVG/1.1/DTD/svg11.dtd">
<svg version="1.1" id="レイヤー_1" xmlns="http://www.w3.org/2000/svg" xmlns:xlink="http://www.w3.org/1999/xlink" x="0px"
	 y="0px" width="24.096px" height="24.094px" viewBox="0 0 24.096 24.094" enable-background="new 0 0 24.096 24.094"
	 xml:space="preserve">
<rect x="0" y="0" fill="none" width="24.096" height="24.094"/>
<path fill="none" stroke="#696A5E" stroke-linejoin="round" stroke-miterlimit="10" d="M12.048,22.666h4.095
	c0,0,0.788-3.633,1.103-6.428c0.315-2.795-0.63-4.332-1.26-5.588c-0.63-1.258-0.157-2.655,0.315-4.053
	c0.472-1.396,1.732-3.632,1.732-3.632l-1.891-1.537c0,0-1.103,1.537-4.095,1.537S7.953,1.428,7.953,1.428L6.062,2.965
	c0,0,1.261,2.236,1.733,3.632C8.267,7.995,8.74,9.392,8.11,10.65c-0.63,1.257-1.575,2.793-1.26,5.588
	c0.314,2.795,1.103,6.428,1.103,6.428H12.048z"/>
</svg>
