<?xml version="1.0" encoding="utf-8"?>
<!-- Generator: Adobe Illustrator 15.0.0, SVG Export Plug-In . SVG Version: 6.00 Build 0)  -->
<!DOCTYPE svg PUBLIC "-//W3C//DTD SVG 1.1//EN" "http://www.w3.org/Graphics/SVG/1.1/DTD/svg11.dtd">
<svg version="1.1" id="レイヤー_1" xmlns="http://www.w3.org/2000/svg" xmlns:xlink="http://www.w3.org/1999/xlink" x="0px"
	 y="0px" width="24.096px" height="24.094px" viewBox="0 0 24.096 24.094" enable-background="new 0 0 24.096 24.094"
	 xml:space="preserve">
<rect x="0" y="0" fill="none" width="24.096" height="24.094"/>
<g>
	<path fill="none" stroke="#696A5E" stroke-linejoin="round" stroke-miterlimit="10" d="M18.661,18.598
		c0,0.463-0.375,0.837-0.838,0.837H6.271c-0.463,0-0.837-0.374-0.837-0.837v-8.035c0-0.463,0.374-0.838,0.837-0.838h11.552
		c0.463,0,0.838,0.375,0.838,0.838V18.598z"/>
	<path fill="none" stroke="#696A5E" stroke-linejoin="round" stroke-miterlimit="10" d="M15.003,9.725v-2.11
		c0-1.632-1.324-2.955-2.956-2.955c-1.633,0-2.955,1.323-2.955,2.955v2.11"/>
	
		<line fill="none" stroke="#696A5E" stroke-linejoin="round" stroke-miterlimit="10" x1="18.661" y1="16.058" x2="5.434" y2="16.058"/>
	
		<rect x="10.851" y="14.58" fill="none" stroke="#696A5E" stroke-linejoin="round" stroke-miterlimit="10" width="2.392" height="1.478"/>
</g>
</svg>
