<?xml version="1.0" encoding="utf-8"?>
<!-- Generator: Adobe Illustrator 15.0.0, SVG Export Plug-In . SVG Version: 6.00 Build 0)  -->
<!DOCTYPE svg PUBLIC "-//W3C//DTD SVG 1.1//EN" "http://www.w3.org/Graphics/SVG/1.1/DTD/svg11.dtd">
<svg version="1.1" id="レイヤー_1" xmlns="http://www.w3.org/2000/svg" xmlns:xlink="http://www.w3.org/1999/xlink" x="0px"
	 y="0px" width="20px" height="20px" viewBox="0 0 20 20" enable-background="new 0 0 20 20" xml:space="preserve">
<path fill="#6A6C5F" d="M10,17.396c-0.063,0-0.128-0.016-0.186-0.041c-4.21-1.889-9.044-5.662-8.806-10.078
	c0.249-4.62,4.417-4.673,4.595-4.673c2.168,0,3.722,1.433,4.396,2.198c0.672-0.766,2.213-2.198,4.342-2.198
	c0.232,0,4.399,0.054,4.65,4.673c0.238,4.416-4.594,8.189-8.804,10.078C10.125,17.381,10.062,17.396,10,17.396z M5.658,3.509
	c-0.197,0-3.544,0.043-3.747,3.817C1.688,11.479,6.804,14.967,10,16.445c3.195-1.479,8.311-4.966,8.086-9.12
	c-0.202-3.773-3.549-3.816-3.69-3.816c0,0,0,0-0.002,0c-2.427,0-4.007,2.249-4.021,2.273c-0.084,0.122-0.224,0.194-0.371,0.194l0,0
	c-0.148,0-0.287-0.072-0.372-0.194C9.612,5.759,8.018,3.509,5.658,3.509z"/>
<rect fill="none" width="20" height="20"/>
</svg>
