<?xml version="1.0" encoding="utf-8"?>
<!-- Generator: Adobe Illustrator 15.0.0, SVG Export Plug-In . SVG Version: 6.00 Build 0)  -->
<!DOCTYPE svg PUBLIC "-//W3C//DTD SVG 1.1//EN" "http://www.w3.org/Graphics/SVG/1.1/DTD/svg11.dtd">
<svg version="1.1" id="レイヤー_1" xmlns="http://www.w3.org/2000/svg" xmlns:xlink="http://www.w3.org/1999/xlink" x="0px"
	 y="0px" width="138px" height="34px" viewBox="0 0 138 34" enable-background="new 0 0 138 34" xml:space="preserve">
<g>
	<g>
		<path fill="#6A6C5F" d="M66.154,6.534c0.037,0.039,0.145,0.077,0.326,0.112l0.157,0.018c0.122,0,0.217-0.039,0.331-0.135
			c0.206-0.176,0.197-0.249,0.12-0.603c-0.093-0.424,0.019-1.195,0.129-1.302c0.021-0.018,0.153-0.065,0.5-0.067
			c0.707-0.004,1.277-0.179,1.566-0.48c0.129-0.135,0.197-0.295,0.192-0.464c-0.006-0.217,0.077-0.921,0.083-0.969
			c0.161-0.156-0.291-0.902-0.402-1.024c-0.415-0.451-0.657-0.563-1.3-0.599C67.641,1.007,67.337,1,67.067,1l-0.362,0.004
			L66.04,1.13l0.013,2.293C66.072,6.45,66.086,6.464,66.154,6.534z M67.178,2.236c0.157-0.172,0.225-0.215,0.488-0.215V1.92h0.002
			l0.103,0.104c0.197,0.006,0.292,0.043,0.41,0.161c0.214,0.219,0.319,0.63,0.229,0.902c-0.064,0.198-0.333,0.371-0.586,0.371
			c-0.1,0-0.238,0.035-0.306,0.173l-0.092-0.179l-0.104-0.001c-0.064,0-0.147-0.108-0.179-0.352
			C67.05,2.376,67.05,2.376,67.178,2.236z M59.231,4.787c-0.001,0.145,0.02,0.335,0.064,0.423c0.085,0.178,0.195,0.582,0.194,0.681
			c-0.002,0.228,0.526,0.661,0.883,0.84c0.261,0.132,0.565,0.199,0.907,0.199c0.187,0,0.382-0.021,0.587-0.062
			c0.335-0.064,0.487-0.144,0.707-0.37c0.27-0.279,0.52-0.708,0.469-0.947l-0.117-0.62c-0.053-0.285-0.143-0.739-0.202-1.002
			c-0.058-0.26-0.126-0.65-0.151-0.858c-0.027-0.214-0.093-0.602-0.151-0.876c-0.059-0.274-0.1-0.541-0.099-0.607
			c0.002-0.229-0.282-0.548-0.491-0.552c-0.092,0-0.274,0.079-0.395,0.153c-0.156,0.094-0.289,0.195-0.244,0.405
			c0.166,0.745,0.321,1.529,0.365,1.838c0.081,0.564,0.172,1.107,0.247,1.461c0.086,0.417,0.076,0.679-0.033,0.828
			c-0.083,0.112-0.235,0.176-0.479,0.197c-0.078,0.006-0.147,0.012-0.21,0.012c-0.392,0-0.456-0.181-0.849-2.411
			c-0.059-0.332-0.138-0.694-0.176-0.809c-0.038-0.115-0.1-0.34-0.138-0.513c-0.089-0.385-0.173-0.518-0.517-0.599l-0.163-0.023
			c-0.104,0-0.183,0.041-0.253,0.133c-0.201,0.259-0.175,0.649,0.151,2.324C59.188,4.304,59.232,4.652,59.231,4.787z M74.027,1.359
			c-0.352-0.02-0.642-0.055-0.811-0.096c-0.091,0-0.175,0.037-0.239,0.1c-0.083,0.082-0.144,0.257-0.194,0.884
			c-0.031,0.392-0.088,0.919-0.127,1.186c-0.041,0.273-0.087,0.705-0.101,0.975c-0.017,0.295-0.046,0.56-0.066,0.636
			c-0.075,0.293-0.195,1.507-0.114,1.667c0.068,0.136,0.242,0.224,0.441,0.224c0.141,0,0.273-0.046,0.358-0.127
			c0.16-0.146,0.194-0.319,0.241-0.879c0.098-1.155,0.107-1.164,0.239-1.306c0.091-0.097,0.122-0.113,0.214-0.113
			c0.06,0,0.134,0.009,0.234,0.022c0.259,0.034,0.394,0.09,0.471,0.191c0.144,0.192,0.118,0.629,0.026,1.317
			c-0.003,0.025-0.079,0.601-0.036,0.741c0.063,0.209,0.307,0.319,0.514,0.319c0.08,0,0.155-0.014,0.22-0.045
			c0.212-0.095,0.243-0.22,0.283-0.548c0.026-0.214,0.078-0.608,0.115-0.885c0.052-0.372,0.049-0.608-0.013-0.866
			c-0.062-0.256-0.062-0.256,0.257-0.837c0.244-0.446,0.27-1.229,0.051-1.611C75.627,1.676,75.076,1.409,74.027,1.359z
			 M74.996,3.364c-0.092,0.151-0.228,0.226-0.413,0.226c-0.08,0-0.168-0.015-0.266-0.044c-0.104-0.031-0.213-0.048-0.287-0.048
			l-0.086,0.024c-0.021-0.014-0.078-0.118-0.102-0.334C73.815,2.934,73.85,2.685,73.92,2.61c0.09-0.092,0.176-0.141,0.397-0.141
			c0.105,0,0.236,0.009,0.39,0.027c0.025,0.009,0.124,0.074,0.234,0.175C75.148,2.861,75.167,3.088,74.996,3.364z M80.138,2.508
			c-0.157,0-0.304,0.077-0.402,0.208c-0.115,0.149-0.169,0.582-0.188,0.759c-0.031,0.28-0.069,0.462-0.017,0.465
			c-0.074,0.003-0.157,0.053-0.162,0.415c-0.002,0.167-0.034,0.425-0.066,0.576c-0.164,0.707-0.24,1.097-0.335,1.719
			c-0.054,0.353-0.119,0.732-0.145,0.835c-0.039,0.149-0.006,0.299,0.09,0.425c0.112,0.146,0.289,0.238,0.467,0.238
			c0.157,0,0.291-0.073,0.377-0.203c0.148-0.222,0.273-0.896,0.518-2.771c0.07-0.541,0.145-0.916,0.168-0.969
			c0.08-0.17,0.167-0.798,0.184-1.173c0.004-0.143-0.045-0.275-0.138-0.372C80.397,2.563,80.271,2.508,80.138,2.508z M56.782,6.052
			c-0.071-0.222-0.148-0.534-0.169-0.69C56.571,5.068,56.505,5,56.489,5c-0.003,0-0.004,0-0.004,0.002
			c-0.013-0.039-0.035-0.141-0.046-0.306c-0.019-0.256-0.111-0.571-0.263-0.889c-0.217-0.457-0.284-0.526-0.708-0.749
			c-0.339-0.176-0.557-0.24-0.879-0.244c-0.344,0-0.385,0.041-0.399,0.055c-0.016,0.01-0.092,0.036-0.182,0.049
			c-0.313,0.055-0.612,0.295-0.784,0.627c-0.133,0.257-0.245,0.871-0.06,0.983c0.012,0.02,0.034,0.113,0.033,0.236
			c-0.001,0.102,0.011,0.342,0.108,0.37c0.014,0.021,0.048,0.12,0.062,0.268c0.017,0.177,0.09,0.507,0.163,0.734
			c0.067,0.215,0.141,0.518,0.16,0.678c0.023,0.173,0.123,0.475,0.225,0.67c0.155,0.307,0.274,0.418,0.67,0.627
			c0.36,0.19,0.567,0.25,0.891,0.258h0.044c0.519,0,0.987-0.208,1.251-0.555c0.205-0.267,0.213-0.345,0.184-0.821
			C56.936,6.708,56.86,6.294,56.782,6.052z M55.488,7.383c-0.058,0-0.211-0.032-0.359-0.08c-0.165-0.053-0.222-0.107-0.285-0.27
			C54.68,6.61,54.605,6.32,54.608,6.123c0-0.042-0.005-0.255-0.082-0.339c-0.018-0.027-0.071-0.19-0.109-0.398
			c-0.072-0.391-0.085-0.446-0.154-0.642c-0.075-0.211-0.096-0.404-0.064-0.572c0.019-0.097,0.046-0.14,0.25-0.209
			c0.121-0.043,0.208-0.061,0.285-0.061c0.105,0,0.202,0.036,0.338,0.126c0.073,0.047,0.125,0.107,0.133,0.125
			c0.155,0.601,0.212,0.749,0.264,0.811c0.012,0.016,0.032,0.09,0.03,0.17c-0.001,0.169,0.07,0.468,0.203,0.842
			c0.07,0.196,0.185,0.83,0.183,1.01C55.882,7.124,55.625,7.383,55.488,7.383z M84.104,10.203c0.212,0.091,0.443,0.141,0.671,0.141
			c0.245,0,0.463-0.057,0.626-0.164c0.314-0.203,0.673-1.136,0.866-1.955c0.169-0.722,0.223-0.899,0.338-1.124
			c0.08-0.156,0.127-0.415,0.131-0.71c0.004-0.423-0.026-0.521-0.275-0.886c-0.383-0.555-0.749-0.789-1.355-0.864
			c-0.146-0.017-0.254-0.028-0.342-0.028c-0.187,0-0.302,0.043-0.489,0.14c-0.435,0.218-0.539,0.412-0.693,1.294
			c-0.019,0.108-0.061,0.247-0.092,0.316c-0.038,0.08-0.118,0.324-0.181,0.552l-0.216,0.786c-0.192,0.688-0.179,1.234,0.039,1.621
			C83.38,9.762,83.644,10,84.104,10.203z M83.882,8.506c0.094-0.053,0.123-0.211,0.124-0.296c0.001-0.075,0.028-0.21,0.059-0.286
			c0.035-0.09,0.12-0.348,0.188-0.58c0.067-0.224,0.181-0.551,0.252-0.726c0.066-0.17,0.136-0.4,0.137-0.506
			c0.006-0.09,0.271-0.41,0.366-0.444c0.033,0.006,0.127,0.034,0.24,0.075c0.222,0.081,0.49,0.508,0.414,0.801l-0.114,0.451
			c-0.063,0.246-0.185,0.654-0.275,0.919c-0.093,0.275-0.189,0.618-0.217,0.774c-0.079,0.451-0.104,0.464-0.261,0.541
			c-0.072,0.038-0.145,0.053-0.234,0.053c-0.055,0-0.117-0.006-0.188-0.018c-0.22-0.04-0.258-0.068-0.369-0.279
			C83.846,8.694,83.858,8.521,83.882,8.506z M50.958,7.949c-0.17,0-0.318,0.08-0.396,0.212c-0.075,0.126-0.075,0.281,0,0.422
			c0.103,0.198,0.109,0.256-0.061,0.502c-0.146,0.214-0.515,0.363-0.903,0.363c-0.111,0-0.246-0.066-0.343-0.167
			c-0.065-0.07-0.104-0.146-0.104-0.207c0.001-0.107-0.067-0.295-0.138-0.427c-0.07-0.128-0.153-0.289-0.19-0.364
			c-0.028-0.056-0.091-0.283-0.138-0.519c-0.014-0.075-0.088-0.448-0.142-0.524c-0.14-0.215-0.203-1.024-0.137-1.132
			c0.083-0.115,0.488-0.318,0.682-0.318c0.202,0,0.337,0.05,0.689,0.341c0.173,0.141,0.348,0.214,0.508,0.214
			c0.157,0,0.285-0.073,0.349-0.201c0.088-0.174,0.042-0.415-0.126-0.656c-0.273-0.393-0.998-0.667-1.479-0.667
			c-0.1,0-0.189,0.01-0.396,0.069l-0.245,0.07c-0.321,0.092-0.562,0.219-0.808,0.419c-0.42,0.341-0.487,1.053-0.16,1.694
			c0.118,0.233,0.184,0.426,0.186,0.463c-0.002,0.089,0.033,0.207,0.131,0.382c-0.003,0.252,0.382,1.427,0.537,1.69
			c0.261,0.449,0.865,0.74,1.536,0.74c0.21,0,0.415-0.029,0.61-0.085c0.571-0.17,0.824-0.333,1.039-0.67
			c0.261-0.411,0.249-0.824-0.036-1.3C51.284,8.062,51.181,7.953,50.958,7.949z M8.475,30.584H6.692V19.059
			c0.001-0.187,0.003-0.623-0.318-0.953c-0.258-0.266-0.665-0.397-1.204-0.397H2.974c-0.499,0-0.878,0.084-1.161,0.255
			c-0.456,0.277-0.551,0.616-0.551,0.85c0,0.159,0.049,0.55,0.497,0.781c0.231,0.139,0.508,0.208,0.825,0.208h1.864l0.094,0.141
			v10.641H2.304C1.094,30.584,1,31.412,1,31.666c0,0.304,0.129,1.012,1.327,1.012h6.164c0.937,0,1.242-0.392,1.353-0.82v-0.215
			C9.846,31.395,9.746,30.584,8.475,30.584z M22.558,31.087c-0.225-0.122-0.5-0.182-0.843-0.182h-2.214v-8.537
			c0-0.859-0.455-1.333-1.28-1.333H15.46c-0.471,0-0.854,0.078-1.138,0.231c-0.508,0.269-0.584,0.666-0.584,0.877
			c0,0.353,0.189,0.641,0.497,0.778c0.223,0.14,0.506,0.21,0.845,0.21h1.948c0.245,0,0.266,0.114,0.266,0.219v7.555h-2.132
			c-1.209,0-1.302,0.83-1.302,1.085c0,0.303,0.132,1.01,1.347,1.01h6.501c0.759,0,1.216-0.238,1.379-0.816v-0.218
			C23.089,31.542,22.868,31.193,22.558,31.087z M34.644,30.584h-1.782V19.061c0.002-0.187,0.004-0.623-0.318-0.955
			c-0.259-0.264-0.664-0.397-1.205-0.397h-2.195c-0.498,0-0.878,0.084-1.164,0.257c-0.456,0.279-0.551,0.616-0.551,0.85
			c0,0.158,0.049,0.548,0.498,0.78c0.229,0.14,0.507,0.208,0.823,0.208h1.865l0.094,0.141v10.64h-2.238
			c-1.209,0-1.303,0.83-1.303,1.084c0,0.303,0.13,1.011,1.328,1.011h6.165c0.936,0,1.24-0.391,1.352-0.819v-0.216
			C36.013,31.395,35.914,30.584,34.644,30.584z M48.816,31.087c-0.224-0.122-0.499-0.182-0.841-0.182h-2.213v-8.537
			c0-0.859-0.456-1.333-1.282-1.333h-2.759c-0.471,0-0.854,0.078-1.139,0.231c-0.509,0.269-0.584,0.666-0.584,0.877
			c0,0.353,0.19,0.641,0.498,0.778c0.223,0.14,0.507,0.21,0.845,0.21h1.949c0.247,0,0.267,0.114,0.267,0.219v7.555h-2.135
			c-1.206,0-1.301,0.83-1.301,1.085c0,0.303,0.132,1.01,1.348,1.01h6.501c0.945,0,1.258-0.386,1.376-0.816v-0.218
			C49.348,31.542,49.128,31.193,48.816,31.087z M18.101,18.95c0.481,0,0.874-0.165,1.167-0.487c0.29-0.323,0.439-0.725,0.439-1.188
			c0-0.416-0.129-0.798-0.401-1.159c-0.293-0.303-0.699-0.454-1.204-0.454c-0.47,0-0.86,0.152-1.178,0.474
			c-0.266,0.357-0.401,0.741-0.401,1.139c0,0.408,0.146,0.793,0.434,1.146C17.248,18.771,17.634,18.95,18.101,18.95z M44.358,18.95
			c0.479,0,0.871-0.165,1.166-0.487c0.291-0.322,0.438-0.724,0.438-1.188c0-0.414-0.127-0.796-0.396-1.16
			c-0.295-0.301-0.702-0.453-1.207-0.453c-0.472,0-0.862,0.152-1.177,0.475c-0.264,0.357-0.398,0.739-0.398,1.137
			c0,0.415,0.144,0.801,0.43,1.146C43.507,18.771,43.893,18.95,44.358,18.95z M72.284,27.819c-0.069-0.024-0.144-0.039-0.219-0.039
			c-0.269,0-0.512,0.172-0.604,0.43c-0.009,0.025-1.039,2.731-2.414,2.731c-0.404,0-0.682-0.084-0.846-0.253
			c-0.206-0.213-0.308-0.625-0.301-1.224c0.011-0.771-0.014-3.47-0.038-5.742h1.804c0.143,0,0.285-0.051,0.409-0.146
			c0.156-0.119,0.241-0.293,0.241-0.489c0-0.178-0.074-0.352-0.199-0.474c-0.164-0.17-0.336-0.207-0.452-0.207h-1.817l-0.034-3.039
			c-0.005-0.386-0.336-0.635-0.649-0.646c-0.171,0.001-0.331,0.071-0.451,0.196c-0.109,0.115-0.173,0.267-0.18,0.423v0.187
			c0.005,0.395,0.015,1.534,0.018,2.878h-1.298c-0.186,0-0.352,0.073-0.462,0.195c-0.137,0.132-0.211,0.304-0.211,0.485
			c0,0.386,0.264,0.634,0.672,0.634h1.298c-0.003,0.732-0.009,1.476-0.021,2.158c-0.036,2.109-3.562,5.166-5.035,5.166
			c-0.748,0-0.822-0.032-1.098-0.153l-0.186-0.08c-0.254-0.101-0.461-0.252-0.614-0.443c-0.161-0.199-0.276-0.421-0.344-0.653
			c-0.057-0.189-0.098-0.38-0.123-0.569c0.743-0.009,1.496-0.146,2.248-0.414c0.479-0.208,0.897-0.489,1.246-0.839
			c0.374-0.384,0.563-0.913,0.563-1.576c0-0.552-0.184-1.03-0.547-1.418c-0.438-0.468-0.919-0.683-1.518-0.683
			c-0.151,0-0.314,0.014-0.505,0.044c-0.439,0.092-0.841,0.3-1.194,0.613c-0.339,0.3-0.627,0.649-0.879,1.066
			c-0.246,0.404-0.434,0.851-0.563,1.33s-0.19,0.918-0.19,1.339c0,0.063,0.027,0.37,0.027,0.37c0.029,0.347,0.105,0.724,0.226,1.117
			c0.126,0.401,0.321,0.767,0.576,1.086c0.264,0.335,0.615,0.609,1.04,0.815c0.357,0.177,0.721,0.322,1.55,0.322
			c0.146,0,0.307-0.005,0.496-0.015c1.55-0.126,3.605-1.562,4.913-3.369c0,0.218,0,0.392-0.002,0.512
			c-0.013,0.974,0.207,1.679,0.668,2.159c0.419,0.43,0.994,0.642,1.759,0.642c2.244,0,3.484-3.222,3.619-3.59
			c0.06-0.164,0.051-0.342-0.019-0.501C72.572,28,72.444,27.879,72.284,27.819z M59.404,27.12c0.118-0.29,0.27-0.558,0.446-0.794
			c0.169-0.217,0.369-0.399,0.595-0.541c0.202-0.124,0.414-0.188,0.628-0.188h0.118c0.18,0,0.337,0.07,0.493,0.218
			c0.144,0.133,0.211,0.294,0.211,0.5c0,0.287-0.077,0.504-0.233,0.667c-0.2,0.199-0.458,0.365-0.776,0.49
			c-0.553,0.233-1.123,0.354-1.695,0.356C59.239,27.59,59.31,27.352,59.404,27.12z M92.12,30.69l-0.001-5.036l-0.074-1.708
			c-0.306-1.93-1.51-2.95-3.484-2.95c-1.48,0-2.653,0.379-3.849,1.256v-0.065c0-0.431-0.08-0.768-0.312-1.111
			c-0.216-0.228-0.56-0.329-1.11-0.329c-0.002,0-1.266,0.073-1.263,0.073c-0.255,0-0.502,0.086-0.712,0.246
			c-0.267,0.198-0.414,0.49-0.414,0.784c-0.006,0.037-0.051,0.359,0.196,0.653c0.241,0.293,0.668,0.439,1.268,0.439
			c0.112,0,0.191,0.021,0.236,0.205v7.535h-0.187c-0.815,0-1.033,0.261-1.203,0.907v0.238c0,0.273,0.112,0.524,0.283,0.654
			c0.145,0.14,0.331,0.229,0.645,0.295l3.035-0.007l0.529-0.163c0.146-0.091,0.266-0.21,0.415-0.466l0.094-0.462
			c0-0.729-0.356-0.997-1.314-0.997h-0.191l-0.001-5.391c-0.014-0.167,0.006-0.455,0.1-0.55l0.292-0.322
			c0.41-0.429,1.737-1.31,2.948-1.397l0.334-0.02c0.729,0,1.109,0.117,1.269,0.391c0.258,0.437,0.29,1.232,0.29,1.878v5.41h-0.114
			c-1.373,0-1.52,0.774-1.52,1.106c0,0.37,0.185,0.987,1.423,0.987h2.217c0.429,0,0.741-0.033,0.987-0.104
			c0.407-0.13,0.647-0.473,0.647-0.916C93.586,31.378,93.405,30.75,92.12,30.69z M106.173,27.239
			c0.201-0.039,0.39-0.105,0.639-0.226c0.253-0.168,0.552-0.514,0.552-1.196c0-0.318-0.072-0.78-0.221-1.408
			c-0.155-0.655-0.502-1.306-1.035-1.935c-0.517-0.603-1.14-1.074-1.846-1.402c-0.69-0.316-1.478-0.476-2.338-0.476
			c-0.286,0-0.573,0.015-0.862,0.048c-0.287,0.039-0.69,0.141-1.233,0.311c-0.589,0.185-1.092,0.585-1.711,1.17
			c-0.635,0.601-1.11,1.289-1.411,2.051c-0.299,0.763-0.45,1.603-0.45,2.504c0,0.852,0.128,1.616,0.379,2.264
			c0.226,0.721,0.597,1.401,1.103,2.026c0.519,0.632,1.163,1.13,1.914,1.48c0.761,0.353,1.581,0.528,2.437,0.528l0.424-0.012
			c0.191-0.005,0.475-0.039,0.857-0.102c0.411-0.063,0.869-0.217,1.351-0.453c0.508-0.203,1.002-0.478,1.473-0.819
			c0.537-0.386,0.858-0.768,1.008-1.243l0.032-0.307c0-0.448-0.253-0.794-0.788-0.915c-0.305,0-0.583,0.072-0.867,0.236l-0.651,0.47
			c-0.934,0.7-1.907,1.056-2.895,1.056c-0.648,0-1.257-0.159-1.805-0.475c-0.54-0.308-0.972-0.781-1.286-1.414
			c-0.254-0.519-0.409-1.092-0.464-1.707h6.895C105.698,27.292,105.964,27.273,106.173,27.239z M98.72,25.2
			c0.106-0.36,0.208-0.701,0.382-0.992c0.348-0.495,0.76-0.878,1.217-1.137c0.46-0.257,0.967-0.384,1.559-0.384
			c0.612,0,1.156,0.13,1.617,0.387c0.458,0.251,0.843,0.619,1.144,1.09c0.159,0.247,0.276,0.516,0.389,0.794
			c0.057,0.141,0.064,0.216,0.083,0.241L98.72,25.2L98.72,25.2z M136.085,29.126c-0.305,0-0.583,0.074-0.866,0.237l-0.651,0.469
			c-0.933,0.701-1.906,1.056-2.895,1.056c-0.647,0-1.258-0.158-1.806-0.475c-0.539-0.308-0.971-0.781-1.285-1.414
			c-0.254-0.519-0.409-1.091-0.464-1.706h6.894c0.323,0,0.59-0.017,0.797-0.054c0.202-0.039,0.391-0.104,0.641-0.225
			c0.252-0.168,0.551-0.516,0.551-1.196c0-0.318-0.071-0.78-0.221-1.407c-0.155-0.655-0.502-1.307-1.035-1.935
			c-0.518-0.603-1.14-1.075-1.846-1.403c-0.691-0.316-1.479-0.476-2.34-0.476c-0.285,0-0.571,0.014-0.861,0.048
			c-0.287,0.04-0.689,0.142-1.233,0.312c-0.589,0.184-1.092,0.584-1.712,1.169c-0.634,0.6-1.109,1.288-1.41,2.05
			c-0.3,0.762-0.45,1.604-0.45,2.503c0,0.852,0.128,1.616,0.379,2.265c0.227,0.721,0.597,1.401,1.103,2.026
			c0.52,0.632,1.164,1.13,1.915,1.48c0.761,0.353,1.581,0.529,2.437,0.529l0.426-0.013c0.19-0.005,0.474-0.039,0.856-0.103
			c0.411-0.063,0.868-0.217,1.351-0.453c0.508-0.202,1.002-0.477,1.473-0.818c0.536-0.386,0.857-0.768,1.01-1.243l0.031-0.306
			C136.872,29.593,136.619,29.248,136.085,29.126z M128.74,24.208c0.347-0.495,0.758-0.878,1.217-1.137
			c0.459-0.257,0.967-0.384,1.559-0.384c0.612,0,1.156,0.13,1.617,0.387c0.458,0.251,0.843,0.619,1.144,1.09
			c0.157,0.247,0.276,0.516,0.389,0.794c0.058,0.141,0.064,0.216,0.083,0.241h-6.39C128.464,24.84,128.565,24.501,128.74,24.208z
			 M121.975,30.69v-5.036l-0.075-1.708c-0.304-1.93-1.509-2.95-3.482-2.95c-1.48,0-2.653,0.379-3.849,1.256v-0.065
			c0-0.434-0.082-0.77-0.312-1.111c-0.216-0.228-0.561-0.329-1.11-0.329c-0.001,0-1.266,0.073-1.263,0.073
			c-0.254,0-0.501,0.086-0.71,0.246c-0.269,0.197-0.416,0.488-0.415,0.784c-0.007,0.037-0.05,0.359,0.194,0.653
			c0.243,0.293,0.67,0.439,1.27,0.439c0.111,0,0.192,0.021,0.236,0.205v7.535h-0.188c-0.816,0-1.032,0.261-1.201,0.907v0.238
			c0,0.274,0.113,0.526,0.282,0.653c0.142,0.139,0.329,0.229,0.646,0.295l3.035-0.006l0.525-0.162
			c0.147-0.09,0.269-0.212,0.415-0.468l0.096-0.461c0-0.729-0.357-0.998-1.315-0.998h-0.191l-0.001-5.391
			c-0.014-0.167,0.007-0.456,0.097-0.55l0.294-0.32c0.409-0.43,1.737-1.311,2.95-1.398l0.334-0.02c0.729,0,1.109,0.116,1.27,0.391
			c0.256,0.433,0.288,1.231,0.288,1.878v5.409h-0.113c-1.371,0-1.52,0.775-1.52,1.107c0,0.37,0.187,0.987,1.425,0.987h2.217
			c0.43,0,0.741-0.034,0.985-0.104c0.407-0.128,0.648-0.471,0.648-0.916C123.441,31.378,123.261,30.75,121.975,30.69z"/>
	</g>
</g>
<rect fill="none" width="138" height="34"/>
</svg>
