<?xml version="1.0" encoding="utf-8"?>
<!-- Generator: Adobe Illustrator 15.0.0, SVG Export Plug-In . SVG Version: 6.00 Build 0)  -->
<!DOCTYPE svg PUBLIC "-//W3C//DTD SVG 1.1//EN" "http://www.w3.org/Graphics/SVG/1.1/DTD/svg11.dtd">
<svg version="1.1" id="レイヤー_1" xmlns="http://www.w3.org/2000/svg" xmlns:xlink="http://www.w3.org/1999/xlink" x="0px"
	 y="0px" width="228px" height="54px" viewBox="0 0 228 54" enable-background="new 0 0 228 54" xml:space="preserve">
<g>
	<g>
		<path fill="#6A6C5F" d="M109.271,9.993c0.061,0.063,0.241,0.125,0.542,0.182l0.261,0.028c0.202,0,0.361-0.063,0.549-0.219
			c0.342-0.286,0.328-0.404,0.2-0.979c-0.155-0.69,0.032-1.943,0.214-2.117c0.035-0.028,0.254-0.106,0.832-0.109
			c1.174-0.007,2.122-0.291,2.602-0.78c0.215-0.22,0.326-0.48,0.318-0.754c-0.01-0.352,0.127-1.497,0.139-1.575
			c0.268-0.253-0.483-1.466-0.667-1.664c-0.689-0.733-1.092-0.915-2.161-0.973C111.742,1.012,111.237,1,110.788,1l-0.602,0.007
			l-1.105,0.205l0.022,3.727C109.134,9.856,109.159,9.88,109.271,9.993z M110.972,3.009c0.262-0.279,0.374-0.35,0.811-0.35V2.495
			h0.004l0.17,0.168c0.327,0.01,0.486,0.071,0.682,0.262c0.356,0.355,0.531,1.024,0.38,1.466c-0.107,0.322-0.553,0.603-0.974,0.603
			c-0.166,0-0.396,0.057-0.508,0.282l-0.153-0.291l-0.172-0.002c-0.107,0-0.245-0.175-0.298-0.572
			C110.759,3.237,110.759,3.237,110.972,3.009z M97.767,7.154c-0.003,0.236,0.033,0.545,0.106,0.688
			c0.142,0.29,0.325,0.946,0.322,1.107c-0.003,0.371,0.874,1.074,1.467,1.366c0.433,0.214,0.939,0.322,1.508,0.322
			c0.31,0,0.634-0.033,0.976-0.1c0.557-0.104,0.81-0.234,1.174-0.601c0.449-0.454,0.863-1.151,0.779-1.539l-0.194-1.008
			c-0.088-0.463-0.238-1.201-0.335-1.629c-0.097-0.423-0.21-1.056-0.251-1.394c-0.044-0.348-0.154-0.978-0.251-1.424
			c-0.098-0.446-0.166-0.879-0.165-0.987c0.004-0.372-0.468-0.891-0.816-0.897c-0.154,0-0.455,0.128-0.657,0.249
			c-0.259,0.153-0.48,0.317-0.405,0.658c0.275,1.21,0.533,2.484,0.607,2.986c0.134,0.917,0.286,1.8,0.409,2.375
			c0.143,0.678,0.126,1.103-0.055,1.345c-0.138,0.183-0.391,0.287-0.796,0.32c-0.13,0.01-0.245,0.02-0.349,0.02
			c-0.651,0-0.758-0.294-1.411-3.918c-0.097-0.539-0.229-1.128-0.292-1.315c-0.063-0.186-0.166-0.553-0.229-0.834
			c-0.148-0.625-0.287-0.841-0.858-0.973l-0.271-0.038c-0.174,0-0.304,0.066-0.421,0.216c-0.335,0.421-0.292,1.055,0.251,3.776
			C97.694,6.369,97.769,6.934,97.767,7.154z M122.354,1.583c-0.584-0.031-1.066-0.09-1.348-0.156c-0.15,0-0.291,0.06-0.396,0.163
			c-0.139,0.132-0.239,0.418-0.323,1.436c-0.052,0.637-0.146,1.494-0.211,1.927c-0.068,0.444-0.146,1.145-0.167,1.584
			c-0.027,0.479-0.076,0.91-0.109,1.034c-0.125,0.477-0.324,2.448-0.189,2.709c0.113,0.222,0.402,0.364,0.733,0.364
			c0.234,0,0.454-0.075,0.595-0.207c0.266-0.237,0.322-0.518,0.4-1.429c0.163-1.877,0.178-1.891,0.396-2.122
			c0.152-0.157,0.203-0.184,0.355-0.184c0.1,0,0.223,0.014,0.389,0.036c0.431,0.054,0.655,0.146,0.783,0.31
			c0.238,0.312,0.196,1.022,0.043,2.141c-0.005,0.04-0.132,0.976-0.06,1.203c0.104,0.341,0.511,0.518,0.854,0.518
			c0.133,0,0.258-0.023,0.366-0.073c0.353-0.154,0.404-0.357,0.47-0.891c0.043-0.349,0.129-0.989,0.191-1.438
			c0.086-0.604,0.082-0.989-0.021-1.407c-0.104-0.416-0.104-0.416,0.427-1.361c0.405-0.724,0.448-1.997,0.085-2.618
			C125.013,2.098,124.097,1.665,122.354,1.583z M123.964,4.842c-0.152,0.246-0.379,0.367-0.686,0.367
			c-0.133,0-0.28-0.024-0.442-0.071c-0.173-0.05-0.354-0.078-0.478-0.078l-0.143,0.04c-0.035-0.023-0.129-0.192-0.169-0.544
			c-0.045-0.414,0.013-0.818,0.13-0.939c0.15-0.15,0.293-0.229,0.661-0.229c0.175,0,0.392,0.016,0.647,0.045
			c0.041,0.014,0.205,0.12,0.389,0.285C124.218,4.024,124.248,4.393,123.964,4.842z M132.509,3.451
			c-0.261,0-0.505,0.125-0.669,0.338c-0.19,0.242-0.28,0.945-0.312,1.234c-0.051,0.455-0.115,0.751-0.027,0.756
			c-0.123,0.005-0.262,0.086-0.27,0.674c-0.004,0.271-0.057,0.691-0.11,0.936c-0.272,1.149-0.399,1.783-0.558,2.793
			c-0.09,0.574-0.197,1.189-0.24,1.358c-0.063,0.242-0.01,0.486,0.15,0.69c0.187,0.238,0.48,0.386,0.776,0.386
			c0.262,0,0.483-0.118,0.627-0.329c0.245-0.361,0.454-1.456,0.86-4.504c0.117-0.878,0.24-1.487,0.279-1.574
			c0.133-0.277,0.277-1.297,0.305-1.906c0.008-0.232-0.075-0.448-0.229-0.604C132.94,3.541,132.729,3.451,132.509,3.451z
			 M93.697,9.21c-0.119-0.36-0.247-0.868-0.282-1.121c-0.069-0.478-0.179-0.59-0.206-0.59c-0.005,0-0.007,0.001-0.007,0.004
			c-0.021-0.062-0.058-0.228-0.077-0.496c-0.031-0.416-0.185-0.929-0.436-1.445c-0.361-0.743-0.472-0.856-1.176-1.217
			c-0.564-0.287-0.926-0.391-1.461-0.396c-0.572,0-0.64,0.066-0.663,0.09c-0.027,0.016-0.153,0.059-0.302,0.08
			c-0.519,0.089-1.017,0.48-1.303,1.019c-0.222,0.418-0.407,1.415-0.1,1.598c0.02,0.033,0.057,0.184,0.055,0.383
			c-0.002,0.165,0.017,0.557,0.179,0.602c0.023,0.033,0.079,0.195,0.103,0.436c0.028,0.289,0.15,0.825,0.271,1.194
			c0.112,0.35,0.234,0.842,0.266,1.101c0.038,0.282,0.204,0.771,0.373,1.09c0.257,0.499,0.455,0.679,1.114,1.019
			c0.598,0.31,0.943,0.406,1.48,0.419H91.6c0.862,0,1.64-0.338,2.079-0.902c0.341-0.434,0.354-0.56,0.305-1.334
			C93.952,10.277,93.827,9.604,93.697,9.21z M91.546,11.372c-0.097,0-0.352-0.052-0.598-0.129c-0.274-0.087-0.369-0.174-0.474-0.439
			c-0.271-0.688-0.396-1.158-0.391-1.48c0-0.068-0.008-0.414-0.135-0.551c-0.03-0.045-0.118-0.309-0.182-0.648
			C89.647,7.49,89.625,7.4,89.51,7.082c-0.125-0.343-0.16-0.657-0.107-0.929c0.031-0.157,0.076-0.228,0.415-0.34
			c0.2-0.071,0.345-0.099,0.474-0.099c0.175,0,0.336,0.059,0.562,0.205c0.122,0.077,0.208,0.174,0.221,0.202
			c0.258,0.976,0.352,1.217,0.438,1.318c0.019,0.026,0.053,0.146,0.05,0.277C91.562,7.99,91.68,8.477,91.9,9.084
			c0.117,0.319,0.308,1.349,0.304,1.641C92.201,10.951,91.773,11.372,91.546,11.372z M139.099,15.955
			c0.353,0.149,0.736,0.23,1.115,0.23c0.407,0,0.77-0.092,1.041-0.266c0.521-0.329,1.118-1.847,1.439-3.176
			c0.281-1.173,0.371-1.461,0.563-1.827c0.133-0.254,0.211-0.674,0.217-1.154c0.008-0.688-0.043-0.848-0.457-1.44
			c-0.637-0.902-1.244-1.282-2.252-1.405c-0.242-0.028-0.422-0.045-0.568-0.045c-0.312,0-0.502,0.07-0.813,0.227
			c-0.723,0.354-0.896,0.669-1.151,2.103c-0.031,0.176-0.101,0.402-0.152,0.515c-0.063,0.129-0.195,0.526-0.301,0.896l-0.358,1.277
			c-0.319,1.118-0.297,2.005,0.065,2.633C137.897,15.237,138.335,15.625,139.099,15.955z M138.731,13.197
			c0.156-0.086,0.203-0.343,0.205-0.481c0.002-0.122,0.047-0.342,0.098-0.465c0.058-0.146,0.199-0.566,0.313-0.942
			c0.111-0.364,0.301-0.895,0.418-1.18c0.11-0.277,0.227-0.651,0.229-0.823c0.01-0.147,0.449-0.667,0.607-0.721
			c0.055,0.01,0.211,0.054,0.398,0.122c0.369,0.131,0.814,0.825,0.688,1.302l-0.189,0.733c-0.104,0.399-0.307,1.063-0.457,1.494
			c-0.155,0.447-0.314,1.003-0.361,1.258c-0.132,0.732-0.173,0.753-0.434,0.878c-0.119,0.061-0.24,0.087-0.389,0.087
			c-0.092,0-0.193-0.01-0.313-0.029c-0.365-0.065-0.429-0.111-0.613-0.453C138.671,13.504,138.69,13.221,138.731,13.197z
			 M84.018,12.293c-0.282,0-0.528,0.129-0.658,0.345c-0.125,0.205-0.125,0.457,0,0.685c0.172,0.322,0.182,0.417-0.101,0.816
			c-0.244,0.348-0.855,0.59-1.5,0.59c-0.185,0-0.409-0.108-0.571-0.272c-0.109-0.113-0.174-0.238-0.172-0.336
			c0.002-0.173-0.112-0.479-0.229-0.692c-0.116-0.208-0.255-0.469-0.316-0.592c-0.047-0.091-0.152-0.459-0.229-0.843
			c-0.023-0.121-0.146-0.727-0.236-0.851c-0.233-0.35-0.338-1.664-0.227-1.84c0.138-0.188,0.81-0.517,1.132-0.517
			c0.336,0,0.56,0.082,1.146,0.554c0.287,0.229,0.578,0.348,0.845,0.348c0.261,0,0.473-0.118,0.58-0.326
			c0.147-0.284,0.07-0.674-0.209-1.066c-0.455-0.639-1.659-1.085-2.457-1.085c-0.166,0-0.315,0.016-0.658,0.112L79.75,7.437
			c-0.533,0.149-0.934,0.355-1.343,0.681c-0.698,0.554-0.809,1.712-0.266,2.753c0.196,0.378,0.305,0.692,0.309,0.752
			c-0.004,0.144,0.055,0.336,0.218,0.62c-0.006,0.411,0.635,2.318,0.892,2.747c0.434,0.729,1.437,1.203,2.553,1.203
			c0.349,0,0.689-0.047,1.013-0.139c0.949-0.275,1.369-0.541,1.727-1.088c0.433-0.667,0.414-1.338-0.059-2.112
			C84.561,12.476,84.389,12.298,84.018,12.293z M13.422,49.073h-2.963V30.345c0.003-0.303,0.006-1.012-0.529-1.548
			c-0.428-0.432-1.104-0.646-2-0.646H4.281c-0.829,0-1.46,0.137-1.93,0.414c-0.757,0.451-0.916,1.002-0.916,1.382
			c0,0.258,0.082,0.895,0.825,1.269c0.384,0.227,0.845,0.338,1.371,0.338h3.097l0.156,0.229v17.293H3.167
			C1.156,49.073,1,50.42,1,50.833c0,0.492,0.215,1.643,2.205,1.643h10.243c1.557,0,2.064-0.636,2.249-1.332v-0.35
			C15.699,50.392,15.534,49.073,13.422,49.073z M36.823,49.892c-0.374-0.199-0.83-0.295-1.4-0.295h-3.679V35.724
			c0-1.396-0.756-2.166-2.127-2.166h-4.588c-0.782,0-1.419,0.127-1.892,0.375c-0.844,0.438-0.97,1.082-0.97,1.426
			c0,0.574,0.315,1.041,0.826,1.265c0.37,0.228,0.842,0.341,1.404,0.341h3.238c0.407,0,0.441,0.186,0.441,0.355v12.277h-3.543
			c-2.009,0-2.164,1.348-2.164,1.762c0,0.492,0.219,1.642,2.239,1.642h10.803c1.261,0,2.02-0.388,2.291-1.326v-0.354
			C37.706,50.631,37.34,50.063,36.823,49.892z M56.907,49.073h-2.961V30.349c0.003-0.303,0.007-1.013-0.529-1.551
			c-0.431-0.429-1.104-0.646-2.002-0.646h-3.647c-0.828,0-1.46,0.138-1.934,0.418c-0.757,0.453-0.916,1-0.916,1.381
			c0,0.257,0.082,0.891,0.828,1.268c0.381,0.227,0.843,0.338,1.368,0.338h3.099l0.155,0.229v17.291H46.65
			c-2.01,0-2.166,1.348-2.166,1.761c0,0.492,0.216,1.643,2.206,1.643h10.245c1.556,0,2.062-0.635,2.248-1.332v-0.35
			C59.184,50.392,59.02,49.073,56.907,49.073z M80.459,49.892c-0.372-0.199-0.829-0.295-1.398-0.295h-3.678V35.724
			c0-1.396-0.757-2.166-2.13-2.166h-4.584c-0.783,0-1.42,0.127-1.892,0.375c-0.846,0.438-0.972,1.082-0.972,1.426
			c0,0.574,0.316,1.041,0.827,1.265c0.371,0.228,0.843,0.341,1.404,0.341h3.238c0.411,0,0.444,0.186,0.444,0.355v12.277h-3.547
			c-2.005,0-2.162,1.348-2.162,1.762c0,0.492,0.219,1.642,2.24,1.642h10.804c1.571,0,2.091-0.627,2.288-1.326v-0.354
			C81.342,50.631,80.978,50.063,80.459,49.892z M29.418,30.168c0.799,0,1.451-0.269,1.939-0.792c0.482-0.525,0.73-1.178,0.73-1.929
			c0-0.676-0.215-1.297-0.667-1.883c-0.488-0.492-1.162-0.738-2.001-0.738c-0.781,0-1.43,0.247-1.957,0.771
			c-0.442,0.581-0.667,1.204-0.667,1.85c0,0.662,0.241,1.289,0.72,1.863C28,29.878,28.641,30.168,29.418,30.168z M73.051,30.168
			c0.795,0,1.447-0.269,1.938-0.792c0.483-0.523,0.728-1.176,0.728-1.929c0-0.672-0.211-1.293-0.659-1.885
			c-0.491-0.49-1.166-0.736-2.006-0.736c-0.784,0-1.432,0.247-1.956,0.772c-0.438,0.581-0.661,1.202-0.661,1.848
			c0,0.674,0.239,1.301,0.714,1.862C71.637,29.878,72.277,30.168,73.051,30.168z M119.458,44.581
			c-0.115-0.04-0.238-0.063-0.363-0.063c-0.447,0-0.852,0.278-1.004,0.697c-0.016,0.042-1.727,4.439-4.012,4.439
			c-0.672,0-1.132-0.137-1.406-0.411c-0.342-0.347-0.511-1.017-0.5-1.989c0.018-1.254-0.022-5.638-0.062-9.331h2.997
			c0.236,0,0.475-0.082,0.681-0.237c0.26-0.192,0.4-0.476,0.4-0.795c0-0.289-0.123-0.572-0.33-0.771
			c-0.272-0.276-0.56-0.336-0.751-0.336h-3.02l-0.056-4.938c-0.008-0.627-0.558-1.031-1.079-1.049
			c-0.284,0.002-0.549,0.115-0.75,0.318c-0.182,0.188-0.287,0.434-0.299,0.688v0.303c0.008,0.642,0.025,2.492,0.03,4.677h-2.158
			c-0.308,0-0.585,0.118-0.768,0.317c-0.227,0.215-0.351,0.494-0.351,0.789c0,0.627,0.439,1.029,1.118,1.029h2.157
			c-0.005,1.189-0.015,2.398-0.035,3.508c-0.059,3.428-5.918,8.395-8.367,8.395c-1.242,0-1.366-0.053-1.825-0.249l-0.309-0.13
			c-0.423-0.164-0.767-0.409-1.02-0.721c-0.267-0.324-0.458-0.684-0.572-1.062c-0.094-0.308-0.163-0.618-0.204-0.925
			c1.235-0.016,2.486-0.239,3.735-0.674c0.796-0.338,1.491-0.795,2.071-1.363c0.621-0.623,0.936-1.482,0.936-2.561
			c0-0.897-0.306-1.674-0.909-2.305c-0.727-0.76-1.527-1.109-2.522-1.109c-0.251,0-0.522,0.022-0.84,0.071
			c-0.729,0.149-1.397,0.487-1.984,0.997c-0.563,0.487-1.042,1.055-1.461,1.732c-0.408,0.656-0.721,1.383-0.935,2.162
			c-0.213,0.779-0.316,1.492-0.316,2.176c0,0.104,0.044,0.602,0.044,0.602c0.049,0.563,0.175,1.176,0.375,1.814
			c0.21,0.652,0.533,1.246,0.958,1.766c0.438,0.544,1.021,0.99,1.728,1.324c0.594,0.287,1.198,0.523,2.575,0.523
			c0.243,0,0.51-0.007,0.825-0.022c2.576-0.206,5.991-2.538,8.164-5.476c0,0.354,0,0.636-0.003,0.832
			c-0.021,1.582,0.343,2.728,1.11,3.508c0.696,0.699,1.652,1.043,2.923,1.043c3.73,0,5.791-5.235,6.014-5.834
			c0.099-0.266,0.084-0.555-0.032-0.813C119.937,44.875,119.724,44.679,119.458,44.581z M98.054,43.444
			c0.196-0.471,0.448-0.906,0.741-1.291c0.281-0.354,0.613-0.649,0.988-0.879c0.336-0.201,0.688-0.306,1.043-0.306h0.196
			c0.3,0,0.56,0.113,0.819,0.354c0.239,0.216,0.351,0.478,0.351,0.813c0,0.467-0.128,0.819-0.387,1.083
			c-0.332,0.324-0.762,0.593-1.289,0.796c-0.919,0.379-1.866,0.574-2.817,0.579C97.78,44.209,97.897,43.821,98.054,43.444z
			 M152.421,49.246l-0.002-8.183l-0.123-2.775c-0.509-3.137-2.51-4.793-5.79-4.793c-2.46,0-4.409,0.615-6.396,2.041v-0.105
			c0-0.699-0.133-1.248-0.518-1.805c-0.359-0.371-0.931-0.535-1.844-0.535c-0.004,0-2.104,0.118-2.1,0.118
			c-0.424,0-0.834,0.14-1.183,0.399c-0.444,0.322-0.688,0.796-0.688,1.274c-0.01,0.06-0.084,0.583,0.326,1.062
			c0.401,0.477,1.111,0.714,2.107,0.714c0.186,0,0.318,0.034,0.393,0.333v12.244h-0.311c-1.355,0-1.716,0.424-1.999,1.475v0.387
			c0,0.445,0.187,0.853,0.47,1.064c0.24,0.227,0.549,0.371,1.071,0.479l5.044-0.011l0.879-0.266
			c0.242-0.146,0.442-0.341,0.689-0.757l0.156-0.75c0-1.185-0.592-1.621-2.185-1.621h-0.317l-0.002-8.76
			c-0.022-0.271,0.01-0.738,0.166-0.894l0.485-0.522c0.681-0.697,2.886-2.129,4.899-2.271l0.556-0.032
			c1.212,0,1.843,0.189,2.108,0.635c0.43,0.709,0.482,2.002,0.482,3.053v8.791h-0.189c-2.281,0-2.525,1.259-2.525,1.799
			c0,0.602,0.307,1.604,2.365,1.604h3.684c0.713,0,1.23-0.054,1.641-0.168c0.676-0.211,1.076-0.769,1.076-1.488
			C154.856,50.364,154.556,49.344,152.421,49.246z M175.772,43.638c0.334-0.063,0.648-0.171,1.063-0.367
			c0.42-0.273,0.917-0.836,0.917-1.943c0-0.518-0.119-1.268-0.367-2.287c-0.257-1.064-0.835-2.123-1.72-3.145
			c-0.859-0.979-1.895-1.746-3.068-2.278c-1.146-0.515-2.455-0.773-3.886-0.773c-0.476,0-0.952,0.023-1.433,0.078
			c-0.478,0.063-1.146,0.229-2.049,0.505c-0.979,0.301-1.815,0.951-2.844,1.901c-1.056,0.976-1.846,2.095-2.346,3.332
			c-0.497,1.239-0.747,2.604-0.747,4.069c0,1.384,0.214,2.627,0.63,3.678c0.376,1.172,0.991,2.277,1.833,3.294
			c0.861,1.026,1.933,1.836,3.181,2.405c1.265,0.572,2.627,0.859,4.049,0.859l0.705-0.02c0.318-0.008,0.789-0.063,1.425-0.166
			c0.684-0.102,1.444-0.352,2.245-0.736c0.844-0.329,1.666-0.775,2.447-1.33c0.892-0.627,1.426-1.248,1.676-2.021l0.054-0.498
			c0-0.729-0.421-1.289-1.31-1.487c-0.508,0-0.97,0.118-1.44,0.385l-1.082,0.763c-1.552,1.139-3.168,1.717-4.81,1.717
			c-1.078,0-2.09-0.26-3-0.771c-0.896-0.501-1.615-1.271-2.137-2.298c-0.422-0.843-0.68-1.774-0.771-2.774h11.457
			C174.983,43.724,175.426,43.694,175.772,43.638z M163.388,40.325c0.176-0.586,0.346-1.139,0.635-1.611
			c0.578-0.805,1.263-1.427,2.022-1.848c0.765-0.418,1.606-0.624,2.59-0.624c1.017,0,1.921,0.212,2.687,0.628
			c0.762,0.409,1.4,1.006,1.9,1.771c0.264,0.4,0.459,0.838,0.646,1.291c0.095,0.229,0.106,0.352,0.138,0.392L163.388,40.325
			L163.388,40.325z M225.479,46.705c-0.506,0-0.969,0.12-1.439,0.385l-1.082,0.763c-1.551,1.139-3.168,1.715-4.811,1.715
			c-1.076,0-2.09-0.258-3-0.771c-0.896-0.501-1.614-1.271-2.137-2.298c-0.421-0.843-0.679-1.773-0.771-2.773h11.456
			c0.537,0,0.979-0.027,1.324-0.088c0.336-0.063,0.649-0.17,1.064-0.365c0.418-0.273,0.915-0.838,0.915-1.943
			c0-0.518-0.119-1.268-0.366-2.287c-0.258-1.064-0.835-2.124-1.721-3.145c-0.859-0.979-1.895-1.746-3.066-2.279
			c-1.15-0.514-2.459-0.773-3.889-0.773c-0.475,0-0.95,0.023-1.432,0.078c-0.478,0.064-1.146,0.23-2.049,0.506
			c-0.979,0.299-1.814,0.95-2.845,1.9c-1.054,0.975-1.845,2.094-2.345,3.332c-0.497,1.238-0.747,2.605-0.747,4.068
			c0,1.384,0.213,2.627,0.63,3.68c0.375,1.171,0.991,2.277,1.832,3.293c0.862,1.027,1.934,1.836,3.182,2.406
			c1.265,0.572,2.627,0.859,4.049,0.859l0.707-0.021c0.316-0.007,0.787-0.063,1.424-0.166c0.683-0.103,1.443-0.353,2.244-0.736
			c0.844-0.328,1.666-0.774,2.447-1.33c0.891-0.627,1.426-1.248,1.678-2.021l0.052-0.497
			C226.788,47.464,226.367,46.903,225.479,46.705z M213.274,38.714c0.576-0.805,1.26-1.427,2.022-1.848
			c0.763-0.418,1.606-0.624,2.59-0.624c1.017,0,1.921,0.212,2.687,0.628c0.762,0.409,1.4,1.006,1.9,1.771
			c0.262,0.4,0.459,0.838,0.646,1.291c0.095,0.229,0.107,0.352,0.138,0.392H212.64C212.815,39.739,212.983,39.188,213.274,38.714z
			 M202.032,49.246v-8.183l-0.125-2.775c-0.506-3.137-2.508-4.793-5.787-4.793c-2.461,0-4.41,0.615-6.396,2.041v-0.105
			c0-0.705-0.136-1.25-0.518-1.805c-0.359-0.371-0.932-0.535-1.844-0.535c-0.002,0-2.104,0.118-2.1,0.118
			c-0.422,0-0.832,0.14-1.181,0.399c-0.446,0.32-0.69,0.793-0.688,1.274c-0.012,0.06-0.084,0.583,0.322,1.062
			c0.403,0.477,1.113,0.714,2.11,0.714c0.185,0,0.319,0.034,0.392,0.333v12.244h-0.313c-1.355,0-1.715,0.424-1.995,1.475v0.387
			c0,0.447,0.188,0.856,0.469,1.063c0.235,0.225,0.546,0.373,1.074,0.479l5.044-0.009l0.872-0.264
			c0.245-0.146,0.446-0.345,0.69-0.761l0.158-0.748c0-1.186-0.593-1.623-2.186-1.623h-0.317l-0.002-8.76
			c-0.022-0.271,0.011-0.74,0.161-0.894l0.488-0.521c0.68-0.699,2.886-2.131,4.902-2.271l0.555-0.032
			c1.213,0,1.843,0.188,2.109,0.636c0.426,0.703,0.479,2,0.479,3.053v8.789h-0.188c-2.279,0-2.525,1.261-2.525,1.801
			c0,0.601,0.31,1.604,2.367,1.604h3.685c0.714,0,1.231-0.055,1.637-0.17c0.677-0.208,1.078-0.765,1.078-1.488
			C204.47,50.364,204.168,49.344,202.032,49.246z"/>
	</g>
</g>
<rect fill="none" width="228" height="54"/>
</svg>
