<?xml version="1.0" encoding="utf-8"?>
<!-- Generator: Adobe Illustrator 15.0.0, SVG Export Plug-In . SVG Version: 6.00 Build 0)  -->
<!DOCTYPE svg PUBLIC "-//W3C//DTD SVG 1.1//EN" "http://www.w3.org/Graphics/SVG/1.1/DTD/svg11.dtd">
<svg version="1.1" id="レイヤー_1" xmlns="http://www.w3.org/2000/svg" xmlns:xlink="http://www.w3.org/1999/xlink" x="0px"
	 y="0px" width="20px" height="20px" viewBox="0 0 20 20" enable-background="new 0 0 20 20" xml:space="preserve">
<g>
	<g>
		<path fill="#6A6C5F" d="M12.043,1.004c-3.782,0-6.859,3.079-6.859,6.861c0,1.739,0.655,3.325,1.726,4.534l-5.812,5.813
			l0.785,0.785l5.819-5.822c1.185,0.971,2.695,1.555,4.339,1.555c3.783,0,6.861-3.078,6.861-6.862
			C18.904,4.083,15.826,1.004,12.043,1.004z M12.043,13.615c-3.171,0-5.75-2.578-5.75-5.75c0-3.171,2.579-5.75,5.75-5.75
			c3.173,0,5.75,2.58,5.75,5.75C17.793,11.035,15.214,13.615,12.043,13.615z"/>
	</g>
</g>
<rect fill="none" width="20" height="20"/>
</svg>
