<?xml version="1.0" encoding="utf-8"?>
<!-- Generator: Adobe Illustrator 15.0.0, SVG Export Plug-In . SVG Version: 6.00 Build 0)  -->
<!DOCTYPE svg PUBLIC "-//W3C//DTD SVG 1.1//EN" "http://www.w3.org/Graphics/SVG/1.1/DTD/svg11.dtd">
<svg version="1.1" id="レイヤー_1" xmlns="http://www.w3.org/2000/svg" xmlns:xlink="http://www.w3.org/1999/xlink" x="0px"
	 y="0px" width="20px" height="20px" viewBox="0 0 20 20" enable-background="new 0 0 20 20" xml:space="preserve">
<path fill="#6A6C5F" d="M10.076,19.341H9.997c-0.413-0.016-2.086-0.012-4.239-0.244c-3.53-0.381-3.936-2.168-3.948-2.92
	c-0.021-1.515,1.035-2.352,2.117-3.078c1.019-0.685,2.263-1.226,2.794-1.457l0.2-0.088c0.342-0.158,0.516-0.254,0.554-0.465
	c0.038-0.217-0.038-0.343-0.388-0.785l-0.136-0.177c-0.44-0.567-1.047-1.81-1.071-1.862C5.335,7.143,4.758,3.633,6.62,1.996
	c1.542-1.354,3.077-1.354,3.382-1.333c0.305-0.021,1.84-0.021,3.383,1.333c1.86,1.635,1.284,5.146,0.741,6.269
	c-0.026,0.053-0.633,1.295-1.071,1.862L12.919,10.3c-0.354,0.444-0.43,0.57-0.393,0.789c0.038,0.211,0.215,0.307,0.495,0.438
	l0.265,0.115c0.529,0.23,1.772,0.771,2.789,1.453c1.082,0.729,2.139,1.563,2.115,3.078c-0.011,0.752-0.416,2.541-3.943,2.922
	C12.093,19.329,10.395,19.341,10.076,19.341z M9.932,1.661c-0.423,0-1.519,0.092-2.651,1.086C5.909,3.952,6.307,6.854,6.78,7.827
	c0.16,0.332,0.649,1.284,0.962,1.688l0.133,0.169c0.363,0.463,0.707,0.898,0.585,1.578c-0.133,0.738-0.733,1.021-1.057,1.17
	l-0.282,0.125c-0.507,0.224-1.692,0.736-2.635,1.369c-1.121,0.754-1.689,1.307-1.676,2.235c0.016,1.022,1.129,1.729,3.055,1.938
	c2.104,0.229,3.752,0.238,4.063,0.238c0,0,2.107-0.013,4.211-0.238c1.927-0.209,3.039-0.916,3.054-1.938
	c0.014-0.93-0.554-1.481-1.675-2.233c-0.938-0.631-2.124-1.146-2.631-1.367l-0.228-0.102c-0.384-0.178-0.98-0.457-1.116-1.195
	c-0.123-0.683,0.225-1.12,0.591-1.584l0.129-0.165c0.313-0.401,0.801-1.354,0.963-1.688c0.471-0.975,0.869-3.876-0.502-5.079
	c-1.15-1.01-2.263-1.089-2.577-1.089l-0.051,0.005L9.951,1.662C9.943,1.661,9.937,1.661,9.932,1.661z"/>
<rect fill="none" width="20" height="20"/>
</svg>
