<?xml version="1.0" encoding="utf-8"?>
<!-- Generator: Adobe Illustrator 15.0.0, SVG Export Plug-In . SVG Version: 6.00 Build 0)  -->
<!DOCTYPE svg PUBLIC "-//W3C//DTD SVG 1.1//EN" "http://www.w3.org/Graphics/SVG/1.1/DTD/svg11.dtd">
<svg version="1.1" id="レイヤー_1" xmlns="http://www.w3.org/2000/svg" xmlns:xlink="http://www.w3.org/1999/xlink" x="0px"
	 y="0px" width="228px" height="30.5px" viewBox="0 23.5 228 30.5" enable-background="new 0 23.5 228 30.5" xml:space="preserve">
<path fill="#6A6C5F" d="M13.422,49.073h-2.963V30.345c0.003-0.303,0.006-1.012-0.529-1.548c-0.428-0.432-1.104-0.646-2-0.646H4.281
	c-0.829,0-1.46,0.138-1.93,0.414c-0.757,0.451-0.916,1.002-0.916,1.383c0,0.258,0.082,0.895,0.825,1.269
	c0.384,0.228,0.845,0.339,1.371,0.339h3.097l0.156,0.229v17.293H3.167C1.156,49.073,1,50.42,1,50.833
	c0,0.492,0.215,1.644,2.205,1.644h10.243c1.557,0,2.064-0.637,2.249-1.332v-0.351C15.699,50.393,15.534,49.073,13.422,49.073z
	 M36.823,49.893c-0.374-0.199-0.83-0.295-1.4-0.295h-3.679V35.725c0-1.396-0.756-2.166-2.127-2.166h-4.588
	c-0.782,0-1.419,0.127-1.892,0.375c-0.844,0.438-0.97,1.082-0.97,1.426c0,0.574,0.315,1.041,0.826,1.265
	c0.37,0.228,0.842,0.341,1.404,0.341h3.238c0.407,0,0.441,0.186,0.441,0.355v12.277h-3.543c-2.009,0-2.164,1.348-2.164,1.762
	c0,0.492,0.219,1.642,2.239,1.642h10.803c1.261,0,2.02-0.388,2.291-1.326V51.32C37.706,50.631,37.34,50.063,36.823,49.893z
	 M56.907,49.073h-2.961V30.35c0.003-0.304,0.007-1.014-0.529-1.552c-0.431-0.429-1.104-0.646-2.002-0.646h-3.647
	c-0.828,0-1.46,0.138-1.934,0.418c-0.757,0.453-0.916,1-0.916,1.381c0,0.257,0.082,0.891,0.828,1.268
	c0.381,0.227,0.843,0.338,1.368,0.338h3.099l0.155,0.229v17.291H46.65c-2.01,0-2.166,1.348-2.166,1.761
	c0,0.492,0.216,1.643,2.206,1.643h10.245c1.556,0,2.062-0.635,2.248-1.332v-0.35C59.184,50.393,59.02,49.073,56.907,49.073z
	 M80.459,49.893c-0.372-0.199-0.829-0.295-1.398-0.295h-3.678V35.725c0-1.396-0.757-2.166-2.13-2.166h-4.584
	c-0.783,0-1.42,0.127-1.892,0.375c-0.846,0.438-0.972,1.082-0.972,1.426c0,0.574,0.316,1.041,0.827,1.265
	c0.371,0.228,0.843,0.341,1.404,0.341h3.238c0.411,0,0.444,0.186,0.444,0.355v12.277h-3.547c-2.005,0-2.162,1.348-2.162,1.762
	c0,0.492,0.219,1.642,2.24,1.642h10.804c1.571,0,2.091-0.627,2.288-1.326V51.32C81.342,50.631,80.978,50.063,80.459,49.893z
	 M29.418,30.168c0.799,0,1.451-0.27,1.939-0.792c0.482-0.524,0.73-1.178,0.73-1.929c0-0.676-0.215-1.297-0.667-1.883
	c-0.488-0.492-1.162-0.738-2.001-0.738c-0.781,0-1.43,0.247-1.957,0.771c-0.442,0.581-0.667,1.204-0.667,1.85
	c0,0.662,0.241,1.289,0.72,1.863C28,29.878,28.641,30.168,29.418,30.168z M73.051,30.168c0.795,0,1.447-0.27,1.938-0.792
	c0.483-0.522,0.728-1.176,0.728-1.929c0-0.672-0.211-1.293-0.659-1.885c-0.491-0.49-1.166-0.736-2.006-0.736
	c-0.784,0-1.432,0.247-1.956,0.772c-0.438,0.581-0.661,1.202-0.661,1.848c0,0.674,0.239,1.301,0.714,1.863
	C71.637,29.878,72.277,30.168,73.051,30.168z M119.458,44.581c-0.553-0.201-1.163,0.083-1.367,0.634
	c-0.016,0.042-1.728,4.439-4.012,4.439c-0.672,0-1.132-0.137-1.406-0.411c-0.342-0.347-0.511-1.017-0.5-1.989
	c0.018-1.254-0.022-5.638-0.062-9.331h2.997c0.236,0,0.476-0.082,0.682-0.237c0.26-0.191,0.4-0.476,0.4-0.795
	c0-0.289-0.123-0.572-0.33-0.771c-0.194-0.21-0.466-0.331-0.752-0.336h-3.02l-0.056-4.938c-0.008-0.627-0.558-1.031-1.079-1.049
	c-0.561,0.004-1.021,0.445-1.049,1.006v0.303c0.008,0.643,0.025,2.492,0.03,4.678h-2.158c-0.308,0-0.585,0.117-0.768,0.316
	c-0.222,0.203-0.349,0.489-0.351,0.789c0,0.627,0.439,1.029,1.118,1.029h2.157c-0.004,1.17-0.016,2.339-0.035,3.508
	c-0.059,3.428-5.918,8.395-8.367,8.395c-1.242,0-1.366-0.053-1.825-0.248l-0.309-0.131c-0.397-0.146-0.749-0.395-1.02-0.721
	c-0.259-0.313-0.454-0.674-0.572-1.062c-0.093-0.302-0.162-0.612-0.204-0.925c1.273-0.021,2.535-0.25,3.735-0.674
	c0.77-0.32,1.472-0.783,2.071-1.363c0.621-0.623,0.936-1.482,0.936-2.562c0-0.896-0.306-1.674-0.909-2.305
	c-0.727-0.761-1.527-1.108-2.522-1.108c-0.251,0-0.522,0.021-0.84,0.07c-0.737,0.154-1.42,0.498-1.984,0.997
	c-0.573,0.499-1.066,1.083-1.461,1.731c-0.414,0.672-0.729,1.4-0.935,2.162c-0.203,0.708-0.309,1.44-0.316,2.176
	c0,0.104,0.044,0.603,0.044,0.603c0.06,0.616,0.186,1.225,0.375,1.813c0.21,0.652,0.533,1.246,0.958,1.767
	c0.438,0.544,1.021,0.99,1.728,1.324c0.594,0.286,1.198,0.522,2.575,0.522c0.243,0,0.51-0.007,0.825-0.021
	c2.576-0.206,5.991-2.538,8.164-5.477c0,0.354,0,0.637-0.003,0.832c-0.021,1.582,0.343,2.729,1.11,3.508
	c0.696,0.699,1.652,1.043,2.923,1.043c3.73,0,5.791-5.234,6.014-5.834c0.098-0.264,0.086-0.557-0.031-0.813
	C119.936,44.873,119.721,44.678,119.458,44.581L119.458,44.581z M98.054,43.443c0.196-0.471,0.448-0.905,0.741-1.291
	c0.281-0.354,0.613-0.648,0.988-0.879c0.313-0.195,0.674-0.301,1.043-0.306h0.196c0.3,0,0.56,0.113,0.819,0.354
	c0.239,0.216,0.351,0.478,0.351,0.813c0,0.467-0.128,0.819-0.387,1.083c-0.332,0.324-0.762,0.593-1.289,0.796
	c-0.893,0.374-1.85,0.57-2.817,0.579C97.78,44.209,97.897,43.82,98.054,43.443z M152.421,49.246l-0.002-8.184l-0.123-2.774
	c-0.509-3.138-2.51-4.793-5.79-4.793c-2.46,0-4.408,0.614-6.396,2.041v-0.104c0-0.699-0.133-1.248-0.518-1.806
	c-0.359-0.371-0.931-0.535-1.844-0.535l-2.1,0.118c-0.424,0-0.834,0.141-1.184,0.398c-0.443,0.322-0.688,0.797-0.688,1.274
	c-0.01,0.06-0.084,0.583,0.326,1.062c0.4,0.478,1.11,0.715,2.106,0.715c0.187,0,0.317,0.033,0.394,0.333v12.243h-0.312
	c-1.354,0-1.716,0.425-1.999,1.476v0.388c0,0.444,0.188,0.853,0.471,1.063c0.239,0.228,0.549,0.371,1.07,0.479l5.044-0.012
	l0.879-0.266c0.242-0.146,0.442-0.342,0.688-0.758l0.156-0.75c0-1.185-0.592-1.621-2.185-1.621H140.1l-0.002-8.76
	c-0.021-0.271,0.01-0.738,0.166-0.894l0.485-0.522c0.681-0.697,2.886-2.129,4.899-2.271l0.556-0.032
	c1.212,0,1.843,0.189,2.108,0.635c0.43,0.709,0.481,2.002,0.481,3.053v8.791h-0.188c-2.281,0-2.525,1.26-2.525,1.8
	c0,0.602,0.307,1.604,2.365,1.604h3.684c0.713,0,1.23-0.055,1.641-0.169c0.676-0.211,1.076-0.769,1.076-1.487
	C154.855,50.364,154.557,49.344,152.421,49.246L152.421,49.246z M175.771,43.639c0.334-0.063,0.648-0.172,1.063-0.367
	c0.42-0.273,0.917-0.836,0.917-1.943c0-0.518-0.119-1.268-0.367-2.287c-0.257-1.064-0.835-2.123-1.72-3.145
	c-0.849-0.971-1.895-1.747-3.067-2.278c-1.146-0.515-2.455-0.773-3.887-0.773c-0.477,0-0.952,0.023-1.434,0.078
	c-0.478,0.063-1.146,0.229-2.049,0.505c-0.979,0.301-1.814,0.951-2.844,1.901c-1.056,0.976-1.846,2.095-2.346,3.332
	c-0.497,1.239-0.747,2.604-0.747,4.069c0,1.384,0.214,2.627,0.63,3.678c0.376,1.172,0.991,2.277,1.833,3.294
	c0.866,1.03,1.954,1.852,3.181,2.405c1.273,0.572,2.654,0.865,4.049,0.858l0.705-0.021c0.318-0.008,0.789-0.063,1.426-0.165
	c0.684-0.103,1.443-0.353,2.244-0.736c0.867-0.341,1.689-0.788,2.447-1.33c0.893-0.627,1.426-1.248,1.676-2.021l0.055-0.498
	c0-0.729-0.421-1.289-1.311-1.487c-0.508,0-0.97,0.118-1.439,0.385l-1.082,0.763c-1.553,1.14-3.168,1.718-4.811,1.718
	c-1.078,0-2.09-0.261-3-0.771c-0.896-0.501-1.615-1.271-2.137-2.298c-0.429-0.868-0.689-1.809-0.771-2.773h11.457
	C174.889,43.731,175.332,43.701,175.771,43.639L175.771,43.639z M163.389,40.325c0.176-0.586,0.346-1.14,0.635-1.611
	c0.578-0.805,1.263-1.427,2.021-1.848c0.766-0.418,1.605-0.624,2.59-0.624c1.018,0,1.922,0.212,2.688,0.628
	c0.772,0.42,1.426,1.029,1.9,1.771c0.264,0.4,0.459,0.838,0.646,1.291c0.095,0.229,0.106,0.353,0.138,0.393L163.389,40.325
	L163.389,40.325z M225.479,46.705c-0.506,0-0.969,0.12-1.438,0.385l-1.082,0.764c-1.551,1.139-3.168,1.715-4.812,1.715
	c-1.049,0.008-2.084-0.258-3-0.771c-0.896-0.501-1.613-1.271-2.137-2.298c-0.428-0.868-0.689-1.809-0.771-2.772h11.457
	c0.537,0,0.979-0.027,1.324-0.088c0.336-0.063,0.648-0.171,1.063-0.365c0.418-0.273,0.915-0.838,0.915-1.943
	c0-0.518-0.119-1.268-0.366-2.287c-0.258-1.064-0.835-2.124-1.721-3.145c-0.849-0.97-1.894-1.746-3.065-2.279
	c-1.15-0.514-2.459-0.773-3.89-0.773c-0.476,0-0.95,0.023-1.433,0.078c-0.478,0.064-1.146,0.23-2.049,0.506
	c-0.979,0.299-1.813,0.95-2.845,1.9c-1.054,0.975-1.845,2.094-2.345,3.332c-0.497,1.238-0.747,2.605-0.747,4.068
	c0,1.384,0.213,2.627,0.63,3.68c0.375,1.171,0.991,2.277,1.832,3.293c0.867,1.03,1.955,1.852,3.182,2.406
	c1.273,0.572,2.654,0.865,4.049,0.858l0.707-0.021c0.316-0.008,0.787-0.063,1.424-0.166c0.684-0.104,1.443-0.354,2.244-0.736
	c0.868-0.34,1.689-0.787,2.447-1.33c0.891-0.627,1.426-1.248,1.678-2.021l0.053-0.496C226.788,47.464,226.367,46.902,225.479,46.705
	L225.479,46.705z M213.273,38.714c0.576-0.805,1.261-1.427,2.022-1.848c0.763-0.418,1.606-0.624,2.59-0.624
	c1.017,0,1.921,0.212,2.687,0.628c0.773,0.42,1.428,1.029,1.9,1.771c0.262,0.4,0.459,0.838,0.646,1.291
	c0.095,0.229,0.107,0.353,0.138,0.393h-10.616C212.814,39.739,212.982,39.188,213.273,38.714L213.273,38.714z M202.032,49.246
	v-8.184l-0.125-2.774c-0.507-3.138-2.509-4.793-5.787-4.793c-2.461,0-4.41,0.614-6.396,2.041v-0.104c0-0.705-0.137-1.25-0.519-1.806
	c-0.358-0.371-0.933-0.535-1.845-0.535l-2.1,0.118c-0.422,0-0.832,0.141-1.181,0.398c-0.446,0.32-0.69,0.793-0.688,1.274
	c-0.012,0.06-0.084,0.583,0.322,1.062c0.403,0.478,1.113,0.715,2.11,0.715c0.185,0,0.319,0.033,0.392,0.333v12.243h-0.313
	c-1.355,0-1.715,0.425-1.995,1.476v0.388c0,0.446,0.188,0.855,0.469,1.063c0.235,0.225,0.546,0.373,1.074,0.479l5.044-0.009
	l0.872-0.264c0.245-0.146,0.446-0.345,0.69-0.761l0.157-0.748c0-1.187-0.593-1.623-2.187-1.623h-0.316l-0.002-8.76
	c-0.021-0.271,0.012-0.74,0.161-0.895l0.487-0.521c0.681-0.699,2.887-2.131,4.902-2.271l0.555-0.032
	c1.213,0,1.844,0.188,2.109,0.637c0.426,0.702,0.479,2,0.479,3.053v8.789h-0.188c-2.279,0-2.525,1.261-2.525,1.801
	c0,0.601,0.311,1.604,2.367,1.604h3.686c0.714,0,1.23-0.055,1.637-0.17c0.678-0.208,1.078-0.765,1.078-1.488
	C204.47,50.364,204.168,49.344,202.032,49.246L202.032,49.246z"/>
<path fill="none" d="M0,23.5h228V54H0V23.5z"/>
</svg>
