<?xml version="1.0" encoding="utf-8"?>
<!-- Generator: Adobe Illustrator 15.0.0, SVG Export Plug-In . SVG Version: 6.00 Build 0)  -->
<!DOCTYPE svg PUBLIC "-//W3C//DTD SVG 1.1//EN" "http://www.w3.org/Graphics/SVG/1.1/DTD/svg11.dtd">
<svg version="1.1" id="レイヤー_1" xmlns="http://www.w3.org/2000/svg" xmlns:xlink="http://www.w3.org/1999/xlink" x="0px"
	 y="0px" width="138px" height="19.333px" viewBox="0 14.667 138 19.333" enable-background="new 0 14.667 138 19.333"
	 xml:space="preserve">
<path fill="#6A6C5F" d="M8.475,30.584H6.692V19.059c0.001-0.187,0.003-0.623-0.318-0.953c-0.258-0.266-0.665-0.396-1.204-0.396
	H2.974c-0.499,0-0.878,0.084-1.161,0.255c-0.456,0.277-0.551,0.616-0.551,0.851c0,0.158,0.049,0.55,0.497,0.78
	c0.231,0.14,0.508,0.208,0.825,0.208h1.864l0.094,0.141v10.642H2.304C1.094,30.584,1,31.412,1,31.666
	c0,0.304,0.129,1.012,1.327,1.012h6.164c0.937,0,1.242-0.392,1.353-0.82v-0.215C9.846,31.395,9.746,30.584,8.475,30.584z
	 M22.558,31.087c-0.225-0.122-0.5-0.182-0.843-0.182h-2.214v-8.537c0-0.859-0.455-1.333-1.28-1.333H15.46
	c-0.471,0-0.854,0.078-1.138,0.23c-0.508,0.27-0.584,0.666-0.584,0.877c0,0.354,0.189,0.642,0.497,0.778
	c0.223,0.14,0.506,0.21,0.845,0.21h1.948c0.245,0,0.266,0.114,0.266,0.219v7.556h-2.132c-1.209,0-1.302,0.829-1.302,1.085
	c0,0.303,0.132,1.01,1.347,1.01h6.501c0.759,0,1.216-0.238,1.379-0.816v-0.218C23.089,31.542,22.868,31.193,22.558,31.087z
	 M34.644,30.584h-1.782V19.061c0.002-0.187,0.004-0.623-0.318-0.955c-0.259-0.264-0.664-0.396-1.205-0.396h-2.195
	c-0.498,0-0.878,0.084-1.164,0.257c-0.456,0.279-0.551,0.616-0.551,0.851c0,0.158,0.049,0.548,0.498,0.779
	c0.229,0.141,0.507,0.209,0.823,0.209h1.865l0.094,0.141v10.64h-2.238c-1.209,0-1.303,0.83-1.303,1.084
	c0,0.304,0.13,1.011,1.328,1.011h6.165c0.936,0,1.24-0.391,1.352-0.818v-0.217C36.013,31.395,35.914,30.584,34.644,30.584z
	 M48.816,31.087c-0.224-0.122-0.499-0.182-0.841-0.182h-2.213v-8.537c0-0.859-0.456-1.333-1.282-1.333h-2.759
	c-0.471,0-0.854,0.078-1.139,0.23c-0.509,0.27-0.584,0.666-0.584,0.877c0,0.354,0.19,0.642,0.498,0.778
	c0.223,0.14,0.507,0.21,0.845,0.21h1.949c0.247,0,0.267,0.114,0.267,0.219v7.556h-2.135c-1.206,0-1.301,0.829-1.301,1.085
	c0,0.303,0.132,1.01,1.348,1.01h6.501c0.945,0,1.258-0.386,1.376-0.816v-0.218C49.348,31.542,49.128,31.193,48.816,31.087z
	 M18.101,18.95c0.481,0,0.874-0.165,1.167-0.487c0.29-0.322,0.439-0.725,0.439-1.188c0-0.416-0.129-0.798-0.401-1.159
	c-0.293-0.303-0.699-0.454-1.204-0.454c-0.47,0-0.86,0.152-1.178,0.474c-0.266,0.357-0.401,0.741-0.401,1.139
	c0,0.409,0.146,0.793,0.434,1.146C17.248,18.771,17.634,18.95,18.101,18.95z M44.358,18.95c0.479,0,0.871-0.165,1.166-0.487
	c0.291-0.322,0.438-0.724,0.438-1.188c0-0.419-0.139-0.828-0.396-1.16c-0.295-0.301-0.702-0.453-1.207-0.453
	c-0.472,0-0.862,0.152-1.177,0.475c-0.264,0.357-0.398,0.739-0.398,1.137c0,0.416,0.144,0.801,0.43,1.146
	C43.507,18.771,43.893,18.95,44.358,18.95z M72.284,27.818c-0.335-0.119-0.704,0.057-0.823,0.391v0.001
	c-0.009,0.024-1.039,2.731-2.414,2.731c-0.404,0-0.682-0.084-0.846-0.254c-0.206-0.213-0.308-0.625-0.301-1.224
	c0.011-0.771-0.014-3.47-0.038-5.741h1.804c0.148-0.003,0.293-0.055,0.409-0.146c0.153-0.115,0.243-0.297,0.241-0.489
	c-0.001-0.179-0.072-0.349-0.199-0.474c-0.115-0.129-0.279-0.204-0.452-0.207h-1.817l-0.034-3.039
	c-0.005-0.387-0.336-0.635-0.649-0.646c-0.171,0.002-0.334,0.072-0.451,0.196c-0.108,0.115-0.172,0.265-0.18,0.423v0.188
	c0.005,0.395,0.015,1.533,0.018,2.878h-1.298c-0.175-0.003-0.342,0.067-0.462,0.194c-0.134,0.127-0.21,0.302-0.211,0.485
	c0,0.386,0.264,0.634,0.672,0.634h1.298c-0.002,0.72-0.009,1.439-0.021,2.158c-0.036,2.109-3.562,5.166-5.035,5.166
	c-0.748,0-0.822-0.032-1.098-0.152l-0.186-0.08c-0.24-0.092-0.452-0.244-0.614-0.443c-0.157-0.193-0.274-0.415-0.344-0.653
	c-0.056-0.187-0.097-0.376-0.123-0.569c0.767-0.012,1.527-0.152,2.248-0.414c0.465-0.197,0.888-0.482,1.246-0.838
	c0.374-0.385,0.563-0.914,0.563-1.576c0.01-0.526-0.186-1.035-0.547-1.418c-0.438-0.469-0.919-0.684-1.518-0.684
	c-0.151,0-0.314,0.014-0.505,0.044c-0.445,0.097-0.857,0.308-1.194,0.613c-0.346,0.308-0.642,0.667-0.879,1.065
	c-0.246,0.404-0.434,0.852-0.563,1.33c-0.129,0.479-0.19,0.918-0.19,1.34c0,0.063,0.027,0.369,0.027,0.369
	c0.029,0.348,0.105,0.725,0.226,1.117c0.126,0.401,0.321,0.768,0.576,1.086c0.264,0.336,0.615,0.609,1.04,0.815
	c0.357,0.177,0.721,0.321,1.55,0.321c0.166,0,0.331-0.005,0.496-0.015c1.55-0.126,3.605-1.562,4.913-3.368
	c0,0.217,0,0.392-0.002,0.512c-0.013,0.974,0.207,1.679,0.668,2.158c0.419,0.431,0.994,0.643,1.759,0.643
	c2.244,0,3.483-3.223,3.619-3.59c0.127-0.335-0.042-0.709-0.376-0.836C72.286,27.82,72.285,27.819,72.284,27.818L72.284,27.818z
	 M59.404,27.12c0.118-0.29,0.27-0.558,0.446-0.794c0.169-0.217,0.369-0.399,0.595-0.541c0.202-0.124,0.414-0.188,0.628-0.188h0.118
	c0.18,0,0.337,0.069,0.493,0.217c0.141,0.128,0.218,0.311,0.211,0.5c0,0.287-0.077,0.504-0.233,0.668
	c-0.2,0.199-0.458,0.365-0.776,0.49c-0.536,0.229-1.112,0.351-1.695,0.355C59.239,27.59,59.31,27.352,59.404,27.12z M92.12,30.689
	l-0.001-5.035l-0.074-1.709c-0.307-1.93-1.51-2.949-3.484-2.949c-1.479,0-2.652,0.379-3.849,1.256v-0.064
	c0-0.432-0.08-0.769-0.312-1.111c-0.217-0.229-0.561-0.329-1.11-0.329l-1.263,0.073c-0.256,0-0.502,0.086-0.713,0.246
	c-0.254,0.181-0.408,0.471-0.414,0.783c-0.028,0.236,0.043,0.473,0.197,0.653c0.24,0.293,0.668,0.438,1.268,0.438
	c0.111,0,0.191,0.021,0.236,0.205v7.535h-0.188c-0.814,0-1.033,0.262-1.203,0.907v0.238c0,0.272,0.112,0.524,0.283,0.653
	c0.145,0.141,0.331,0.229,0.645,0.295l3.035-0.006l0.529-0.164c0.146-0.09,0.266-0.209,0.415-0.465l0.094-0.463
	c0-0.729-0.356-0.996-1.313-0.996h-0.191l-0.001-5.392c-0.015-0.167,0.006-0.455,0.101-0.55l0.291-0.322
	c0.41-0.429,1.737-1.311,2.948-1.396l0.334-0.021c0.729,0,1.108,0.117,1.269,0.392c0.259,0.437,0.291,1.231,0.291,1.877v5.41h-0.114
	c-1.373,0-1.521,0.774-1.521,1.106c0,0.37,0.186,0.987,1.424,0.987h2.217c0.429,0,0.74-0.033,0.986-0.104
	c0.407-0.13,0.647-0.474,0.647-0.916C93.586,31.378,93.404,30.75,92.12,30.689z M106.173,27.239c0.201-0.039,0.39-0.105,0.64-0.226
	c0.252-0.169,0.551-0.515,0.551-1.197c0-0.317-0.071-0.779-0.221-1.407c-0.154-0.655-0.502-1.306-1.035-1.935
	c-0.507-0.596-1.137-1.073-1.846-1.402c-0.689-0.316-1.478-0.477-2.338-0.477c-0.285,0-0.572,0.016-0.861,0.049
	c-0.287,0.039-0.69,0.141-1.233,0.311c-0.589,0.186-1.093,0.585-1.711,1.17c-0.616,0.571-1.098,1.271-1.411,2.051
	c-0.306,0.799-0.459,1.648-0.45,2.504c0,0.853,0.128,1.616,0.38,2.264c0.235,0.74,0.609,1.428,1.102,2.026
	c0.52,0.632,1.174,1.138,1.914,1.48c0.765,0.353,1.597,0.532,2.438,0.528l0.424-0.013c0.288-0.016,0.574-0.05,0.857-0.102
	c0.411-0.063,0.869-0.218,1.352-0.453c0.521-0.212,1.018-0.486,1.473-0.819c0.537-0.386,0.857-0.768,1.008-1.242l0.031-0.308
	c0-0.448-0.252-0.794-0.787-0.915c-0.305,0-0.584,0.072-0.867,0.236l-0.65,0.47c-0.935,0.7-1.908,1.056-2.896,1.056
	c-0.634,0.005-1.257-0.159-1.806-0.475c-0.539-0.309-0.972-0.781-1.285-1.414c-0.259-0.535-0.416-1.114-0.465-1.707h6.896
	C105.698,27.292,105.964,27.273,106.173,27.239z M98.721,25.2c0.105-0.36,0.207-0.701,0.381-0.992
	c0.349-0.495,0.76-0.878,1.217-1.138c0.461-0.256,0.968-0.383,1.56-0.383c0.612,0,1.156,0.129,1.617,0.387
	c0.468,0.26,0.86,0.635,1.144,1.09c0.159,0.247,0.276,0.516,0.389,0.794c0.058,0.142,0.064,0.216,0.084,0.241L98.721,25.2z
	 M136.085,29.126c-0.306,0-0.583,0.074-0.866,0.237l-0.65,0.469c-0.934,0.701-1.906,1.057-2.896,1.057
	c-0.634,0.004-1.257-0.16-1.806-0.476c-0.539-0.308-0.971-0.781-1.285-1.414c-0.258-0.535-0.416-1.114-0.464-1.706h6.894
	c0.323,0,0.59-0.018,0.797-0.054c0.202-0.039,0.392-0.104,0.642-0.226c0.252-0.168,0.551-0.516,0.551-1.195
	c0-0.318-0.071-0.78-0.222-1.407c-0.154-0.655-0.502-1.308-1.034-1.935c-0.508-0.596-1.138-1.074-1.847-1.403
	c-0.69-0.316-1.479-0.476-2.34-0.476c-0.285,0-0.57,0.014-0.86,0.047c-0.287,0.041-0.689,0.143-1.233,0.313
	c-0.589,0.184-1.092,0.584-1.712,1.169c-0.615,0.571-1.097,1.271-1.41,2.05c-0.3,0.762-0.45,1.604-0.45,2.504
	c0,0.852,0.129,1.615,0.379,2.264c0.237,0.739,0.611,1.427,1.104,2.026c0.519,0.632,1.174,1.138,1.915,1.48
	c0.764,0.353,1.596,0.533,2.437,0.528l0.426-0.013c0.19-0.005,0.475-0.039,0.856-0.103c0.411-0.063,0.868-0.217,1.351-0.453
	c0.523-0.211,1.019-0.485,1.474-0.818c0.536-0.386,0.856-0.768,1.01-1.242l0.031-0.307
	C136.872,29.593,136.619,29.248,136.085,29.126z M128.74,24.208c0.347-0.495,0.758-0.878,1.217-1.138
	c0.459-0.256,0.967-0.383,1.559-0.383c0.612,0,1.156,0.129,1.617,0.387c0.468,0.26,0.861,0.635,1.145,1.09
	c0.156,0.247,0.275,0.516,0.389,0.794c0.059,0.142,0.064,0.216,0.083,0.241h-6.39C128.464,24.84,128.564,24.501,128.74,24.208z
	 M121.975,30.689v-5.035l-0.074-1.709c-0.305-1.93-1.51-2.949-3.482-2.949c-1.48,0-2.652,0.379-3.85,1.256v-0.064
	c0-0.435-0.082-0.771-0.312-1.111c-0.216-0.229-0.562-0.329-1.11-0.329l-1.263,0.073c-0.254,0-0.501,0.086-0.71,0.246
	c-0.256,0.18-0.41,0.471-0.415,0.783c-0.028,0.235,0.042,0.473,0.194,0.653c0.242,0.293,0.67,0.438,1.27,0.438
	c0.111,0,0.192,0.021,0.236,0.205v7.535h-0.188c-0.816,0-1.033,0.262-1.201,0.907v0.238c0,0.274,0.113,0.526,0.281,0.653
	c0.143,0.139,0.33,0.229,0.646,0.295l3.035-0.006l0.525-0.162c0.146-0.09,0.269-0.213,0.414-0.469l0.096-0.461
	c0-0.729-0.356-0.998-1.314-0.998h-0.191v-5.391c-0.015-0.167,0.006-0.456,0.097-0.55l0.294-0.32
	c0.408-0.43,1.736-1.312,2.949-1.397l0.334-0.021c0.729,0,1.109,0.116,1.271,0.392c0.257,0.433,0.288,1.23,0.288,1.877v5.41h-0.113
	c-1.371,0-1.52,0.774-1.52,1.106c0,0.37,0.188,0.987,1.425,0.987h2.218c0.43,0,0.74-0.034,0.984-0.104
	c0.406-0.128,0.648-0.471,0.648-0.916C123.441,31.378,123.262,30.75,121.975,30.689L121.975,30.689z"/>
<path fill="none" d="M0,14.667h138V34H0V14.667z"/>
</svg>
