<?xml version="1.0" encoding="utf-8"?><!DOCTYPE svg PUBLIC "-//W3C//DTD SVG 1.1//EN" "http://www.w3.org/Graphics/SVG/1.1/DTD/svg11.dtd"><svg width="228" height="108" viewBox="0 0 228 108" xmlns="http://www.w3.org/2000/svg" xmlns:xlink="http://www.w3.org/1999/xlink"><svg width="20" height="20" viewBox="-287.5 430.5 20 20" id="cart" x="138" y="54" xmlns="http://www.w3.org/2000/svg"><path fill="#696B5E" d="M-285.5 434.566v14.913h16v-14.913h-16zm15 13.934h-14v-13.017h14V448.5zm-11.5-8.559a1 1 0 1 0-.002-2.002 1 1 0 0 0 .002 2.002zm9 0a1 1 0 1 0 .001-1.999 1 1 0 0 0-.001 1.999z"/><path fill="#696B5E" d="M-273.5 435.5h-1c0-1.654-1.346-3-3-3s-3 1.346-3 3h-1c0-2.206 1.794-4 4-4s4 1.794 4 4z"/><path fill="none" d="M-287.5 430.5h20v20h-20z"/></svg><svg width="20" height="20" viewBox="0 0 20 20" id="help" x="158" y="54" xmlns="http://www.w3.org/2000/svg"><path fill="#696C5F" d="M10 19.5C4.762 19.5.5 15.238.5 10S4.762.5 10 .5c5.239 0 9.5 4.262 9.5 9.5s-4.261 9.5-9.5 9.5zm0-18c-4.687 0-8.5 3.813-8.5 8.5 0 4.688 3.813 8.5 8.5 8.5 4.688 0 8.5-3.813 8.5-8.5 0-4.687-3.812-8.5-8.5-8.5z"/><path fill="none" d="M0 0h20v20H0z"/><path fill="#696C5F" d="M12.738 7.579c0 .273-.042.519-.127.735s-.196.41-.335.581c-.141.171-.295.326-.467.465s-.344.277-.518.414c-.15.119-.298.242-.441.369a2.58 2.58 0 0 0-.381.417 1.89 1.89 0 0 0-.363 1.135v.109h-.937a4.869 4.869 0 0 1-.014-.301c0-.31.045-.59.137-.841s.215-.472.373-.663.328-.36.513-.506.366-.287.543-.424c.123-.096.239-.194.349-.294s.206-.208.29-.321c.085-.114.15-.238.199-.373a1.37 1.37 0 0 0 .071-.455c0-.201-.042-.38-.126-.54a1.16 1.16 0 0 0-.355-.403c-.153-.109-.335-.194-.547-.253s-.448-.089-.708-.089c-.342 0-.678.043-1.008.13s-.626.19-.886.308v-.902c.246-.132.543-.239.892-.321s.698-.123 1.049-.123c.433 0 .821.051 1.166.154.344.103.636.249.877.438.24.189.426.415.557.677s.197.553.197.877zm-3.76 7.171v-1.333h1.06v1.333h-1.06z"/></svg><svg width="20" height="20" viewBox="0 0 20 20" id="history" x="178" y="54" xmlns="http://www.w3.org/2000/svg"><path fill="#6A6C5F" d="M10.5 5.5h-1v5h5v-1h-4v-4z"/><path fill="#6A6C5F" d="M10 19.5C4.762 19.5.5 15.238.5 10S4.762.5 10 .5s9.5 4.262 9.5 9.5-4.262 9.5-9.5 9.5zm0-18c-4.687 0-8.5 3.813-8.5 8.5 0 4.687 3.813 8.5 8.5 8.5 4.687 0 8.5-3.813 8.5-8.5 0-4.687-3.813-8.5-8.5-8.5z"/><g><path fill="none" d="M0 0h20v20H0z"/></g></svg><svg width="20" height="20" viewBox="0 0 20 20" id="home" x="198" y="54" xmlns="http://www.w3.org/2000/svg"><path fill="none" d="M0 0h20v20H0z"/><path fill="#696C5F" d="M18 18h-1V7.32L9.999 4.1 3 7.321V18H2V6.679L10.001 3 18 6.68z"/><path fill="#696C5F" d="M13 15H7V9h6v6zm-5-1h4v-4H8v4z"/></svg><svg width="20" height="20" viewBox="0 0 20 20" id="like" y="88" xmlns="http://www.w3.org/2000/svg"><path fill="#6A6C5F" d="M10 17.396a.48.48 0 0 1-.186-.041C5.604 15.466.77 11.693 1.008 7.277c.249-4.62 4.417-4.673 4.595-4.673 2.168 0 3.722 1.433 4.396 2.198.672-.766 2.213-2.198 4.342-2.198.232 0 4.399.054 4.65 4.673.238 4.416-4.594 8.189-8.804 10.078a.486.486 0 0 1-.187.041zM5.658 3.509c-.197 0-3.544.043-3.747 3.817-.223 4.153 4.893 7.641 8.089 9.119 3.195-1.479 8.311-4.966 8.086-9.12-.202-3.773-3.549-3.816-3.69-3.816h-.002c-2.427 0-4.007 2.249-4.021 2.273a.453.453 0 0 1-.743 0c-.018-.023-1.612-2.273-3.972-2.273z"/><path fill="none" d="M0 0h20v20H0z"/></svg><svg width="228" height="54" viewBox="0 0 228 54" id="logo" xmlns="http://www.w3.org/2000/svg"><path fill="#6A6C5F" d="M109.271 9.993c.061.063.241.125.542.182l.261.028c.202 0 .361-.063.549-.219.342-.286.328-.404.2-.979-.155-.69.032-1.943.214-2.117.035-.028.254-.106.832-.109 1.174-.007 2.122-.291 2.602-.78.215-.22.326-.48.318-.754-.01-.352.127-1.497.139-1.575.268-.253-.483-1.466-.667-1.664-.689-.733-1.092-.915-2.161-.973A24.6 24.6 0 0 0 110.788 1l-.602.007-1.105.205.022 3.727c.031 4.917.056 4.941.168 5.054zm1.701-6.984c.262-.279.374-.35.811-.35v-.164h.004l.17.168c.327.01.486.071.682.262.356.355.531 1.024.38 1.466-.107.322-.553.603-.974.603-.166 0-.396.057-.508.282l-.153-.291-.172-.002c-.107 0-.245-.175-.298-.572-.155-1.174-.155-1.174.058-1.402zM97.767 7.154c-.003.236.033.545.106.688.142.29.325.946.322 1.107-.003.371.874 1.074 1.467 1.366.433.214.939.322 1.508.322.31 0 .634-.033.976-.1.557-.104.81-.234 1.174-.601.449-.454.863-1.151.779-1.539l-.194-1.008a58.1 58.1 0 0 0-.335-1.629 16.664 16.664 0 0 1-.251-1.394 19.755 19.755 0 0 0-.251-1.424c-.098-.446-.166-.879-.165-.987.004-.372-.468-.891-.816-.897-.154 0-.455.128-.657.249-.259.153-.48.317-.405.658.275 1.21.533 2.484.607 2.986.134.917.286 1.8.409 2.375.143.678.126 1.103-.055 1.345-.138.183-.391.287-.796.32-.13.01-.245.02-.349.02-.651 0-.758-.294-1.411-3.918-.097-.539-.229-1.128-.292-1.315a9.854 9.854 0 0 1-.229-.834c-.148-.625-.287-.841-.858-.973l-.271-.038a.498.498 0 0 0-.421.216c-.335.421-.292 1.055.251 3.776.084.444.159 1.009.157 1.229zm24.587-5.571c-.584-.031-1.066-.09-1.348-.156-.15 0-.291.06-.396.163-.139.132-.239.418-.323 1.436a35.45 35.45 0 0 1-.211 1.927 18.306 18.306 0 0 0-.167 1.584c-.027.479-.076.91-.109 1.034-.125.477-.324 2.448-.189 2.709.113.222.402.364.733.364.234 0 .454-.075.595-.207.266-.237.322-.518.4-1.429.163-1.877.178-1.891.396-2.122.152-.157.203-.184.355-.184.1 0 .223.014.389.036.431.054.655.146.783.31.238.312.196 1.022.043 2.141-.005.04-.132.976-.06 1.203.104.341.511.518.854.518a.87.87 0 0 0 .366-.073c.353-.154.404-.357.47-.891.043-.349.129-.989.191-1.438.086-.604.082-.989-.021-1.407-.104-.416-.104-.416.427-1.361.405-.724.448-1.997.085-2.618-.604-1.024-1.52-1.457-3.263-1.539zm1.61 3.259c-.152.246-.379.367-.686.367a1.6 1.6 0 0 1-.442-.071 1.88 1.88 0 0 0-.478-.078l-.143.04c-.035-.023-.129-.192-.169-.544-.045-.414.013-.818.13-.939.15-.15.293-.229.661-.229.175 0 .392.016.647.045.041.014.205.12.389.285.345.306.375.675.091 1.124zm8.545-1.391a.845.845 0 0 0-.669.338c-.19.242-.28.945-.312 1.234-.051.455-.115.751-.027.756-.123.005-.262.086-.27.674a5.735 5.735 0 0 1-.11.936 32.313 32.313 0 0 0-.558 2.793c-.09.574-.197 1.189-.24 1.358a.778.778 0 0 0 .15.69c.187.238.48.386.776.386a.737.737 0 0 0 .627-.329c.245-.361.454-1.456.86-4.504.117-.878.24-1.487.279-1.574.133-.277.277-1.297.305-1.906a.813.813 0 0 0-.811-.852zM93.697 9.21a8.004 8.004 0 0 1-.282-1.121c-.069-.478-.179-.59-.206-.59-.005 0-.007.001-.007.004a2.278 2.278 0 0 1-.077-.496c-.031-.416-.185-.929-.436-1.445-.361-.743-.472-.856-1.176-1.217-.564-.287-.926-.391-1.461-.396-.572 0-.64.066-.663.09a1.137 1.137 0 0 1-.302.08c-.519.089-1.017.48-1.303 1.019-.222.418-.407 1.415-.1 1.598.02.033.057.184.055.383-.002.165.017.557.179.602.023.033.079.195.103.436.028.289.15.825.271 1.194.112.35.234.842.266 1.101.038.282.204.771.373 1.09.257.499.455.679 1.114 1.019.598.31.943.406 1.48.419h.075c.862 0 1.64-.338 2.079-.902.341-.434.354-.56.305-1.334a7.413 7.413 0 0 0-.287-1.534zm-2.151 2.162c-.097 0-.352-.052-.598-.129-.274-.087-.369-.174-.474-.439-.271-.688-.396-1.158-.391-1.48 0-.068-.008-.414-.135-.551-.03-.045-.118-.309-.182-.648-.119-.635-.141-.725-.256-1.043-.125-.343-.16-.657-.107-.929.031-.157.076-.228.415-.34.2-.071.345-.099.474-.099.175 0 .336.059.562.205a.743.743 0 0 1 .221.202c.258.976.352 1.217.438 1.318a.618.618 0 0 1 .05.277c-.001.274.117.761.337 1.368.117.319.308 1.349.304 1.641-.003.226-.431.647-.658.647zm47.553 4.583c.353.149.736.23 1.115.23.407 0 .77-.092 1.041-.266.521-.329 1.118-1.847 1.439-3.176.281-1.173.371-1.461.563-1.827.133-.254.211-.674.217-1.154.008-.688-.043-.848-.457-1.44-.637-.902-1.244-1.282-2.252-1.405a5.238 5.238 0 0 0-.568-.045c-.312 0-.502.07-.813.227-.723.354-.896.669-1.151 2.103a2.588 2.588 0 0 1-.152.515c-.063.129-.195.526-.301.896l-.358 1.277c-.319 1.118-.297 2.005.065 2.633.41.714.848 1.102 1.612 1.432zm-.368-2.758c.156-.086.203-.343.205-.481.002-.122.047-.342.098-.465.058-.146.199-.566.313-.942.111-.364.301-.895.418-1.18.11-.277.227-.651.229-.823.01-.147.449-.667.607-.721.055.01.211.054.398.122.369.131.814.825.688 1.302l-.189.733a23.492 23.492 0 0 1-.457 1.494 11.069 11.069 0 0 0-.361 1.258c-.132.732-.173.753-.434.878a.813.813 0 0 1-.389.087 2.01 2.01 0 0 1-.313-.029c-.365-.065-.429-.111-.613-.453-.26-.473-.241-.756-.2-.78zm-54.713-.904c-.282 0-.528.129-.658.345a.672.672 0 0 0 0 .685c.172.322.182.417-.101.816-.244.348-.855.59-1.5.59-.185 0-.409-.108-.571-.272-.109-.113-.174-.238-.172-.336.002-.173-.112-.479-.229-.692a17.449 17.449 0 0 1-.316-.592c-.047-.091-.152-.459-.229-.843-.023-.121-.146-.727-.236-.851-.233-.35-.338-1.664-.227-1.84.138-.188.81-.517 1.132-.517.336 0 .56.082 1.146.554.287.229.578.348.845.348.261 0 .473-.118.58-.326.147-.284.07-.674-.209-1.066-.455-.639-1.659-1.085-2.457-1.085-.166 0-.315.016-.658.112l-.408.114a3.572 3.572 0 0 0-1.343.681c-.698.554-.809 1.712-.266 2.753.196.378.305.692.309.752-.004.144.055.336.218.62-.006.411.635 2.318.892 2.747.434.729 1.437 1.203 2.553 1.203.349 0 .689-.047 1.013-.139.949-.275 1.369-.541 1.727-1.088.433-.667.414-1.338-.059-2.112-.233-.378-.405-.556-.776-.561zm-70.596 36.78h-2.963V30.345c.003-.303.006-1.012-.529-1.548-.428-.432-1.104-.646-2-.646H4.281c-.829 0-1.46.137-1.93.414-.757.451-.916 1.002-.916 1.382 0 .258.082.895.825 1.269.384.227.845.338 1.371.338h3.097l.156.229v17.293H3.167C1.156 49.073 1 50.42 1 50.833c0 .492.215 1.643 2.205 1.643h10.243c1.557 0 2.064-.636 2.249-1.332v-.35c.002-.402-.163-1.721-2.275-1.721zm23.401.819c-.374-.199-.83-.295-1.4-.295h-3.679V35.724c0-1.396-.756-2.166-2.127-2.166h-4.588c-.782 0-1.419.127-1.892.375-.844.438-.97 1.082-.97 1.426 0 .574.315 1.041.826 1.265.37.228.842.341 1.404.341h3.238c.407 0 .441.186.441.355v12.277h-3.543c-2.009 0-2.164 1.348-2.164 1.762 0 .492.219 1.642 2.239 1.642h10.803c1.261 0 2.02-.388 2.291-1.326v-.354c.004-.69-.362-1.258-.879-1.429zm20.084-.819h-2.961V30.349c.003-.303.007-1.013-.529-1.551-.431-.429-1.104-.646-2.002-.646h-3.647c-.828 0-1.46.138-1.934.418-.757.453-.916 1-.916 1.381 0 .257.082.891.828 1.268.381.227.843.338 1.368.338h3.099l.155.229v17.291H46.65c-2.01 0-2.166 1.348-2.166 1.761 0 .492.216 1.643 2.206 1.643h10.245c1.556 0 2.062-.635 2.248-1.332v-.35c.001-.407-.163-1.726-2.276-1.726zm23.552.819c-.372-.199-.829-.295-1.398-.295h-3.678V35.724c0-1.396-.757-2.166-2.13-2.166h-4.584c-.783 0-1.42.127-1.892.375-.846.438-.972 1.082-.972 1.426 0 .574.316 1.041.827 1.265.371.228.843.341 1.404.341h3.238c.411 0 .444.186.444.355v12.277h-3.547c-2.005 0-2.162 1.348-2.162 1.762 0 .492.219 1.642 2.24 1.642h10.804c1.571 0 2.091-.627 2.288-1.326v-.354c.001-.69-.363-1.258-.882-1.429zM29.418 30.168c.799 0 1.451-.269 1.939-.792.482-.525.73-1.178.73-1.929 0-.676-.215-1.297-.667-1.883-.488-.492-1.162-.738-2.001-.738-.781 0-1.43.247-1.957.771-.442.581-.667 1.204-.667 1.85 0 .662.241 1.289.72 1.863.485.568 1.126.858 1.903.858zm43.633 0c.795 0 1.447-.269 1.938-.792.483-.523.728-1.176.728-1.929 0-.672-.211-1.293-.659-1.885-.491-.49-1.166-.736-2.006-.736-.784 0-1.432.247-1.956.772-.438.581-.661 1.202-.661 1.848 0 .674.239 1.301.714 1.862.488.57 1.128.86 1.902.86zm46.407 14.413a1.068 1.068 0 0 0-1.367.634c-.016.042-1.727 4.439-4.012 4.439-.672 0-1.132-.137-1.406-.411-.342-.347-.511-1.017-.5-1.989.018-1.254-.022-5.638-.062-9.331h2.997c.236 0 .475-.082.681-.237.26-.192.4-.476.4-.795 0-.289-.123-.572-.33-.771a1.045 1.045 0 0 0-.751-.336h-3.02l-.056-4.938c-.008-.627-.558-1.031-1.079-1.049a1.058 1.058 0 0 0-1.049 1.006v.303c.008.642.025 2.492.03 4.677h-2.158c-.308 0-.585.118-.768.317a1.08 1.08 0 0 0-.351.789c0 .627.439 1.029 1.118 1.029h2.157a259.784 259.784 0 0 1-.035 3.508c-.059 3.428-5.918 8.395-8.367 8.395-1.242 0-1.366-.053-1.825-.249l-.309-.13a2.414 2.414 0 0 1-1.02-.721 3.055 3.055 0 0 1-.572-1.062 5.812 5.812 0 0 1-.204-.925 11.788 11.788 0 0 0 3.735-.674 6.647 6.647 0 0 0 2.071-1.363c.621-.623.936-1.482.936-2.561 0-.897-.306-1.674-.909-2.305-.727-.76-1.527-1.109-2.522-1.109-.251 0-.522.022-.84.071a4.326 4.326 0 0 0-1.984.997 7.4 7.4 0 0 0-1.461 1.732 8.193 8.193 0 0 0-.935 2.162 8.197 8.197 0 0 0-.316 2.176c0 .104.044.602.044.602a8.63 8.63 0 0 0 .375 1.814c.21.652.533 1.246.958 1.766.438.544 1.021.99 1.728 1.324.594.287 1.198.523 2.575.523.243 0 .51-.007.825-.022 2.576-.206 5.991-2.538 8.164-5.476 0 .354 0 .636-.003.832-.021 1.582.343 2.728 1.11 3.508.696.699 1.652 1.043 2.923 1.043 3.73 0 5.791-5.235 6.014-5.834a1.066 1.066 0 0 0-.032-.813 1.067 1.067 0 0 0-.598-.546zm-21.404-1.137c.196-.471.448-.906.741-1.291.281-.354.613-.649.988-.879a2.023 2.023 0 0 1 1.043-.306h.196c.3 0 .56.113.819.354.239.216.351.478.351.813 0 .467-.128.819-.387 1.083-.332.324-.762.593-1.289.796a7.464 7.464 0 0 1-2.817.579c.081-.384.198-.772.355-1.149zm54.367 5.802l-.002-8.183-.123-2.775c-.509-3.137-2.51-4.793-5.79-4.793-2.46 0-4.409.615-6.396 2.041v-.105c0-.699-.133-1.248-.518-1.805-.359-.371-.931-.535-1.844-.535l-2.1.118c-.424 0-.834.14-1.183.399-.444.322-.688.796-.688 1.274-.01.06-.084.583.326 1.062.401.477 1.111.714 2.107.714.186 0 .318.034.393.333v12.244h-.311c-1.355 0-1.716.424-1.999 1.475v.387c0 .445.187.853.47 1.064.24.227.549.371 1.071.479l5.044-.011.879-.266c.242-.146.442-.341.689-.757l.156-.75c0-1.185-.592-1.621-2.185-1.621h-.317l-.002-8.76c-.022-.271.01-.738.166-.894l.485-.522c.681-.697 2.886-2.129 4.899-2.271l.556-.032c1.212 0 1.843.189 2.108.635.43.709.482 2.002.482 3.053v8.791h-.189c-2.281 0-2.525 1.259-2.525 1.799 0 .602.307 1.604 2.365 1.604h3.684c.713 0 1.23-.054 1.641-.168.676-.211 1.076-.769 1.076-1.488.01-.618-.29-1.638-2.425-1.736zm23.351-5.608c.334-.063.648-.171 1.063-.367.42-.273.917-.836.917-1.943 0-.518-.119-1.268-.367-2.287-.257-1.064-.835-2.123-1.72-3.145a9.016 9.016 0 0 0-3.068-2.278c-1.146-.515-2.455-.773-3.886-.773-.476 0-.952.023-1.433.078-.478.063-1.146.229-2.049.505-.979.301-1.815.951-2.844 1.901-1.056.976-1.846 2.095-2.346 3.332-.497 1.239-.747 2.604-.747 4.069 0 1.384.214 2.627.63 3.678.376 1.172.991 2.277 1.833 3.294a8.977 8.977 0 0 0 3.181 2.405 9.755 9.755 0 0 0 4.049.859l.705-.02c.318-.008.789-.063 1.425-.166.684-.102 1.444-.352 2.245-.736a11.349 11.349 0 0 0 2.447-1.33c.892-.627 1.426-1.248 1.676-2.021l.054-.498c0-.729-.421-1.289-1.31-1.487-.508 0-.97.118-1.44.385l-1.082.763c-1.552 1.139-3.168 1.717-4.81 1.717-1.078 0-2.09-.26-3-.771-.896-.501-1.615-1.271-2.137-2.298a7.72 7.72 0 0 1-.771-2.774h11.457a9.25 9.25 0 0 0 1.328-.092zm-12.384-3.313c.176-.586.346-1.139.635-1.611.578-.805 1.263-1.427 2.022-1.848.765-.418 1.606-.624 2.59-.624 1.017 0 1.921.212 2.687.628a5.203 5.203 0 0 1 1.9 1.771c.264.4.459.838.646 1.291.095.229.106.352.138.392l-10.618.001zm62.091 6.38c-.506 0-.969.12-1.439.385l-1.082.763c-1.551 1.139-3.168 1.715-4.811 1.715a6.043 6.043 0 0 1-3-.771c-.896-.501-1.614-1.271-2.137-2.298a7.756 7.756 0 0 1-.771-2.773h11.456c.537 0 .979-.027 1.324-.088.336-.063.649-.17 1.064-.365.418-.273.915-.838.915-1.943 0-.518-.119-1.268-.366-2.287-.258-1.064-.835-2.124-1.721-3.145a9.043 9.043 0 0 0-3.066-2.279c-1.15-.514-2.459-.773-3.889-.773-.475 0-.95.023-1.432.078-.478.064-1.146.23-2.049.506-.979.299-1.814.95-2.845 1.9-1.054.975-1.845 2.094-2.345 3.332-.497 1.238-.747 2.605-.747 4.068 0 1.384.213 2.627.63 3.68.375 1.171.991 2.277 1.832 3.293a8.992 8.992 0 0 0 3.182 2.406 9.755 9.755 0 0 0 4.049.859l.707-.021c.316-.007.787-.063 1.424-.166.683-.103 1.443-.353 2.244-.736a11.263 11.263 0 0 0 2.447-1.33c.891-.627 1.426-1.248 1.678-2.021l.052-.497c.005-.733-.416-1.294-1.304-1.492zm-12.205-7.991c.576-.805 1.26-1.427 2.022-1.848.763-.418 1.606-.624 2.59-.624 1.017 0 1.921.212 2.687.628a5.203 5.203 0 0 1 1.9 1.771c.262.4.459.838.646 1.291.095.229.107.352.138.392H212.64c.175-.585.343-1.136.634-1.61zm-11.242 10.532v-8.183l-.125-2.775c-.506-3.137-2.508-4.793-5.787-4.793-2.461 0-4.41.615-6.396 2.041v-.105c0-.705-.136-1.25-.518-1.805-.359-.371-.932-.535-1.844-.535l-2.1.118c-.422 0-.832.14-1.181.399-.446.32-.69.793-.688 1.274-.012.06-.084.583.322 1.062.403.477 1.113.714 2.11.714.185 0 .319.034.392.333v12.244h-.313c-1.355 0-1.715.424-1.995 1.475v.387c0 .447.188.856.469 1.063.235.225.546.373 1.074.479l5.044-.009.872-.264c.245-.146.446-.345.69-.761l.158-.748c0-1.186-.593-1.623-2.186-1.623h-.317l-.002-8.76c-.022-.271.011-.74.161-.894l.488-.521c.68-.699 2.886-2.131 4.902-2.271l.555-.032c1.213 0 1.843.188 2.109.636.426.703.479 2 .479 3.053v8.789h-.188c-2.279 0-2.525 1.261-2.525 1.801 0 .601.31 1.604 2.367 1.604h3.685c.714 0 1.231-.055 1.637-.17.677-.208 1.078-.765 1.078-1.488.011-.617-.291-1.637-2.427-1.735z"/><path fill="none" d="M0 0h228v54H0z"/></svg><svg width="138" height="34" viewBox="0 0 138 34" id="logo-xs" y="54" xmlns="http://www.w3.org/2000/svg"><path fill="#6A6C5F" d="M66.154 6.534c.037.039.145.077.326.112l.157.018a.48.48 0 0 0 .331-.135c.206-.176.197-.249.12-.603-.093-.424.019-1.195.129-1.302.021-.018.153-.065.5-.067.707-.004 1.277-.179 1.566-.48a.64.64 0 0 0 .192-.464c-.006-.217.077-.921.083-.969.161-.156-.291-.902-.402-1.024-.415-.451-.657-.563-1.3-.599A13.4 13.4 0 0 0 67.067 1l-.362.004-.665.126.013 2.293c.019 3.027.033 3.041.101 3.111zm1.024-4.298c.157-.172.225-.215.488-.215V1.92h.002l.103.104c.197.006.292.043.41.161.214.219.319.63.229.902-.064.198-.333.371-.586.371-.1 0-.238.035-.306.173l-.092-.179-.104-.001c-.064 0-.147-.108-.179-.352-.093-.723-.093-.723.035-.863zm-7.947 2.551c-.001.145.02.335.064.423.085.178.195.582.194.681-.002.228.526.661.883.84.261.132.565.199.907.199.187 0 .382-.021.587-.062.335-.064.487-.144.707-.37.27-.279.52-.708.469-.947l-.117-.62a34.04 34.04 0 0 0-.202-1.002 10.75 10.75 0 0 1-.151-.858 12.904 12.904 0 0 0-.151-.876 4.568 4.568 0 0 1-.099-.607c.002-.229-.282-.548-.491-.552-.092 0-.274.079-.395.153-.156.094-.289.195-.244.405.166.745.321 1.529.365 1.838.081.564.172 1.107.247 1.461.086.417.076.679-.033.828-.083.112-.235.176-.479.197-.078.006-.147.012-.21.012-.392 0-.456-.181-.849-2.411a8.584 8.584 0 0 0-.176-.809c-.038-.115-.1-.34-.138-.513-.089-.385-.173-.518-.517-.599l-.163-.023a.298.298 0 0 0-.253.133c-.201.259-.175.649.151 2.324.051.272.095.62.094.755zm14.796-3.428a5.114 5.114 0 0 1-.811-.096.34.34 0 0 0-.239.1c-.083.082-.144.257-.194.884-.031.392-.088.919-.127 1.186a12.07 12.07 0 0 0-.101.975c-.017.295-.046.56-.066.636-.075.293-.195 1.507-.114 1.667.068.136.242.224.441.224a.523.523 0 0 0 .358-.127c.16-.146.194-.319.241-.879.098-1.155.107-1.164.239-1.306.091-.097.122-.113.214-.113.06 0 .134.009.234.022.259.034.394.09.471.191.144.192.118.629.026 1.317-.003.025-.079.601-.036.741.063.209.307.319.514.319a.51.51 0 0 0 .22-.045c.212-.095.243-.22.283-.548.026-.214.078-.608.115-.885.052-.372.049-.608-.013-.866-.062-.256-.062-.256.257-.837.244-.446.27-1.229.051-1.611-.363-.632-.914-.899-1.963-.949zm.969 2.005a.45.45 0 0 1-.413.226.945.945 0 0 1-.266-.044 1.097 1.097 0 0 0-.287-.048l-.086.024c-.021-.014-.078-.118-.102-.334-.027-.254.008-.503.078-.578.09-.092.176-.141.397-.141.105 0 .236.009.39.027.025.009.124.074.234.175.207.19.226.417.055.693zm5.142-.856a.503.503 0 0 0-.402.208c-.115.149-.169.582-.188.759-.031.28-.069.462-.017.465-.074.003-.157.053-.162.415a3.548 3.548 0 0 1-.066.576 19.84 19.84 0 0 0-.335 1.719 14.99 14.99 0 0 1-.145.835.485.485 0 0 0 .09.425.602.602 0 0 0 .467.238.44.44 0 0 0 .377-.203c.148-.222.273-.896.518-2.771.07-.541.145-.916.168-.969.08-.17.167-.798.184-1.173a.51.51 0 0 0-.138-.372.483.483 0 0 0-.351-.152zM56.782 6.052a5.092 5.092 0 0 1-.169-.69c-.042-.294-.108-.362-.124-.362-.003 0-.004 0-.004.002a1.406 1.406 0 0 1-.046-.306 2.61 2.61 0 0 0-.263-.889c-.217-.457-.284-.526-.708-.749-.339-.176-.557-.24-.879-.244-.344 0-.385.041-.399.055a.668.668 0 0 1-.182.049c-.313.055-.612.295-.784.627-.133.257-.245.871-.06.983.012.02.034.113.033.236-.001.102.011.342.108.37.014.021.048.12.062.268.017.177.09.507.163.734.067.215.141.518.16.678.023.173.123.475.225.67.155.307.274.418.67.627.36.19.567.25.891.258h.044c.519 0 .987-.208 1.251-.555.205-.267.213-.345.184-.821a4.647 4.647 0 0 0-.173-.941zm-1.294 1.331c-.058 0-.211-.032-.359-.08-.165-.053-.222-.107-.285-.27-.164-.423-.239-.713-.236-.91 0-.042-.005-.255-.082-.339a1.784 1.784 0 0 1-.109-.398c-.072-.391-.085-.446-.154-.642a1.101 1.101 0 0 1-.064-.572c.019-.097.046-.14.25-.209a.853.853 0 0 1 .285-.061c.105 0 .202.036.338.126a.444.444 0 0 1 .133.125c.155.601.212.749.264.811.012.016.032.09.03.17-.001.169.07.468.203.842.07.196.185.83.183 1.01-.003.138-.26.397-.397.397zm28.616 2.82c.212.091.443.141.671.141.245 0 .463-.057.626-.164.314-.203.673-1.136.866-1.955.169-.722.223-.899.338-1.124.08-.156.127-.415.131-.71.004-.423-.026-.521-.275-.886-.383-.555-.749-.789-1.355-.864a3.163 3.163 0 0 0-.342-.028c-.187 0-.302.043-.489.14-.435.218-.539.412-.693 1.294a1.605 1.605 0 0 1-.092.316c-.038.08-.118.324-.181.552l-.216.786c-.192.688-.179 1.234.039 1.621.248.44.512.678.972.881zm-.222-1.697c.094-.053.123-.211.124-.296a.98.98 0 0 1 .059-.286c.035-.09.12-.348.188-.58.067-.224.181-.551.252-.726.066-.17.136-.4.137-.506.006-.09.271-.41.366-.444.033.006.127.034.24.075.222.081.49.508.414.801l-.114.451c-.063.246-.185.654-.275.919a6.97 6.97 0 0 0-.217.774c-.079.451-.104.464-.261.541a.477.477 0 0 1-.234.053c-.055 0-.117-.006-.188-.018-.22-.04-.258-.068-.369-.279-.158-.291-.146-.464-.122-.479zm-32.924-.557a.45.45 0 0 0-.396.212.424.424 0 0 0 0 .422c.103.198.109.256-.061.502-.146.214-.515.363-.903.363a.517.517 0 0 1-.343-.167c-.065-.07-.104-.146-.104-.207.001-.107-.067-.295-.138-.427a11.73 11.73 0 0 1-.19-.364 3.238 3.238 0 0 1-.138-.519c-.014-.075-.088-.448-.142-.524-.14-.215-.203-1.024-.137-1.132.083-.115.488-.318.682-.318.202 0 .337.05.689.341.173.141.348.214.508.214a.373.373 0 0 0 .349-.201c.088-.174.042-.415-.126-.656-.273-.393-.998-.667-1.479-.667-.1 0-.189.01-.396.069l-.245.07a2.142 2.142 0 0 0-.808.419c-.42.341-.487 1.053-.16 1.694.118.233.184.426.186.463-.002.089.033.207.131.382-.003.252.382 1.427.537 1.69.261.449.865.74 1.536.74.21 0 .415-.029.61-.085.571-.17.824-.333 1.039-.67.261-.411.249-.824-.036-1.3-.139-.231-.242-.34-.465-.344zM8.475 30.584H6.692V19.059c.001-.187.003-.623-.318-.953-.258-.266-.665-.397-1.204-.397H2.974c-.499 0-.878.084-1.161.255-.456.277-.551.616-.551.85 0 .159.049.55.497.781.231.139.508.208.825.208h1.864l.094.141v10.641H2.304C1.094 30.584 1 31.412 1 31.666c0 .304.129 1.012 1.327 1.012h6.164c.937 0 1.242-.392 1.353-.82v-.215c.002-.248-.098-1.059-1.369-1.059zm14.083.503c-.225-.122-.5-.182-.843-.182h-2.214v-8.537c0-.859-.455-1.333-1.28-1.333H15.46c-.471 0-.854.078-1.138.231-.508.269-.584.666-.584.877 0 .353.189.641.497.778.223.14.506.21.845.21h1.948c.245 0 .266.114.266.219v7.555h-2.132c-1.209 0-1.302.83-1.302 1.085 0 .303.132 1.01 1.347 1.01h6.501c.759 0 1.216-.238 1.379-.816v-.218c.002-.424-.219-.773-.529-.879zm12.086-.503h-1.782V19.061c.002-.187.004-.623-.318-.955-.259-.264-.664-.397-1.205-.397h-2.195c-.498 0-.878.084-1.164.257-.456.279-.551.616-.551.85 0 .158.049.548.498.78.229.14.507.208.823.208h1.865l.094.141v10.64h-2.238c-1.209 0-1.303.83-1.303 1.084 0 .303.13 1.011 1.328 1.011h6.165c.936 0 1.24-.391 1.352-.819v-.216c0-.25-.099-1.061-1.369-1.061zm14.172.503c-.224-.122-.499-.182-.841-.182h-2.213v-8.537c0-.859-.456-1.333-1.282-1.333h-2.759c-.471 0-.854.078-1.139.231-.509.269-.584.666-.584.877 0 .353.19.641.498.778.223.14.507.21.845.21h1.949c.247 0 .267.114.267.219v7.555h-2.135c-1.206 0-1.301.83-1.301 1.085 0 .303.132 1.01 1.348 1.01h6.501c.945 0 1.258-.386 1.376-.816v-.218c.002-.424-.218-.773-.53-.879zM18.101 18.95c.481 0 .874-.165 1.167-.487.29-.323.439-.725.439-1.188 0-.416-.129-.798-.401-1.159-.293-.303-.699-.454-1.204-.454-.47 0-.86.152-1.178.474-.266.357-.401.741-.401 1.139 0 .408.146.793.434 1.146.291.35.677.529 1.144.529zm26.257 0c.479 0 .871-.165 1.166-.487.291-.322.438-.724.438-1.188a1.9 1.9 0 0 0-.396-1.16c-.295-.301-.702-.453-1.207-.453-.472 0-.862.152-1.177.475-.264.357-.398.739-.398 1.137 0 .415.144.801.43 1.146.293.351.679.53 1.144.53zm27.926 8.869a.644.644 0 0 0-.823.391c-.009.025-1.039 2.731-2.414 2.731-.404 0-.682-.084-.846-.253-.206-.213-.308-.625-.301-1.224.011-.771-.014-3.47-.038-5.742h1.804a.673.673 0 0 0 .409-.146.602.602 0 0 0 .241-.489.669.669 0 0 0-.199-.474.62.62 0 0 0-.452-.207h-1.817l-.034-3.039c-.005-.386-.336-.635-.649-.646a.626.626 0 0 0-.451.196.662.662 0 0 0-.18.423v.187c.005.395.015 1.534.018 2.878h-1.298a.617.617 0 0 0-.462.195.67.67 0 0 0-.211.485c0 .386.264.634.672.634h1.298a163.61 163.61 0 0 1-.021 2.158c-.036 2.109-3.562 5.166-5.035 5.166-.748 0-.822-.032-1.098-.153l-.186-.08a1.47 1.47 0 0 1-.614-.443 1.877 1.877 0 0 1-.344-.653 3.617 3.617 0 0 1-.123-.569 6.927 6.927 0 0 0 2.248-.414 3.985 3.985 0 0 0 1.246-.839c.374-.384.563-.913.563-1.576a2.01 2.01 0 0 0-.547-1.418c-.438-.468-.919-.683-1.518-.683-.151 0-.314.014-.505.044a2.59 2.59 0 0 0-1.194.613 4.52 4.52 0 0 0-.879 1.066c-.246.404-.434.851-.563 1.33s-.19.918-.19 1.339c0 .063.027.37.027.37.029.347.105.724.226 1.117.126.401.321.767.576 1.086.264.335.615.609 1.04.815.357.177.721.322 1.55.322a9.4 9.4 0 0 0 .496-.015c1.55-.126 3.605-1.562 4.913-3.369 0 .218 0 .392-.002.512-.013.974.207 1.679.668 2.159.419.43.994.642 1.759.642 2.244 0 3.484-3.222 3.619-3.59a.648.648 0 0 0-.379-.837zm-12.88-.699c.118-.29.27-.558.446-.794.169-.217.369-.399.595-.541.202-.124.414-.188.628-.188h.118c.18 0 .337.07.493.218a.64.64 0 0 1 .211.5c0 .287-.077.504-.233.667-.2.199-.458.365-.776.49a4.39 4.39 0 0 1-1.695.356c.048-.238.119-.476.213-.708zm32.716 3.57l-.001-5.036-.074-1.708c-.306-1.93-1.51-2.95-3.484-2.95-1.48 0-2.653.379-3.849 1.256v-.065c0-.431-.08-.768-.312-1.111-.216-.228-.56-.329-1.11-.329l-1.263.073c-.255 0-.502.086-.712.246a.984.984 0 0 0-.414.784.847.847 0 0 0 .196.653c.241.293.668.439 1.268.439.112 0 .191.021.236.205v7.535h-.187c-.815 0-1.033.261-1.203.907v.238c0 .273.112.524.283.654.145.14.331.229.645.295l3.035-.007.529-.163c.146-.091.266-.21.415-.466l.094-.462c0-.729-.356-.997-1.314-.997h-.191l-.001-5.391c-.014-.167.006-.455.1-.55l.292-.322c.41-.429 1.737-1.31 2.948-1.397l.334-.02c.729 0 1.109.117 1.269.391.258.437.29 1.232.29 1.878v5.41h-.114c-1.373 0-1.52.774-1.52 1.106 0 .37.185.987 1.423.987h2.217c.429 0 .741-.033.987-.104.407-.13.647-.473.647-.916.007-.375-.174-1.003-1.459-1.063zm14.053-3.451c.201-.039.39-.105.639-.226.253-.168.552-.514.552-1.196 0-.318-.072-.78-.221-1.408-.155-.655-.502-1.306-1.035-1.935a5.436 5.436 0 0 0-1.846-1.402c-.69-.316-1.478-.476-2.338-.476-.286 0-.573.015-.862.048-.287.039-.69.141-1.233.311-.589.185-1.092.585-1.711 1.17a5.705 5.705 0 0 0-1.411 2.051 6.826 6.826 0 0 0-.45 2.504c0 .852.128 1.616.379 2.264a6.131 6.131 0 0 0 1.103 2.026 5.414 5.414 0 0 0 1.914 1.48 5.745 5.745 0 0 0 2.437.528l.424-.012a6.89 6.89 0 0 0 .857-.102c.411-.063.869-.217 1.351-.453a6.856 6.856 0 0 0 1.473-.819c.537-.386.858-.768 1.008-1.243l.032-.307c0-.448-.253-.794-.788-.915-.305 0-.583.072-.867.236l-.651.47c-.934.7-1.907 1.056-2.895 1.056a3.57 3.57 0 0 1-1.805-.475c-.54-.308-.972-.781-1.286-1.414a4.841 4.841 0 0 1-.464-1.707h6.895c.324-.001.59-.02.799-.054zM98.72 25.2c.106-.36.208-.701.382-.992.348-.495.76-.878 1.217-1.137.46-.257.967-.384 1.559-.384.612 0 1.156.13 1.617.387a3.16 3.16 0 0 1 1.144 1.09c.159.247.276.516.389.794.057.141.064.216.083.241l-6.391.001zm37.365 3.926c-.305 0-.583.074-.866.237l-.651.469c-.933.701-1.906 1.056-2.895 1.056a3.566 3.566 0 0 1-1.806-.475c-.539-.308-.971-.781-1.285-1.414a4.836 4.836 0 0 1-.464-1.706h6.894c.323 0 .59-.017.797-.054.202-.039.391-.104.641-.225.252-.168.551-.516.551-1.196 0-.318-.071-.78-.221-1.407-.155-.655-.502-1.307-1.035-1.935a5.449 5.449 0 0 0-1.846-1.403c-.691-.316-1.479-.476-2.34-.476-.285 0-.571.014-.861.048-.287.04-.689.142-1.233.312-.589.184-1.092.584-1.712 1.169a5.703 5.703 0 0 0-1.41 2.05c-.3.762-.45 1.604-.45 2.503 0 .852.128 1.616.379 2.265a6.15 6.15 0 0 0 1.103 2.026 5.427 5.427 0 0 0 1.915 1.48 5.746 5.746 0 0 0 2.437.529l.426-.013c.19-.005.474-.039.856-.103.411-.063.868-.217 1.351-.453a6.809 6.809 0 0 0 1.473-.818c.536-.386.857-.768 1.01-1.243l.031-.306c-.002-.45-.255-.795-.789-.917zm-7.345-4.918c.347-.495.758-.878 1.217-1.137.459-.257.967-.384 1.559-.384.612 0 1.156.13 1.617.387a3.16 3.16 0 0 1 1.144 1.09c.157.247.276.516.389.794.058.141.064.216.083.241h-6.39c.105-.359.206-.698.381-.991zm-6.765 6.482v-5.036l-.075-1.708c-.304-1.93-1.509-2.95-3.482-2.95-1.48 0-2.653.379-3.849 1.256v-.065c0-.434-.082-.77-.312-1.111-.216-.228-.561-.329-1.11-.329l-1.263.073c-.254 0-.501.086-.71.246a.973.973 0 0 0-.415.784.85.85 0 0 0 .194.653c.243.293.67.439 1.27.439.111 0 .192.021.236.205v7.535h-.188c-.816 0-1.032.261-1.201.907v.238c0 .274.113.526.282.653.142.139.329.229.646.295l3.035-.006.525-.162c.147-.09.269-.212.415-.468l.096-.461c0-.729-.357-.998-1.315-.998h-.191l-.001-5.391c-.014-.167.007-.456.097-.55l.294-.32c.409-.43 1.737-1.311 2.95-1.398l.334-.02c.729 0 1.109.116 1.27.391.256.433.288 1.231.288 1.878v5.409h-.113c-1.371 0-1.52.775-1.52 1.107 0 .37.187.987 1.425.987h2.217c.43 0 .741-.034.985-.104.407-.128.648-.471.648-.916.004-.375-.176-1.003-1.462-1.063z"/><path fill="none" d="M0 0h138v34H0z"/></svg><svg width="20" height="20" viewBox="0 0 20 20" id="menu" x="20" y="88" xmlns="http://www.w3.org/2000/svg"><g fill="#6A6C5F"><path d="M1.97 3.871h16v1h-16zM1.97 8.871h16v1h-16zM1.97 13.871h16v1h-16z"/></g><path fill="none" d="M0 0h20v20H0z"/></svg><svg width="20" height="20" viewBox="0 0 20 20" id="search" x="40" y="88" xmlns="http://www.w3.org/2000/svg"><path fill="#6A6C5F" d="M12.043 1.004c-3.782 0-6.859 3.079-6.859 6.861 0 1.739.655 3.325 1.726 4.534l-5.812 5.813.785.785 5.819-5.822a6.824 6.824 0 0 0 4.339 1.555 6.87 6.87 0 0 0 6.861-6.862 6.867 6.867 0 0 0-6.859-6.864zm0 12.611a5.755 5.755 0 0 1-5.75-5.75 5.756 5.756 0 0 1 5.75-5.75c3.173 0 5.75 2.58 5.75 5.75s-2.579 5.75-5.75 5.75z"/><path fill="none" d="M0 0h20v20H0z"/></svg><svg width="20" height="20" viewBox="0 0 20 20" id="user" x="60" y="88" xmlns="http://www.w3.org/2000/svg"><path fill="#6A6C5F" d="M10.076 19.341h-.079c-.413-.016-2.086-.012-4.239-.244-3.53-.381-3.936-2.168-3.948-2.92-.021-1.515 1.035-2.352 2.117-3.078 1.019-.685 2.263-1.226 2.794-1.457l.2-.088c.342-.158.516-.254.554-.465.038-.217-.038-.343-.388-.785l-.136-.177c-.44-.567-1.047-1.81-1.071-1.862-.545-1.122-1.122-4.632.74-6.269C8.162.642 9.697.642 10.002.663c.305-.021 1.84-.021 3.383 1.333 1.86 1.635 1.284 5.146.741 6.269-.026.053-.633 1.295-1.071 1.862l-.136.173c-.354.444-.43.57-.393.789.038.211.215.307.495.438l.265.115c.529.23 1.772.771 2.789 1.453 1.082.729 2.139 1.563 2.115 3.078-.011.752-.416 2.541-3.943 2.922a41.29 41.29 0 0 1-4.171.246zm-.144-17.68c-.423 0-1.519.092-2.651 1.086-1.372 1.205-.974 4.107-.501 5.08.16.332.649 1.284.962 1.688l.133.169c.363.463.707.898.585 1.578-.133.738-.733 1.021-1.057 1.17l-.282.125c-.507.224-1.692.736-2.635 1.369-1.121.754-1.689 1.307-1.676 2.235.016 1.022 1.129 1.729 3.055 1.938 2.104.229 3.752.238 4.063.238 0 0 2.107-.013 4.211-.238 1.927-.209 3.039-.916 3.054-1.938.014-.93-.554-1.481-1.675-2.233-.938-.631-2.124-1.146-2.631-1.367l-.228-.102c-.384-.178-.98-.457-1.116-1.195-.123-.683.225-1.12.591-1.584l.129-.165c.313-.401.801-1.354.963-1.688.471-.975.869-3.876-.502-5.079-1.15-1.01-2.263-1.089-2.577-1.089l-.051.005-.145-.002-.019-.001z"/><path fill="none" d="M0 0h20v20H0z"/></svg></svg>