<?xml version="1.0" encoding="utf-8"?><!DOCTYPE svg PUBLIC "-//W3C//DTD SVG 1.1//EN" "http://www.w3.org/Graphics/SVG/1.1/DTD/svg11.dtd"><svg width="213" height="187" viewBox="0 0 213 187" xmlns="http://www.w3.org/2000/svg" xmlns:xlink="http://www.w3.org/1999/xlink"><svg width="45.75" height="90.049" viewBox="0 0 45.75 90.049" id="carousel-control-next" xmlns="http://www.w3.org/2000/svg"><g fill-rule="evenodd" clip-rule="evenodd" fill="#696C5F"><path d="M44.541 44.379l-.707.707-42-42 .707-.707 42 42z"/><path d="M2.541 86.44l-.707-.707 42-42 .707.707-42 42z"/></g></svg><svg width="45.75" height="90.049" viewBox="0 0 45.75 90.049" id="carousel-control-prev" x="45.75" xmlns="http://www.w3.org/2000/svg"><g fill-rule="evenodd" clip-rule="evenodd" fill="#696C5F"><path d="M43.834 2.379l.707.707-42 42-.707-.707 42-42z"/><path d="M1.834 44.44l.707-.707 42 42-.707.707-42-42z"/></g></svg><svg width="20" height="20" viewBox="-287.5 430.5 20 20" id="cart" x="24.095" y="162.331" xmlns="http://www.w3.org/2000/svg"><path fill="#696B5E" d="M-285.5 434.566v14.913h16v-14.913h-16zm15 13.934h-14v-13.017h14V448.5zm-11.5-8.559a1 1 0 1 0-.002-2.002 1 1 0 0 0 .002 2.002zm9 0a1 1 0 1 0 .001-1.999 1 1 0 0 0-.001 1.999z"/><path fill="#696B5E" d="M-273.5 435.5h-1c0-1.654-1.346-3-3-3s-3 1.346-3 3h-1c0-2.206 1.794-4 4-4s4 1.794 4 4z"/><path fill="none" d="M-287.5 430.5h20v20h-20z"/></svg><svg width="20" height="20" viewBox="0 0 20 20" id="help" x="144.576" y="138.237" xmlns="http://www.w3.org/2000/svg"><path fill="#696C5F" d="M10 19.5C4.762 19.5.5 15.238.5 10S4.762.5 10 .5c5.239 0 9.5 4.262 9.5 9.5s-4.261 9.5-9.5 9.5zm0-18c-4.687 0-8.5 3.813-8.5 8.5 0 4.688 3.813 8.5 8.5 8.5 4.688 0 8.5-3.813 8.5-8.5 0-4.687-3.812-8.5-8.5-8.5z"/><path fill="none" d="M0 0h20v20H0z"/><path fill="#696C5F" d="M12.738 7.579c0 .273-.042.519-.127.735s-.196.41-.335.581c-.141.171-.295.326-.467.465s-.344.277-.518.414c-.15.119-.298.242-.441.369a2.58 2.58 0 0 0-.381.417 1.89 1.89 0 0 0-.363 1.135v.109h-.937a4.869 4.869 0 0 1-.014-.301c0-.31.045-.59.137-.841s.215-.472.373-.663.328-.36.513-.506.366-.287.543-.424c.123-.096.239-.194.349-.294s.206-.208.29-.321c.085-.114.15-.238.199-.373a1.37 1.37 0 0 0 .071-.455c0-.201-.042-.38-.126-.54a1.16 1.16 0 0 0-.355-.403c-.153-.109-.335-.194-.547-.253s-.448-.089-.708-.089c-.342 0-.678.043-1.008.13s-.626.19-.886.308v-.902c.246-.132.543-.239.892-.321s.698-.123 1.049-.123c.433 0 .821.051 1.166.154.344.103.636.249.877.438.24.189.426.415.557.677s.197.553.197.877zm-3.76 7.171v-1.333h1.06v1.333h-1.06z"/></svg><svg width="20" height="20" viewBox="0 0 20 20" id="history" x="120.48" y="114.143" xmlns="http://www.w3.org/2000/svg"><path fill="#6A6C5F" d="M10.5 5.5h-1v5h5v-1h-4v-4z"/><path fill="#6A6C5F" d="M10 19.5C4.762 19.5.5 15.238.5 10S4.762.5 10 .5s9.5 4.262 9.5 9.5-4.262 9.5-9.5 9.5zm0-18c-4.687 0-8.5 3.813-8.5 8.5 0 4.687 3.813 8.5 8.5 8.5 4.687 0 8.5-3.813 8.5-8.5 0-4.687-3.813-8.5-8.5-8.5z"/><g><path fill="none" d="M0 0h20v20H0z"/></g></svg><svg width="20" height="20" viewBox="0 0 20 20" id="home" x="96.384" y="90.049" xmlns="http://www.w3.org/2000/svg"><path fill="none" d="M0 0h20v20H0z"/><path fill="none" stroke="#696C5F" stroke-miterlimit="10" d="M17.971 18V7L10 3.333 1.97 7v11"/></svg><svg width="24.095" height="24.093" viewBox="11.087 11.256 24.095 24.093" id="item-b-acc-goods" y="162.331" xmlns="http://www.w3.org/2000/svg"><path fill="none" stroke="#696B5E" stroke-linejoin="round" stroke-miterlimit="10" d="M26.435 31.276c3.713 0 3.713-4.497 3.713-4.497v-5.966c0-1.858-.654-3.459-2.65-4.747-1.713-1.103-3.061-.8-3.428-.172-.306.528-.404 1.582.681 2.173 1.083.594 2.025.781 2.025 1.807 0 1.022-1.012 1.614-3.643 1.614-2.628 0-3.64-.592-3.64-1.614 0-1.025.941-1.213 2.025-1.807 1.085-.59.986-1.644.68-2.173-.365-.626-1.713-.93-3.426.172-1.998 1.289-2.653 2.889-2.653 4.747v5.966s0 4.497 3.712 4.497h6.604z"/><path fill="none" d="M11.087 11.256h24.095v24.093H11.087z"/></svg><svg width="24.094" height="24.094" viewBox="11.255 11.255 24.094 24.094" id="item-b-acc-goods-tights-socks" x="188.75900000000001" xmlns="http://www.w3.org/2000/svg"><path fill="none" stroke="#696B5E" stroke-linejoin="round" stroke-miterlimit="10" d="M31.818 23.415a.246.246 0 0 1-.247.248h-5.803a.245.245 0 0 1-.246-.248V21.18c0-.136.107-.248.246-.248h5.803c.137 0 .247.111.247.248v2.235z"/><path fill="none" stroke="#696B5E" stroke-linejoin="round" stroke-miterlimit="10" d="M26.217 23.662s.312 1.979-.617 2.675c-.888.666-2.476.852-2.013 2.707.465 1.854 5.154 1.852 7.41-.174 1.377-1.237-.063-2.845.247-5.208"/><g><path fill="none" stroke="#696B5E" stroke-linejoin="round" stroke-miterlimit="10" d="M23.101 18.674a.247.247 0 0 1-.248.247H17.05a.246.246 0 0 1-.248-.247V16.44c0-.137.11-.249.248-.249h5.804c.137 0 .248.112.248.249l-.001 2.234z"/><path fill="none" stroke="#696B5E" stroke-linejoin="round" stroke-miterlimit="10" d="M17.498 18.921s.311 1.979-.619 2.677c-.886.664-2.476.853-2.011 2.706.465 1.855 5.153 1.853 7.409-.175 1.377-1.236-.063-2.842.248-5.208"/></g><path fill="none" d="M11.255 11.255h24.094v24.094H11.255z"/></svg><svg width="24.094" height="24.093" viewBox="11.255 11.256 24.094 24.093" id="item-b-bottoms" x="188.75900000000001" y="96.376" xmlns="http://www.w3.org/2000/svg"><g fill="none" stroke="#696B5E" stroke-linejoin="round" stroke-miterlimit="10"><path d="M23.302 28.576c7.762 0 7.489-5.311 7.489-5.311V18.91c0-1.227-1.36-.817-1.36-.817H17.175s-1.36-.409-1.36.817v4.355s-.272 5.311 7.487 5.311z"/><path d="M15.814 22.587s2.451-.272 3.949 1.5c1.498 1.77 1.225 4.492 1.225 4.492M30.791 22.587s-2.451-.272-3.949 1.5c-1.496 1.77-1.225 4.492-1.225 4.492"/></g><path fill="none" d="M11.255 11.256h24.094v24.093H11.255z"/></svg><svg width="24.094" height="24.094" viewBox="11.067 11.255 24.094 24.094" id="item-b-bottoms-leggins" x="188.75900000000001" y="72.28200000000001" xmlns="http://www.w3.org/2000/svg"><path fill="none" stroke="#696B5E" stroke-linejoin="round" stroke-miterlimit="10" d="M17.4 14.713l-.583 17.179h3.239s1.75-8.368 1.986-9.606c.282-1.492.539-2.379 1.069-2.379.535 0 .788.887 1.073 2.379.235 1.238 1.985 9.606 1.985 9.606h3.239l-.583-17.179H17.4z"/><path fill="none" d="M11.067 11.255h24.094v24.094H11.067z"/></svg><svg width="24.094" height="24.094" viewBox="11.068 11.255 24.094 24.094" id="item-b-boys" x="188.75900000000001" y="48.188" xmlns="http://www.w3.org/2000/svg"><path fill="none" stroke="#696B5E" stroke-linejoin="round" stroke-miterlimit="10" d="M23.112 31.864h7.271v-7.795s-1.021-1.277-1.784-3.573c-.767-2.297 0-5.757 0-5.757h-2.042c0 3.319-.893 4.735-3.444 4.735-2.55 0-3.44-1.417-3.44-4.735h-2.042s.768 3.459 0 5.757c-.767 2.296-1.784 3.573-1.784 3.573v7.795h7.265z"/><path fill="none" d="M11.068 11.255h24.094v24.094H11.068z"/></svg><svg width="24.094" height="24.094" viewBox="11.138 11.756 24.094 24.094" id="item-b-dress" x="188.75900000000001" y="24.094" xmlns="http://www.w3.org/2000/svg"><path fill="none" stroke="#696B5E" stroke-linejoin="round" stroke-miterlimit="10" d="M28.48 14.759h-2.588s.698 4.902-2.707 4.902-2.706-4.902-2.706-4.902h-2.59s-2.598 15.694-2.598 17.329c0 0 4.481.76 7.896.76s7.892-.76 7.892-.76c-.002-1.638-2.599-17.329-2.599-17.329z"/><path fill="none" d="M11.138 11.756h24.094V35.85H11.138z"/></svg><svg width="24.971" height="24.094" viewBox="10.817 11.255 24.971 24.094" id="item-b-outer" x="91.5" xmlns="http://www.w3.org/2000/svg"><path fill="none" stroke="#696B5E" stroke-linejoin="round" stroke-miterlimit="10" d="M17.46 17.737c-1.016.798-1.215.999-1.941 2.161l-4.201 6.928 2.866 2.259 3.485-4.924-1.495 7.208h14.258l-1.494-7.208 3.484 4.924 2.866-2.259-4.2-6.928c-.571-.913-1.104-1.647-1.941-2.161"/><g fill="none" stroke="#696B5E" stroke-linejoin="round" stroke-miterlimit="10"><path d="M23.302 18.952l-2.322-2.681s-1.68-2.044-3.129-.39c-.813.925-.911 1.493-.911 1.493s1.567 1.526 6.362 1.578zM23.302 18.952l2.325-2.681s1.68-2.044 3.13-.39c.812.925.91 1.493.91 1.493s-1.57 1.526-6.365 1.578z"/></g><path fill="none" d="M11.255 11.255h24.094v24.094H11.255z"/></svg><svg width="24.095" height="24.095" viewBox="11.066 11.255 24.095 24.095" id="item-b-rompers" x="164.663" y="120.47" xmlns="http://www.w3.org/2000/svg"><path fill="none" stroke="#696B5E" stroke-linejoin="round" stroke-miterlimit="10" d="M31.486 18.982v-4.014l-5.503-2.294s-.345 1.72-2.871 1.72c-2.521 0-2.865-1.72-2.865-1.72l-5.506 2.294v4.014h3.098l-.769 11.997s-1.962.979-1.962 1.682c0 .699.526 1.27 1.178 1.27h3.094c.647 0 1.175-.568 1.176-1.27h.019s.438-2.16.819-3.359c.455-1.449 1.206-1.584 1.723-1.584.52 0 1.27.133 1.726 1.584.382 1.199.82 3.359.82 3.359h.017c0 .699.526 1.27 1.175 1.27h3.096c.648 0 1.176-.568 1.176-1.27 0-.702-1.958-1.682-1.958-1.682l-.774-11.999 3.091.002z"/><path fill="none" d="M11.066 11.255h24.095V35.35H11.066z"/></svg><svg width="24.094" height="24.094" viewBox="11.068 11.255 24.094 24.094" id="item-b-roomwear" x="188.75900000000001" y="144.562" xmlns="http://www.w3.org/2000/svg"><path fill="none" stroke="#696B5E" stroke-linejoin="round" stroke-miterlimit="10" d="M23.113 32.562h1.88c.5-3.004 2.688-2.878 2.688-2.878s1.44-1.877 1.44-3.754c0-1.876-.25-5.004-.25-5.004h3.378v-4.379l-6.005-2.504s-.377 1.877-3.132 1.877c-2.751 0-3.127-1.877-3.127-1.877l-6.005 2.504v4.379h3.377s-.25 3.128-.25 5.004c0 1.877 1.44 3.754 1.44 3.754s2.188-.125 2.688 2.878h1.878z"/><path fill="none" d="M11.068 11.255h24.094v24.094H11.068z"/></svg><svg width="24.095" height="24.094" viewBox="11.256 11.255 24.095 24.094" id="item-b-shoes" x="164.663" y="96.376" xmlns="http://www.w3.org/2000/svg"><g fill="none" stroke="#696B5E" stroke-linejoin="round" stroke-miterlimit="10"><path d="M22.258 24.681c0 3.118-2.471 4.047-3.861 4.047-1.392 0-3.862-.929-3.862-4.047 0-3.119.688-6.805 3.862-6.805s3.861 3.686 3.861 6.805z"/><path d="M20.625 23.574c0 1.8-1.427 2.336-2.229 2.336-.805 0-2.229-.536-2.229-2.336 0-1.802.396-3.929 2.229-3.929s2.229 2.13 2.229 3.929z"/><g><path d="M32.071 24.681c0 3.118-2.472 4.047-3.862 4.047-1.393 0-3.861-.929-3.861-4.047 0-3.119.687-6.805 3.861-6.805 3.174 0 3.862 3.686 3.862 6.805z"/><path d="M30.437 23.574c0 1.8-1.427 2.336-2.229 2.336-.804 0-2.229-.536-2.229-2.336 0-1.802.396-3.929 2.229-3.929 1.833.002 2.229 2.13 2.229 3.929z"/></g></g><path fill="none" d="M11.256 11.255h24.095v24.094H11.256z"/></svg><svg width="24.094" height="24.093" viewBox="11.065 11.256 24.094 24.093" id="item-b-swimwear" x="188.75900000000001" y="120.46900000000001" xmlns="http://www.w3.org/2000/svg"><path fill="none" stroke="#696B5E" stroke-linejoin="round" stroke-miterlimit="10" d="M28.414 18.089c-.74-1.84-.137-4.613-.137-4.613h-1.921c0 2.66-.842 3.795-3.245 3.795-2.4 0-3.24-1.137-3.24-3.795h-1.922s.604 2.773-.135 4.613c-.741 1.841-1.547 2.453-1.547 2.453v9.635s1.851.271 3.713 1.518c1.74 1.166 1.947 1.436 1.947 1.436H24.296s.274-.33 1.948-1.436c1.872-1.234 3.712-1.518 3.712-1.518v-9.635c.005 0-.803-.613-1.542-2.453z"/><path fill="none" d="M11.065 11.256h24.094v24.093H11.065z"/></svg><svg width="24.095" height="24.094" viewBox="11.255 11.255 24.095 24.094" id="item-b-tops" x="164.663" y="72.28200000000001" xmlns="http://www.w3.org/2000/svg"><g fill="none" stroke="#696B5E" stroke-linejoin="round" stroke-miterlimit="10"><path d="M15.998 30.742c0-1.895 1.207-8.59 1.207-8.59-2.448-.056-3.371-1.163-3.371-1.163l-.159-3.484c1.459-2.388 5.56-2.515 5.56-2.515s1.033 1.887 4.065 1.887c3.035 0 4.069-1.887 4.069-1.887s4.101.127 5.56 2.515l-.158 3.484s-.697 1.163-3.37 1.163c0 0 1.207 6.694 1.207 8.59 0 0-4.146.874-7.303.874-3.16 0-7.307-.874-7.307-.874z"/><path d="M19.236 14.989s-1.723 2.571.909 3.6c2.631 1.027 3.156-1.715 3.156-1.715"/><path d="M27.369 14.989s1.722 2.571-.909 3.6c-2.632 1.027-3.16-1.715-3.16-1.715"/></g><path fill="none" d="M11.255 11.255H35.35v24.094H11.255z"/></svg><svg width="24.096" height="24.094" viewBox="0 0 24.096 24.094" id="item-k-acc-goods" x="140.567" xmlns="http://www.w3.org/2000/svg"><path fill="none" d="M11.255 11.255h24.096V35.35H11.255z"/><path fill="none" d="M0 0h24.096v24.094H0z"/><g fill="none" stroke="#696A5E" stroke-width=".8" stroke-linejoin="round" stroke-miterlimit="10"><path d="M7.128 6.431s-2.344-1.137-3.401-.843c-.407.113-.413.584-.413.584s-.119.933.402 2.737c.451 1.823 1.021 2.57 1.021 2.57s.24.406.649.3c1.063-.274 2.524-2.43 2.524-2.43M9.347 5.812s1.461-2.156 2.524-2.43c.408-.105.649.3.649.3s.568.748 1.02 2.57c.521 1.804.402 2.737.402 2.737s-.005.471-.412.585c-1.058.294-3.401-.843-3.401-.843"/><path d="M9.956 8.849c.207-.292-.083-1.02-.309-1.861-.225-.84-.533-1.279-.533-1.279s-.059-.222-.988.027c-.928.25-.869.471-.869.471s-.046.533.178 1.374c.225.84.338 1.616.664 1.766.324.15 1.651-.206 1.857-.498zM7.618 8.32s-.657.508-1.782.904M7.404 7.517s-.823-.112-1.996.107"/><g><path d="M9.858 7.72s.823.111 1.995-.108M9.643 6.916s.657-.508 1.783-.904"/></g><g><path d="M14.736 14.788s-1.461-2.157-2.524-2.43c-.408-.105-.649.3-.649.3s-.569.747-1.021 2.571c-.52 1.803-.4 2.735-.4 2.735s.006.472.412.585c1.058.294 3.402-.844 3.402-.844M16.967 15.362s2.345-1.137 3.402-.843c.406.114.412.585.412.585s.119.933-.401 2.736c-.451 1.822-1.021 2.57-1.021 2.57s-.241.406-.649.301c-1.063-.274-2.524-2.431-2.524-2.431"/><path d="M15.976 18.296c.325-.15.438-.926.663-1.766s.179-1.374.179-1.374.059-.222-.869-.47c-.93-.249-.988-.027-.988-.027s-.308.439-.533 1.279c-.225.84-.515 1.568-.309 1.86.207.293 1.533.648 1.857.498zM14.217 16.669s-.822.111-1.995-.107M14.432 15.866s-.657-.508-1.782-.904"/><g><path d="M16.457 17.27s.656.508 1.781.904M16.672 16.466s.822-.111 1.995.108"/></g></g></g></svg><svg width="24.096" height="24.094" viewBox="0 0 24.096 24.094" id="item-k-acc-goods-tights-socks" x="140.567" y="24.094" xmlns="http://www.w3.org/2000/svg"><path fill="none" d="M11.255 11.255h24.096V35.35H11.255z"/><path fill="none" d="M0 0h24.096v24.094H0z"/><g fill="none" stroke="#696A5E" stroke-linejoin="round" stroke-miterlimit="10"><path d="M20.912 8.276a.251.251 0 0 1-.252.251h-5.277a.25.25 0 0 1-.252-.251V6c0-.14.112-.252.252-.252h5.277c.139 0 .252.112.252.252v2.276z"/><path d="M15.65 8.527V10.9c0 .627.061 1.445-.779 2.298-.347.352-2.112 1.223-2.316 2.83-.16 1.271 1.037 2.317 2.316 2.317.48 0 .926-.146 1.296-.396 0 0 2.411-2.27 3.151-2.937.742-.667.928-.926.965-2.371.037-1.446 0-4.115 0-4.115M13.451 14.372s1.737.605 2.969 3.088"/><path d="M18.592 15.681s-.908-1.234-.223-2.576c.613-1.197 1.925-1.129 1.925-1.129"/><g><path d="M11.554 8.276a.25.25 0 0 1-.252.251H6.025a.251.251 0 0 1-.252-.251V6c0-.14.113-.252.252-.252h5.277c.14 0 .252.112.252.252v2.276z"/><path d="M6.292 8.527V10.9c0 .627.061 1.445-.778 2.298-.347.352-2.113 1.223-2.316 2.83-.161 1.271 1.037 2.317 2.316 2.317.48 0 .925-.146 1.295-.396 0 0 2.411-2.27 3.152-2.937s.927-.926.964-2.371c.037-1.446 0-4.115 0-4.115M4.093 14.372s1.738.605 2.969 3.088"/><path d="M9.235 15.681s-.909-1.234-.223-2.576c.612-1.197 1.925-1.129 1.925-1.129"/></g></g></svg><svg width="24.096" height="24.094" viewBox="0 0 24.096 24.094" id="item-k-ballet" x="140.567" y="48.188" xmlns="http://www.w3.org/2000/svg"><path fill="none" d="M0 0h24.096v24.094H0z"/><path fill="none" stroke="#696A5E" stroke-linejoin="round" stroke-miterlimit="10" d="M6.819 13.028s.116.877-1.5 2.719c-1.196 1.361-2.524 2.633-2.524 2.633s2.646 3.352 9.253 3.352"/><path fill="none" stroke="#696A5E" stroke-linejoin="round" stroke-miterlimit="10" d="M17.276 13.028s-.116.877 1.5 2.719c1.195 1.361 2.524 2.633 2.524 2.633s-2.646 3.352-9.253 3.352"/><path fill="none" stroke="#696A5E" stroke-linejoin="round" stroke-miterlimit="10" d="M15.991 2.362h-1.146c0 2.694-.726 4.278-2.798 4.278S9.25 5.057 9.25 2.362H8.104s.107 3.445-1.963 5.422l.685 5.286h10.442l.686-5.286c-2.07-1.976-1.963-5.422-1.963-5.422z"/></svg><svg width="24.096" height="24.094" viewBox="0 0 24.096 24.094" id="item-k-bottoms" x="140.567" y="72.28200000000001" xmlns="http://www.w3.org/2000/svg"><path fill="none" d="M11.255 11.255h24.096V35.35H11.255z"/><path fill="none" d="M0 0h24.096v24.094H0z"/><g fill="none" stroke="#696A5E" stroke-linejoin="round" stroke-miterlimit="10"><path d="M12.048 8.814c.507 0 .416 1.108.462 2.309.045 1.201.738 10.899.738 10.899h5.173V2.071H5.675v19.951h5.173s.692-9.698.738-10.899c.046-1.2-.046-2.309.462-2.309zM5.675 4.335h12.746M8.861 6.044L5.675 8.629M15.234 6.044l3.187 2.585"/><path d="M11.586 2.071v4.665h1.293"/></g></svg><svg width="24.096" height="24.094" viewBox="0 0 24.096 24.094" id="item-k-bottoms-leggins" x="140.567" y="96.376" xmlns="http://www.w3.org/2000/svg"><path fill="none" d="M11.255 11.255h24.096V35.35H11.255z"/><path fill="none" d="M0 0h24.096v24.094H0z"/><path fill="none" stroke="#696A5E" stroke-linejoin="round" stroke-miterlimit="10" d="M6.335 2.44L5.75 21.653h3.239s1.75-9.404 1.986-10.54c.283-1.367.539-2.181 1.072-2.181s.789.813 1.072 2.181c.236 1.136 1.986 10.54 1.986 10.54h3.238L17.76 2.44H6.335z"/></svg><svg width="24.096" height="24.094" viewBox="0 0 24.096 24.094" id="item-k-boys" y="138.237" xmlns="http://www.w3.org/2000/svg"><path fill="none" d="M0 0h24.096v24.094H0z"/><g fill="none" stroke="#696A5E" stroke-linejoin="round" stroke-miterlimit="10"><path d="M12.048 14.239c.709 0 .58 1.032.58 1.032l.258 3.289h7.996l-.516-13.027H3.729l-.516 13.028h7.997l.258-3.289c0-.001-.129-1.033.58-1.033z"/><path d="M11.403 5.533v6.063h1.611M7.34 9.597l-3.885 2.841M16.755 9.597l3.884 2.841M3.622 8.238h17.017"/></g></svg><svg width="24.096" height="24.094" viewBox="0 0 24.096 24.094" id="item-k-dress" x="24.096" y="138.237" xmlns="http://www.w3.org/2000/svg"><path fill="none" d="M11.255 11.255h24.096V35.35H11.255z"/><path fill="none" d="M0 0h24.096v24.094H0z"/><path fill="none" stroke="#696A5E" stroke-linejoin="round" stroke-miterlimit="10" d="M12.126 12.641H6.873l.394-5.003-1.656.701L4.07 5.746s1.672-2.171 2.941-2.942c1.341-.813 2.383-.98 2.383-.98.21 1.051 1.102 1.962 2.731 1.962s2.522-.911 2.731-1.962c0 0 1.043.167 2.382.98 1.271.771 2.942 2.942 2.942 2.942l-1.54 2.593-1.655-.701.394 5.003h-5.253z"/><g fill="none" stroke="#696A5E" stroke-linejoin="round" stroke-miterlimit="10"><path d="M12.048 22.271h2.341l3.902-.389v-.466h2.991s-1.951-5.359-2.602-6.834-1.43-1.941-1.43-1.941H6.844s-.78.467-1.43 1.941c-.651 1.475-2.602 6.834-2.602 6.834h2.991v.466l3.901.389h2.344zM8.926 12.641l-3.122 8.775M11.136 12.641l-1.43 9.63M15.17 12.641l3.121 8.775M12.959 12.641l1.429 9.63"/></g></svg><svg width="24.096" height="24.094" viewBox="0 0 24.096 24.094" id="item-k-inner-pajamas" x="116.471" y="72.28200000000001" xmlns="http://www.w3.org/2000/svg"><path fill="none" d="M11.255 11.255h24.096V35.35H11.255z"/><path fill="none" d="M0 0h24.096v24.094H0z"/><g fill="none" stroke="#696A5E" stroke-linejoin="round" stroke-miterlimit="10"><path d="M12.048 21.079h6.687v-8.328s-.938-1.174-1.643-3.285c-.703-2.111 0-6.451 0-6.451h-1.877c0 3.049-.821 5.513-3.167 5.513S8.881 6.064 8.881 3.015H7.003s.704 4.34 0 6.451c-.704 2.111-1.642 3.285-1.642 3.285v8.328h6.687z"/><path d="M12.048 10.695l-1.613-.58v1.159zM12.048 10.695l1.612-.58v1.159z"/></g></svg><svg width="24.096" height="24.094" viewBox="0 0 24.096 24.094" id="item-k-outer" x="72.288" y="138.237" xmlns="http://www.w3.org/2000/svg"><path fill="none" d="M11.255 11.255h24.096V35.35H11.255z"/><path fill="none" d="M0 0h24.096v24.094H0z"/><g fill="none" stroke="#696A5E" stroke-linejoin="round" stroke-miterlimit="10"><path d="M12.048 1.601c-5.027 0-5.471 5.311-4.879 6.848.592 1.537 2.661 1.537 4.879 1.537 2.217 0 4.287 0 4.879-1.537s.147-6.848-4.879-6.848z"/><path d="M12.048 3.217c-3.239 0-3.525 3.264-3.144 4.208.382.946 1.714.946 3.144.946 1.428 0 2.763 0 3.143-.946.381-.945.095-4.208-3.143-4.208zM13.448 8.331v1.654M16.927 8.448s2.596.07 3.154 2.655c.56 2.585 2.992 9.712 2.992 9.712l-2.99.629-2.377-7.057s-.51-1.607-.779-1.747l.772 9.853H6.396l.772-9.853c-.269.14-.779 1.747-.779 1.747l-2.377 7.057-2.99-.629s2.433-7.127 2.992-9.712c.559-2.585 3.154-2.655 3.154-2.655M12.538 9.985v12.508"/></g></svg><svg width="24.096" height="24.094" viewBox="0 0 24.096 24.094" id="item-k-shoes" x="96.384" y="138.237" xmlns="http://www.w3.org/2000/svg"><path fill="none" d="M11.255 11.255h24.096V35.35H11.255z"/><path fill="none" d="M0 0h24.096v24.094H0z"/><g fill="none" stroke="#696A5E" stroke-width=".8" stroke-linejoin="round" stroke-miterlimit="10"><path d="M7.483 15.747c-1.05 0-1.785-.277-1.9-2.282-.181-3.115.658-5.325.658-5.325.291-.879.556-1.623 1.241-1.623s.95.743 1.241 1.623c0 0 .839 2.21.66 5.325-.116 2.005-.851 2.282-1.9 2.282z"/><path d="M7.483 18.962c-1.964 0-3.372-1.684-3.556-3.746-.478-5.322.369-10.084 3.551-10.084 2.939 0 4.038 4.762 3.561 10.084-.186 2.062-1.592 3.746-3.556 3.746"/></g><path fill="none" stroke="#696A5E" stroke-width=".8" stroke-linejoin="round" stroke-miterlimit="10" d="M5.569 12.047h3.828M9.383 13.465H5.582"/><g><g fill="none" stroke="#696A5E" stroke-width=".8" stroke-linejoin="round" stroke-miterlimit="10"><path d="M16.629 15.747c-1.05 0-1.785-.277-1.9-2.282-.18-3.115.659-5.325.659-5.325.29-.879.556-1.623 1.241-1.623s.951.743 1.24 1.623c0 0 .84 2.21.66 5.325-.115 2.005-.852 2.282-1.9 2.282z"/><path d="M16.629 18.962c-1.964 0-3.372-1.684-3.557-3.746-.477-5.322.369-10.084 3.552-10.084 2.938 0 4.038 4.762 3.562 10.084-.186 2.062-1.593 3.746-3.557 3.746"/></g><path fill="none" stroke="#696A5E" stroke-width=".8" stroke-linejoin="round" stroke-miterlimit="10" d="M14.715 12.047h3.828M18.529 13.465h-3.801"/></g></svg><svg width="24.096" height="24.094" viewBox="0 0 24.096 24.094" id="item-k-swimwear" x="120.48" y="138.237" xmlns="http://www.w3.org/2000/svg"><path fill="none" d="M0 0h24.096v24.094H0z"/><g fill="none" stroke="#696A5E" stroke-linejoin="round" stroke-miterlimit="10"><path d="M12.048 12.646s-.374-3.183-2.059-4.369c-1.686-1.186-2.934-1.06-3.87-.436-.936.624-.874 3.369 1.498 4.305 2.372.936 4.431.5 4.431.5zM6.743 7.375V.789"/><path d="M12.048 12.646s.375-3.183 2.06-4.369 2.933-1.06 3.868-.436c.937.624.875 3.369-1.497 4.305-2.372.936-4.431.5-4.431.5zM17.352 7.375V.789M12.048 23.305h1.123s-.313-1.311 1.061-2.559c1.374-1.248 4.308-1.686 4.308-1.686v-2.185H5.556v2.185s2.934.438 4.307 1.686c1.373 1.248 1.062 2.559 1.062 2.559h1.123z"/></g></svg><svg width="24.096" height="24.094" viewBox="0 0 24.096 24.094" id="item-k-tops" x="164.663" xmlns="http://www.w3.org/2000/svg"><path fill="none" d="M11.255 11.255h24.096V35.35H11.255z"/><path fill="none" d="M0 0h24.096v24.094H0z"/><path fill="none" stroke="#696A5E" stroke-linejoin="round" stroke-miterlimit="10" d="M12.048 20.437h-6.02l.883-10.118-2.327 1.605-1.766-3.772s1.916-2.487 3.371-3.371c1.535-.932 2.729-1.124 2.729-1.124.24 1.204 1.263 2.248 3.13 2.248s2.889-1.043 3.13-2.248c0 0 1.193.192 2.729 1.124 1.456.884 3.371 3.371 3.371 3.371l-1.766 3.771-2.327-1.605.883 10.118h-6.02z"/></svg><svg width="24.096" height="24.094" viewBox="0 0 24.096 24.094" id="item-l-acc-goods-bag" x="164.663" y="24.094" xmlns="http://www.w3.org/2000/svg"><path fill="none" d="M0 0h24.096v24.094H0z"/><g fill="none" stroke="#696A5E" stroke-linejoin="round" stroke-miterlimit="10"><path d="M18.661 18.598a.837.837 0 0 1-.838.837H6.271a.836.836 0 0 1-.837-.837v-8.035c0-.463.374-.838.837-.838h11.552c.463 0 .838.375.838.838v8.035zM15.003 9.725v-2.11a2.956 2.956 0 0 0-5.911 0v2.11M18.661 16.058H5.434"/><path d="M10.851 14.58h2.392v1.478h-2.392z"/></g></svg><svg width="24.096" height="24.094" viewBox="0 0 24.096 24.094" id="item-l-acc-goods-bracelet-rings" x="164.663" y="48.188" xmlns="http://www.w3.org/2000/svg"><path fill="none" d="M0 0h24.096v24.094H0z"/><g fill="none" stroke="#696A5E" stroke-linejoin="round" stroke-miterlimit="10"><path d="M11.718 9.329h.906l3.048-3.542-1.236-2.39H9.658l-1.234 2.39 3.046 3.542h.907"/><circle cx="12.048" cy="15.013" r="5.684"/><path d="M8.424 5.787h7.248"/></g></svg><svg width="24.096" height="24.094" viewBox="0 0 24.096 24.094" id="item-l-acc-goods-earrings" x="96.384" y="114.143" xmlns="http://www.w3.org/2000/svg"><path fill="none" d="M0 0h24.096v24.094H0z"/><g fill="none" stroke="#696A5E" stroke-linejoin="round" stroke-miterlimit="10"><path d="M10.334 7.205L7.891 4.849s-1.072-.515-1.434.515c-.282.802.79 1.499.79 2.999v2.015"/><circle cx="7.291" cy="11.189" r=".814"/><circle cx="7.291" cy="13.118" r="1.114"/><path d="M7.291 14.232s.985.515 1.543 2.014c.557 1.5.129 3.128-1.543 3.128-1.671 0-2.1-1.628-1.542-3.128.556-1.499 1.542-2.014 1.542-2.014"/><g><path d="M18.577 7.205l-2.442-2.356s-1.071-.515-1.433.515c-.282.802.79 1.499.79 2.999v2.015"/><circle cx="15.535" cy="11.189" r=".814"/><circle cx="15.535" cy="13.118" r="1.114"/><path d="M15.535 14.232s.985.515 1.542 2.014c.557 1.5.129 3.128-1.542 3.128s-2.1-1.628-1.542-3.128c.557-1.499 1.542-2.014 1.542-2.014"/></g></g></svg><svg width="24.096" height="24.094" viewBox="0 0 24.096 24.094" id="item-l-acc-goods-hats-caps" x="72.288" y="114.143" xmlns="http://www.w3.org/2000/svg"><path fill="none" d="M0 0h24.096v24.094H0z"/><g fill="none" stroke="#696A5E" stroke-linejoin="round" stroke-miterlimit="10"><path d="M6.965 11.356s-5.555.63-5.555 2.94c0 1.785 2.165 4.095 10.638 4.095"/><path d="M12.048 14.297c5.178 0 5.083-1.785 5.083-1.785V9.184c0-4.469-10.166-4.813-10.166 0v3.328s-.095 1.785 5.083 1.785"/><path d="M17.131 11.356s5.555.63 5.555 2.94c0 1.785-2.165 4.095-10.638 4.095"/></g></svg><svg width="24.096" height="24.094" viewBox="0 0 24.096 24.094" id="item-l-acc-goods-necklace" x="48.192" y="114.143" xmlns="http://www.w3.org/2000/svg"><path fill="none" d="M0 0h24.096v24.094H0z"/><g fill="none" stroke="#696A5E" stroke-linejoin="round" stroke-miterlimit="10"><ellipse cx="12.048" cy="10.283" rx="6.14" ry="8.12"/><circle cx="12.048" cy="20.167" r="1.763"/></g></svg><svg width="24.096" height="24.094" viewBox="0 0 24.096 24.094" id="item-l-acc-goods-scarf-stole" x="24.096" y="114.143" xmlns="http://www.w3.org/2000/svg"><path fill="none" d="M0 0h24.096v24.094H0z"/><g fill="none" stroke="#696A5E" stroke-linejoin="round" stroke-miterlimit="10"><path d="M2.293 14.58L14.451 2.423a.447.447 0 0 1 .631 0l6.59 6.588a.448.448 0 0 1 0 .632L9.513 21.801M13.152 18.163l-7.221-7.22M12.038 19.277l-7.221-7.22M8.354 20.641l1.448-1.448M7.129 19.416l1.448-1.447M5.903 18.191l1.448-1.448M4.678 16.966l1.448-1.448M3.454 15.74l1.447-1.447"/></g></svg><svg width="24.096" height="24.094" viewBox="0 0 24.096 24.094" id="item-l-acc-goods-tights-socks" y="114.143" xmlns="http://www.w3.org/2000/svg"><path fill="none" d="M0 0h24.096v24.094H0z"/><g fill="none" stroke="#696A5E" stroke-linejoin="round" stroke-miterlimit="10"><path d="M15.956 5.774v5.101c0 .628.061 1.446-.778 2.299-.347.352-2.112 1.223-2.316 2.83-.16 1.27 1.037 2.316 2.316 2.316.48 0 .926-.145 1.296-.395 0 0 2.411-2.27 3.151-2.936.742-.668.928-.928.964-2.373.037-1.446 0-6.843 0-6.843h-4.633zM13.757 14.348s1.737.605 2.97 3.088"/><g><path d="M6.6 5.774v5.101c0 .628.061 1.446-.779 2.299-.347.352-2.112 1.223-2.316 2.83-.16 1.27 1.037 2.316 2.316 2.316.48 0 .926-.145 1.296-.395 0 0 2.41-2.27 3.152-2.936.741-.668.927-.928.964-2.373.037-1.446 0-6.843 0-6.843H6.6zM4.401 14.348s1.737.605 2.969 3.088"/></g></g></svg><svg width="24.096" height="24.094" viewBox="0 0 24.096 24.094" id="item-l-bottoms" x="116.471" y="48.188" xmlns="http://www.w3.org/2000/svg"><path fill="none" d="M0 0h24.096v24.094H0z"/><g fill="none" stroke="#696A5E" stroke-linejoin="round" stroke-miterlimit="10"><path d="M12.048 21.618c8.643 0 9.571-2.486 9.571-2.486s-.278-1.604-1.395-6.155C19.11 8.422 16.88 4.613 16.88 4.613V2.476c-2.602.465-4.832.558-4.832.558s-2.231-.094-4.832-.558v2.138s-2.23 3.809-3.345 8.363c-1.115 4.552-1.395 6.155-1.395 6.155s.929 2.486 9.572 2.486z"/><path d="M7.216 4.613s1.766.701 4.832.701c3.067 0 4.832-.701 4.832-.701"/></g></svg><svg width="24.096" height="24.094" viewBox="0 0 24.096 24.094" id="item-l-dress" x="116.471" y="24.094" xmlns="http://www.w3.org/2000/svg"><path fill="none" d="M0 0h24.096v24.094H0z"/><path fill="none" stroke="#696A5E" stroke-linejoin="round" stroke-miterlimit="10" d="M12.048 22.666h4.095s.788-3.633 1.103-6.428c.315-2.795-.63-4.332-1.26-5.588-.63-1.258-.157-2.655.315-4.053.472-1.396 1.732-3.632 1.732-3.632l-1.891-1.537s-1.103 1.537-4.095 1.537-4.094-1.537-4.094-1.537L6.062 2.965s1.261 2.236 1.733 3.632c.472 1.398.945 2.795.315 4.053-.63 1.257-1.575 2.793-1.26 5.588.314 2.795 1.103 6.428 1.103 6.428h4.095z"/></svg><svg width="24.096" height="24.094" viewBox="0 0 24.096 24.094" id="item-l-outer" x="116.471" xmlns="http://www.w3.org/2000/svg"><path fill="none" d="M0 0h24.096v24.094H0z"/><g fill="none" stroke="#696A5E" stroke-linejoin="round" stroke-miterlimit="10"><path d="M12.048 21.792c5.622 0 5.264-1.143 5.264-1.143v-8.56l1.586 9.702h2.917S20.419 7.585 20.167 6.19c-.254-1.395-3.002-3.89-8.118-3.89-5.242 0-7.864 2.495-8.117 3.89-.255 1.396-1.651 15.602-1.651 15.602h2.917l1.586-9.702v8.56c0-.001-.358 1.142 5.264 1.142"/><path d="M14.86 2.579l-2.812 11.476-1.183 7.737"/><path d="M14.86 2.767s1.881 2.663 1.923 3.214c.043.549-4.735 8.074-4.735 8.074M9.235 2.767S7.354 5.43 7.312 5.981c-.043.549 4.735 8.074 4.735 8.074M9.235 2.767l3.118 10.044"/></g></svg><svg width="24.096" height="24.094" viewBox="0 0 24.096 24.094" id="item-l-shoes-boots" x="72.288" y="90.049" xmlns="http://www.w3.org/2000/svg"><path fill="none" d="M0 0h24.096v24.094H0z"/><path fill="none" stroke="#696A5E" stroke-linejoin="round" stroke-miterlimit="10" d="M5.317 20.47s-.367.647 0 1.125 6.252.416 7.354.123c1.103-.294 2.058-1.052 2.571-1.188l.515 1.281h2.865s.073-.215.294-1.844c.22-1.63-1.029-2.731-1.029-4.421 0-1.69 1.055-12.615 1.055-12.615s-1.172-.853-3.303-.779c-2.13.074-3.083.498-3.083.498s1.071 12.384-.104 14.146c-1.177 1.763-6.857 3.017-7.135 3.674z"/></svg><svg width="24.096" height="24.094" viewBox="0 0 24.096 24.094" id="item-l-shoes-pumps" x="48.192" y="90.049" xmlns="http://www.w3.org/2000/svg"><path fill="none" d="M0 0h24.096v24.094H0z"/><g fill="none" stroke="#696A5E" stroke-linejoin="round" stroke-miterlimit="10"><path d="M20.025 6.515s.659 1.213 1.011 1.933c.351.721 0 2.635 0 2.635s.087.732-.703.85c-.79.115-1.933.248-3.951 1.564-2.02 1.316-5.488 3.688-5.488 3.688s-.659.396-1.844.396c-1.186 0-6.146-.122-6.146-.122s0-1.722 4.039-3.916c0 0 .594.452 2.238.702 1.646.25 2.351-.483 3.02-.967.668-.484 7.824-6.763 7.824-6.763z"/><path d="M17.553 12.809s.408-.06.408.951v3.819h1.273s.132-2.81.308-3.907.79-1.74.79-1.74"/></g></svg><svg width="24.096" height="24.094" viewBox="0 0 24.096 24.094" id="item-l-shoes-rainshoes" x="24.096" y="90.049" xmlns="http://www.w3.org/2000/svg"><path fill="none" d="M0 0h24.096v24.094H0z"/><g fill="none" stroke="#696A5E" stroke-linejoin="round" stroke-miterlimit="10"><path d="M21.781 5.671h-1.514s-.624-.041-.693.709-.25 1.721-.152 3.068c.097 1.346.041 2.248-.028 2.68-.069.43-.583 1.123-1.222 1.248-.64.127-2.611.111-3.166 0-.556-.109-1.069-.775-1-1.555.07-.777.556-2.068.819-2.873.265-.807.569-2.472.569-2.472s-.042-1.083-.681-1.083h-1.472s-.083 2.791-.791 4.109c-.708 1.32-2.361 2.941-3.666 3.963-1.306 1.021-2.082 1.396-3.666 1.48-1.582.082-2.291.041-2.582.611-.292.568-.223.805-.223.805v.709s1.985.971 5.359 1.305c3.375.334 5.055-.666 5.874-.902s3.068-.652 3.068-.652V18.7h4.027s.916-.041 1-.389v-2.449s.18-.777.138-1.736c-.041-.957-.291-1.93-.402-3.539-.11-1.611-.224-2.375.409-4.86M15.383 6.338l4.191.042"/></g></svg><svg width="24.096" height="24.094" viewBox="0 0 24.096 24.094" id="item-l-shoes-sandales" y="90.049" xmlns="http://www.w3.org/2000/svg"><path fill="none" d="M0 0h24.096v24.094H0z"/><g fill="none" stroke="#696A5E" stroke-linejoin="round" stroke-miterlimit="10"><path d="M21.604 11.576s.423 0 .362.362c-.06.361-.362 4.644-.362 4.644s-.029.543-.361.543-7.841.241-10.072.362c-2.231.12-8.896-.03-9.048-.814v-1.87s4.253.693 8.053.482c0 0 3.317-1.688 6.725-2.653 3.407-.965 4.703-1.056 4.703-1.056z"/><path d="M12.726 14.122s-5.145-2.908-5.566-2.999L5.018 12.27s.935-.091 1.719.844c.784.936 1.658 2.21 1.658 2.21M5.018 12.27l-.965.814s-.634.474 0 1.971M7.671 15.312s-1.457-.961-1.301-2.559M15.309 13.132s.958-2.521 1.29-2.944M18.649 10.731s-.321.995-.417 1.539M19.162 9.616s.694-1.116 1.749-1.297l-.513-1.749s-1.658.784-3.105 2.292"/><path d="M19.796 9.948s-1.833-.996-3.842-1.327c-2.009-.332-3.903-.332-3.903-.332l-.002 1.327s2.499.03 4.912.572l2.292.785.543-1.025z"/></g></svg><svg width="24.096" height="24.094" viewBox="0 0 24.096 24.094" id="item-l-shoes-sneakers" x="91.5" y="48.188" xmlns="http://www.w3.org/2000/svg"><path fill="none" d="M0 0h24.096v24.094H0z"/><g fill="none" stroke="#696A5E" stroke-linejoin="round" stroke-miterlimit="10"><path d="M20.631 7.498s-.593 1.236-.396 2.076c.198.841 1.137 2.175 1.137 3.212v3.707s.108.692-.588.692c-.697 0-11.866-.05-13.744 0-1.878.049-3.969-.541-4.299-2.323-.247-1.334 1.482-2.221 3.262-2.519 1.778-.298 3.113-.792 4.25-1.633 1.137-.84 2.618-2.471 2.866-3.213 0 0 0-.592.84-.592s6.672.593 6.672.593z"/><path d="M2.874 13.99s1.251 1.515 3.573 1.515h14.931"/><path d="M6.003 12.343s2.401 1.946 2.619 3.162c.149.838 0 1.663 0 1.663M8.336 11.743l.977 1.588M10.071 10.84l1.121 1.503M11.391 9.722l1.628 1.118M12.414 8.605l1.842.672"/></g></svg><svg width="24.096" height="24.094" viewBox="0 0 24.096 24.094" id="item-l-tops" x="91.5" y="24.094" xmlns="http://www.w3.org/2000/svg"><path fill="none" d="M0 0h24.096v24.094H0z"/><path fill="none" stroke="#696A5E" stroke-linejoin="round" stroke-miterlimit="10" d="M18.009 21.521c0-.584-.117-1.636-.585-3.271-.467-1.637-.817-3.039-.701-4.559.117-1.52.468-4.09.468-4.09l2.104 2.688L22.45 9.25s-3.856-4.324-4.792-5.609c-.935-1.286-2.688-1.052-2.688-1.052s.584 4.675-2.922 4.675-2.922-4.675-2.922-4.675-1.753-.235-2.688 1.052C5.503 4.926 1.646 9.25 1.646 9.25l3.156 3.039 2.104-2.688s.351 2.57.467 4.09-.234 2.922-.701 4.559c-.468 1.636-.584 2.688-.584 3.271h11.921z"/></svg><svg width="24.096" height="24.094" viewBox="0 0 24.096 24.094" id="item-l-umbrella" x="48.192" y="138.237" xmlns="http://www.w3.org/2000/svg"><path fill="none" d="M0 0h24.096v24.094H0z"/><g fill="none" stroke="#696A5E" stroke-linejoin="round" stroke-miterlimit="10"><path d="M22.042 12.207c-.535-.687-1.443-1.139-2.472-1.139-1.064 0-1.998.483-2.525 1.21v-.071c-.536-.687-1.443-1.139-2.472-1.139-1.064 0-1.998.483-2.525 1.21v-.071c-.536-.687-1.442-1.139-2.473-1.139-1.063 0-1.996.483-2.524 1.21v-.071c-.535-.687-1.442-1.139-2.472-1.139-1.063 0-1.998.483-2.525 1.21.586-4.998 4.836-8.877 9.994-8.877s9.407 3.879 9.994 8.877v-.071zM12.048 3.401v-.817"/><path d="M12.048 12.207v6.986s.154 2.316-2.112 2.316-2.166-2.216-2.166-2.216"/></g></svg><svg width="20" height="20" viewBox="0 0 20 20" id="like" x="44.095" y="162.331" xmlns="http://www.w3.org/2000/svg"><path fill="#6A6C5F" d="M10 17.396a.48.48 0 0 1-.186-.041C5.604 15.466.77 11.693 1.008 7.277c.249-4.62 4.417-4.673 4.595-4.673 2.168 0 3.722 1.433 4.396 2.198.672-.766 2.213-2.198 4.342-2.198.232 0 4.399.054 4.65 4.673.238 4.416-4.594 8.189-8.804 10.078a.486.486 0 0 1-.187.041zM5.658 3.509c-.197 0-3.544.043-3.747 3.817-.223 4.153 4.893 7.641 8.089 9.119 3.195-1.479 8.311-4.966 8.086-9.12-.202-3.773-3.549-3.816-3.69-3.816h-.002c-2.427 0-4.007 2.249-4.021 2.273a.453.453 0 0 1-.743 0c-.018-.023-1.612-2.273-3.972-2.273z"/><path fill="none" d="M0 0h20v20H0z"/></svg><svg width="20" height="20" viewBox="0 0 20 20" id="menu" x="64.095" y="162.331" xmlns="http://www.w3.org/2000/svg"><g fill="#6A6C5F"><path d="M1.97 3.871h16v1h-16zM1.97 8.871h16v1h-16zM1.97 13.871h16v1h-16z"/></g><path fill="none" d="M0 0h20v20H0z"/></svg><svg width="20" height="20" viewBox="0 0 20 20" id="search" x="84.095" y="162.331" xmlns="http://www.w3.org/2000/svg"><path fill="#6A6C5F" d="M12.043 1.004c-3.782 0-6.859 3.079-6.859 6.861 0 1.739.655 3.325 1.726 4.534l-5.812 5.813.785.785 5.819-5.822a6.824 6.824 0 0 0 4.339 1.555 6.87 6.87 0 0 0 6.861-6.862 6.867 6.867 0 0 0-6.859-6.864zm0 12.611a5.755 5.755 0 0 1-5.75-5.75 5.756 5.756 0 0 1 5.75-5.75c3.173 0 5.75 2.58 5.75 5.75s-2.579 5.75-5.75 5.75z"/><path fill="none" d="M0 0h20v20H0z"/></svg><svg width="20" height="20" viewBox="0 0 20 20" id="user" x="104.095" y="162.331" xmlns="http://www.w3.org/2000/svg"><path fill="#6A6C5F" d="M10.076 19.341h-.079c-.413-.016-2.086-.012-4.239-.244-3.53-.381-3.936-2.168-3.948-2.92-.021-1.515 1.035-2.352 2.117-3.078 1.019-.685 2.263-1.226 2.794-1.457l.2-.088c.342-.158.516-.254.554-.465.038-.217-.038-.343-.388-.785l-.136-.177c-.44-.567-1.047-1.81-1.071-1.862-.545-1.122-1.122-4.632.74-6.269C8.162.642 9.697.642 10.002.663c.305-.021 1.84-.021 3.383 1.333 1.86 1.635 1.284 5.146.741 6.269-.026.053-.633 1.295-1.071 1.862l-.136.173c-.354.444-.43.57-.393.789.038.211.215.307.495.438l.265.115c.529.23 1.772.771 2.789 1.453 1.082.729 2.139 1.563 2.115 3.078-.011.752-.416 2.541-3.943 2.922a41.29 41.29 0 0 1-4.171.246zm-.144-17.68c-.423 0-1.519.092-2.651 1.086-1.372 1.205-.974 4.107-.501 5.08.16.332.649 1.284.962 1.688l.133.169c.363.463.707.898.585 1.578-.133.738-.733 1.021-1.057 1.17l-.282.125c-.507.224-1.692.736-2.635 1.369-1.121.754-1.689 1.307-1.676 2.235.016 1.022 1.129 1.729 3.055 1.938 2.104.229 3.752.238 4.063.238 0 0 2.107-.013 4.211-.238 1.927-.209 3.039-.916 3.054-1.938.014-.93-.554-1.481-1.675-2.233-.938-.631-2.124-1.146-2.631-1.367l-.228-.102c-.384-.178-.98-.457-1.116-1.195-.123-.683.225-1.12.591-1.584l.129-.165c.313-.401.801-1.354.963-1.688.471-.975.869-3.876-.502-5.079-1.15-1.01-2.263-1.089-2.577-1.089l-.051.005-.145-.002-.019-.001z"/><path fill="none" d="M0 0h20v20H0z"/></svg></svg>